<?xml version="1.0" encoding="utf-8"?>
<!-- Generator: Adobe Illustrator 22.0.1, SVG Export Plug-In . SVG Version: 6.00 Build 0)  -->
<!DOCTYPE svg PUBLIC "-//W3C//DTD SVG 1.1//EN" "http://www.w3.org/Graphics/SVG/1.1/DTD/svg11.dtd">
<svg version="1.1" id="Layer_1" xmlns="http://www.w3.org/2000/svg" xmlns:xlink="http://www.w3.org/1999/xlink" x="0px" y="0px"
	 viewBox="0 0 32 32" style="enable-background:new 0 0 32 32;" xml:space="preserve">
<style type="text/css">
	.st0{fill:#666666;stroke:#666666;}
</style>

<g id="g3027" transform="matrix(1,0,0,-1,349.28814,1330.9831)">
	<path id="path3029" fill="#aaaaaa" d="M-342.1,1315c0,0.6,0.2,1.2,0.7,1.6l11.6,11.6c0.4,0.4,1,0.7,1.6,0.7
		s1.2-0.2,1.6-0.7l1.4-1.3c0.4-0.5,0.7-1,0.7-1.6c0-0.6-0.2-1.2-0.7-1.6l-8.7-8.7l8.7-8.7c0.4-0.5,0.7-1,0.7-1.6
		c0-0.6-0.2-1.2-0.7-1.6l-1.4-1.3c-0.4-0.5-1-0.7-1.6-0.7s-1.2,0.2-1.6,0.7l-11.6,11.6C-341.8,1313.8-342.1,1314.4-342.1,1315z"/>
</g>
</svg>
