<?xml version="1.0" encoding="utf-8"?>
<!-- Generator: Adobe Illustrator 22.0.1, SVG Export Plug-In . SVG Version: 6.00 Build 0)  -->
<!DOCTYPE svg PUBLIC "-//W3C//DTD SVG 1.1//EN" "http://www.w3.org/Graphics/SVG/1.1/DTD/svg11.dtd">
<svg version="1.1" xmlns="http://www.w3.org/2000/svg" xmlns:xlink="http://www.w3.org/1999/xlink" x="0px" y="0px"
	 viewBox="0 0 1296 3888" style="enable-background:new 0 0 1296 3888;" xml:space="preserve">
<style type="text/css">
	.st0{fill:#E6E7E8;}
	.st1{fill:#4F4F54;}
	.st2{fill:#FFFFFF;}
	.st3{font-family:Oxygen, sans-serif;}
	.st4{font-size:58px;}
	.st5{fill:#2097B5;}
	.st6{fill:none;}
	.st7{fill:none;stroke:#939598;stroke-width:1.8428;stroke-miterlimit:10;}
	.st8{fill:#8DC63F;}
	.st9{font-family:Oxygen, 'Avenir-Light', sans-serif;}
	.st10{font-size:40px;}
	.st11{font-family:Oxygen, 'Avenir-Heavy', sans-serif;}
	.st12{font-family:Oxygen, 'AvenirLTStd-BookOblique', sans-serif;}
	.st13{fill:#58595B;}
	.st14{font-size:50px;}
	.st15{fill:#F5F5F5;}
	.st16{opacity:0.25;}
	.st17{font-family:Oxygen, 'AvenirLTStd-Heavy', sans-serif;}
	.st18{font-family:Oxygen, 'HelveticaNeue-CondensedBold', sans-serif;}
	.st19{font-size:36px;}
	.st20{letter-spacing:3;}
	.st21{fill:#666766;}
	.st22{font-size:26px;}
	.st23{font-size:32px;}
	.st24{font-family:Oxygen, 'AvenirLTStd-HeavyOblique', sans-serif;}
	.st25{font-size:24px;}
	.st26{font-size:28px;}
	.st27{fill:#7ABA43;}
	.st28{font-family:Oxygen, 'AvenirNext-Regular';}
	.st29{font-size:90px;}
	.st30{fill:#CB2128;}
	.st31{fill:#934393;}
	.st32{font-size:30px;}
	.st33{fill:url(#SVGID_1_);}
	.st34{fill:#D1D3D4;}
	.st35{font-family:Oxygen, 'Helvetica', sans-serif;}
	.st36{font-size:12px;}
	.st37{font-family:Oxygen, 'Helvetica-Bold', sans-serif;}
	.st38{font-size:18px;}
	.st39{font-size:11px;}
	.st40{font-size:9.3px;}
	.st41{font-family:Oxygen, 'Helvetica-LightOblique', sans-serif;}
	.st42{font-size:41px;}
	.st43{letter-spacing:-1;}
	.st44{font-family:Oxygen, 'Helvetica-BoldOblique', sans-serif;}
	.st45{font-size:46px;}
	.st46{fill:#BCBEC0;}
	.st47{fill:#0C5568;}
	.st48{font-family:'Georgia';}
	.st49{font-size:16px;}
	.st50{fill:url(#SVGID_2_);}
	.st51{fill:url(#SVGID_3_);}
	.st52{fill:#79B843;}
	.st53{font-size:110px;}
	.st54{letter-spacing:-2;}
	.st55{font-size:23px;}
	.st56{font-size:6px;}
	.st57{fill:url(#SVGID_4_);}
	.st58{fill:#924293;}
	.st59{font-size:43.2px;}
</style>
<g id="locked_template_elements">
	<rect x="-36" y="1715.5" class="st0" width="1368" height="1902.5"/>
	<rect x="-36" y="-36" class="st0" width="1368" height="286"/>
	<g>
		<rect x="-36" y="1497" class="st1" width="1368" height="300"/>
	</g>
	<g>
		<g>
			<text transform="matrix(1 0 0 1 70.8403 1916.7489)" class="st2 st3 st4">Did you know...</text>
		</g>
		<g>
			<text transform="matrix(1 0 0 1 70.8403 1913.1489)" class="st5 st3 st4">Did you know...</text>
		</g>
	</g>
	<rect x="-36" y="3528" class="st5" width="1368" height="180"/>
	<rect y="1542.6" class="st6" width="1296" height="254.4"/>
	<g>
		<line class="st7" x1="428.8" y1="3762" x2="428.8" y2="3822"/>
		<text transform="matrix(1 0 0 1 460.7817 3810.688)"><tspan x="0" y="0" class="st8 st9 st10">http://ux.rd.allscripts.com/</tspan><tspan x="458.4" y="0" class="st8 st11 st10">ux</tspan><tspan x="502" y="0" class="st8 st9 st10">live/ux-facts</tspan></text>
		<g>
			<path class="st1" d="M209.8,3779h-0.1l-7.6,18.1h15L209.8,3779z M209.6,3769.3h0.7l17.3,40.8h-5.1l-3.7-9h-18.4l-3.8,9h-4.9
				L209.6,3769.3z"/>
			<polygon class="st1" points="231.1,3770.9 235.1,3769.8 235.1,3810.2 231.1,3810.2 			"/>
			<polygon class="st1" points="241.5,3770.9 245.5,3769.8 245.5,3810.2 241.5,3810.2 			"/>
			<path class="st1" d="M253.1,3803.8c1.6,2,3.4,3.3,6.2,3.3c2.5,0,5.3-1.1,5.3-3.7c0-2.6-2.6-3.3-5.2-3.8c-4.6-1-8.6-2-8.6-7.1
				c0-4.7,4.6-7.2,9.1-7.2c3.4,0,6.6,1.3,8.3,4.4l-3.4,2.2c-1-1.7-2.8-2.9-5.1-2.9c-2.2,0-4.8,1.1-4.8,3.4c0,2,2.9,2.9,6.1,3.5
				c4.3,0.8,7.9,2.4,7.9,7.3c0,5.5-4.9,7.6-9.7,7.6c-4.1,0-7.1-1.1-9.5-4.5L253.1,3803.8z"/>
			<path class="st1" d="M291.1,3791.9c-1.7-2.1-3.7-3-6.1-3c-5.5,0-8.2,4-8.2,9s3.3,9,8.2,9c2.6,0,4.7-0.9,6.2-3l3,2.9
				c-2.3,2.7-5.7,3.9-9.2,3.9c-7.5,0-12.6-5.3-12.6-12.8c0-7.4,5.1-12.8,12.6-12.8c3.6,0,6.9,1.2,9.3,3.8L291.1,3791.9z"/>
			<path class="st1" d="M299.7,3791.6c0-2.2-0.2-4.2-0.2-5.8h3.8c0,1.3,0.1,2.6,0.1,4h0.1c1.1-2.4,4.1-4.6,8.1-4.6
				c0.5,0,1.1,0.1,1.7,0.3l-0.3,4.1c-0.7-0.2-1.5-0.3-2.2-0.3c-4.9,0-7.1,3.5-7.1,9v11.8h-4V3791.6z"/>
			<path class="st1" d="M318.3,3785.9h4v24.3h-4V3785.9z M320.3,3773.4c1.7,0,3,1.3,3,3c0,1.7-1.2,3-3,3c-1.7,0-3-1.2-3-3
				C317.4,3774.8,318.7,3773.4,320.3,3773.4"/>
			<path class="st1" d="M341,3807c5.2,0,8.6-3.9,8.6-9s-3.4-9-8.6-9c-5.2,0-8.6,3.9-8.6,9S335.7,3807,341,3807 M328.3,3785.9h4v3.5
				h0.1c2.2-2.6,5.2-4.2,8.7-4.2c7.6,0,12.8,5.4,12.8,12.8c0,7.3-5.3,12.8-12.1,12.8c-4.4,0-7.8-2.2-9.3-4.9h-0.1v16.1h-4V3785.9z"
				/>
			<path class="st1" d="M371.6,3789.3h-7.2v12.1c0,3.1,0.1,5.6,3.6,5.6c1.2,0,2.5-0.3,3.6-0.8l0.2,3.7c-1.4,0.6-3.2,0.9-4.7,0.9
				c-5.8,0-6.7-3.1-6.7-8.1v-13.3h-5.1l3.5-3.4h1.7v-5l4.1-4.1v9.1h7.2V3789.3z"/>
			<path class="st1" d="M378,3803.8c1.6,2,3.4,3.3,6.2,3.3c2.5,0,5.3-1.1,5.3-3.7c0-2.6-2.6-3.3-5.2-3.8c-4.6-1-8.6-2-8.6-7.1
				c0-4.7,4.6-7.2,9.1-7.2c3.4,0,6.6,1.3,8.3,4.4l-3.4,2.2c-1-1.7-2.8-2.9-5.1-2.9c-2.2,0-4.8,1.1-4.8,3.4c0,2,2.9,2.9,6.1,3.5
				c4.3,0.8,7.9,2.4,7.9,7.3c0,5.5-4.9,7.6-9.7,7.6c-4.1,0-7.1-1.1-9.4-4.5L378,3803.8z"/>
			<path class="st1" d="M157.9,3780.2c0,2.2-1.9,4.1-4.3,4.1c-2.4,0-4.3-1.8-4.3-4.1c0-2.2,1.9-4.1,4.3-4.1
				C156,3776.1,157.9,3777.9,157.9,3780.2"/>
			<path class="st1" d="M141.9,3793.9c-0.9-1.9-2.8-2.9-4.2-2.2c-1.4,0.7-1.8,2.8-0.8,4.7c0.9,1.9,2.8,2.9,4.2,2.2
				C142.5,3797.9,142.9,3795.8,141.9,3793.9"/>
			<path class="st1" d="M149.8,3788.1c0,2.4-1.8,4.3-4.1,4.3c-2.2,0-4.1-1.9-4.1-4.3c0-2.4,1.8-4.3,4.1-4.3
				C148,3783.7,149.8,3785.7,149.8,3788.1"/>
			<path class="st1" d="M137.2,3799c-1-1.5-2.4-2.3-3.1-1.8c-0.7,0.5-0.5,2.1,0.5,3.5c1,1.5,2.4,2.3,3.1,1.8
				C138.4,3802,138.2,3800.4,137.2,3799"/>
			<path class="st1" d="M165.3,3793.9c0.9-1.9,2.8-2.9,4.2-2.2c1.4,0.7,1.8,2.8,0.8,4.7c-0.9,1.9-2.8,2.9-4.2,2.2
				C164.7,3797.9,164.3,3795.8,165.3,3793.9"/>
			<path class="st1" d="M157.4,3788.1c0,2.4,1.8,4.3,4.1,4.3c2.2,0,4.1-1.9,4.1-4.3c0-2.4-1.8-4.3-4.1-4.3
				C159.2,3783.7,157.4,3785.7,157.4,3788.1"/>
			<path class="st1" d="M170,3799c1-1.5,2.4-2.3,3.1-1.8c0.7,0.5,0.5,2.1-0.5,3.5c-1,1.5-2.4,2.3-3.1,1.8
				C168.8,3802,169,3800.4,170,3799"/>
			<path class="st8" d="M142,3782.3c-0.9,1.9-2.8,2.9-4.2,2.2c-1.4-0.7-1.8-2.8-0.8-4.7c0.9-1.9,2.8-2.9,4.2-2.2
				C142.6,3778.3,142.9,3780.4,142,3782.3"/>
			<path class="st8" d="M132.8,3783c-0.4,1.6-1.2,2.8-1.8,2.7c-0.6-0.1-0.8-1.6-0.5-3.2c0.4-1.6,1.2-2.8,1.8-2.7
				C133,3779.9,133.2,3781.3,132.8,3783"/>
			<path class="st8" d="M129.1,3784.1c-0.2,1.2-0.5,2.2-0.7,2.2c-0.2,0-0.2-1.1,0-2.3c0.2-1.2,0.5-2.2,0.7-2.2
				C129.3,3781.8,129.3,3782.9,129.1,3784.1"/>
			<path class="st8" d="M127.9,3785c-0.1,0.9-0.2,1.7-0.3,1.7c-0.1,0,0-0.8,0.1-1.7c0.1-0.9,0.2-1.7,0.3-1.7
				C128,3783.3,128,3784.1,127.9,3785"/>
			<path class="st8" d="M149.4,3795.8c0-2.2,1.9-4.1,4.3-4.1c2.4,0,4.3,1.8,4.3,4.1c0,2.2-1.9,4.1-4.3,4.1
				C151.3,3799.9,149.4,3798,149.4,3795.8"/>
			<path class="st8" d="M132.9,3793.4c-0.4-1.6-1.2-2.8-1.9-2.6c-0.6,0.2-0.8,1.6-0.4,3.2c0.4,1.6,1.2,2.8,1.8,2.6
				C133.1,3796.4,133.3,3795,132.9,3793.4"/>
			<path class="st8" d="M129.2,3792.2c-0.2-1.2-0.5-2.2-0.7-2.2c-0.2,0-0.2,1.1,0,2.3c0.2,1.2,0.5,2.2,0.7,2.2
				C129.4,3794.5,129.4,3793.5,129.2,3792.2"/>
			<path class="st8" d="M127.9,3791.5c-0.1-1-0.2-1.7-0.3-1.7c-0.1,0,0,0.8,0.1,1.7c0.1,1,0.2,1.7,0.3,1.7
				C128.1,3793.2,128,3792.4,127.9,3791.5"/>
			<path class="st8" d="M136.4,3788.1c0,1.9-0.9,3.5-2,3.5c-1.1,0-2-1.6-2-3.5s0.9-3.5,2-3.5
				C135.5,3784.6,136.4,3786.2,136.4,3788.1"/>
			<path class="st8" d="M130.2,3788.3c0,1.4-0.3,2.6-0.7,2.6c-0.4,0-0.7-1.2-0.7-2.6s0.3-2.6,0.7-2.6
				C129.9,3785.7,130.2,3786.8,130.2,3788.3"/>
			<path class="st8" d="M128.1,3788.3c0,1.1-0.1,2-0.2,2c-0.1,0-0.2-0.9-0.2-2c0-1.1,0.1-2,0.2-2
				C128,3786.4,128.1,3787.3,128.1,3788.3"/>
			<path class="st8" d="M127.5,3788.2c0,0.8,0,1.5-0.1,1.5c0,0-0.1-0.7-0.1-1.5c0-0.8,0-1.5,0.1-1.5
				C127.5,3786.7,127.5,3787.4,127.5,3788.2"/>
			<path class="st8" d="M148,3776.5c-1.9,1-4,0.7-4.7-0.7c-0.7-1.4,0.2-3.3,2.1-4.3c1.9-1,4-0.7,4.7,0.7
				C150.8,3773.5,149.9,3775.5,148,3776.5"/>
			<path class="st8" d="M142.7,3771.7c-1.5,1-3,1.2-3.5,0.5c-0.5-0.7,0.3-2.1,1.8-3.1c1.5-1,3-1.2,3.5-0.5
				C145,3769.3,144.2,3770.7,142.7,3771.7"/>
			<path class="st8" d="M137.2,3777.2c-1,1.5-2.3,2.3-3.1,1.8c-0.7-0.5-0.5-2,0.5-3.5c1-1.5,2.3-2.3,3.1-1.8
				C138.4,3774.1,138.2,3775.7,137.2,3777.2"/>
			<path class="st8" d="M131.3,3779.3c-0.5,1.3-1.1,2.2-1.4,2.1c-0.3-0.1-0.1-1.2,0.4-2.5c0.5-1.3,1.1-2.2,1.4-2.1
				C131.9,3776.9,131.8,3778,131.3,3779.3"/>
			<path class="st8" d="M128.9,3781.1c-0.3,1-0.6,1.8-0.7,1.7c-0.1,0,0.1-0.8,0.4-1.8c0.3-1,0.6-1.8,0.7-1.7
				C129.4,3779.3,129.2,3780.1,128.9,3781.1"/>
			<path class="st8" d="M147.8,3799.5c-1.9-1-4-0.7-4.7,0.7c-0.7,1.4,0.2,3.3,2.1,4.3c1.9,1,4,0.7,4.7-0.7
				C150.6,3802.5,149.6,3800.5,147.8,3799.5"/>
			<path class="st8" d="M131.4,3797c-0.5-1.3-1.1-2.2-1.4-2.1c-0.3,0.1-0.1,1.2,0.4,2.5c0.5,1.3,1.1,2.2,1.4,2.1
				C132,3799.4,131.9,3798.3,131.4,3797"/>
			<path class="st8" d="M129,3795.2c-0.3-1-0.6-1.8-0.7-1.7c-0.1,0,0.1,0.8,0.4,1.8c0.3,1,0.6,1.8,0.7,1.7
				C129.4,3797,129.3,3796.2,129,3795.2"/>
			<path class="st8" d="M135,3774c-0.9,1.2-1.8,1.9-2.1,1.7c-0.3-0.2,0.1-1.4,1-2.5c0.9-1.2,1.8-1.9,2.1-1.7
				C136.3,3771.8,135.8,3772.9,135,3774"/>
			<path class="st8" d="M130.9,3776.9c-0.5,1-1,1.8-1.1,1.8c-0.1-0.1,0.2-0.9,0.7-2c0.5-1,1-1.8,1.1-1.7
				C131.7,3775,131.4,3775.8,130.9,3776.9"/>
			<path class="st8" d="M129,3779c-0.3,0.9-0.5,1.6-0.5,1.6c0,0,0.3-0.7,0.6-1.5c0.3-0.9,0.5-1.6,0.5-1.6
				C129.6,3777.4,129.3,3778.1,129,3779"/>
			<path class="st8" d="M157.1,3768.8c0,1.1-1.6,2-3.5,2c-1.9,0-3.5-0.9-3.5-2c0-1.1,1.6-2,3.5-2
				C155.6,3766.8,157.1,3767.7,157.1,3768.8"/>
			<path class="st8" d="M142.6,3804.4c-1.5-1-3-1.2-3.5-0.5c-0.5,0.7,0.3,2.1,1.8,3.1c1.5,1,3,1.2,3.5,0.5
				C144.8,3806.7,144,3805.4,142.6,3804.4"/>
			<path class="st8" d="M134.9,3802c-0.9-1.2-1.8-1.9-2.1-1.7c-0.3,0.2,0.1,1.4,1,2.5c0.9,1.2,1.8,1.9,2.1,1.7
				C136.2,3804.3,135.8,3803.2,134.9,3802"/>
			<path class="st8" d="M131,3799.4c-0.5-1-1-1.8-1.1-1.8c-0.1,0.1,0.2,0.9,0.7,2s1,1.8,1.1,1.7
				C131.8,3801.3,131.5,3800.4,131,3799.4"/>
			<path class="st8" d="M129.1,3797.4c-0.3-0.9-0.5-1.6-0.5-1.6c0,0,0.3,0.7,0.6,1.5c0.3,0.9,0.5,1.6,0.5,1.6
				C129.7,3798.9,129.4,3798.2,129.1,3797.4"/>
			<path class="st8" d="M150.1,3807.1c0-1.1,1.6-2,3.5-2c1.9,0,3.5,0.9,3.5,2c0,1.1-1.6,2-3.5,2
				C151.7,3809.2,150.1,3808.3,150.1,3807.1"/>
			<path class="st8" d="M151.1,3765.5c0.1,0.6-1,1.4-2.6,1.8c-1.6,0.4-3,0.2-3.2-0.4c-0.1-0.6,1-1.4,2.6-1.8
				C149.5,3764.7,150.9,3764.9,151.1,3765.5"/>
			<path class="st8" d="M139.6,3769.3c-1.1,0.9-2.3,1.3-2.5,1c-0.2-0.3,0.5-1.3,1.6-2.1c1.1-0.9,2.3-1.3,2.5-1
				C141.5,3767.5,140.7,3768.5,139.6,3769.3"/>
			<path class="st8" d="M134.1,3772.3c-0.7,0.9-1.4,1.6-1.6,1.5c-0.1-0.1,0.3-0.9,1.1-1.9c0.7-0.9,1.4-1.6,1.6-1.5
				C135.3,3770.5,134.8,3771.4,134.1,3772.3"/>
			<path class="st8" d="M131,3775.3c-0.5,0.8-0.9,1.5-0.9,1.5c-0.1,0,0.3-0.7,0.7-1.6c0.5-0.8,0.9-1.5,0.9-1.5
				C131.8,3773.8,131.5,3774.5,131,3775.3"/>
			<path class="st8" d="M150.8,3810.4c0.1-0.6-1-1.4-2.6-1.8c-1.6-0.4-3-0.2-3.2,0.4c-0.1,0.6,1,1.4,2.6,1.8
				C149.2,3811.2,150.6,3811,150.8,3810.4"/>
			<path class="st8" d="M139.5,3806.6c-1.1-0.9-2.3-1.3-2.5-1c-0.2,0.3,0.5,1.3,1.6,2.1c1.1,0.9,2.3,1.3,2.5,1
				C141.4,3808.5,140.7,3807.5,139.5,3806.6"/>
			<path class="st8" d="M134,3803.6c-0.7-0.9-1.4-1.6-1.6-1.5c-0.1,0.1,0.4,0.9,1.1,1.9c0.7,0.9,1.4,1.6,1.6,1.5
				C135.2,3805.4,134.8,3804.6,134,3803.6"/>
			<path class="st8" d="M131.2,3801c-0.5-0.8-0.9-1.5-0.9-1.5c-0.1,0,0.3,0.7,0.7,1.6c0.5,0.8,0.9,1.5,0.9,1.5
				C132,3802.5,131.6,3801.8,131.2,3801"/>
			<path class="st8" d="M156.2,3764c0,0.4-1.2,0.7-2.6,0.7c-1.4,0-2.6-0.3-2.6-0.7s1.2-0.7,2.6-0.7
				C155.1,3763.3,156.2,3763.6,156.2,3764"/>
			<path class="st8" d="M146.9,3764.3c0.1,0.3-0.8,0.9-2.1,1.4c-1.3,0.5-2.4,0.7-2.5,0.4c-0.1-0.3,0.8-0.9,2.1-1.4
				C145.7,3764.2,146.8,3764,146.9,3764.3"/>
			<path class="st8" d="M138,3768.4c-0.9,0.7-1.8,1.2-1.9,1.1c-0.1-0.1,0.6-0.8,1.5-1.6c0.9-0.7,1.8-1.2,1.9-1.1
				C139.6,3767,138.9,3767.7,138,3768.4"/>
			<path class="st8" d="M133.7,3771.5c-0.6,0.8-1.1,1.4-1.2,1.3c-0.1,0,0.4-0.7,1-1.5s1.1-1.3,1.2-1.3
				C134.7,3770.1,134.3,3770.8,133.7,3771.5"/>
			<path class="st8" d="M151,3811.9c0-0.4,1.2-0.7,2.6-0.7c1.4,0,2.6,0.3,2.6,0.7s-1.2,0.7-2.6,0.7
				C152.2,3812.6,151,3812.3,151,3811.9"/>
			<path class="st8" d="M146.6,3811.6c0.1-0.3-0.8-1-2.1-1.5c-1.3-0.5-2.4-0.7-2.5-0.4c-0.1,0.3,0.8,1,2.1,1.5
				C145.3,3811.7,146.4,3811.9,146.6,3811.6"/>
			<path class="st8" d="M137.9,3807.5c-0.9-0.7-1.8-1.2-1.9-1.1c-0.1,0.1,0.6,0.8,1.5,1.6c0.9,0.7,1.8,1.2,1.9,1.1
				C139.5,3808.9,138.8,3808.2,137.9,3807.5"/>
			<path class="st8" d="M133.8,3804.5c-0.6-0.8-1.1-1.4-1.2-1.3c-0.1,0,0.4,0.7,1,1.5c0.6,0.8,1.1,1.3,1.2,1.3
				C134.9,3806,134.4,3805.3,133.8,3804.5"/>
			<path class="st8" d="M151.8,3762.9c0,0.2-0.9,0.5-2.2,0.7c-1.2,0.2-2.2,0.2-2.3,0c0-0.2,0.9-0.5,2.2-0.7
				C150.7,3762.7,151.7,3762.7,151.8,3762.9"/>
			<path class="st8" d="M144.1,3764.2c0.1,0.1-0.7,0.6-1.7,1.2c-1,0.5-1.9,0.8-2,0.7c-0.1-0.1,0.7-0.7,1.7-1.2
				C143.2,3764.4,144,3764.1,144.1,3764.2"/>
			<path class="st8" d="M137.1,3768.2c-0.7,0.6-1.4,1.1-1.4,1.1c0,0,0.5-0.6,1.3-1.2c0.7-0.6,1.4-1.1,1.4-1.1
				C138.4,3767,137.8,3767.5,137.1,3768.2"/>
			<path class="st8" d="M151.4,3813c0-0.2-0.9-0.5-2.1-0.7c-1.2-0.2-2.2-0.2-2.3,0c0,0.2,0.9,0.5,2.1,0.7
				C150.3,3813.2,151.4,3813.2,151.4,3813"/>
			<path class="st8" d="M143.8,3811.7c0.1-0.1-0.7-0.7-1.7-1.2c-1-0.5-1.9-0.9-2-0.7c-0.1,0.1,0.7,0.7,1.7,1.2
				C142.9,3811.5,143.8,3811.8,143.8,3811.7"/>
			<path class="st8" d="M137,3807.8c-0.7-0.6-1.4-1.1-1.4-1.1c0,0,0.5,0.6,1.3,1.2c0.7,0.6,1.4,1.1,1.4,1.1
				C138.3,3809,137.8,3808.4,137,3807.8"/>
			<path class="st8" d="M155.6,3762.4c0,0.1-0.9,0.2-2,0.2c-1.1,0-2-0.1-2-0.2c0-0.1,0.9-0.2,2-0.2
				C154.7,3762.2,155.6,3762.3,155.6,3762.4"/>
			<path class="st8" d="M152.3,3762c0,0.1-0.7,0.2-1.7,0.3c-0.9,0.1-1.7,0.1-1.7,0.1c0-0.1,0.7-0.2,1.6-0.3
				C151.5,3762,152.2,3762,152.3,3762"/>
			<path class="st8" d="M148.5,3762.7c0,0.1-0.8,0.4-1.7,0.7c-1,0.3-1.8,0.4-1.8,0.3c0-0.1,0.8-0.4,1.7-0.7
				C147.7,3762.8,148.5,3762.6,148.5,3762.7"/>
			<path class="st8" d="M142.3,3764.6c0,0.1-0.6,0.5-1.4,1c-0.8,0.5-1.5,0.8-1.6,0.7c0-0.1,0.6-0.5,1.4-1
				C141.5,3764.9,142.2,3764.5,142.3,3764.6"/>
			<path class="st8" d="M146.1,3763c0,0-0.7,0.3-1.5,0.6c-0.9,0.3-1.6,0.5-1.6,0.5c0,0,0.7-0.3,1.6-0.6
				C145.4,3763.2,146.1,3762.9,146.1,3763"/>
			<path class="st8" d="M151.7,3813.5c0-0.1,0.9-0.2,2-0.2c1.1,0,2,0.1,2,0.2c0,0.1-0.9,0.2-2,0.2
				C152.6,3813.7,151.7,3813.6,151.7,3813.5"/>
			<path class="st8" d="M151.6,3813.9c0-0.1-0.7-0.2-1.6-0.3c-0.9-0.1-1.7-0.2-1.7-0.1c0,0.1,0.7,0.2,1.6,0.3
				C150.9,3813.9,151.6,3813.9,151.6,3813.9"/>
			<path class="st8" d="M148.1,3813.1c0-0.1-0.8-0.4-1.7-0.7c-1-0.3-1.8-0.4-1.8-0.3c0,0.1,0.7,0.4,1.7,0.7
				C147.2,3813.1,148,3813.2,148.1,3813.1"/>
			<path class="st8" d="M142,3811.3c0-0.1-0.6-0.5-1.4-1c-0.8-0.5-1.5-0.8-1.6-0.7c0,0.1,0.6,0.5,1.4,1
				C141.3,3811,142,3811.3,142,3811.3"/>
			<path class="st8" d="M165.2,3782.3c0.9,1.9,2.8,2.9,4.2,2.2c1.4-0.7,1.8-2.8,0.8-4.7c-0.9-1.9-2.8-2.9-4.2-2.2
				C164.6,3778.3,164.3,3780.4,165.2,3782.3"/>
			<path class="st8" d="M174.4,3783c0.4,1.6,1.2,2.8,1.8,2.7c0.6-0.1,0.8-1.6,0.5-3.2c-0.4-1.6-1.2-2.8-1.8-2.7
				C174.2,3779.9,174,3781.3,174.4,3783"/>
			<path class="st8" d="M178.1,3784.1c0.2,1.2,0.5,2.2,0.7,2.2c0.2,0,0.2-1.1,0-2.3c-0.2-1.2-0.5-2.2-0.7-2.2
				C177.9,3781.8,177.9,3782.9,178.1,3784.1"/>
			<path class="st8" d="M179.3,3785c0.1,0.9,0.2,1.7,0.3,1.7c0.1,0,0-0.8-0.1-1.7c-0.1-0.9-0.2-1.7-0.3-1.7
				C179.2,3783.3,179.2,3784.1,179.3,3785"/>
			<path class="st8" d="M174.3,3793.4c0.4-1.6,1.2-2.8,1.8-2.6c0.6,0.2,0.8,1.6,0.4,3.2c-0.4,1.6-1.2,2.8-1.8,2.6
				C174.1,3796.4,173.9,3795,174.3,3793.4"/>
			<path class="st8" d="M178,3792.2c0.2-1.2,0.5-2.2,0.7-2.2c0.2,0,0.2,1.1,0,2.3c-0.2,1.2-0.5,2.2-0.7,2.2
				C177.8,3794.5,177.8,3793.5,178,3792.2"/>
			<path class="st8" d="M179.3,3791.5c0.1-1,0.2-1.7,0.3-1.7c0.1,0,0,0.8-0.1,1.7c-0.1,1-0.2,1.7-0.3,1.7
				C179.2,3793.2,179.2,3792.4,179.3,3791.5"/>
			<path class="st8" d="M170.8,3788.1c0,1.9,0.9,3.5,2.1,3.5c1.1,0,2-1.6,2-3.5s-0.9-3.5-2-3.5
				C171.7,3784.6,170.8,3786.2,170.8,3788.1"/>
			<path class="st8" d="M177,3788.3c0,1.4,0.3,2.6,0.7,2.6c0.4,0,0.7-1.2,0.7-2.6s-0.3-2.6-0.7-2.6
				C177.3,3785.7,177,3786.8,177,3788.3"/>
			<path class="st8" d="M179.1,3788.3c0,1.1,0.1,2,0.2,2c0.1,0,0.2-0.9,0.2-2c0-1.1-0.1-2-0.2-2
				C179.2,3786.4,179.1,3787.3,179.1,3788.3"/>
			<path class="st8" d="M179.7,3788.2c0,0.8,0,1.5,0.1,1.5s0.1-0.7,0.1-1.5c0-0.8,0-1.5-0.1-1.5S179.7,3787.4,179.7,3788.2"/>
			<path class="st8" d="M159.2,3776.5c1.9,1,4,0.7,4.7-0.7c0.7-1.4-0.2-3.3-2.1-4.3c-1.9-1-4-0.7-4.7,0.7
				C156.4,3773.5,157.3,3775.5,159.2,3776.5"/>
			<path class="st8" d="M164.5,3771.7c1.5,1,3,1.2,3.5,0.5c0.5-0.7-0.3-2.1-1.8-3.1c-1.5-1-3-1.2-3.5-0.5S163,3770.7,164.5,3771.7"
				/>
			<path class="st8" d="M170,3777.2c1,1.5,2.3,2.3,3.1,1.8c0.7-0.5,0.5-2-0.5-3.5c-1-1.5-2.3-2.3-3-1.8
				C168.8,3774.1,169,3775.7,170,3777.2"/>
			<path class="st8" d="M175.9,3779.3c0.5,1.3,1.1,2.2,1.4,2.1c0.3-0.1,0.1-1.2-0.4-2.5c-0.5-1.3-1.1-2.2-1.4-2.1
				C175.3,3776.9,175.4,3778,175.9,3779.3"/>
			<path class="st8" d="M178.3,3781.1c0.3,1,0.6,1.8,0.7,1.7c0.1,0-0.1-0.8-0.4-1.8c-0.3-1-0.6-1.8-0.7-1.7
				C177.8,3779.3,178,3780.1,178.3,3781.1"/>
			<path class="st8" d="M159.4,3799.5c1.9-1,4-0.7,4.7,0.7c0.7,1.4-0.2,3.3-2.1,4.3c-1.9,1-4,0.7-4.7-0.7
				C156.6,3802.5,157.6,3800.5,159.4,3799.5"/>
			<path class="st8" d="M175.8,3797c0.5-1.3,1.1-2.2,1.4-2.1c0.3,0.1,0.1,1.2-0.3,2.5c-0.5,1.3-1.1,2.2-1.4,2.1
				C175.2,3799.4,175.3,3798.3,175.8,3797"/>
			<path class="st8" d="M178.2,3795.2c0.3-1,0.6-1.8,0.7-1.7c0.1,0-0.1,0.8-0.4,1.8c-0.3,1-0.6,1.8-0.7,1.7
				C177.8,3797,177.9,3796.2,178.2,3795.2"/>
			<path class="st8" d="M172.2,3774c0.9,1.2,1.8,1.9,2.1,1.7c0.3-0.2-0.1-1.4-1-2.5c-0.9-1.2-1.8-1.9-2.1-1.7
				C170.9,3771.8,171.4,3772.9,172.2,3774"/>
			<path class="st8" d="M176.3,3776.9c0.5,1,1,1.8,1.1,1.8c0.1-0.1-0.2-0.9-0.7-2s-1-1.8-1.1-1.7
				C175.5,3775,175.8,3775.8,176.3,3776.9"/>
			<path class="st8" d="M178.2,3779c0.3,0.9,0.5,1.6,0.5,1.6c0,0-0.3-0.7-0.6-1.5c-0.3-0.9-0.5-1.6-0.5-1.6
				C177.6,3777.4,177.9,3778.1,178.2,3779"/>
			<path class="st8" d="M164.6,3804.4c1.5-1,3-1.2,3.5-0.5c0.5,0.7-0.3,2.1-1.8,3.1c-1.5,1-3,1.2-3.5,0.5
				C162.4,3806.7,163.2,3805.4,164.6,3804.4"/>
			<path class="st8" d="M172.3,3802c0.9-1.2,1.8-1.9,2.1-1.7c0.3,0.2-0.1,1.4-1,2.5c-0.9,1.2-1.8,1.9-2.1,1.7
				C171,3804.3,171.5,3803.2,172.3,3802"/>
			<path class="st8" d="M176.2,3799.4c0.5-1,1-1.8,1.1-1.8c0.1,0.1-0.2,0.9-0.7,2c-0.5,1-1,1.8-1.1,1.7
				C175.4,3801.3,175.7,3800.4,176.2,3799.4"/>
			<path class="st8" d="M178.1,3797.4c0.3-0.9,0.5-1.6,0.5-1.6c0,0-0.3,0.7-0.6,1.5c-0.3,0.9-0.5,1.6-0.5,1.6
				C177.5,3798.9,177.8,3798.2,178.1,3797.4"/>
			<path class="st8" d="M156.1,3765.5c-0.1,0.6,1,1.4,2.6,1.8c1.6,0.4,3,0.2,3.2-0.4c0.2-0.6-1-1.4-2.6-1.8
				C157.7,3764.7,156.3,3764.9,156.1,3765.5"/>
			<path class="st8" d="M167.6,3769.3c1.1,0.9,2.3,1.3,2.5,1c0.2-0.3-0.5-1.3-1.6-2.1c-1.1-0.9-2.3-1.3-2.5-1
				C165.7,3767.5,166.5,3768.5,167.6,3769.3"/>
			<path class="st8" d="M173.1,3772.3c0.7,0.9,1.4,1.6,1.6,1.5c0.1-0.1-0.4-0.9-1.1-1.9c-0.7-0.9-1.4-1.6-1.6-1.5
				C171.9,3770.5,172.4,3771.4,173.1,3772.3"/>
			<path class="st8" d="M176.2,3775.3c0.5,0.8,0.9,1.5,0.9,1.5c0,0-0.3-0.7-0.8-1.6c-0.5-0.8-0.9-1.5-0.9-1.5
				C175.4,3773.8,175.8,3774.5,176.2,3775.3"/>
			<path class="st8" d="M156.4,3810.4c-0.2-0.6,1-1.4,2.6-1.8c1.6-0.4,3-0.2,3.2,0.4c0.1,0.6-1,1.4-2.6,1.8
				C158,3811.2,156.6,3811,156.4,3810.4"/>
			<path class="st8" d="M167.7,3806.6c1.1-0.9,2.3-1.3,2.5-1c0.2,0.3-0.5,1.3-1.6,2.1c-1.1,0.9-2.3,1.3-2.5,1
				C165.8,3808.5,166.5,3807.5,167.7,3806.6"/>
			<path class="st8" d="M173.2,3803.6c0.7-0.9,1.4-1.6,1.6-1.5c0.1,0.1-0.4,0.9-1.1,1.9c-0.7,0.9-1.4,1.6-1.6,1.5
				C172,3805.4,172.5,3804.6,173.2,3803.6"/>
			<path class="st8" d="M176,3801c0.5-0.8,0.9-1.5,0.9-1.5c0,0-0.3,0.7-0.8,1.6c-0.5,0.8-0.9,1.5-0.9,1.5
				C175.2,3802.5,175.6,3801.8,176,3801"/>
			<path class="st8" d="M160.3,3764.3c-0.1,0.3,0.8,0.9,2.1,1.4c1.3,0.5,2.4,0.7,2.5,0.4c0.1-0.3-0.8-0.9-2.1-1.4
				C161.5,3764.2,160.4,3764,160.3,3764.3"/>
			<path class="st8" d="M169.2,3768.4c0.9,0.7,1.8,1.2,1.9,1.1c0.1-0.1-0.6-0.8-1.5-1.6c-0.9-0.7-1.8-1.2-1.9-1.1
				C167.6,3767,168.3,3767.7,169.2,3768.4"/>
			<path class="st8" d="M173.5,3771.5c0.6,0.8,1.1,1.4,1.2,1.3c0,0-0.4-0.7-1-1.5c-0.6-0.8-1.1-1.3-1.2-1.3
				C172.5,3770.1,172.9,3770.8,173.5,3771.5"/>
			<path class="st8" d="M160.6,3811.6c-0.1-0.3,0.8-1,2.1-1.5c1.3-0.5,2.4-0.7,2.5-0.4c0.1,0.3-0.8,1-2.1,1.5
				C161.9,3811.7,160.8,3811.9,160.6,3811.6"/>
			<path class="st8" d="M169.3,3807.5c0.9-0.7,1.8-1.2,1.9-1.1c0.1,0.1-0.6,0.8-1.5,1.6c-0.9,0.7-1.8,1.2-1.9,1.1
				C167.7,3808.9,168.4,3808.2,169.3,3807.5"/>
			<path class="st8" d="M173.4,3804.5c0.6-0.8,1.1-1.4,1.2-1.3c0.1,0-0.4,0.7-1,1.5c-0.6,0.8-1.1,1.3-1.2,1.3
				C172.3,3806,172.8,3805.3,173.4,3804.5"/>
			<path class="st8" d="M155.4,3762.9c0,0.2,0.9,0.5,2.2,0.7c1.2,0.2,2.2,0.2,2.3,0c0-0.2-0.9-0.5-2.2-0.7
				C156.5,3762.7,155.5,3762.7,155.4,3762.9"/>
			<path class="st8" d="M163.1,3764.2c-0.1,0.1,0.7,0.6,1.7,1.2c1,0.5,1.9,0.8,2,0.7c0.1-0.1-0.7-0.7-1.7-1.2
				C164,3764.4,163.2,3764.1,163.1,3764.2"/>
			<path class="st8" d="M170.1,3768.2c0.7,0.6,1.4,1.1,1.4,1.1c0,0-0.5-0.6-1.3-1.2c-0.7-0.6-1.4-1.1-1.4-1.1
				C168.8,3767,169.4,3767.5,170.1,3768.2"/>
			<path class="st8" d="M155.8,3813c0-0.2,0.9-0.5,2.1-0.7c1.2-0.2,2.2-0.2,2.3,0c0,0.2-0.9,0.5-2.1,0.7
				C156.9,3813.2,155.8,3813.2,155.8,3813"/>
			<path class="st8" d="M163.4,3811.7c-0.1-0.1,0.7-0.7,1.7-1.2c1-0.5,1.9-0.9,2-0.7c0.1,0.1-0.7,0.7-1.7,1.2
				C164.3,3811.5,163.4,3811.8,163.4,3811.7"/>
			<path class="st8" d="M170.2,3807.8c0.7-0.6,1.4-1.1,1.4-1.1c0,0-0.5,0.6-1.3,1.2c-0.7,0.6-1.4,1.1-1.4,1.1
				C168.9,3809,169.4,3808.4,170.2,3807.8"/>
			<path class="st8" d="M155,3762c0,0.1,0.7,0.2,1.7,0.3c0.9,0.1,1.7,0.1,1.7,0.1c0-0.1-0.7-0.2-1.7-0.3
				C155.7,3762,155,3762,155,3762"/>
			<path class="st8" d="M158.7,3762.7c0,0.1,0.8,0.4,1.7,0.7c1,0.3,1.8,0.4,1.8,0.3c0-0.1-0.8-0.4-1.7-0.7
				C159.6,3762.8,158.7,3762.6,158.7,3762.7"/>
			<path class="st8" d="M164.9,3764.6c0,0.1,0.6,0.5,1.4,1c0.8,0.5,1.5,0.8,1.6,0.7c0-0.1-0.6-0.5-1.4-1
				C165.7,3764.9,165,3764.5,164.9,3764.6"/>
			<path class="st8" d="M161.1,3763c0,0,0.7,0.3,1.5,0.6c0.9,0.3,1.6,0.5,1.6,0.5c0,0-0.7-0.3-1.5-0.6
				C161.8,3763.2,161.1,3762.9,161.1,3763"/>
			<path class="st8" d="M155.6,3813.9c0-0.1,0.7-0.2,1.6-0.3c0.9-0.1,1.7-0.2,1.7-0.1c0,0.1-0.7,0.2-1.6,0.3
				C156.3,3813.9,155.6,3813.9,155.6,3813.9"/>
			<path class="st8" d="M159.1,3813.1c0-0.1,0.8-0.4,1.7-0.7c1-0.3,1.8-0.4,1.8-0.3c0,0.1-0.8,0.4-1.7,0.7
				C160,3813.1,159.2,3813.2,159.1,3813.1"/>
			<path class="st8" d="M165.2,3811.3c0-0.1,0.6-0.5,1.4-1c0.8-0.5,1.5-0.8,1.6-0.7c0,0.1-0.6,0.5-1.4,1
				C165.9,3811,165.2,3811.3,165.2,3811.3"/>
			<path class="st1" d="M399.1,3785.9h1.1l1,2.9h0l1-2.9h1.1v3.7h-0.7v-3.1h0l-1.1,3.1h-0.6l-1.1-3.1h0v3.1h-0.7V3785.9z
				 M396.5,3786.5h-1.1v-0.6h3v0.6h-1.1v3.1h-0.7V3786.5z"/>
		</g>
	</g>
	<g>

			<image style="overflow:visible;opacity:0.25;" width="1288" height="228" xlink:href="82511DC6F01CDC1A.png"  transform="matrix(0.24 0 0 0.24 493.5 1494)">
		</image>
		<g>
			<path class="st5" d="M798,1532.6c0,5.5-4.5,10-10,10H508c-5.5,0-10-4.5-10-10V1497h300V1532.6z"/>
		</g>
	</g>
</g>
<g id="editable_templaye_elements">
	<g>
		<g>
			<rect x="75" y="80.1" class="st2" width="90" height="90"/>
		</g>
		<g>
			<rect x="75" y="77.1" class="st5" width="90" height="90"/>
		</g>
	</g>
	<g>
		<g>
			<rect x="188.6" y="78.3" class="st6" width="1031.1" height="174.7"/>
			<text transform="matrix(1 0 0 1 188.5645 119.4941)"><tspan x="0" y="0" class="st2 st3 st4">cognitive tax </tspan><tspan x="0" y="48" class="st2 st12 st10">and its effect on User Experience</tspan></text>
		</g>
		<g>
			<rect x="188.6" y="75.3" class="st6" width="1031.1" height="174.7"/>
			<text transform="matrix(1 0 0 1 188.5645 116.4941)"><tspan x="0" y="0" class="st13 st3 st4">cognitive tax </tspan><tspan x="0" y="48" class="st13 st12 st10">and its effect on User Experience</tspan></text>
		</g>
	</g>
	<g>

			<image style="overflow:visible;opacity:0.25;" width="4808" height="668" xlink:href="82511DC6F01CDC1E.png"  transform="matrix(0.24 0 0 0.24 71.1 3553.98)">
		</image>
		<g>
			<rect x="75.6" y="3563.5" class="st6" width="1144.7" height="144.5"/>
			<text transform="matrix(1 0 0 1 186.7563 3599.0005)"><tspan x="0" y="0" class="st2 st3 st14">Committed to successful </tspan><tspan x="524.4" y="0" class="st15 st3 st14">user experiences </tspan><tspan x="144.2" y="60" class="st2 st3 st14">built on </tspan><tspan x="316.6" y="60" class="st15 st3 st14">respect</tspan><tspan x="497.8" y="60" class="st2 st3 st14"> for our users.</tspan></text>
		</g>
	</g>
	<g>
		<g class="st16">
			<path d="M155.7,131.6l-6.2-9.9v-0.9c0-18-14.6-32.5-32.5-32.5c-18,0-32.5,14.6-32.5,32.5c0,10.6,5.1,20.1,13,26v6.6l33.4,8.2
				v-8.3h9.6c5.1,0,9.2-4.1,9.2-9.2v-7.4h4.1c1.2,0,2.2-0.6,2.6-1.6C156.7,134.2,156.5,132.8,155.7,131.6z M141.5,120.8l-0.1,2.4
				c1.1,0.5,2.1,1.1,3.2,1.7c-0.3,1.7-0.7,3.4-1.2,5c-1.2,0-2.4,0-3.6-0.1c-0.3,0.8-0.7,1.5-1,2.2c-0.4,0.7-0.8,1.4-1.2,2.1
				c0.7,1,1.4,2,2,3c-1,1.4-2.1,2.7-3.4,3.8c-1.1-0.6-2.1-1.2-3.1-1.8c-0.6,0.5-1.3,1-1.9,1.5c-0.7,0.5-1.4,0.9-2.1,1.3
				c0.2,1.2,0.3,2.5,0.4,3.7c-1.5,0.7-3.1,1.4-4.7,1.8c-0.7-1-1.4-2.1-2-3.1c-0.8,0.2-1.6,0.3-2.4,0.4c-0.8,0.1-1.6,0.1-2.4,0.2
				c-0.4,1.2-0.9,2.4-1.4,3.6c-1.7,0-3.4-0.2-5-0.6c-0.2-1.3-0.3-2.6-0.3-3.8c-0.8-0.2-1.6-0.5-2.3-0.7c-0.8-0.3-1.5-0.6-2.2-1
				c-1,0.9-2,1.8-3.1,2.6c-1.4-0.8-2.8-1.7-4.1-2.8c0.5-1.3,1-2.5,1.5-3.7c-0.6-0.5-1.2-1.1-1.7-1.7c-0.6-0.6-1-1.3-1.5-1.9
				c-1.3,0.4-2.6,0.7-4,0.9c-0.9-1.4-1.6-2.8-2.3-4.3c1-0.9,2.1-1.8,3.1-2.6c-0.3-0.8-0.5-1.5-0.7-2.3c-0.2-0.8-0.3-1.6-0.5-2.4
				c-1.4-0.3-2.7-0.6-4-1.1c-0.1-0.8-0.1-1.5-0.1-2.3c0-0.9,0-1.7,0.1-2.5c1.3-0.3,2.6-0.6,4-0.8c0.1-0.8,0.2-1.6,0.5-2.4
				c0.2-0.8,0.4-1.6,0.7-2.3c-1-0.9-2.1-1.8-3-2.8c0.6-1.5,1.4-2.9,2.3-4.3c1.3,0.3,2.6,0.7,3.9,1.1c0.5-0.7,1-1.3,1.5-1.9
				c0.5-0.6,1.1-1.2,1.7-1.7c-0.5-1.2-1-2.5-1.4-3.8c1.3-1,2.6-2,4.1-2.8c1,0.9,2,1.8,2.9,2.7c0.7-0.4,1.5-0.7,2.2-1
				c0.8-0.3,1.5-0.6,2.3-0.7c0.1-1.3,0.3-2.6,0.6-3.9c1.6-0.3,3.3-0.5,5-0.5c0.5,1.2,0.9,2.4,1.2,3.6c0.8,0.1,1.6,0,2.4,0.2
				c0.8,0.1,1.6,0.2,2.4,0.4c0.7-1,1.4-2.1,2.2-3.1c1.6,0.5,3.2,1.1,4.7,1.9c-0.1,1.2-0.3,2.4-0.6,3.6c0.7,0.4,1.4,0.8,2.1,1.3
				c0.6,0.5,1.3,0.9,1.9,1.5c1.1-0.6,2.2-1.1,3.3-1.7c1.2,1.2,2.4,2.5,3.4,3.9c-0.7,1-1.4,2-2.1,2.9c0.4,0.7,0.9,1.4,1.2,2.1
				c0.3,0.7,0.7,1.5,1,2.2c1.2,0,2.4,0,3.6,0.1c0.5,1.6,1,3.3,1.2,5c-1.1,0.6-2.1,1.1-3.2,1.5L141.5,120.8z"/>
			<path d="M132.7,103.3c-0.9,0-1.8,0.2-2.6,0.6c-0.2-0.3-0.5-0.5-0.8-0.7c-0.3-0.2-0.6-0.4-1-0.5c0-0.8-0.1-1.7-0.3-2.6
				c-0.6-0.1-1.2-0.2-1.8-0.1c-0.4,0.8-0.7,1.7-0.8,2.6c-0.3,0.1-0.7,0.2-1,0.4c-0.3,0.2-0.6,0.4-0.9,0.6c-0.7-0.5-1.5-0.8-2.4-1
				c-0.4,0.5-0.7,1-1,1.5c0.5,0.8,1.1,1.5,1.8,2c-0.1,0.3-0.1,0.7-0.2,1.1c0,0.4,0,0.7,0.1,1.1c-0.7,0.4-1.5,0.9-2.1,1.6
				c0.2,0.6,0.5,1.1,0.8,1.6c0.9,0,1.8-0.2,2.6-0.6c0.2,0.3,0.5,0.5,0.8,0.7c0.3,0.2,0.6,0.4,1,0.5c0,0.8,0.1,1.7,0.3,2.6
				c0.6,0.1,1.2,0.2,1.8,0.1c0.4-0.8,0.7-1.7,0.8-2.6c0.3-0.1,0.7-0.2,1-0.4c0.3-0.2,0.6-0.4,0.9-0.6c0.7,0.5,1.5,0.8,2.4,1
				c0.4-0.5,0.7-1,1-1.5c-0.5-0.8-1.1-1.5-1.8-2c0.1-0.3,0.1-0.7,0.2-1.1c0-0.4,0-0.7-0.1-1.1c0.7-0.4,1.5-0.9,2.1-1.6
				C133.3,104.4,133.1,103.8,132.7,103.3z M127.7,109.6c-0.8,0.4-1.8,0.3-2.5-0.1c-0.8-0.5-1.2-1.4-1.1-2.2c0.1-0.9,0.6-1.7,1.4-2.1
				c0.8-0.4,1.8-0.3,2.5,0.1c0.8,0.5,1.2,1.4,1.1,2.2C129.1,108.3,128.5,109.2,127.7,109.6z"/>
			<path d="M125.4,126.5c-0.1-0.5-0.1-1.1-0.2-1.6c1.3-0.6,2.5-1.4,3.7-2.3c-0.2-0.8-0.5-1.6-0.8-2.3c-1.5,0-3,0.1-4.4,0.4
				c-0.3-0.4-0.6-0.9-0.9-1.3c-0.3-0.4-0.7-0.8-1.1-1.2c0.7-1.3,1.2-2.6,1.6-4c-0.6-0.5-1.3-1-2-1.4c-1.2,0.9-2.3,1.8-3.3,2.9
				c-0.5-0.2-1-0.4-1.5-0.5c-0.5-0.1-1.1-0.3-1.6-0.3c-0.2-1.4-0.6-2.8-1.1-4.2c-0.8,0-1.6,0-2.5,0.1c-0.5,1.4-0.8,2.9-1,4.3
				c-0.5,0.1-1,0.3-1.6,0.5c-0.5,0.2-1,0.4-1.5,0.7c-1-1-2.1-2-3.3-2.8c-0.7,0.4-1.3,1-2,1.5c0.5,1.5,1,2.8,1.7,4.1
				c-0.4,0.4-0.7,0.8-1,1.3c-0.3,0.4-0.6,0.9-0.8,1.4c-1.4-0.2-2.8-0.3-4.3-0.3c-0.3,0.8-0.5,1.6-0.7,2.4c1.2,0.9,2.5,1.7,3.8,2.3
				c-0.1,0.5,0,1.1,0,1.6c0.1,0.5,0.1,1.1,0.2,1.6c-1.3,0.6-2.5,1.4-3.7,2.3c0.2,0.8,0.5,1.6,0.8,2.3c1.5,0,3-0.1,4.4-0.4
				c0.3,0.4,0.6,0.9,0.9,1.3c0.3,0.4,0.7,0.8,1.1,1.2c-0.7,1.3-1.2,2.6-1.6,4c0.6,0.5,1.3,1,2,1.4c1.2-0.9,2.3-1.8,3.3-2.9
				c0.5,0.2,1,0.4,1.5,0.5c0.5,0.1,1.1,0.3,1.6,0.3c0.2,1.4,0.6,2.8,1.1,4.2c0.8,0,1.6,0,2.5-0.1c0.5-1.4,0.8-2.9,1-4.3
				c0.5-0.1,1-0.3,1.6-0.5c0.5-0.2,1-0.4,1.5-0.7c1,1,2.1,2,3.3,2.8c0.7-0.4,1.3-1,2-1.5c-0.5-1.5-1-2.8-1.7-4.1
				c0.4-0.4,0.7-0.8,1-1.3c0.3-0.4,0.6-0.9,0.8-1.4c1.4,0.2,2.8,0.3,4.3,0.3c0.3-0.8,0.5-1.6,0.7-2.4c-1.2-0.9-2.5-1.7-3.8-2.3
				C125.4,127.6,125.4,127.1,125.4,126.5z M113,134.7c-4.2,0-7.7-3.4-7.7-7.7c0-4.2,3.4-7.7,7.7-7.7c4.2,0,7.7,3.4,7.7,7.7
				C120.6,131.3,117.2,134.7,113,134.7z"/>
		</g>
		<g>
			<g>
				<path class="st2" d="M155.7,128.6l-6.2-9.9v-0.9c0-18-14.6-32.5-32.5-32.5c-18,0-32.5,14.6-32.5,32.5c0,10.6,5.1,20.1,13,26v6.6
					l33.4,8.2v-8.3h9.6c5.1,0,9.2-4.1,9.2-9.2v-7.4h4.1c1.2,0,2.2-0.6,2.6-1.6C156.7,131.2,156.5,129.8,155.7,128.6z M141.5,117.8
					l-0.1,2.4c1.1,0.5,2.1,1.1,3.2,1.7c-0.3,1.7-0.7,3.4-1.2,5c-1.2,0-2.4,0-3.6-0.1c-0.3,0.8-0.7,1.5-1,2.2
					c-0.4,0.7-0.8,1.4-1.2,2.1c0.7,1,1.4,2,2,3c-1,1.4-2.1,2.7-3.4,3.8c-1.1-0.6-2.1-1.2-3.1-1.8c-0.6,0.5-1.3,1-1.9,1.5
					c-0.7,0.5-1.4,0.9-2.1,1.3c0.2,1.2,0.3,2.5,0.4,3.7c-1.5,0.7-3.1,1.4-4.7,1.8c-0.7-1-1.4-2.1-2-3.1c-0.8,0.2-1.6,0.3-2.4,0.4
					c-0.8,0.1-1.6,0.1-2.4,0.2c-0.4,1.2-0.9,2.4-1.4,3.6c-1.7,0-3.4-0.2-5-0.6c-0.2-1.3-0.3-2.6-0.3-3.8c-0.8-0.2-1.6-0.5-2.3-0.7
					c-0.8-0.3-1.5-0.6-2.2-1c-1,0.9-2,1.8-3.1,2.6c-1.4-0.8-2.8-1.7-4.1-2.8c0.5-1.3,1-2.5,1.5-3.7c-0.6-0.5-1.2-1.1-1.7-1.7
					c-0.6-0.6-1-1.3-1.5-1.9c-1.3,0.4-2.6,0.7-4,0.9c-0.9-1.4-1.6-2.8-2.3-4.3c1-0.9,2.1-1.8,3.1-2.6c-0.3-0.8-0.5-1.5-0.7-2.3
					c-0.2-0.8-0.3-1.6-0.5-2.4c-1.4-0.3-2.7-0.6-4-1.1c-0.1-0.8-0.1-1.5-0.1-2.3c0-0.9,0-1.7,0.1-2.5c1.3-0.3,2.6-0.6,4-0.8
					c0.1-0.8,0.2-1.6,0.5-2.4c0.2-0.8,0.4-1.6,0.7-2.3c-1-0.9-2.1-1.8-3-2.8c0.6-1.5,1.4-2.9,2.3-4.3c1.3,0.3,2.6,0.7,3.9,1.1
					c0.5-0.7,1-1.3,1.5-1.9c0.5-0.6,1.1-1.2,1.7-1.7c-0.5-1.2-1-2.5-1.4-3.8c1.3-1,2.6-2,4.1-2.8c1,0.9,2,1.8,2.9,2.7
					c0.7-0.4,1.5-0.7,2.2-1c0.8-0.3,1.5-0.6,2.3-0.7c0.1-1.3,0.3-2.6,0.6-3.9c1.6-0.3,3.3-0.5,5-0.5c0.5,1.2,0.9,2.4,1.2,3.6
					c0.8,0.1,1.6,0,2.4,0.2c0.8,0.1,1.6,0.2,2.4,0.4c0.7-1,1.4-2.1,2.2-3.1c1.6,0.5,3.2,1.1,4.7,1.9c-0.1,1.2-0.3,2.4-0.6,3.6
					c0.7,0.4,1.4,0.8,2.1,1.3c0.6,0.5,1.3,0.9,1.9,1.5c1.1-0.6,2.2-1.1,3.3-1.7c1.2,1.2,2.4,2.5,3.4,3.9c-0.7,1-1.4,2-2.1,2.9
					c0.4,0.7,0.9,1.4,1.2,2.1c0.3,0.7,0.7,1.5,1,2.2c1.2,0,2.4,0,3.6,0.1c0.5,1.6,1,3.3,1.2,5c-1.1,0.6-2.1,1.1-3.2,1.5L141.5,117.8
					z"/>
				<path class="st2" d="M132.7,100.3c-0.9,0-1.8,0.2-2.6,0.6c-0.2-0.3-0.5-0.5-0.8-0.7c-0.3-0.2-0.6-0.4-1-0.5
					c0-0.8-0.1-1.7-0.3-2.6c-0.6-0.1-1.2-0.2-1.8-0.1c-0.4,0.8-0.7,1.7-0.8,2.6c-0.3,0.1-0.7,0.2-1,0.4c-0.3,0.2-0.6,0.4-0.9,0.6
					c-0.7-0.5-1.5-0.8-2.4-1c-0.4,0.5-0.7,1-1,1.5c0.5,0.8,1.1,1.5,1.8,2c-0.1,0.3-0.1,0.7-0.2,1.1c0,0.4,0,0.7,0.1,1.1
					c-0.7,0.4-1.5,0.9-2.1,1.6c0.2,0.6,0.5,1.1,0.8,1.6c0.9,0,1.8-0.2,2.6-0.6c0.2,0.3,0.5,0.5,0.8,0.7c0.3,0.2,0.6,0.4,1,0.5
					c0,0.8,0.1,1.7,0.3,2.6c0.6,0.1,1.2,0.2,1.8,0.1c0.4-0.8,0.7-1.7,0.8-2.6c0.3-0.1,0.7-0.2,1-0.4c0.3-0.2,0.6-0.4,0.9-0.6
					c0.7,0.5,1.5,0.8,2.4,1c0.4-0.5,0.7-1,1-1.5c-0.5-0.8-1.1-1.5-1.8-2c0.1-0.3,0.1-0.7,0.2-1.1c0-0.4,0-0.7-0.1-1.1
					c0.7-0.4,1.5-0.9,2.1-1.6C133.3,101.4,133.1,100.8,132.7,100.3z M127.7,106.6c-0.8,0.4-1.8,0.3-2.5-0.1
					c-0.8-0.5-1.2-1.4-1.1-2.2c0.1-0.9,0.6-1.7,1.4-2.1c0.8-0.4,1.8-0.3,2.5,0.1c0.8,0.5,1.2,1.4,1.1,2.2
					C129.1,105.3,128.5,106.2,127.7,106.6z"/>
				<path class="st2" d="M125.4,123.5c-0.1-0.5-0.1-1.1-0.2-1.6c1.3-0.6,2.5-1.4,3.7-2.3c-0.2-0.8-0.5-1.6-0.8-2.3
					c-1.5,0-3,0.1-4.4,0.4c-0.3-0.4-0.6-0.9-0.9-1.3c-0.3-0.4-0.7-0.8-1.1-1.2c0.7-1.3,1.2-2.6,1.6-4c-0.6-0.5-1.3-1-2-1.4
					c-1.2,0.9-2.3,1.8-3.3,2.9c-0.5-0.2-1-0.4-1.5-0.5c-0.5-0.1-1.1-0.3-1.6-0.3c-0.2-1.4-0.6-2.8-1.1-4.2c-0.8,0-1.6,0-2.5,0.1
					c-0.5,1.4-0.8,2.9-1,4.3c-0.5,0.1-1,0.3-1.6,0.5c-0.5,0.2-1,0.4-1.5,0.7c-1-1-2.1-2-3.3-2.8c-0.7,0.4-1.3,1-2,1.5
					c0.5,1.5,1,2.8,1.7,4.1c-0.4,0.4-0.7,0.8-1,1.3c-0.3,0.4-0.6,0.9-0.8,1.4c-1.4-0.2-2.8-0.3-4.3-0.3c-0.3,0.8-0.5,1.6-0.7,2.4
					c1.2,0.9,2.5,1.7,3.8,2.3c-0.1,0.5,0,1.1,0,1.6c0.1,0.5,0.1,1.1,0.2,1.6c-1.3,0.6-2.5,1.4-3.7,2.3c0.2,0.8,0.5,1.6,0.8,2.3
					c1.5,0,3-0.1,4.4-0.4c0.3,0.4,0.6,0.9,0.9,1.3c0.3,0.4,0.7,0.8,1.1,1.2c-0.7,1.3-1.2,2.6-1.6,4c0.6,0.5,1.3,1,2,1.4
					c1.2-0.9,2.3-1.8,3.3-2.9c0.5,0.2,1,0.4,1.5,0.5c0.5,0.1,1.1,0.3,1.6,0.3c0.2,1.4,0.6,2.8,1.1,4.2c0.8,0,1.6,0,2.5-0.1
					c0.5-1.4,0.8-2.9,1-4.3c0.5-0.1,1-0.3,1.6-0.5c0.5-0.2,1-0.4,1.5-0.7c1,1,2.1,2,3.3,2.8c0.7-0.4,1.3-1,2-1.5
					c-0.5-1.5-1-2.8-1.7-4.1c0.4-0.4,0.7-0.8,1-1.3c0.3-0.4,0.6-0.9,0.8-1.4c1.4,0.2,2.8,0.3,4.3,0.3c0.3-0.8,0.5-1.6,0.7-2.4
					c-1.2-0.9-2.5-1.7-3.8-2.3C125.4,124.6,125.4,124.1,125.4,123.5z M113,131.7c-4.2,0-7.7-3.4-7.7-7.7c0-4.2,3.4-7.7,7.7-7.7
					c4.2,0,7.7,3.4,7.7,7.7C120.6,128.3,117.2,131.7,113,131.7z"/>
			</g>
		</g>
	</g>
	<path class="st2" d="M117-149.9c-18,0-32.5,14.6-32.5,32.5S99-84.9,117-84.9h23.4c5.1,0,9.2-4.1,9.2-9.2v-23.4
		C149.5-135.4,135-149.9,117-149.9z"/>
	<path class="st2" d="M155.7-106.6l-8.6-13.9c-0.7-1.1-1.7-1.8-2.8-1.8c-1.1,0-2,0.7-2.5,1.9l-5.9,13.7c-0.5,1.2-0.5,2.6,0.2,3.7
		c0.6,1,1.7,1.6,2.9,1.6h14.6c1.2,0,2.2-0.6,2.6-1.6C156.7-104.1,156.5-105.4,155.7-106.6z"/>
	<polygon class="st2" points="97.5,-101.1 130.8,-101.1 130.8,-76.6 97.5,-84.8 	"/>
	<g>
		<path class="st5" d="M143.4-126.4c-1.2-0.1-2.4-0.1-3.6-0.1c-0.3-0.8-0.7-1.5-1-2.2c-0.4-0.7-0.8-1.4-1.2-2.1
			c0.8-0.9,1.5-1.9,2.1-2.9c-1-1.4-2.1-2.7-3.4-3.9c-1.1,0.5-2.3,1.1-3.3,1.7c-0.6-0.5-1.3-1-1.9-1.5c-0.7-0.5-1.4-0.9-2.1-1.3
			c0.2-1.2,0.4-2.4,0.6-3.6c-1.5-0.8-3.1-1.4-4.7-1.9c-0.8,1-1.6,2.1-2.2,3.1c-0.8-0.2-1.6-0.3-2.4-0.4c-0.8-0.1-1.6-0.1-2.4-0.2
			c-0.4-1.2-0.8-2.4-1.2-3.6c-1.7,0-3.4,0.2-5,0.5c-0.3,1.3-0.4,2.6-0.6,3.9c-0.8,0.2-1.6,0.5-2.3,0.7c-0.8,0.3-1.5,0.6-2.2,1
			c-0.9-1-1.9-1.9-2.9-2.7c-1.4,0.8-2.8,1.7-4.1,2.8c0.4,1.3,0.8,2.6,1.4,3.8c-0.6,0.5-1.2,1.1-1.7,1.7c-0.6,0.6-1,1.3-1.5,1.9
			c-1.3-0.4-2.6-0.8-3.9-1.1c-0.9,1.4-1.7,2.8-2.3,4.3c1,1,2,1.9,3,2.8c-0.3,0.8-0.5,1.5-0.7,2.3c-0.2,0.8-0.3,1.6-0.5,2.4
			c-1.3,0.2-2.7,0.5-4,0.8c-0.1,0.8-0.1,1.7-0.1,2.5c0,0.8,0,1.6,0.1,2.3c1.3,0.4,2.6,0.8,4,1.1c0.1,0.8,0.2,1.6,0.5,2.4
			c0.2,0.8,0.4,1.6,0.7,2.3c-1.1,0.8-2.1,1.7-3.1,2.6c0.6,1.5,1.4,3,2.3,4.3c1.3-0.2,2.7-0.5,4-0.9c0.5,0.7,1,1.3,1.5,1.9
			c0.5,0.6,1.1,1.2,1.7,1.7c-0.6,1.2-1.1,2.4-1.5,3.7c1.3,1,2.6,2,4.1,2.8c1.1-0.8,2.1-1.7,3.1-2.6c0.7,0.4,1.5,0.7,2.2,1
			c0.8,0.3,1.5,0.6,2.3,0.7c0.1,1.3,0.2,2.6,0.3,3.8c1.6,0.3,3.3,0.5,5,0.6c0.5-1.2,1-2.4,1.4-3.6c0.8-0.1,1.6,0,2.4-0.2
			c0.8-0.1,1.6-0.2,2.4-0.4c0.6,1.1,1.3,2.1,2,3.1c1.6-0.5,3.2-1.1,4.7-1.8c-0.1-1.3-0.2-2.5-0.4-3.7c0.7-0.4,1.4-0.8,2.1-1.3
			c0.6-0.5,1.3-0.9,1.9-1.5c1,0.6,2.1,1.2,3.1,1.8c1.2-1.2,2.4-2.5,3.4-3.8c-0.6-1.1-1.3-2.1-2-3c0.4-0.7,0.9-1.4,1.2-2.1
			c0.3-0.7,0.7-1.5,1-2.2c1.2,0.1,2.4,0.1,3.6,0.1c0.6-1.6,1-3.3,1.2-5c-1-0.6-2.1-1.2-3.2-1.7l0.1-2.4l-0.1-2.4
			c1.1-0.5,2.1-1,3.2-1.5C144.3-123.1,143.9-124.8,143.4-126.4z"/>
		<path class="st2" d="M131.3-129.5c0.1-0.3,0.1-0.7,0.2-1.1c0-0.4,0-0.7-0.1-1.1c0.7-0.4,1.5-0.9,2.1-1.6c-0.2-0.6-0.5-1.1-0.8-1.6
			c-0.9,0-1.8,0.2-2.6,0.6c-0.2-0.3-0.5-0.5-0.8-0.7c-0.3-0.2-0.6-0.4-1-0.5c0-0.8-0.1-1.7-0.3-2.6c-0.6-0.1-1.2-0.2-1.8-0.1
			c-0.4,0.8-0.7,1.7-0.8,2.6c-0.3,0.1-0.7,0.2-1,0.4c-0.3,0.2-0.6,0.4-0.9,0.6c-0.7-0.5-1.5-0.8-2.4-1c-0.4,0.5-0.7,1-1,1.5
			c0.5,0.8,1.1,1.5,1.8,2c-0.1,0.3-0.1,0.7-0.2,1.1c0,0.4,0,0.7,0.1,1.1c-0.7,0.4-1.5,0.9-2.1,1.6c0.2,0.6,0.5,1.1,0.8,1.6
			c0.9,0,1.8-0.2,2.6-0.6c0.2,0.3,0.5,0.5,0.8,0.7c0.3,0.2,0.6,0.4,1,0.5c0,0.8,0.1,1.7,0.3,2.6c0.6,0.1,1.2,0.2,1.8,0.1
			c0.4-0.8,0.7-1.7,0.8-2.6c0.3-0.1,0.7-0.2,1-0.4c0.3-0.2,0.6-0.4,0.9-0.6c0.7,0.5,1.5,0.8,2.4,1c0.4-0.5,0.7-1,1-1.5
			C132.6-128.4,132-129,131.3-129.5z M128.7-130.8c0,0.7-0.5,1.4-1.1,1.7c-0.6,0.3-1.5,0.3-2.1-0.1c-0.6-0.4-1-1.1-0.9-1.9
			c0-0.7,0.5-1.4,1.1-1.7c0.6-0.3,1.5-0.3,2.1,0.1C128.4-132.2,128.7-131.5,128.7-130.8z"/>
		<path class="st2" d="M125.3-110.1c0.1-0.5,0-1.1,0-1.6c-0.1-0.5-0.1-1.1-0.2-1.6c1.3-0.6,2.5-1.4,3.7-2.3
			c-0.2-0.8-0.5-1.6-0.8-2.3c-1.5,0-3,0.1-4.4,0.4c-0.3-0.4-0.6-0.9-0.9-1.3c-0.3-0.4-0.7-0.8-1.1-1.2c0.7-1.3,1.2-2.6,1.6-4
			c-0.6-0.5-1.3-1-2-1.4c-1.2,0.9-2.3,1.8-3.3,2.9c-0.5-0.2-1-0.4-1.5-0.5c-0.5-0.1-1.1-0.3-1.6-0.3c-0.2-1.4-0.6-2.8-1.1-4.2
			c-0.8,0-1.6,0-2.5,0.1c-0.5,1.4-0.8,2.9-1,4.3c-0.5,0.1-1,0.3-1.6,0.5c-0.5,0.2-1,0.4-1.5,0.7c-1-1-2.1-2-3.3-2.8
			c-0.7,0.4-1.3,1-2,1.5c0.5,1.5,1,2.8,1.7,4.1c-0.4,0.4-0.7,0.8-1,1.3c-0.3,0.4-0.6,0.9-0.8,1.4c-1.4-0.2-2.8-0.3-4.3-0.3
			c-0.3,0.8-0.5,1.6-0.7,2.4c1.2,0.9,2.5,1.7,3.8,2.3c-0.1,0.5,0,1.1,0,1.6c0.1,0.5,0.1,1.1,0.2,1.6c-1.3,0.6-2.5,1.4-3.7,2.3
			c0.2,0.8,0.5,1.6,0.8,2.3c1.5,0,3-0.1,4.4-0.4c0.3,0.4,0.6,0.9,0.9,1.3c0.3,0.4,0.7,0.8,1.1,1.2c-0.7,1.3-1.2,2.6-1.6,4
			c0.6,0.5,1.3,1,2,1.4c1.2-0.9,2.3-1.8,3.3-2.9c0.5,0.2,1,0.4,1.5,0.5c0.5,0.1,1.1,0.3,1.6,0.3c0.2,1.4,0.6,2.8,1.1,4.2
			c0.8,0,1.6,0,2.5-0.1c0.5-1.4,0.8-2.9,1-4.3c0.5-0.1,1-0.3,1.6-0.5c0.5-0.2,1-0.4,1.5-0.7c1,1,2.1,2,3.3,2.8c0.7-0.4,1.3-1,2-1.5
			c-0.5-1.5-1-2.8-1.7-4.1c0.4-0.4,0.7-0.8,1-1.3c0.3-0.4,0.6-0.9,0.8-1.4c1.4,0.2,2.8,0.3,4.3,0.3c0.3-0.8,0.5-1.6,0.7-2.4
			C128-108.7,126.7-109.5,125.3-110.1z M113-103.5c-4.2,0-7.7-3.4-7.7-7.7c0-4.2,3.4-7.7,7.7-7.7c4.2,0,7.7,3.4,7.7,7.7
			C120.6-106.9,117.2-103.5,113-103.5z"/>
	</g>
</g>
<g id="_x32__digit_number__x2F__4_line_fact">
	<g>

			<image style="overflow:visible;opacity:0.25;" width="4814" height="974" xlink:href="82511DC6F01CDC19.png"  transform="matrix(0.24 0 0 0.24 70.38 1569.42)">
		</image>
		<g>
			<rect x="75" y="1577.5" class="st6" width="1144.6" height="219.5"/>
			<text transform="matrix(1 0 0 1 188.1895 1605.9141)"><tspan x="0" y="0" class="st2 st17 st10">Cognitive Tax</tspan><tspan x="227.1" y="0" class="st2 st3 st10"> results from a mismatch between human</tspan><tspan x="-106" y="48" class="st2 st3 st10">mental capabilities and the demands of the task. Understanding our </tspan><tspan x="-88" y="96" class="st2 st3 st10">capabilities and limitations helps us create more effective and less </tspan><tspan x="289.9" y="144" class="st2 st3 st10">error-prone designs.</tspan></text>
		</g>
	</g>
	<g>
		<g>
			<g>
				<g>

						<image style="overflow:visible;opacity:0.25;" width="644" height="243" xlink:href="82511DC6F01CDC1B.png"  transform="matrix(0.24 0 0 0.24 552.78 1491.66)">
					</image>
					<g>
						<text transform="matrix(1 0 0 1 557.4883 1531.5513)"><tspan x="0" y="0" class="st2 st18 st19 st20">Fact N</tspan><tspan x="124.2" y="-6" class="st2 st18 st19 st20">o</tspan></text>
					</g>
				</g>
				<g>

						<image style="overflow:visible;opacity:0.25;" width="102" height="50" xlink:href="82511DC6F01CDC18.png"  transform="matrix(0.24 0 0 0.24 677.166 1525.5508)">
					</image>
					<g>
						<rect x="681.7" y="1528.6" class="st2" width="15.4" height="3"/>
					</g>
				</g>
			</g>
		</g>
		<g>

				<image style="overflow:visible;opacity:0.25;" width="186" height="218" xlink:href="82511DC6F01CDC26.png"  transform="matrix(0.24 0 0 0.24 697.74 1497.66)">
			</image>
			<g>
				<text transform="matrix(1 0 0 1 702.2593 1531.5513)" class="st2 st18 st19">11</text>
			</g>
		</g>
	</g>
</g>
<g id="Poster_Content">
	<g id="Info1">
	</g>
	<g id="Alert1">
	</g>
	<g id="Warning1">
	</g>
	<g id="Match1">
	</g>
	<g>
		<rect x="258.2" y="1964" class="st6" width="961.4" height="312.2"/>
		<text transform="matrix(1 0 0 1 258.2002 1982.4893)"><tspan x="0" y="0" class="st21 st3 st22">In the task above, more cognitive effort is required to recognize and name the color than </tspan><tspan x="0" y="31.2" class="st21 st3 st22">is required to read the word. In fact, your brain automatically reads the word with little </tspan><tspan x="0" y="62.4" class="st21 st3 st22">intentional effort. When you are asked to name the font color only, you tend to make </tspan><tspan x="0" y="93.6" class="st21 st3 st22">mistakes because your brain reads the word first.</tspan><tspan x="0" y="152" class="st5 st3 st23">This is known as the Stroop effect and became widely known when </tspan><tspan x="0" y="190.4" class="st5 st3 st23">John Ridley Stroop published his experimental results in 1935.</tspan><tspan x="0" y="249.2" class="st21 st24 st25">Journal of Experimental Psychology  </tspan><tspan x="0" y="278" class="st21 st12 st25">J. R. Stroop</tspan></text>
	</g>
	<g>
		<g>
			<g>
				<rect x="256.1" y="3157" class="st6" width="961.4" height="195.7"/>
				<text transform="matrix(1 0 0 1 256.1338 3179.7344)"><tspan x="0" y="0" class="st5 st3 st23">Notice how you don’t need to see the color to be able to answer this </tspan><tspan x="0" y="38.4" class="st5 st3 st23">question?</tspan><tspan x="0" y="92" class="st21 st3 st26">A traffic light uses both color and position to present the information. If a user </tspan><tspan x="0" y="125.6" class="st21 st3 st26">cannot determine what color the light is, they will still be able to interpret the </tspan><tspan x="0" y="159.2" class="st21 st3 st26">information correctly by the position of the light.</tspan></text>
			</g>
		</g>
	</g>
	<g>
		<rect x="75.1" y="335" class="st6" width="1144.5" height="49.5"/>
		<text transform="matrix(1 0 0 1 172.2656 363.3994)" class="st21 st3 st10">Name the font color of the word below as fast as you can.</text>
	</g>
	<g>
		<g>
			<text transform="matrix(1 0 0 1 156.1108 828.5449)" class="st27 st28 st29">blue</text>
			<text transform="matrix(1 0 0 1 156.1108 1338.8604)" class="st30 st28 st29">blue</text>
			<text transform="matrix(1 0 0 1 125.7373 1083.7031)" class="st5 st28 st29">green</text>
			<text transform="matrix(1 0 0 1 111.4272 573.3867)" class="st5 st28 st29">purple</text>
		</g>
		<g>
			<text transform="matrix(1 0 0 1 577.397 828.5449)" class="st27 st28 st29">red</text>
			<text transform="matrix(1 0 0 1 556.1108 1083.7031)" class="st31 st28 st29">blue</text>
			<text transform="matrix(1 0 0 1 525.7373 573.3867)" class="st31 st28 st29">green</text>
			<text transform="matrix(1 0 0 1 577.397 1338.8604)" class="st31 st28 st29">red</text>
		</g>
		<g>
			<text transform="matrix(1 0 0 1 925.7368 1326.25)" class="st30 st28 st29">green</text>
			<text transform="matrix(1 0 0 1 977.3955 1083.7031)" class="st5 st28 st29">red</text>
			<text transform="matrix(1 0 0 1 911.4263 573.3867)" class="st27 st28 st29">purple</text>
			<text transform="matrix(1 0 0 1 911.4263 824.3418)" class="st30 st28 st29">purple</text>
		</g>
	</g>
	<g>

			<image style="overflow:visible;opacity:0.25;" width="656" height="1132" xlink:href="82511DC6F01CDC29.png"  transform="matrix(0.24 0 0 0.24 70.3442 1962.1113)">
		</image>
		<g>
			<g>
				<g>
					<path class="st5" d="M195.4,2006.2c0.5-1.6,0.9-3.2,1.1-4.8c0.1-1.6,0.2-3.3,0-4.9c3.6-1.6,7-3.9,10-6.7
						c-0.8-2.7-1.9-5.3-3.3-7.7c-4.3,0-8.4,0.7-12.2,2c-1.1-1.3-2.3-2.4-3.6-3.3c-1.3-1-2.8-1.8-4.3-2.5c0.3-3.9,0.1-8-0.8-12
						c-2.7-0.7-5.5-1-8.3-1.1c-2.2,3.7-3.7,7.7-4.4,11.6c-1.6,0.4-3.2,0.8-4.7,1.5c-1.5,0.7-3,1.5-4.3,2.5
						c-3.2-2.3-6.8-4.1-10.8-5.3c-2,2-3.7,4.3-5.1,6.7c2.1,3.8,4.8,7,7.9,9.6c-0.5,1.6-0.9,3.2-1.1,4.8c-0.1,1.6-0.2,3.3,0,4.9
						c-3.6,1.6-7,3.9-10,6.7c0.8,2.7,1.9,5.3,3.3,7.7c4.3,0,8.4-0.7,12.2-2c1.1,1.3,2.3,2.4,3.6,3.3c1.3,1,2.8,1.8,4.3,2.5
						c-0.3,3.9-0.1,8,0.8,12c2.7,0.7,5.5,1,8.3,1.1c2.2-3.7,3.7-7.7,4.4-11.6c1.6-0.4,3.2-0.8,4.7-1.5c1.5-0.7,3-1.5,4.3-2.5
						c3.2,2.3,6.8,4.1,10.8,5.3c2-2,3.7-4.3,5.1-6.7C201.1,2012,198.4,2008.8,195.4,2006.2z M186.4,2000.3
						c-0.5,4.3-3.3,8.4-7.4,10.1c-3.9,1.8-8.9,1.3-12.4-1.4c-3.6-2.6-5.5-7.1-5.1-11.4c0.5-4.3,3.3-8.4,7.4-10.1
						c3.9-1.8,8.9-1.2,12.4,1.4C185,1991.4,186.8,1995.9,186.4,2000.3z"/>
				</g>
				<path class="st21" d="M163.5,2065.8c-0.1-1.7-0.1-3.4-0.4-5c4-1.8,8-4.1,11.7-6.7c-0.6-2.5-1.4-4.9-2.3-7.3
					c-4.6-0.3-9.3,0-13.7,0.6c-0.9-1.4-1.7-2.9-2.7-4.3c-1-1.4-2.1-2.7-3.2-3.9c2.3-3.9,4-7.9,5.5-12.3c-1.9-1.6-4-3.2-6.2-4.6
					c-4,2.5-7.5,5.4-10.7,8.6c-1.5-0.8-3.1-1.3-4.7-1.9c-1.6-0.5-3.3-0.9-4.9-1.2c-0.5-4.3-1.4-8.9-2.8-13.2
					c-2.5-0.2-5.1-0.3-7.7-0.1c-1.7,4.3-2.9,8.9-3.6,13.2c-1.7,0.3-3.3,0.8-4.9,1.2c-1.6,0.6-3.2,1.1-4.7,1.9c-3-3.3-6.3-6.3-10-9
					c-2.2,1.3-4.2,2.9-6.3,4.4c1.3,4.6,2.8,8.8,4.9,12.9c-1.2,1.2-2.3,2.5-3.2,3.9c-1.1,1.3-1.8,2.8-2.7,4.3
					c-4.3-0.9-8.8-1.4-13.4-1.5c-0.9,2.4-1.8,4.8-2.4,7.3c3.6,3,7.5,5.5,11.5,7.5c-0.3,1.7-0.2,3.4-0.4,5c0.1,1.7,0.1,3.4,0.4,5.1
					c-4,1.8-8,4.1-11.7,6.7c0.6,2.5,1.4,4.9,2.3,7.3c4.6,0.3,9.3,0,13.7-0.6c0.9,1.4,1.7,3,2.7,4.3c1,1.4,2.1,2.7,3.2,3.9
					c-2.2,3.9-4,7.9-5.5,12.3c1.9,1.7,4,3.2,6.2,4.6c4-2.5,7.5-5.4,10.7-8.6c1.5,0.8,3.1,1.3,4.7,1.9c1.6,0.5,3.3,0.9,4.9,1.2
					c0.5,4.3,1.4,8.9,2.8,13.2c2.5,0.2,5.1,0.3,7.7,0c1.7-4.3,2.9-8.8,3.6-13.2c1.7-0.3,3.3-0.8,4.9-1.2c1.6-0.6,3.2-1.1,4.7-1.9
					c3,3.3,6.3,6.3,10,9c2.2-1.3,4.2-2.9,6.3-4.4c-1.3-4.6-2.8-8.8-4.9-12.9c1.2-1.2,2.3-2.5,3.2-3.9c1.1-1.3,1.8-2.8,2.7-4.3
					c4.3,0.9,8.8,1.4,13.4,1.5c0.9-2.4,1.8-4.8,2.4-7.3c-3.6-3-7.5-5.5-11.5-7.5C163.4,2069.2,163.3,2067.5,163.5,2065.8z
					 M144.1,2079.8c-2.9,4.1-7.2,7.1-11.9,8.7c-4.7,1.5-10,1.5-14.7,0c-4.7-1.6-9-4.6-11.9-8.7c-3-4-4.5-9-4.6-14
					c0.1-5,1.6-10,4.6-14c2.9-4.1,7.2-7.1,11.9-8.7c4.7-1.5,10-1.5,14.7,0c4.7,1.6,9,4.6,11.9,8.7c3,4,4.5,9,4.6,14
					C148.6,2070.8,147.1,2075.7,144.1,2079.8z"/>
				<path class="st5" d="M207,2186.8c1-2.4,1.7-4.9,2.4-7.3c0.5-2.5,1-5.1,1.1-7.6c4.4-1,8.6-2.4,12.8-4.1c0-2.4-0.2-4.9-0.6-7.3
					c-4.4-1.3-9-2.1-13.4-2.6c-0.6-2.5-1.4-5-2.4-7.3c-1-2.4-2.2-4.6-3.6-6.8c2.8-3.3,5.5-6.9,8-10.8c-1.5-1.9-3.1-3.8-4.8-5.5
					c-4.4,1.6-8.5,3.5-12.4,5.8c-2-1.7-4.1-3.2-6.3-4.5c-2.2-1.3-4.5-2.5-6.9-3.4c0.4-4.4,0.4-9,0.1-13.4c-2.3-0.7-4.7-1.3-7.1-1.7
					c-2.6,3.8-4.8,7.8-6.6,12c-2.6-0.3-5.1-0.1-7.7,0c-2.6,0.2-5.1,0.7-7.6,1.3c-2.3-3.9-4.9-7.4-7.8-10.9c-2.3,0.7-4.5,1.8-6.8,2.8
					c0.2,4.7,0.8,9.2,1.7,13.6c-2.1,1.4-4.3,2.9-6.2,4.6c-2,1.7-3.8,3.5-5.4,5.5c-4-1.7-8.4-3.2-12.7-4.2c-1.3,2-2.7,4.1-3.8,6.3
					c2.9,3.7,5.9,7,9.3,10c-1,2.4-1.7,4.9-2.4,7.3c-0.4,2.5-1,5.1-1.1,7.6c-4.4,1-8.6,2.4-12.8,4.1c0,2.5,0.2,4.9,0.6,7.3
					c4.4,1.3,9,2.1,13.4,2.6c0.6,2.5,1.4,5,2.4,7.3c1,2.4,2.2,4.6,3.6,6.8c-2.9,3.3-5.5,6.9-8,10.8c1.5,1.9,3.1,3.8,4.8,5.5
					c4.4-1.6,8.5-3.5,12.4-5.8c2,1.7,4.1,3.2,6.3,4.5c2.2,1.2,4.5,2.5,6.9,3.4c-0.4,4.4-0.4,9-0.1,13.4c2.3,0.7,4.7,1.3,7.1,1.7
					c2.6-3.8,4.8-7.8,6.6-12c2.6,0.3,5.1,0.1,7.7,0c2.6-0.3,5.1-0.7,7.6-1.3c2.3,3.9,4.9,7.4,7.8,10.9c2.3-0.7,4.5-1.8,6.8-2.8
					c-0.2-4.7-0.8-9.2-1.7-13.6c2.1-1.4,4.3-2.9,6.2-4.6c2-1.7,3.8-3.5,5.4-5.5c4,1.7,8.4,3.2,12.7,4.2c1.3-2,2.7-4.1,3.8-6.3
					C213.5,2193.2,210.4,2189.9,207,2186.8z M195,2176.2c-1.6,6.6-5.1,12.6-10.2,17c-5,4.5-11.6,7.1-18.3,7.8
					c-6.7,0.6-13.6-1-19.4-4.5c-5.7-3.5-10.5-8.7-13-15c-2.7-6.2-3.2-13.2-1.8-19.8c1.6-6.6,5.1-12.6,10.3-17
					c5-4.5,11.6-7.1,18.3-7.8c6.7-0.6,13.6,1,19.4,4.5c5.7,3.5,10.5,8.7,13,15C195.9,2162.6,196.4,2169.6,195,2176.2z"/>
			</g>
		</g>
	</g>
	<g>
		<rect x="135.8" y="2437" class="st6" width="442.4" height="145.7"/>
		<text transform="matrix(1 0 0 1 176.8984 2458.2998)"><tspan x="0" y="0" class="st21 st3 st32">The labeling for this brand of </tspan><tspan x="-11.8" y="36" class="st21 st3 st32">regular insulin and NPH insulin </tspan><tspan x="-40" y="72" class="st21 st3 st32">have many similar features, making </tspan><tspan x="27" y="108" class="st21 st3 st32">human error more likely.</tspan></text>
	</g>
	<g>
		<rect x="711.4" y="2437" class="st6" width="452.4" height="145.7"/>
		<text transform="matrix(1 0 0 1 743.0098 2458.2998)"><tspan x="0" y="0" class="st21 st3 st32">If users need to compare items, </tspan><tspan x="1.1" y="36" class="st21 st3 st32">understate similar features and </tspan><tspan x="1.8" y="72" class="st21 st3 st32">highlight dissimilar features, as </tspan><tspan x="1.5" y="108" class="st21 st3 st32">shown in this redesigned label.</tspan></text>
	</g>
	<g>
		<rect x="75" y="2928.5" class="st6" width="1144.4" height="65.7"/>
		<text transform="matrix(1 0 0 1 75 2946.9326)"><tspan x="0" y="0" class="st21 st3 st22">Similarity causes confusion. Elements that are perceived as similar will likely be confused with one </tspan><tspan x="0" y="31.2" class="st21 st3 st22">another. Think of similarity as the ratio of similar features to different features.</tspan></text>
	</g>
	<g>
		<rect x="75" y="3377.4" class="st6" width="1144.4" height="105.7"/>
		<text transform="matrix(1 0 0 1 75 3395.8486)"><tspan x="0" y="0" class="st21 st3 st22">This is called redundancy gain. Displays are more likely to be interpreted correctly if the user can rely on </tspan><tspan x="0" y="31.2" class="st21 st3 st22">multiple cues for the information. This is especially true when conditions for display interpretation are not </tspan><tspan x="0" y="62.4" class="st21 st3 st22">favorable, as in noisy hospital environments.</tspan></text>
	</g>
	<g>
		<g>
			<text transform="matrix(1 0 0 1 70.8403 2398.6895)" class="st2 st3 st4">Which insulin should you use?</text>
		</g>
		<g>
			<text transform="matrix(1 0 0 1 70.8403 2395.0894)" class="st5 st3 st4">Which insulin should you use?</text>
		</g>
	</g>
	<g>
		<g>
			<text transform="matrix(1 0 0 1 70.8403 3112.6895)" class="st2 st3 st4">Which one is the red light?</text>
		</g>
		<g>
			<text transform="matrix(1 0 0 1 70.8403 3109.0894)" class="st5 st3 st4">Which one is the red light?</text>
		</g>
	</g>
	<g>
		<g>
			<g>

					<image style="overflow:visible;opacity:0.25;" width="845" height="1291" xlink:href="82511DC6F01CDC2A.png"  transform="matrix(0.24 0 0 0.24 134.6802 2593.1191)">
				</image>
				<g>
					<linearGradient id="SVGID_1_" gradientUnits="userSpaceOnUse" x1="236" y1="2894" x2="236" y2="2599">
						<stop  offset="0" style="stop-color:#E6E6E5"/>
						<stop  offset="0.75" style="stop-color:#FFFFFF"/>
						<stop  offset="1" style="stop-color:#FFFFFF"/>
					</linearGradient>
					<rect x="142" y="2599" class="st33" width="188" height="295"/>
					<path class="st34" d="M327,2602v289H145v-289H327 M333,2596h-6H145h-6v6v289v6h6h182h6v-6v-289V2596L333,2596z"/>
				</g>
			</g>
			<text transform="matrix(1 0 0 1 252.4824 2622.9668)"><tspan x="0" y="0" class="st35 st36">List </tspan><tspan x="22" y="0" class="st37 st36">183402</tspan></text>
			<text transform="matrix(1 0 0 1 256.6191 2735.0698)" class="st35 st38">Human</text>
			<text transform="matrix(1 0 0 1 203.0469 2757.4487)"><tspan x="0" y="0" class="st35 st39">Use with U-100 insulin</tspan><tspan x="45.2" y="12" class="st35 st39">syringes only</tspan><tspan x="-20.8" y="24" class="st35 st39">Shake carefully before use</tspan><tspan x="10.4" y="48" class="st35 st39">Keep in a cold place</tspan><tspan x="39.7" y="60" class="st35 st39">Avoid freezing</tspan><tspan x="-46.8" y="84" class="st35 st40">Novolin® owned by Novo Nordisk A/S</tspan></text>
			<text transform="matrix(1 0 0 1 266.5156 2875.6216)" class="st37 st38">U-100</text>
			<text transform="matrix(1 0 0 1 152.8623 2666.8628)" class="st41 st42 st43">Novolin</text>
			<text transform="matrix(1 0 0 1 274.5947 2707.8716)" class="st5 st44 st45 st43">N</text>
			<polygon class="st5" points="145.1,2673.9 145.1,2707.9 270.6,2707.9 277.9,2673.9 			"/>
			<text transform="matrix(1 0 0 1 283.8438 2666.8628)" class="st41 st36">®</text>
			<g>
				<g>
					<rect x="155.5" y="2852" class="st2" width="71.5" height="29.5"/>
					<path class="st46" d="M226.5,2852.5v28.5H156v-28.5H226.5 M227.5,2851.5H155v30.5h72.5V2851.5L227.5,2851.5z"/>
				</g>
				<rect x="161" y="2857.5" class="st5" width="60.5" height="18.5"/>
				<rect x="193.2" y="2857.5" class="st47" width="28.2" height="18.5"/>
				<text transform="matrix(1 0 0 1 165.1387 2873.0005)" class="st2 st48 st49">Reli On</text>
			</g>
		</g>
		<g>
			<g>

					<image style="overflow:visible;opacity:0.25;" width="845" height="1291" xlink:href="82511DC6F01CDC28.png"  transform="matrix(0.24 0 0 0.24 376.6802 2593.1211)">
				</image>
				<g>
					<linearGradient id="SVGID_2_" gradientUnits="userSpaceOnUse" x1="477.9995" y1="2894.001" x2="477.9995" y2="2599.001">
						<stop  offset="0" style="stop-color:#E6E6E5"/>
						<stop  offset="0.75" style="stop-color:#FFFFFF"/>
						<stop  offset="1" style="stop-color:#FFFFFF"/>
					</linearGradient>
					<rect x="384" y="2599" class="st50" width="188" height="295"/>
					<path class="st34" d="M569,2602v289H387v-289H569 M575,2596h-6H387h-6v6v289v6h6h182h6v-6v-289V2596L575,2596z"/>
				</g>
			</g>
			<text transform="matrix(1 0 0 1 494.4805 2622.9678)"><tspan x="0" y="0" class="st35 st36">List </tspan><tspan x="22" y="0" class="st37 st36">183302</tspan></text>
			<text transform="matrix(1 0 0 1 498.6191 2735.0708)" class="st35 st38">Human</text>
			<text transform="matrix(1 0 0 1 445.0469 2757.4497)"><tspan x="0" y="0" class="st35 st39">Use with U-100 insulin</tspan><tspan x="45.2" y="12" class="st35 st39">syringes only</tspan><tspan x="-20.8" y="24" class="st35 st39">Shake carefully before use</tspan><tspan x="10.4" y="48" class="st35 st39">Keep in a cold place</tspan><tspan x="39.7" y="60" class="st35 st39">Avoid freezing</tspan><tspan x="-46.8" y="84" class="st35 st40">Novolin® owned by Novo Nordisk A/S</tspan></text>
			<text transform="matrix(1 0 0 1 508.5156 2875.6226)" class="st37 st38">U-100</text>
			<text transform="matrix(1 0 0 1 394.8604 2666.8638)" class="st41 st42 st43">Novolin</text>
			<text transform="matrix(1 0 0 1 516.5928 2707.8726)" class="st5 st44 st45 st43">R</text>
			<polygon class="st5" points="387.1,2673.9 387.1,2707.9 512.6,2707.9 519.9,2673.9 			"/>
			<text transform="matrix(1 0 0 1 525.8438 2666.8638)" class="st41 st36">®</text>
			<g>
				<g>
					<rect x="397.5" y="2852" class="st2" width="71.5" height="29.5"/>
					<path class="st46" d="M468.5,2852.5v28.5H398v-28.5H468.5 M469.5,2851.5H397v30.5h72.5V2851.5L469.5,2851.5z"/>
				</g>
				<rect x="403" y="2857.5" class="st5" width="60.5" height="18.5"/>
				<rect x="435.2" y="2857.5" class="st47" width="28.2" height="18.5"/>
				<text transform="matrix(1 0 0 1 407.1387 2873.0015)" class="st2 st48 st49">Reli On</text>
			</g>
		</g>
	</g>
	<g>
		<g>
			<g>

					<image style="overflow:visible;opacity:0.25;" width="845" height="1291" xlink:href="D5B94DC0B42BD01D.png"  transform="matrix(0.24 0 0 0.24 715.3267 2593.1211)">
				</image>
				<g>
					<linearGradient id="SVGID_3_" gradientUnits="userSpaceOnUse" x1="816.6465" y1="2894.001" x2="816.6465" y2="2599.001">
						<stop  offset="0" style="stop-color:#E6E6E5"/>
						<stop  offset="0.75" style="stop-color:#FFFFFF"/>
						<stop  offset="1" style="stop-color:#FFFFFF"/>
					</linearGradient>
					<rect x="722.6" y="2599" class="st51" width="188" height="295"/>
					<path class="st34" d="M907.6,2602v289h-182v-289H907.6 M913.6,2596h-6h-182h-6v6v289v6h6h182h6v-6v-289V2596L913.6,2596z"/>
				</g>
			</g>
			<text transform="matrix(1 0 0 1 738.1289 2622.9678)"><tspan x="0" y="0" class="st35 st36">List </tspan><tspan x="22" y="0" class="st37 st36">183402</tspan></text>
			<text transform="matrix(1 0 0 1 837.2656 2735.0708)" class="st35 st38">Human</text>
			<text transform="matrix(1 0 0 1 783.6934 2757.4497)"><tspan x="0" y="0" class="st35 st39">Use with U-100 insulin</tspan><tspan x="45.2" y="12" class="st35 st39">syringes only</tspan><tspan x="-20.8" y="24" class="st35 st39">Shake carefully before use</tspan><tspan x="10.4" y="48" class="st35 st39">Keep in a cold place</tspan><tspan x="39.7" y="60" class="st35 st39">Avoid freezing</tspan><tspan x="-46.8" y="84" class="st35 st40">Novolin® owned by Novo Nordisk A/S</tspan></text>
			<text transform="matrix(1 0 0 1 847.1621 2875.6226)" class="st37 st38">U-100</text>
			<text transform="matrix(1 0 0 1 811.2402 2707.3301)" class="st52 st44 st53 st54">N</text>
			<polygon class="st52" points="725.7,2673.9 725.7,2707.9 812.2,2707.9 819.5,2673.9 			"/>
			<g>
				<g>
					<rect x="736.1" y="2852" class="st2" width="71.5" height="29.5"/>
					<path class="st46" d="M807.1,2852.5v28.5h-70.5v-28.5H807.1 M808.1,2851.5h-72.5v30.5h72.5V2851.5L808.1,2851.5z"/>
				</g>
				<rect x="741.6" y="2857.5" class="st5" width="60.5" height="18.5"/>
				<rect x="773.9" y="2857.5" class="st47" width="28.2" height="18.5"/>
				<text transform="matrix(1 0 0 1 745.7852 2873.0015)" class="st2 st48 st49">Reli On</text>
			</g>
			<text transform="matrix(1 0 0 1 731.354 2699.2285)" class="st2 st41 st55">Novolin</text>
			<text transform="matrix(1 0 0 1 804.7656 2699.2285)" class="st2 st41 st56">®</text>
		</g>
		<g>
			<g>

					<image style="overflow:visible;opacity:0.25;" width="845" height="1291" xlink:href="D5B94DC0B42BD013.png"  transform="matrix(0.24 0 0 0.24 957.3262 2593.1211)">
				</image>
				<g>
					<linearGradient id="SVGID_4_" gradientUnits="userSpaceOnUse" x1="1058.646" y1="2894.002" x2="1058.646" y2="2599.002">
						<stop  offset="0" style="stop-color:#E6E6E5"/>
						<stop  offset="0.75" style="stop-color:#FFFFFF"/>
						<stop  offset="1" style="stop-color:#FFFFFF"/>
					</linearGradient>
					<rect x="964.6" y="2599" class="st57" width="188" height="295"/>
					<path class="st34" d="M1149.6,2602v289h-182v-289H1149.6 M1155.6,2596h-6h-182h-6v6v289v6h6h182h6v-6v-289V2596L1155.6,2596z"
						/>
				</g>
			</g>
			<text transform="matrix(1 0 0 1 980.127 2622.9688)"><tspan x="0" y="0" class="st35 st36">List </tspan><tspan x="22" y="0" class="st37 st36">183302</tspan></text>
			<text transform="matrix(1 0 0 1 1079.2656 2735.0718)" class="st35 st38">Human</text>
			<text transform="matrix(1 0 0 1 1025.6934 2757.4507)"><tspan x="0" y="0" class="st35 st39">Use with U-100 insulin</tspan><tspan x="45.2" y="12" class="st35 st39">syringes only</tspan><tspan x="-20.8" y="24" class="st35 st39">Shake carefully before use</tspan><tspan x="10.4" y="48" class="st35 st39">Keep in a cold place</tspan><tspan x="39.7" y="60" class="st35 st39">Avoid freezing</tspan><tspan x="-46.8" y="84" class="st35 st40">Novolin® owned by Novo Nordisk A/S</tspan></text>
			<text transform="matrix(1 0 0 1 1089.1621 2875.6235)" class="st37 st38">U-100</text>
			<g>
				<g>
					<rect x="978.1" y="2852" class="st2" width="71.5" height="29.5"/>
					<path class="st46" d="M1049.1,2852.5v28.5h-70.5v-28.5H1049.1 M1050.1,2851.5h-72.5v30.5h72.5V2851.5L1050.1,2851.5z"/>
				</g>
				<rect x="983.6" y="2857.5" class="st5" width="60.5" height="18.5"/>
				<rect x="1015.9" y="2857.5" class="st47" width="28.2" height="18.5"/>
				<text transform="matrix(1 0 0 1 987.7852 2873.0024)" class="st2 st48 st49">Reli On</text>
			</g>
			<text transform="matrix(1 0 0 1 1053.1641 2707.3301)" class="st58 st44 st53 st54">R</text>
			<polygon class="st58" points="967.6,2673.9 967.6,2707.9 1054.2,2707.9 1061.5,2673.9 			"/>
			<text transform="matrix(1 0 0 1 973.2778 2699.2285)" class="st2 st41 st55">Novolin</text>
			<text transform="matrix(1 0 0 1 1046.6895 2699.2285)" class="st2 st41 st56">®</text>
		</g>
	</g>
	<g>

			<image style="overflow:visible;opacity:0.25;" width="334" height="334" xlink:href="D5B94DC0B42BD015.png"  transform="matrix(0.24 0 0 0.24 608 2710)">
		</image>
		<g>
			<circle class="st5" cx="648" cy="2748" r="32"/>
			<path class="st2" d="M648,2718c16.6,0,30,13.4,30,30s-13.4,30-30,30c-16.6,0-30-13.4-30-30S631.4,2718,648,2718 M648,2714
				c-18.7,0-34,15.3-34,34s15.3,34,34,34c18.7,0,34-15.3,34-34S666.7,2714,648,2714L648,2714z"/>
		</g>
	</g>
	<g>
		<text transform="matrix(1 0 0 1 629.0571 2759.6182)" class="st2 st17 st59">vs</text>
	</g>
	<g>
		<path class="st21" d="M170.3,3162.2c0-13.8-11.2-25-25-25c-13.8,0-24.9,11.2-24.9,25H170.3z"/>
	</g>
	<path class="st21" d="M186.9,3344.1c0,4.6-3.7,8.3-8.3,8.3h-66.5c-4.6,0-8.3-3.7-8.3-8.3v-183c0-4.6,3.7-8.3,8.3-8.3h66.5
		c4.6,0,8.3,3.7,8.3,8.3V3344.1z"/>
	<path class="st2" d="M178.6,3194.4c0-18.4-14.9-33.3-33.3-33.3c-18.4,0-33.3,14.9-33.3,33.3v116.4c0,18.4,14.9,33.3,33.3,33.3
		c18.4,0,33.3-14.9,33.3-33.3V3194.4z"/>
	<path class="st46" d="M170.3,3194.4c0,13.8-11.2,25-25,25c-13.8,0-24.9-11.2-24.9-25s11.2-25,24.9-25
		C159.1,3169.5,170.3,3180.6,170.3,3194.4z"/>
	<path class="st46" d="M170.3,3252.6c0,13.8-11.2,25-25,25c-13.8,0-24.9-11.2-24.9-25s11.2-25,24.9-25
		C159.1,3227.7,170.3,3238.9,170.3,3252.6z"/>
	<path class="st46" d="M170.3,3310.9c0,13.8-11.2,25-25,25c-13.8,0-24.9-11.2-24.9-25s11.2-25,24.9-25
		C159.1,3285.9,170.3,3297.1,170.3,3310.9z"/>
	<g id="path15414_13_" marker-mid="none" marker-end="none" marker-start="none">
		<path class="st21" d="M182.5,3219.4v-58.2h33.2c-0.2,13.4,2.5,17.8-14.7,34.7c-9,8.9-13.7,11.4-14.1,23.5H182.5z"/>
	</g>
	<g id="path15414_14_" marker-mid="none" marker-end="none" marker-start="none">
		<path class="st21" d="M182.5,3277.6v-58.2h33.2c-0.2,13.4,2.5,17.8-14.7,34.7c-9,8.9-13.7,11.4-14.1,23.5H182.5z"/>
	</g>
	<g id="path15414_15_" marker-mid="none" marker-end="none" marker-start="none">
		<path class="st21" d="M182.5,3335.8v-58.2h33.2c-0.2,13.4,2.5,17.8-14.7,34.7c-9,8.9-13.7,11.4-14.1,23.5H182.5z"/>
	</g>
	<g id="path15414_18_" marker-mid="none" marker-end="none" marker-start="none">
		<path class="st21" d="M108.2,3219.4v-58.2H75c0.2,13.4-2.5,17.8,14.7,34.7c9,8.9,13.7,11.4,14.1,23.5H108.2z"/>
	</g>
	<g id="path15414_17_" marker-mid="none" marker-end="none" marker-start="none">
		<path class="st21" d="M108.2,3277.6v-58.2H75c0.2,13.4-2.5,17.8,14.7,34.7c9,8.9,13.7,11.4,14.1,23.5H108.2z"/>
	</g>
	<g id="path15414_16_" marker-mid="none" marker-end="none" marker-start="none">
		<path class="st21" d="M108.2,3335.8v-58.2H75c0.2,13.4-2.5,17.8,14.7,34.7c9,8.9,13.7,11.4,14.1,23.5H108.2z"/>
	</g>
</g>
</svg>
