<?xml version="1.0" encoding="utf-8"?>
<!-- Generator: Adobe Illustrator 15.1.0, SVG Export Plug-In . SVG Version: 6.00 Build 0)  -->
<!DOCTYPE svg PUBLIC "-//W3C//DTD SVG 1.1//EN" "http://www.w3.org/Graphics/SVG/1.1/DTD/svg11.dtd">
<svg version="1.1" id="Layer_1" xmlns="http://www.w3.org/2000/svg" xmlns:xlink="http://www.w3.org/1999/xlink" x="0px" y="0px"
	 width="418.939px" height="444.061px" viewBox="0 0 418.939 444.061" enable-background="new 0 0 418.939 444.061"
	 xml:space="preserve">
<rect x="58.396" y="131.77" fill="#B5DD9B" stroke="#BCBEC0" stroke-miterlimit="10" width="28.666" height="49.832"/>
<rect x="58.396" y="189.77" fill="#85BBE0" stroke="#BCBEC0" stroke-miterlimit="10" width="28.666" height="103.332"/>
<rect x="58.396" y="301.268" fill="#AE8FD8" stroke="#BCBEC0" stroke-miterlimit="10" width="28.666" height="71.334"/>
<rect x="197.396" y="131.77" fill="#B5DD9B" stroke="#BCBEC0" stroke-miterlimit="10" width="28.666" height="139.832"/>
<rect x="197.396" y="280.77" fill="#85BBE0" stroke="#BCBEC0" stroke-miterlimit="10" width="28.666" height="28.33"/>
<rect x="197.396" y="316.768" fill="#AE8FD8" stroke="#BCBEC0" stroke-miterlimit="10" width="28.666" height="55.834"/>
<rect x="94.396" y="190.02" fill="#85BBE0" stroke="#85BBE0" stroke-miterlimit="10" width="6.166" height="23.417"/>
<rect x="94.396" y="213.855" fill="#B5DD9B" stroke="#B5DD9B" stroke-miterlimit="10" width="6.166" height="43.165"/>
<rect x="94.396" y="257.854" fill="#AE8FD8" stroke="#AE8FD8" stroke-miterlimit="10" width="6.166" height="35.416"/>
<rect x="184.646" y="280.77" fill="#85BBE0" stroke="#85BBE0" stroke-miterlimit="10" width="6.166" height="23.414"/>
<rect x="184.646" y="131.854" fill="#85BBE0" stroke="#85BBE0" stroke-miterlimit="10" width="6.166" height="43.166"/>
<rect x="184.646" y="317.018" fill="#85BBE0" stroke="#85BBE0" stroke-miterlimit="10" width="6.166" height="35.668"/>
<rect x="93.896" y="301.518" fill="#85BBE0" stroke="#85BBE0" stroke-miterlimit="10" width="6.166" height="4.666"/>
<rect x="93.896" y="306.352" fill="#B5DD9B" stroke="#B5DD9B" stroke-miterlimit="10" width="6.166" height="43.418"/>
<rect x="93.896" y="350.104" fill="#AE8FD8" stroke="#AE8FD8" stroke-miterlimit="10" width="6.166" height="22.666"/>
<rect x="184.666" y="352.604" transform="matrix(1 0.0019 -0.0019 1 0.6899 -0.3562)" fill="#AE8FD8" stroke="#AE8FD8" stroke-miterlimit="10" width="6.166" height="20.414"/>
<rect x="184.681" y="303.934" transform="matrix(1 0.0019 -0.0019 1 0.5834 -0.3563)" fill="#AE8FD8" stroke="#AE8FD8" stroke-miterlimit="10" width="6.166" height="5.75"/>
<rect x="184.646" y="175.188" fill="#AE8FD8" stroke="#AE8FD8" stroke-miterlimit="10" width="6.166" height="47.165"/>
<text transform="matrix(1 0 0 1 45.3965 398.1865)" font-family="'MyriadPro-Regular'" font-size="12">13.8 release</text>
<text transform="matrix(1 0 0 1 174.7295 400.5195)" font-family="'MyriadPro-Regular'" font-size="12">13.10 release</text>
<rect x="94.396" y="131.186" fill="#B5DD9B" stroke="#B5DD9B" stroke-miterlimit="10" width="6.166" height="51.166"/>
<rect x="184.729" y="222.521" fill="#B5DD9B" stroke="#B5DD9B" stroke-miterlimit="10" width="6.166" height="49.165"/>
<rect x="318.563" y="134.102" fill="#B5DD9B" stroke="#BCBEC0" stroke-miterlimit="10" width="28.666" height="49.834"/>
<rect x="318.563" y="192.102" fill="#85BBE0" stroke="#BCBEC0" stroke-miterlimit="10" width="28.666" height="153.834"/>
<rect x="318.563" y="352.602" fill="#AE8FD8" stroke="#BCBEC0" stroke-miterlimit="10" width="28.666" height="22.334"/>
<rect x="232.646" y="281.104" fill="#85BBE0" stroke="#85BBE0" stroke-miterlimit="10" width="6.166" height="17.914"/>
<rect x="232.646" y="132.187" fill="#85BBE0" stroke="#85BBE0" stroke-miterlimit="10" width="6.166" height="110.169"/>
<rect x="232.646" y="317.352" fill="#B5DD9B" stroke="#B5DD9B" stroke-miterlimit="10" width="6.166" height="31.668"/>
<rect x="232.668" y="349.686" transform="matrix(1 0.0019 -0.0019 1 0.6875 -0.4474)" fill="#85BBE0" stroke="#85BBE0" stroke-miterlimit="10" width="6.166" height="23.666"/>
<rect x="232.684" y="299.821" transform="matrix(1 0.0019 -0.0019 1 0.5792 -0.4475)" fill="#B5DD9B" stroke="#B5DD9B" stroke-miterlimit="10" width="6.166" height="9.469"/>
<rect x="232.646" y="242.524" fill="#AE8FD8" stroke="#AE8FD8" stroke-miterlimit="10" width="6.166" height="19.162"/>
<rect x="232.729" y="261.854" fill="#B5DD9B" stroke="#B5DD9B" stroke-miterlimit="10" width="6.166" height="10.166"/>
<rect x="304.146" y="191.687" fill="#B5DD9B" stroke="#B5DD9B" stroke-miterlimit="10" width="6.166" height="113.665"/>
<rect x="304.18" y="305.571" transform="matrix(1 0.0019 -0.0019 1 0.5922 -0.5834)" fill="#85BBE0" stroke="#85BBE0" stroke-miterlimit="10" width="6.166" height="11.469"/>
<rect x="304.396" y="352.772" fill="#B5DD9B" stroke="#B5DD9B" stroke-miterlimit="10" width="6.166" height="22.664"/>
<rect x="304.09" y="317.684" transform="matrix(1 0.0019 -0.0019 1 0.6304 -0.5832)" fill="#AE8FD8" stroke="#AE8FD8" stroke-miterlimit="10" width="6.166" height="27.418"/>
<rect x="304.396" y="151.603" fill="#AE8FD8" stroke="#AE8FD8" stroke-miterlimit="10" width="6.166" height="31.666"/>
<rect x="304.479" y="142.354" fill="#B5DD9B" stroke="#B5DD9B" stroke-miterlimit="10" width="6.166" height="10.165"/>
<rect x="304.684" y="133.573" transform="matrix(1 0.0019 -0.0019 1 0.2634 -0.5847)" fill="#85BBE0" stroke="#85BBE0" stroke-miterlimit="10" width="6.166" height="9.469"/>
<text transform="matrix(1 0 0 1 288.3955 398.8525)" font-family="'MyriadPro-Regular'" font-size="12">13.12 release</text>
<text transform="matrix(0.0058 -1 1 0.0058 100.7773 126.4702)" font-family="'MyriadPro-Regular'" font-size="12">going to 13.10</text>
<text transform="matrix(0.0058 -1 1 0.0058 190.4443 126.4702)" font-family="'MyriadPro-Regular'" font-size="12">coming from 13.8</text>
</svg>
