<?xml version="1.0" encoding="utf-8"?>
<!-- Generator: Adobe Illustrator 19.1.0, SVG Export Plug-In . SVG Version: 6.00 Build 0)  -->
<!DOCTYPE svg PUBLIC "-//W3C//DTD SVG 1.1//EN" "http://www.w3.org/Graphics/SVG/1.1/DTD/svg11.dtd">
<svg version="1.1" id="Layer_1" xmlns="http://www.w3.org/2000/svg" xmlns:xlink="http://www.w3.org/1999/xlink" x="0px" y="0px"
	 viewBox="0 0 650.3 232" enable-background="new 0 0 650.3 232" xml:space="preserve">
<g id="XMLID_98_">
	<path d="M63,31.5c0.6,0.6,0.9,1.2,1,2h-1.1c-0.1-0.6-0.4-1-0.8-1.3s-0.9-0.5-1.6-0.5c-0.8,0-1.5,0.3-2,0.9
		c-0.5,0.6-0.8,1.5-0.8,2.7c0,1,0.2,1.8,0.7,2.5c0.5,0.6,1.2,0.9,2.1,0.9c0.8,0,1.5-0.3,1.9-1c0.2-0.3,0.4-0.8,0.5-1.4h1.1
		c-0.1,0.9-0.4,1.7-1,2.3c-0.7,0.7-1.6,1.1-2.7,1.1c-1,0-1.8-0.3-2.5-0.9c-0.9-0.8-1.3-2-1.3-3.7c0-1.3,0.3-2.3,1-3.1
		c0.7-0.9,1.7-1.3,3-1.3C61.6,30.7,62.4,30.9,63,31.5z"/>
	<path d="M65.6,30.9h3.7c1,0,1.7,0.3,2.2,0.9c0.3,0.4,0.4,0.8,0.4,1.2c0,0.5-0.2,1-0.5,1.3c-0.2,0.2-0.4,0.4-0.7,0.5
		c0.4,0.2,0.8,0.4,1,0.6c0.4,0.4,0.6,0.9,0.6,1.6c0,0.6-0.2,1.1-0.5,1.5c-0.5,0.7-1.4,1-2.5,1h-3.7V30.9z M68.9,34.5
		c0.5,0,0.9-0.1,1.2-0.2c0.4-0.2,0.7-0.6,0.7-1.2c0-0.6-0.2-0.9-0.7-1.1c-0.3-0.1-0.6-0.2-1.2-0.2h-2.1v2.7H68.9z M69.3,38.5
		c0.7,0,1.2-0.2,1.5-0.6c0.2-0.3,0.3-0.6,0.3-0.9c0-0.6-0.3-1.1-0.8-1.3c-0.3-0.1-0.7-0.2-1.2-0.2h-2.3v3H69.3z"/>
	<path d="M79.7,31.5c0.6,0.6,0.9,1.2,1,2h-1.1c-0.1-0.6-0.4-1-0.8-1.3s-0.9-0.5-1.6-0.5c-0.8,0-1.5,0.3-2,0.9
		c-0.5,0.6-0.8,1.5-0.8,2.7c0,1,0.2,1.8,0.7,2.5c0.5,0.6,1.2,0.9,2.1,0.9c0.8,0,1.5-0.3,1.9-1c0.2-0.3,0.4-0.8,0.5-1.4h1.1
		c-0.1,0.9-0.4,1.7-1,2.3c-0.7,0.7-1.6,1.1-2.7,1.1c-1,0-1.8-0.3-2.5-0.9c-0.9-0.8-1.3-2-1.3-3.7c0-1.3,0.3-2.3,1-3.1
		c0.7-0.9,1.7-1.3,3-1.3C78.3,30.7,79.1,30.9,79.7,31.5z"/>
	<path d="M86,33.2l1.2,4.9l1.2-4.9h1.2l1.2,4.9l1.3-4.9h1.1l-1.8,6.3h-1.1L89,34.6l-1.2,4.9h-1.1l-1.8-6.3H86z"/>
	<path d="M94.1,30.9h1.1v1.2h-1.1V30.9z M94.1,33.3h1.1v6.2h-1.1V33.3z"/>
	<path d="M97,31.5h1.1v1.8h1v0.9h-1v4.1c0,0.2,0.1,0.4,0.2,0.4c0.1,0,0.2,0.1,0.4,0.1c0.1,0,0.1,0,0.2,0s0.1,0,0.2,0v0.8
		c-0.1,0-0.2,0.1-0.4,0.1s-0.3,0-0.4,0c-0.5,0-0.8-0.1-1-0.4s-0.3-0.6-0.3-1v-4.2h-0.8v-0.9H97V31.5z"/>
	<path d="M100.1,30.9h1.1v3.2c0.2-0.3,0.5-0.5,0.7-0.7c0.3-0.2,0.8-0.3,1.3-0.3c0.9,0,1.5,0.3,1.9,1c0.2,0.3,0.3,0.8,0.3,1.4v4h-1.1
		v-4c0-0.5-0.1-0.8-0.2-1c-0.2-0.3-0.6-0.5-1.1-0.5c-0.4,0-0.8,0.2-1.2,0.5s-0.5,0.9-0.5,1.7v3.3h-1.1V30.9z"/>
	<path d="M110.3,30.9h3.4c1.2,0,2.1,0.4,2.7,1.3c0.6,0.8,0.9,1.7,0.9,2.9c0,0.9-0.2,1.7-0.5,2.5c-0.6,1.3-1.6,2-3.1,2h-3.4V30.9z
		 M113.6,38.5c0.4,0,0.7,0,1-0.1c0.4-0.2,0.8-0.4,1.1-0.9c0.2-0.3,0.4-0.8,0.5-1.3c0.1-0.3,0.1-0.6,0.1-0.9c0-1.1-0.2-1.9-0.6-2.5
		s-1.1-0.9-2-0.9h-2v6.6H113.6z"/>
	<path d="M118.8,30.9h1.1v1.2h-1.1V30.9z M118.8,33.3h1.1v6.2h-1.1V33.3z"/>
	<path d="M122,31.3c0.2-0.4,0.7-0.5,1.4-0.5c0.1,0,0.1,0,0.2,0s0.2,0,0.2,0v1c-0.1,0-0.2,0-0.2,0c0,0-0.1,0-0.1,0
		c-0.3,0-0.5,0.1-0.6,0.2s-0.1,0.6-0.1,1.3h1.1v0.8h-1.1v5.4h-1v-5.4h-0.9v-0.8h0.9v-1C121.8,31.8,121.8,31.5,122,31.3z"/>
	<path d="M125.1,31.3c0.2-0.4,0.7-0.5,1.4-0.5c0.1,0,0.1,0,0.2,0s0.2,0,0.2,0v1c-0.1,0-0.2,0-0.2,0c0,0-0.1,0-0.1,0
		c-0.3,0-0.5,0.1-0.6,0.2s-0.1,0.6-0.1,1.3h1.1v0.8h-1.1v5.4h-1v-5.4H124v-0.8h0.9v-1C124.9,31.8,125,31.5,125.1,31.3z"/>
</g>
<g id="XMLID_99_">
	<path d="M10,83.1h3.7c1,0,1.7,0.3,2.2,0.9c0.3,0.4,0.4,0.8,0.4,1.2c0,0.5-0.2,1-0.5,1.3c-0.2,0.2-0.4,0.4-0.7,0.5
		c0.4,0.2,0.8,0.4,1,0.6c0.4,0.4,0.6,0.9,0.6,1.6c0,0.6-0.2,1.1-0.5,1.5c-0.5,0.7-1.4,1-2.5,1H10V83.1z M13.3,86.8
		c0.5,0,0.9-0.1,1.2-0.2c0.4-0.2,0.7-0.6,0.7-1.2c0-0.6-0.2-0.9-0.7-1.1c-0.3-0.1-0.6-0.2-1.2-0.2h-2.1v2.7H13.3z M13.7,90.8
		c0.7,0,1.2-0.2,1.5-0.6c0.2-0.3,0.3-0.6,0.3-0.9c0-0.6-0.3-1.1-0.8-1.3c-0.3-0.1-0.7-0.2-1.2-0.2h-2.3v3H13.7z"/>
	<path d="M21.2,88c0.2,0,0.4-0.1,0.5-0.3c0-0.1,0.1-0.2,0.1-0.4c0-0.4-0.1-0.6-0.4-0.8c-0.3-0.2-0.6-0.2-1.1-0.2
		c-0.5,0-0.9,0.1-1.2,0.4c-0.1,0.2-0.2,0.4-0.3,0.7h-1c0-0.8,0.3-1.3,0.8-1.6c0.5-0.3,1-0.5,1.7-0.5c0.7,0,1.3,0.1,1.8,0.4
		c0.5,0.3,0.7,0.7,0.7,1.3v3.6c0,0.1,0,0.2,0.1,0.3c0,0.1,0.1,0.1,0.3,0.1c0,0,0.1,0,0.2,0s0.1,0,0.2,0v0.8c-0.2,0-0.3,0.1-0.4,0.1
		s-0.2,0-0.4,0c-0.4,0-0.6-0.1-0.8-0.4c-0.1-0.1-0.1-0.3-0.2-0.6c-0.2,0.3-0.5,0.5-0.9,0.7S20.1,92,19.6,92c-0.6,0-1.1-0.2-1.4-0.5
		s-0.6-0.8-0.6-1.3c0-0.6,0.2-1,0.5-1.4s0.8-0.5,1.4-0.6L21.2,88z M19,90.8c0.2,0.2,0.5,0.3,0.8,0.3c0.4,0,0.7-0.1,1.1-0.3
		c0.6-0.3,0.9-0.8,0.9-1.4v-0.8c-0.1,0.1-0.3,0.2-0.5,0.2c-0.2,0.1-0.4,0.1-0.6,0.1L20,89c-0.4,0.1-0.7,0.1-0.9,0.2
		c-0.3,0.2-0.5,0.5-0.5,0.9C18.7,90.4,18.8,90.6,19,90.8z"/>
	<path d="M25.2,89.8c0,0.4,0.1,0.6,0.3,0.8c0.3,0.3,0.7,0.5,1.4,0.5c0.4,0,0.7-0.1,1.1-0.3s0.5-0.4,0.5-0.8c0-0.3-0.1-0.5-0.4-0.6
		c-0.2-0.1-0.5-0.2-0.9-0.3l-0.9-0.2c-0.5-0.1-0.9-0.3-1.2-0.4c-0.5-0.3-0.7-0.7-0.7-1.2c0-0.6,0.2-1.1,0.7-1.4
		c0.4-0.4,1-0.6,1.7-0.6c1,0,1.6,0.3,2.1,0.8c0.3,0.4,0.4,0.7,0.4,1.1h-1c0-0.2-0.1-0.5-0.3-0.6c-0.2-0.3-0.7-0.4-1.3-0.4
		c-0.4,0-0.7,0.1-0.9,0.2s-0.3,0.4-0.3,0.6c0,0.3,0.1,0.5,0.4,0.7c0.2,0.1,0.4,0.2,0.7,0.3l0.7,0.2c0.8,0.2,1.3,0.4,1.6,0.5
		c0.4,0.3,0.6,0.7,0.6,1.3c0,0.6-0.2,1-0.6,1.4c-0.4,0.4-1.1,0.6-2,0.6c-0.9,0-1.6-0.2-2-0.6s-0.6-0.9-0.6-1.6H25.2z"/>
	<path d="M30.6,83.1h1.1v1.2h-1.1V83.1z M30.6,85.5h1.1v6.2h-1.1V85.5z"/>
	<path d="M37.4,85.8c0.4,0.3,0.7,0.9,0.8,1.8h-1c-0.1-0.4-0.2-0.7-0.4-1s-0.6-0.4-1.1-0.4c-0.7,0-1.2,0.3-1.4,1
		c-0.2,0.4-0.3,0.9-0.3,1.6c0,0.6,0.1,1.2,0.4,1.6S35,91,35.6,91c0.4,0,0.8-0.1,1-0.4s0.4-0.6,0.5-1.1h1c-0.1,0.8-0.4,1.4-0.9,1.8
		s-1.1,0.6-1.8,0.6c-0.8,0-1.5-0.3-2-0.9s-0.7-1.3-0.7-2.2c0-1.1,0.3-2,0.8-2.6s1.2-0.9,2-0.9C36.3,85.3,36.9,85.5,37.4,85.8z"/>
	<path d="M42.7,83.1h1.7l2.5,7.3l2.5-7.3h1.7v8.6h-1.1v-5.1c0-0.2,0-0.5,0-0.9s0-0.8,0-1.3l-2.5,7.3h-1.2l-2.5-7.3v0.3
		c0,0.2,0,0.5,0,1s0,0.7,0,1v5.1h-1.1V83.1z"/>
	<path d="M56.4,85.6c0.4,0.2,0.7,0.5,0.9,0.8c0.2,0.3,0.3,0.7,0.4,1.1c0.1,0.3,0.1,0.8,0.1,1.4h-4.6c0,0.6,0.2,1.2,0.4,1.5
		c0.3,0.4,0.7,0.6,1.3,0.6c0.5,0,1-0.2,1.3-0.5c0.2-0.2,0.3-0.5,0.4-0.7h1c0,0.2-0.1,0.5-0.3,0.8s-0.3,0.5-0.5,0.7
		c-0.3,0.3-0.7,0.5-1.2,0.6C55.6,91.9,55.3,92,55,92c-0.8,0-1.4-0.3-2-0.9c-0.5-0.6-0.8-1.4-0.8-2.4c0-1,0.3-1.8,0.8-2.5
		c0.5-0.6,1.3-0.9,2.1-0.9C55.6,85.3,56,85.4,56.4,85.6z M56.8,88.1c0-0.5-0.1-0.8-0.3-1.1c-0.3-0.5-0.8-0.8-1.4-0.8
		c-0.5,0-0.9,0.2-1.2,0.5s-0.5,0.8-0.5,1.3H56.8z"/>
	<path d="M59.4,83.7h1.1v1.8h1v0.9h-1v4.1c0,0.2,0.1,0.4,0.2,0.4c0.1,0,0.2,0.1,0.4,0.1c0.1,0,0.1,0,0.2,0s0.1,0,0.2,0v0.8
		c-0.1,0-0.2,0.1-0.4,0.1s-0.3,0-0.4,0c-0.5,0-0.8-0.1-1-0.4s-0.3-0.6-0.3-1v-4.2h-0.8v-0.9h0.8V83.7z"/>
	<path d="M65.9,88c0.2,0,0.4-0.1,0.5-0.3c0-0.1,0.1-0.2,0.1-0.4c0-0.4-0.1-0.6-0.4-0.8c-0.3-0.2-0.6-0.2-1.1-0.2
		c-0.5,0-0.9,0.1-1.2,0.4c-0.1,0.2-0.2,0.4-0.3,0.7h-1c0-0.8,0.3-1.3,0.8-1.6c0.5-0.3,1-0.5,1.7-0.5c0.7,0,1.3,0.1,1.8,0.4
		c0.5,0.3,0.7,0.7,0.7,1.3v3.6c0,0.1,0,0.2,0.1,0.3c0,0.1,0.1,0.1,0.3,0.1c0,0,0.1,0,0.2,0s0.1,0,0.2,0v0.8c-0.2,0-0.3,0.1-0.4,0.1
		s-0.2,0-0.4,0c-0.4,0-0.6-0.1-0.8-0.4c-0.1-0.1-0.1-0.3-0.2-0.6c-0.2,0.3-0.5,0.5-0.9,0.7S64.7,92,64.2,92c-0.6,0-1.1-0.2-1.4-0.5
		s-0.6-0.8-0.6-1.3c0-0.6,0.2-1,0.5-1.4s0.8-0.5,1.4-0.6L65.9,88z M63.7,90.8c0.2,0.2,0.5,0.3,0.8,0.3c0.4,0,0.7-0.1,1.1-0.3
		c0.6-0.3,0.9-0.8,0.9-1.4v-0.8c-0.1,0.1-0.3,0.2-0.5,0.2c-0.2,0.1-0.4,0.1-0.6,0.1L64.7,89c-0.4,0.1-0.7,0.1-0.9,0.2
		c-0.3,0.2-0.5,0.5-0.5,0.9C63.4,90.4,63.5,90.6,63.7,90.8z"/>
	<path d="M69.1,83.1h1v3.1c0.2-0.3,0.5-0.5,0.8-0.7c0.3-0.2,0.7-0.2,1-0.2c0.8,0,1.4,0.3,1.9,0.8s0.7,1.3,0.7,2.4
		c0,1-0.2,1.8-0.7,2.5s-1.2,1-2,1c-0.5,0-0.9-0.1-1.2-0.3c-0.2-0.1-0.4-0.4-0.6-0.7v0.8h-1V83.1z M73.2,90.3
		c0.3-0.5,0.4-1.1,0.4-1.8c0-0.7-0.1-1.2-0.4-1.6s-0.7-0.7-1.3-0.7c-0.5,0-0.9,0.2-1.3,0.5c-0.4,0.4-0.5,0.9-0.5,1.8
		c0,0.6,0.1,1.1,0.2,1.4c0.3,0.7,0.8,1,1.6,1C72.5,91,72.9,90.8,73.2,90.3z"/>
	<path d="M80.5,86.1c0.6,0.5,0.8,1.3,0.8,2.4c0,1-0.2,1.8-0.7,2.5c-0.5,0.7-1.2,1-2.3,1c-0.9,0-1.5-0.3-2-0.9s-0.8-1.4-0.8-2.4
		c0-1.1,0.3-1.9,0.8-2.5c0.5-0.6,1.2-0.9,2.1-0.9C79.2,85.3,79.9,85.6,80.5,86.1z M79.8,90.3c0.3-0.5,0.4-1.1,0.4-1.8
		c0-0.6-0.1-1.1-0.3-1.4c-0.3-0.6-0.8-0.9-1.5-0.9c-0.6,0-1.1,0.2-1.4,0.7s-0.4,1.1-0.4,1.8c0,0.7,0.1,1.2,0.4,1.7s0.7,0.7,1.4,0.7
		C79.1,91.1,79.5,90.8,79.8,90.3z"/>
	<path d="M82.6,83.1h1.1v8.6h-1.1V83.1z"/>
	<path d="M85.2,83.1h1.1v1.2h-1.1V83.1z M85.2,85.5h1.1v6.2h-1.1V85.5z"/>
	<path d="M92.1,85.8c0.4,0.3,0.7,0.9,0.8,1.8h-1c-0.1-0.4-0.2-0.7-0.4-1s-0.6-0.4-1.1-0.4c-0.7,0-1.2,0.3-1.4,1
		c-0.2,0.4-0.3,0.9-0.3,1.6c0,0.6,0.1,1.2,0.4,1.6s0.7,0.6,1.3,0.6c0.4,0,0.8-0.1,1-0.4s0.4-0.6,0.5-1.1h1c-0.1,0.8-0.4,1.4-0.9,1.8
		s-1.1,0.6-1.8,0.6c-0.8,0-1.5-0.3-2-0.9s-0.7-1.3-0.7-2.2c0-1.1,0.3-2,0.8-2.6s1.2-0.9,2-0.9C91,85.3,91.6,85.5,92.1,85.8z"/>
	<path d="M97.5,83.1h3.9c0.8,0,1.4,0.2,1.8,0.6s0.7,1,0.7,1.8c0,0.7-0.2,1.3-0.6,1.8c-0.4,0.5-1.1,0.7-1.9,0.7h-2.7v3.6h-1.2V83.1z
		 M102,84.3c-0.3-0.1-0.6-0.2-1.1-0.2h-2.3v3h2.3c0.5,0,0.9-0.1,1.3-0.3s0.5-0.6,0.5-1.2C102.7,85,102.5,84.6,102,84.3z"/>
	<path d="M108.6,88c0.2,0,0.4-0.1,0.5-0.3c0-0.1,0.1-0.2,0.1-0.4c0-0.4-0.1-0.6-0.4-0.8c-0.3-0.2-0.6-0.2-1.1-0.2
		c-0.5,0-0.9,0.1-1.2,0.4c-0.1,0.2-0.2,0.4-0.3,0.7h-1c0-0.8,0.3-1.3,0.8-1.6c0.5-0.3,1-0.5,1.7-0.5c0.7,0,1.3,0.1,1.8,0.4
		c0.5,0.3,0.7,0.7,0.7,1.3v3.6c0,0.1,0,0.2,0.1,0.3c0,0.1,0.1,0.1,0.3,0.1c0,0,0.1,0,0.2,0s0.1,0,0.2,0v0.8c-0.2,0-0.3,0.1-0.4,0.1
		s-0.2,0-0.4,0c-0.4,0-0.6-0.1-0.8-0.4c-0.1-0.1-0.1-0.3-0.2-0.6c-0.2,0.3-0.5,0.5-0.9,0.7s-0.8,0.3-1.3,0.3c-0.6,0-1.1-0.2-1.4-0.5
		s-0.6-0.8-0.6-1.3c0-0.6,0.2-1,0.5-1.4s0.8-0.5,1.4-0.6L108.6,88z M106.4,90.8c0.2,0.2,0.5,0.3,0.8,0.3c0.4,0,0.7-0.1,1.1-0.3
		c0.6-0.3,0.9-0.8,0.9-1.4v-0.8c-0.1,0.1-0.3,0.2-0.5,0.2c-0.2,0.1-0.4,0.1-0.6,0.1l-0.6,0.1c-0.4,0.1-0.7,0.1-0.9,0.2
		c-0.3,0.2-0.5,0.5-0.5,0.9C106.1,90.4,106.2,90.6,106.4,90.8z"/>
	<path d="M111.9,85.5h1v0.9c0.3-0.4,0.6-0.6,0.9-0.8s0.7-0.2,1.1-0.2c0.9,0,1.5,0.3,1.8,0.9c0.2,0.3,0.3,0.8,0.3,1.5v4H116v-4
		c0-0.4-0.1-0.7-0.2-0.9c-0.2-0.4-0.5-0.6-1-0.6c-0.2,0-0.5,0-0.6,0.1c-0.3,0.1-0.5,0.3-0.8,0.5c-0.2,0.2-0.3,0.4-0.3,0.6
		s-0.1,0.5-0.1,0.9v3.3h-1.1V85.5z"/>
	<path d="M122.5,85.6c0.4,0.2,0.7,0.5,0.9,0.8c0.2,0.3,0.3,0.7,0.4,1.1c0.1,0.3,0.1,0.8,0.1,1.4h-4.6c0,0.6,0.2,1.2,0.4,1.5
		c0.3,0.4,0.7,0.6,1.3,0.6c0.5,0,1-0.2,1.3-0.5c0.2-0.2,0.3-0.5,0.4-0.7h1c0,0.2-0.1,0.5-0.3,0.8s-0.3,0.5-0.5,0.7
		c-0.3,0.3-0.7,0.5-1.2,0.6c-0.3,0.1-0.5,0.1-0.9,0.1c-0.8,0-1.4-0.3-2-0.9c-0.5-0.6-0.8-1.4-0.8-2.4c0-1,0.3-1.8,0.8-2.5
		c0.5-0.6,1.3-0.9,2.1-0.9C121.6,85.3,122.1,85.4,122.5,85.6z M122.9,88.1c0-0.5-0.1-0.8-0.3-1.1c-0.3-0.5-0.8-0.8-1.4-0.8
		c-0.5,0-0.9,0.2-1.2,0.5s-0.5,0.8-0.5,1.3H122.9z"/>
	<path d="M125.3,83.1h1.1v8.6h-1.1V83.1z"/>
</g>
<g id="XMLID_100_">
	<path d="M19.3,130.3v5.3c0,0.6,0.1,1.1,0.4,1.6c0.4,0.6,0.9,0.9,1.8,0.9c1,0,1.7-0.3,2-1c0.2-0.4,0.3-0.9,0.3-1.5v-5.3h1.2v4.8
		c0,1.1-0.1,1.9-0.4,2.4c-0.5,1-1.5,1.6-3,1.6s-2.4-0.5-3-1.6c-0.3-0.6-0.4-1.4-0.4-2.4v-4.8H19.3z"/>
	<path d="M26.6,132.6h1v1.1c0.1-0.2,0.3-0.5,0.6-0.8s0.7-0.5,1.1-0.5c0,0,0.1,0,0.1,0s0.1,0,0.2,0v1.1c-0.1,0-0.1,0-0.2,0
		s-0.1,0-0.2,0c-0.5,0-0.9,0.2-1.2,0.5s-0.4,0.7-0.4,1.2v3.6h-1.1V132.6z"/>
	<path d="M30.6,130.3h1.1v1.2h-1.1V130.3z M30.6,132.6h1.1v6.2h-1.1V132.6z"/>
	<path d="M33.2,132.6h1v0.9c0.3-0.4,0.6-0.6,0.9-0.8s0.7-0.2,1.1-0.2c0.9,0,1.5,0.3,1.8,0.9c0.2,0.3,0.3,0.8,0.3,1.5v4h-1.1v-4
		c0-0.4-0.1-0.7-0.2-0.9c-0.2-0.4-0.5-0.6-1-0.6c-0.2,0-0.5,0-0.6,0.1c-0.3,0.1-0.5,0.3-0.8,0.5c-0.2,0.2-0.3,0.4-0.3,0.6
		s-0.1,0.5-0.1,0.9v3.3h-1.1V132.6z"/>
	<path d="M43.3,135.1c0.2,0,0.4-0.1,0.5-0.3c0-0.1,0.1-0.2,0.1-0.4c0-0.4-0.1-0.6-0.4-0.8c-0.3-0.2-0.6-0.2-1.1-0.2
		c-0.5,0-0.9,0.1-1.2,0.4c-0.1,0.2-0.2,0.4-0.3,0.7h-1c0-0.8,0.3-1.3,0.8-1.6c0.5-0.3,1-0.5,1.7-0.5c0.7,0,1.3,0.1,1.8,0.4
		c0.5,0.3,0.7,0.7,0.7,1.3v3.6c0,0.1,0,0.2,0.1,0.3c0,0.1,0.1,0.1,0.3,0.1c0,0,0.1,0,0.2,0s0.1,0,0.2,0v0.8c-0.2,0-0.3,0.1-0.4,0.1
		s-0.2,0-0.4,0c-0.4,0-0.6-0.1-0.8-0.4c-0.1-0.1-0.1-0.3-0.2-0.6c-0.2,0.3-0.5,0.5-0.9,0.7s-0.8,0.3-1.3,0.3c-0.6,0-1.1-0.2-1.4-0.5
		s-0.6-0.8-0.6-1.3c0-0.6,0.2-1,0.5-1.4s0.8-0.5,1.4-0.6L43.3,135.1z M41.1,137.9c0.2,0.2,0.5,0.3,0.8,0.3c0.4,0,0.7-0.1,1.1-0.3
		c0.6-0.3,0.9-0.8,0.9-1.4v-0.8c-0.1,0.1-0.3,0.2-0.5,0.2c-0.2,0.1-0.4,0.1-0.6,0.1l-0.6,0.1c-0.4,0.1-0.7,0.1-0.9,0.2
		c-0.3,0.2-0.5,0.5-0.5,0.9C40.7,137.5,40.8,137.7,41.1,137.9z"/>
	<path d="M46.6,130.3h1.1v8.6h-1.1V130.3z"/>
	<path d="M53.2,132.6h1.2c-0.1,0.4-0.5,1.3-1,2.8c-0.4,1.1-0.7,2-1,2.6c-0.6,1.6-1,2.6-1.3,2.9c-0.2,0.4-0.7,0.5-1.3,0.5
		c-0.1,0-0.3,0-0.3,0c-0.1,0-0.2,0-0.3-0.1v-1c0.2,0.1,0.3,0.1,0.4,0.1c0.1,0,0.2,0,0.2,0c0.2,0,0.3,0,0.4-0.1
		c0.1-0.1,0.2-0.1,0.2-0.2c0,0,0.1-0.2,0.2-0.5c0.1-0.3,0.2-0.5,0.3-0.6l-2.3-6.5h1.2l1.7,5.1L53.2,132.6z"/>
	<path d="M55.9,136.9c0,0.4,0.1,0.6,0.3,0.8c0.3,0.3,0.7,0.5,1.4,0.5c0.4,0,0.7-0.1,1.1-0.3s0.5-0.4,0.5-0.8c0-0.3-0.1-0.5-0.4-0.6
		c-0.2-0.1-0.5-0.2-0.9-0.3l-0.9-0.2c-0.5-0.1-0.9-0.3-1.2-0.4c-0.5-0.3-0.7-0.7-0.7-1.2c0-0.6,0.2-1.1,0.7-1.4
		c0.4-0.4,1-0.6,1.7-0.6c1,0,1.6,0.3,2.1,0.8c0.3,0.4,0.4,0.7,0.4,1.1h-1c0-0.2-0.1-0.5-0.3-0.6c-0.2-0.3-0.7-0.4-1.3-0.4
		c-0.4,0-0.7,0.1-0.9,0.2s-0.3,0.4-0.3,0.6c0,0.3,0.1,0.5,0.4,0.7c0.2,0.1,0.4,0.2,0.7,0.3l0.7,0.2c0.8,0.2,1.3,0.4,1.6,0.5
		c0.4,0.3,0.6,0.7,0.6,1.3c0,0.6-0.2,1-0.6,1.4c-0.4,0.4-1.1,0.6-2,0.6c-0.9,0-1.6-0.2-2-0.6s-0.6-0.9-0.6-1.6H55.9z"/>
	<path d="M61.2,130.3h1.1v1.2h-1.1V130.3z M61.2,132.6h1.1v6.2h-1.1V132.6z"/>
	<path d="M64.5,136.9c0,0.4,0.1,0.6,0.3,0.8c0.3,0.3,0.7,0.5,1.4,0.5c0.4,0,0.7-0.1,1.1-0.3s0.5-0.4,0.5-0.8c0-0.3-0.1-0.5-0.4-0.6
		c-0.2-0.1-0.5-0.2-0.9-0.3l-0.9-0.2c-0.5-0.1-0.9-0.3-1.2-0.4c-0.5-0.3-0.7-0.7-0.7-1.2c0-0.6,0.2-1.1,0.7-1.4
		c0.4-0.4,1-0.6,1.7-0.6c1,0,1.6,0.3,2.1,0.8c0.3,0.4,0.4,0.7,0.4,1.1h-1c0-0.2-0.1-0.5-0.3-0.6c-0.2-0.3-0.7-0.4-1.3-0.4
		c-0.4,0-0.7,0.1-0.9,0.2s-0.3,0.4-0.3,0.6c0,0.3,0.1,0.5,0.4,0.7c0.2,0.1,0.4,0.2,0.7,0.3l0.7,0.2c0.8,0.2,1.3,0.4,1.6,0.5
		c0.4,0.3,0.6,0.7,0.6,1.3c0,0.6-0.2,1-0.6,1.4c-0.4,0.4-1.1,0.6-2,0.6c-0.9,0-1.6-0.2-2-0.6s-0.6-0.9-0.6-1.6H64.5z"/>
	<path d="M70.1,140.1c0.3,0,0.5-0.2,0.6-0.6c0.1-0.2,0.1-0.3,0.1-0.5c0,0,0-0.1,0-0.1c0,0,0,0,0-0.1h-0.6v-1.3h1.3v1.2
		c0,0.5-0.1,0.9-0.3,1.2s-0.5,0.6-1,0.7V140.1z"/>
	<path d="M82.8,130.9c0.6,0.6,0.9,1.2,1,2h-1.1c-0.1-0.6-0.4-1-0.8-1.3S81,131,80.3,131c-0.8,0-1.5,0.3-2,0.9
		c-0.5,0.6-0.8,1.5-0.8,2.7c0,1,0.2,1.8,0.7,2.5c0.5,0.6,1.2,0.9,2.1,0.9c0.8,0,1.5-0.3,1.9-1c0.2-0.3,0.4-0.8,0.5-1.4h1.1
		c-0.1,0.9-0.4,1.7-1,2.3c-0.7,0.7-1.6,1.1-2.7,1.1c-1,0-1.8-0.3-2.5-0.9c-0.9-0.8-1.3-2-1.3-3.7c0-1.3,0.3-2.3,1-3.1
		c0.7-0.9,1.7-1.3,3-1.3C81.4,130,82.2,130.3,82.8,130.9z"/>
	<path d="M89.8,133.2c0.6,0.5,0.8,1.3,0.8,2.4c0,1-0.2,1.8-0.7,2.5c-0.5,0.7-1.2,1-2.3,1c-0.9,0-1.5-0.3-2-0.9s-0.8-1.4-0.8-2.4
		c0-1.1,0.3-1.9,0.8-2.5c0.5-0.6,1.2-0.9,2.1-0.9C88.6,132.4,89.2,132.7,89.8,133.2z M89.1,137.4c0.3-0.5,0.4-1.1,0.4-1.8
		c0-0.6-0.1-1.1-0.3-1.4c-0.3-0.6-0.8-0.9-1.5-0.9c-0.6,0-1.1,0.2-1.4,0.7s-0.4,1.1-0.4,1.8c0,0.7,0.1,1.2,0.4,1.7s0.7,0.7,1.4,0.7
		C88.4,138.2,88.9,137.9,89.1,137.4z"/>
	<path d="M91.9,132.6h1v0.9c0.2-0.3,0.5-0.5,0.7-0.7c0.3-0.2,0.7-0.4,1.2-0.4c0.5,0,0.9,0.1,1.2,0.4c0.2,0.1,0.3,0.3,0.5,0.6
		c0.2-0.3,0.5-0.6,0.8-0.7s0.7-0.2,1.1-0.2c0.8,0,1.4,0.3,1.7,0.9c0.2,0.3,0.2,0.8,0.2,1.3v4.2h-1.1v-4.4c0-0.4-0.1-0.7-0.3-0.9
		s-0.5-0.2-0.8-0.2c-0.4,0-0.8,0.1-1.1,0.4s-0.4,0.7-0.4,1.4v3.7h-1.1v-4.1c0-0.4-0.1-0.7-0.2-0.9c-0.2-0.3-0.5-0.4-0.9-0.4
		c-0.4,0-0.8,0.2-1.1,0.5s-0.5,0.9-0.5,1.7v3.3h-1.1V132.6z"/>
	<path d="M101.8,132.6h1v0.8c0.2-0.3,0.4-0.5,0.7-0.7c0.4-0.2,0.8-0.4,1.3-0.4c0.7,0,1.3,0.3,1.8,0.8s0.7,1.3,0.7,2.3
		c0,1.4-0.4,2.3-1.1,2.9c-0.5,0.4-1,0.6-1.6,0.6c-0.5,0-0.9-0.1-1.2-0.3c-0.2-0.1-0.4-0.3-0.6-0.6v3.2h-1.1V132.6z M105.8,137.5
		c0.3-0.4,0.5-1,0.5-1.8c0-0.5-0.1-0.9-0.2-1.3c-0.3-0.7-0.8-1-1.5-1c-0.7,0-1.2,0.4-1.5,1.1c-0.1,0.4-0.2,0.9-0.2,1.5
		c0,0.5,0.1,0.9,0.2,1.2c0.3,0.6,0.8,1,1.5,1C105.1,138.2,105.5,137.9,105.8,137.5z"/>
	<path d="M108.6,130.3h1.1v8.6h-1.1V130.3z"/>
	<path d="M115.1,132.8c0.4,0.2,0.7,0.5,0.9,0.8c0.2,0.3,0.3,0.7,0.4,1.1c0.1,0.3,0.1,0.8,0.1,1.4H112c0,0.6,0.2,1.2,0.4,1.5
		c0.3,0.4,0.7,0.6,1.3,0.6c0.5,0,1-0.2,1.3-0.5c0.2-0.2,0.3-0.5,0.4-0.7h1c0,0.2-0.1,0.5-0.3,0.8s-0.3,0.5-0.5,0.7
		c-0.3,0.3-0.7,0.5-1.2,0.6c-0.3,0.1-0.5,0.1-0.9,0.1c-0.8,0-1.4-0.3-2-0.9c-0.5-0.6-0.8-1.4-0.8-2.4c0-1,0.3-1.8,0.8-2.5
		c0.5-0.6,1.3-0.9,2.1-0.9C114.3,132.4,114.7,132.6,115.1,132.8z M115.5,135.2c0-0.5-0.1-0.8-0.3-1.1c-0.3-0.5-0.8-0.8-1.4-0.8
		c-0.5,0-0.9,0.2-1.2,0.5s-0.5,0.8-0.5,1.3H115.5z"/>
	<path d="M118.1,130.8h1.1v1.8h1v0.9h-1v4.1c0,0.2,0.1,0.4,0.2,0.4c0.1,0,0.2,0.1,0.4,0.1c0.1,0,0.1,0,0.2,0s0.1,0,0.2,0v0.8
		c-0.1,0-0.2,0.1-0.4,0.1s-0.3,0-0.4,0c-0.5,0-0.8-0.1-1-0.4s-0.3-0.6-0.3-1v-4.2h-0.8v-0.9h0.8V130.8z"/>
	<path d="M125.1,132.8c0.4,0.2,0.7,0.5,0.9,0.8c0.2,0.3,0.3,0.7,0.4,1.1c0.1,0.3,0.1,0.8,0.1,1.4H122c0,0.6,0.2,1.2,0.4,1.5
		c0.3,0.4,0.7,0.6,1.3,0.6c0.5,0,1-0.2,1.3-0.5c0.2-0.2,0.3-0.5,0.4-0.7h1c0,0.2-0.1,0.5-0.3,0.8s-0.3,0.5-0.5,0.7
		c-0.3,0.3-0.7,0.5-1.2,0.6c-0.3,0.1-0.5,0.1-0.9,0.1c-0.8,0-1.4-0.3-2-0.9c-0.5-0.6-0.8-1.4-0.8-2.4c0-1,0.3-1.8,0.8-2.5
		c0.5-0.6,1.3-0.9,2.1-0.9C124.3,132.4,124.7,132.6,125.1,132.8z M125.5,135.2c0-0.5-0.1-0.8-0.3-1.1c-0.3-0.5-0.8-0.8-1.4-0.8
		c-0.5,0-0.9,0.2-1.2,0.5s-0.5,0.8-0.5,1.3H125.5z"/>
</g>
<g id="XMLID_101_">
	<path d="M4,182.5h1.2v3.6h4.4v-3.6h1.2v8.6H9.6v-4H5.2v4H4V182.5z"/>
	<path d="M16.4,185c0.4,0.2,0.7,0.5,0.9,0.8c0.2,0.3,0.3,0.7,0.4,1.1c0.1,0.3,0.1,0.8,0.1,1.4h-4.6c0,0.6,0.2,1.2,0.4,1.5
		c0.3,0.4,0.7,0.6,1.3,0.6c0.5,0,1-0.2,1.3-0.5c0.2-0.2,0.3-0.5,0.4-0.7h1c0,0.2-0.1,0.5-0.3,0.8s-0.3,0.5-0.5,0.7
		c-0.3,0.3-0.7,0.5-1.2,0.6c-0.3,0.1-0.5,0.1-0.9,0.1c-0.8,0-1.4-0.3-2-0.9c-0.5-0.6-0.8-1.4-0.8-2.4c0-1,0.3-1.8,0.8-2.5
		c0.5-0.6,1.3-0.9,2.1-0.9C15.6,184.7,16,184.8,16.4,185z M16.8,187.5c0-0.5-0.1-0.8-0.3-1.1c-0.3-0.5-0.8-0.8-1.4-0.8
		c-0.5,0-0.9,0.2-1.2,0.5s-0.5,0.8-0.5,1.3H16.8z"/>
	<path d="M19.1,184.9h1v0.8c0.2-0.3,0.4-0.5,0.7-0.7c0.4-0.2,0.8-0.4,1.3-0.4c0.7,0,1.3,0.3,1.8,0.8s0.7,1.3,0.7,2.3
		c0,1.4-0.4,2.3-1.1,2.9c-0.5,0.4-1,0.6-1.6,0.6c-0.5,0-0.9-0.1-1.2-0.3c-0.2-0.1-0.4-0.3-0.6-0.6v3.2h-1.1V184.9z M23.1,189.8
		c0.3-0.4,0.5-1,0.5-1.8c0-0.5-0.1-0.9-0.2-1.3c-0.3-0.7-0.8-1-1.5-1c-0.7,0-1.2,0.4-1.5,1.1c-0.1,0.4-0.2,0.9-0.2,1.5
		c0,0.5,0.1,0.9,0.2,1.2c0.3,0.6,0.8,1,1.5,1C22.3,190.4,22.8,190.2,23.1,189.8z"/>
	<path d="M29.2,187.3c0.2,0,0.4-0.1,0.5-0.3c0-0.1,0.1-0.2,0.1-0.4c0-0.4-0.1-0.6-0.4-0.8c-0.3-0.2-0.6-0.2-1.1-0.2
		c-0.5,0-0.9,0.1-1.2,0.4c-0.1,0.2-0.2,0.4-0.3,0.7h-1c0-0.8,0.3-1.3,0.8-1.6c0.5-0.3,1-0.5,1.7-0.5c0.7,0,1.3,0.1,1.8,0.4
		c0.5,0.3,0.7,0.7,0.7,1.3v3.6c0,0.1,0,0.2,0.1,0.3c0,0.1,0.1,0.1,0.3,0.1c0,0,0.1,0,0.2,0s0.1,0,0.2,0v0.8c-0.2,0-0.3,0.1-0.4,0.1
		s-0.2,0-0.4,0c-0.4,0-0.6-0.1-0.8-0.4c-0.1-0.1-0.1-0.3-0.2-0.6c-0.2,0.3-0.5,0.5-0.9,0.7s-0.8,0.3-1.3,0.3c-0.6,0-1.1-0.2-1.4-0.5
		s-0.6-0.8-0.6-1.3c0-0.6,0.2-1,0.5-1.4s0.8-0.5,1.4-0.6L29.2,187.3z M27,190.2c0.2,0.2,0.5,0.3,0.8,0.3c0.4,0,0.7-0.1,1.1-0.3
		c0.6-0.3,0.9-0.8,0.9-1.4v-0.8c-0.1,0.1-0.3,0.2-0.5,0.2c-0.2,0.1-0.4,0.1-0.6,0.1l-0.6,0.1c-0.4,0.1-0.7,0.1-0.9,0.2
		c-0.3,0.2-0.5,0.5-0.5,0.9C26.7,189.8,26.8,190,27,190.2z"/>
	<path d="M32.8,183.1h1.1v1.8h1v0.9h-1v4.1c0,0.2,0.1,0.4,0.2,0.4c0.1,0,0.2,0.1,0.4,0.1c0.1,0,0.1,0,0.2,0s0.1,0,0.2,0v0.8
		c-0.1,0-0.2,0.1-0.4,0.1s-0.3,0-0.4,0c-0.5,0-0.8-0.1-1-0.4s-0.3-0.6-0.3-1v-4.2h-0.8v-0.9h0.8V183.1z"/>
	<path d="M35.9,182.5H37v1.2h-1.1V182.5z M35.9,184.9H37v6.2h-1.1V184.9z"/>
	<path d="M42.7,185.2c0.4,0.3,0.7,0.9,0.8,1.8h-1c-0.1-0.4-0.2-0.7-0.4-1s-0.6-0.4-1.1-0.4c-0.7,0-1.2,0.3-1.4,1
		c-0.2,0.4-0.3,0.9-0.3,1.6c0,0.6,0.1,1.2,0.4,1.6s0.7,0.6,1.3,0.6c0.4,0,0.8-0.1,1-0.4s0.4-0.6,0.5-1.1h1c-0.1,0.8-0.4,1.4-0.9,1.8
		s-1.1,0.6-1.8,0.6c-0.8,0-1.5-0.3-2-0.9s-0.7-1.3-0.7-2.2c0-1.1,0.3-2,0.8-2.6s1.2-0.9,2-0.9C41.7,184.7,42.3,184.8,42.7,185.2z"/>
	<path d="M48.1,182.5h6v1.1h-4.8v2.6h4.2v1h-4.2v3.9h-1.2V182.5z"/>
	<path d="M56.3,184.8v4.2c0,0.3,0,0.6,0.1,0.8c0.2,0.4,0.5,0.6,1,0.6c0.7,0,1.2-0.3,1.5-1c0.1-0.4,0.2-0.8,0.2-1.4v-3.1h1.1v6.3h-1
		l0-0.9c-0.1,0.2-0.3,0.4-0.5,0.6c-0.4,0.3-0.9,0.5-1.4,0.5c-0.9,0-1.5-0.3-1.8-0.9c-0.2-0.3-0.3-0.7-0.3-1.3v-4.3H56.3z"/>
	<path d="M61.9,184.8h1v0.9c0.3-0.4,0.6-0.6,0.9-0.8s0.7-0.2,1.1-0.2c0.9,0,1.5,0.3,1.8,0.9c0.2,0.3,0.3,0.8,0.3,1.5v4h-1.1v-4
		c0-0.4-0.1-0.7-0.2-0.9c-0.2-0.4-0.5-0.6-1-0.6c-0.2,0-0.5,0-0.6,0.1c-0.3,0.1-0.5,0.3-0.8,0.5c-0.2,0.2-0.3,0.4-0.3,0.6
		s-0.1,0.5-0.1,0.9v3.3h-1.1V184.8z"/>
	<path d="M72.7,185.2c0.4,0.3,0.7,0.9,0.8,1.8h-1c-0.1-0.4-0.2-0.7-0.4-1s-0.6-0.4-1.1-0.4c-0.7,0-1.2,0.3-1.4,1
		c-0.2,0.4-0.3,0.9-0.3,1.6c0,0.6,0.1,1.2,0.4,1.6s0.7,0.6,1.3,0.6c0.4,0,0.8-0.1,1-0.4s0.4-0.6,0.5-1.1h1c-0.1,0.8-0.4,1.4-0.9,1.8
		s-1.1,0.6-1.8,0.6c-0.8,0-1.5-0.3-2-0.9s-0.7-1.3-0.7-2.2c0-1.1,0.3-2,0.8-2.6s1.2-0.9,2-0.9C71.7,184.7,72.3,184.8,72.7,185.2z"/>
	<path d="M74.8,183.1h1.1v1.8h1v0.9h-1v4.1c0,0.2,0.1,0.4,0.2,0.4c0.1,0,0.2,0.1,0.4,0.1c0.1,0,0.1,0,0.2,0s0.1,0,0.2,0v0.8
		c-0.1,0-0.2,0.1-0.4,0.1s-0.3,0-0.4,0c-0.5,0-0.8-0.1-1-0.4s-0.3-0.6-0.3-1v-4.2h-0.8v-0.9h0.8V183.1z"/>
	<path d="M77.9,182.5H79v1.2h-1.1V182.5z M77.9,184.9H79v6.2h-1.1V184.9z"/>
	<path d="M85.1,185.5c0.6,0.5,0.8,1.3,0.8,2.4c0,1-0.2,1.8-0.7,2.5c-0.5,0.7-1.2,1-2.3,1c-0.9,0-1.5-0.3-2-0.9s-0.8-1.4-0.8-2.4
		c0-1.1,0.3-1.9,0.8-2.5c0.5-0.6,1.2-0.9,2.1-0.9C83.9,184.7,84.6,184.9,85.1,185.5z M84.5,189.6c0.3-0.5,0.4-1.1,0.4-1.8
		c0-0.6-0.1-1.1-0.3-1.4c-0.3-0.6-0.8-0.9-1.5-0.9c-0.6,0-1.1,0.2-1.4,0.7s-0.4,1.1-0.4,1.8c0,0.7,0.1,1.2,0.4,1.7s0.7,0.7,1.4,0.7
		C83.7,190.4,84.2,190.2,84.5,189.6z"/>
	<path d="M87.2,184.8h1v0.9c0.3-0.4,0.6-0.6,0.9-0.8s0.7-0.2,1.1-0.2c0.9,0,1.5,0.3,1.8,0.9c0.2,0.3,0.3,0.8,0.3,1.5v4h-1.1v-4
		c0-0.4-0.1-0.7-0.2-0.9c-0.2-0.4-0.5-0.6-1-0.6c-0.2,0-0.5,0-0.6,0.1c-0.3,0.1-0.5,0.3-0.8,0.5c-0.2,0.2-0.3,0.4-0.3,0.6
		s-0.1,0.5-0.1,0.9v3.3h-1.1V184.8z"/>
	<path d="M97.5,182.5h3.9c0.8,0,1.4,0.2,1.8,0.6s0.7,1,0.7,1.8c0,0.7-0.2,1.3-0.6,1.8c-0.4,0.5-1.1,0.7-1.9,0.7h-2.7v3.6h-1.2V182.5
		z M102,183.7c-0.3-0.1-0.6-0.2-1.1-0.2h-2.3v3h2.3c0.5,0,0.9-0.1,1.3-0.3s0.5-0.6,0.5-1.2C102.7,184.3,102.5,183.9,102,183.7z"/>
	<path d="M108.6,187.3c0.2,0,0.4-0.1,0.5-0.3c0-0.1,0.1-0.2,0.1-0.4c0-0.4-0.1-0.6-0.4-0.8c-0.3-0.2-0.6-0.2-1.1-0.2
		c-0.5,0-0.9,0.1-1.2,0.4c-0.1,0.2-0.2,0.4-0.3,0.7h-1c0-0.8,0.3-1.3,0.8-1.6c0.5-0.3,1-0.5,1.7-0.5c0.7,0,1.3,0.1,1.8,0.4
		c0.5,0.3,0.7,0.7,0.7,1.3v3.6c0,0.1,0,0.2,0.1,0.3c0,0.1,0.1,0.1,0.3,0.1c0,0,0.1,0,0.2,0s0.1,0,0.2,0v0.8c-0.2,0-0.3,0.1-0.4,0.1
		s-0.2,0-0.4,0c-0.4,0-0.6-0.1-0.8-0.4c-0.1-0.1-0.1-0.3-0.2-0.6c-0.2,0.3-0.5,0.5-0.9,0.7s-0.8,0.3-1.3,0.3c-0.6,0-1.1-0.2-1.4-0.5
		s-0.6-0.8-0.6-1.3c0-0.6,0.2-1,0.5-1.4s0.8-0.5,1.4-0.6L108.6,187.3z M106.4,190.2c0.2,0.2,0.5,0.3,0.8,0.3c0.4,0,0.7-0.1,1.1-0.3
		c0.6-0.3,0.9-0.8,0.9-1.4v-0.8c-0.1,0.1-0.3,0.2-0.5,0.2c-0.2,0.1-0.4,0.1-0.6,0.1l-0.6,0.1c-0.4,0.1-0.7,0.1-0.9,0.2
		c-0.3,0.2-0.5,0.5-0.5,0.9C106.1,189.8,106.2,190,106.4,190.2z"/>
	<path d="M111.9,184.8h1v0.9c0.3-0.4,0.6-0.6,0.9-0.8s0.7-0.2,1.1-0.2c0.9,0,1.5,0.3,1.8,0.9c0.2,0.3,0.3,0.8,0.3,1.5v4H116v-4
		c0-0.4-0.1-0.7-0.2-0.9c-0.2-0.4-0.5-0.6-1-0.6c-0.2,0-0.5,0-0.6,0.1c-0.3,0.1-0.5,0.3-0.8,0.5c-0.2,0.2-0.3,0.4-0.3,0.6
		s-0.1,0.5-0.1,0.9v3.3h-1.1V184.8z"/>
	<path d="M122.5,185c0.4,0.2,0.7,0.5,0.9,0.8c0.2,0.3,0.3,0.7,0.4,1.1c0.1,0.3,0.1,0.8,0.1,1.4h-4.6c0,0.6,0.2,1.2,0.4,1.5
		c0.3,0.4,0.7,0.6,1.3,0.6c0.5,0,1-0.2,1.3-0.5c0.2-0.2,0.3-0.5,0.4-0.7h1c0,0.2-0.1,0.5-0.3,0.8s-0.3,0.5-0.5,0.7
		c-0.3,0.3-0.7,0.5-1.2,0.6c-0.3,0.1-0.5,0.1-0.9,0.1c-0.8,0-1.4-0.3-2-0.9c-0.5-0.6-0.8-1.4-0.8-2.4c0-1,0.3-1.8,0.8-2.5
		c0.5-0.6,1.3-0.9,2.1-0.9C121.6,184.7,122.1,184.8,122.5,185z M122.9,187.5c0-0.5-0.1-0.8-0.3-1.1c-0.3-0.5-0.8-0.8-1.4-0.8
		c-0.5,0-0.9,0.2-1.2,0.5s-0.5,0.8-0.5,1.3H122.9z"/>
	<path d="M125.3,182.5h1.1v8.6h-1.1V182.5z"/>
</g>
<g id="XMLID_36_" transform="translate(0, 50)">
	<line id="XMLID_55_" fill="none" stroke="#454545" stroke-width="2" x1="134.7" y1="-12.7" x2="604.7" y2="-12.7"/>
	<circle id="XMLID_54_" fill="#FFFFFF" stroke="#ACACAC" cx="184.7" cy="-12.7" r="20"/>
	<circle id="XMLID_53_" fill="#FFFFFF" stroke="#ACACAC" cx="234.7" cy="-12.7" r="20"/>
	<circle id="XMLID_52_" fill="#FFFFFF" stroke="#ACACAC" cx="284.7" cy="-12.7" r="20"/>
	<circle id="XMLID_51_" fill="#FFFFFF" stroke="#ACACAC" cx="334.7" cy="-12.7" r="20"/>
	<circle id="XMLID_50_" fill="#FFFFFF" stroke="#ACACAC" cx="384.7" cy="-12.7" r="20"/>
	<circle id="XMLID_49_" fill="#FFFFFF" stroke="#ACACAC" cx="434.7" cy="-12.7" r="20"/>
	<circle id="XMLID_48_" fill="#FFFFFF" stroke="#ACACAC" cx="484.7" cy="-12.7" r="20"/>
	<circle id="XMLID_47_" fill="#FFFFFF" stroke="#ACACAC" cx="534.7" cy="-12.7" r="20"/>
	<circle id="XMLID_46_" fill="#FFFFFF" stroke="#ACACAC" cx="584.7" cy="-12.7" r="20"/>
	<line id="XMLID_45_" fill="none" stroke="#454545" stroke-width="2" x1="204.7" y1="-12.7" x2="164.7" y2="-12.7"/>
	<line id="XMLID_44_" fill="none" stroke="#454545" stroke-width="2" x1="254.7" y1="-12.7" x2="214.7" y2="-12.7"/>
	<line id="XMLID_43_" fill="none" stroke="#454545" stroke-width="2" x1="304.7" y1="-12.7" x2="264.7" y2="-12.7"/>
	<line id="XMLID_42_" fill="none" stroke="#454545" stroke-width="2" x1="334.7" y1="7.3" x2="334.7" y2="-32.7"/>
	<line id="XMLID_41_" fill="none" stroke="#454545" stroke-width="2" x1="404.7" y1="-12.7" x2="364.7" y2="-12.7"/>
	<line id="XMLID_40_" fill="none" stroke="#454545" stroke-width="2" x1="454.7" y1="-12.7" x2="414.7" y2="-12.7"/>
	<line id="XMLID_39_" fill="none" stroke="#454545" stroke-width="2" x1="504.7" y1="-12.7" x2="464.7" y2="-12.7"/>
	<line id="XMLID_38_" fill="none" stroke="#454545" stroke-width="2" x1="554.7" y1="-12.7" x2="514.7" y2="-12.7"/>
	<line id="XMLID_37_" fill="none" stroke="#454545" stroke-width="2" x1="604.7" y1="-12.7" x2="564.7" y2="-12.7"/>
</g>
<g id="XMLID_22_" transform="translate(0, 100)">
	<line id="XMLID_35_" fill="none" stroke="#454545" stroke-width="2" x1="134.7" y1="-12.7" x2="454.7" y2="-12.7"/>
	<circle id="XMLID_34_" fill="#FFFFFF" stroke="#ACACAC" cx="184.7" cy="-12.7" r="20"/>
	<circle id="XMLID_33_" fill="#FFFFFF" stroke="#ACACAC" cx="234.7" cy="-12.7" r="20"/>
	<circle id="XMLID_32_" fill="#FFFFFF" stroke="#ACACAC" cx="284.7" cy="-12.7" r="20"/>
	<circle id="XMLID_31_" fill="#FFFFFF" stroke="#ACACAC" cx="334.7" cy="-12.7" r="20"/>
	<circle id="XMLID_30_" fill="#FFFFFF" stroke="#ACACAC" cx="384.7" cy="-12.7" r="20"/>
	<circle id="XMLID_29_" fill="#FFFFFF" stroke="#ACACAC" cx="434.7" cy="-12.7" r="20"/>
	<line id="XMLID_28_" fill="none" stroke="#454545" stroke-width="2" x1="204.7" y1="-12.7" x2="164.7" y2="-12.7"/>
	<line id="XMLID_27_" fill="none" stroke="#454545" stroke-width="2" x1="254.7" y1="-12.7" x2="214.7" y2="-12.7"/>
	<line id="XMLID_26_" fill="none" stroke="#454545" stroke-width="2" x1="304.7" y1="-12.7" x2="264.7" y2="-12.7"/>
	<line id="XMLID_25_" fill="none" stroke="#454545" stroke-width="2" x1="354.7" y1="-12.7" x2="314.7" y2="-12.7"/>
	<line id="XMLID_24_" fill="none" stroke="#454545" stroke-width="2" x1="384.7" y1="7.3" x2="384.7" y2="-32.7"/>
	<line id="XMLID_23_" fill="none" stroke="#454545" stroke-width="2" x1="454.7" y1="-12.7" x2="414.7" y2="-12.7"/>
</g>
<g id="XMLID_14_" transform="translate(0, 150)">
	<line id="XMLID_21_" fill="none" stroke="#454545" stroke-width="2" x1="134.7" y1="-12.7" x2="304.7" y2="-12.7"/>
	<circle id="XMLID_20_" fill="#FFFFFF" stroke="#ACACAC" cx="184.7" cy="-12.7" r="20"/>
	<circle id="XMLID_19_" fill="#FFFFFF" stroke="#ACACAC" cx="234.7" cy="-12.7" r="20"/>
	<circle id="XMLID_18_" fill="#FFFFFF" stroke="#ACACAC" cx="284.7" cy="-12.7" r="20"/>
	<line id="XMLID_17_" fill="none" stroke="#454545" stroke-width="2" x1="204.7" y1="-12.7" x2="164.7" y2="-12.7"/>
	<line id="XMLID_16_" fill="none" stroke="#454545" stroke-width="2" x1="234.7" y1="7.3" x2="234.7" y2="-32.7"/>
	<line id="XMLID_15_" fill="none" stroke="#454545" stroke-width="2" x1="304.7" y1="-12.7" x2="264.7" y2="-12.7"/>
</g>
<g id="XMLID_2_" transform="translate(0, 200)">
	<line id="XMLID_13_" fill="none" stroke="#454545" stroke-width="2" x1="134.7" y1="-12.7" x2="404.7" y2="-12.7"/>
	<circle id="XMLID_12_" fill="#FFFFFF" stroke="#ACACAC" cx="184.7" cy="-12.7" r="20"/>
	<circle id="XMLID_11_" fill="#FFFFFF" stroke="#ACACAC" cx="234.7" cy="-12.7" r="20"/>
	<circle id="XMLID_10_" fill="#FFFFFF" stroke="#ACACAC" cx="284.7" cy="-12.7" r="20"/>
	<circle id="XMLID_9_" fill="#FFFFFF" stroke="#ACACAC" cx="334.7" cy="-12.7" r="20"/>
	<circle id="XMLID_8_" fill="#FFFFFF" stroke="#ACACAC" cx="384.7" cy="-12.7" r="20"/>
	<line id="XMLID_7_" fill="none" stroke="#454545" stroke-width="2" x1="204.7" y1="-12.7" x2="164.7" y2="-12.7"/>
	<line id="XMLID_6_" fill="none" stroke="#454545" stroke-width="2" x1="254.7" y1="-12.7" x2="214.7" y2="-12.7"/>
	<line id="XMLID_5_" fill="none" stroke="#454545" stroke-width="2" x1="304.7" y1="-12.7" x2="264.7" y2="-12.7"/>
	<line id="XMLID_4_" fill="none" stroke="#454545" stroke-width="2" x1="354.7" y1="-12.7" x2="314.7" y2="-12.7"/>
	<line id="XMLID_3_" fill="none" stroke="#454545" stroke-width="2" x1="404.7" y1="-12.7" x2="364.7" y2="-12.7"/>
</g>
<g>
</g>
<g>
</g>
<g>
</g>
<g>
</g>
<g>
</g>
<g>
</g>
<g>
</g>
<g>
</g>
<g>
</g>
<g>
</g>
<g>
</g>
<g>
</g>
<g>
</g>
<g>
</g>
<g>
</g>
</svg>
