<?xml version="1.0" encoding="utf-8"?>
<!-- Generator: Adobe Illustrator 19.1.0, SVG Export Plug-In . SVG Version: 6.00 Build 0)  -->
<!DOCTYPE svg PUBLIC "-//W3C//DTD SVG 1.1//EN" "http://www.w3.org/Graphics/SVG/1.1/DTD/svg11.dtd">
<svg version="1.1" id="Layer_1" xmlns="http://www.w3.org/2000/svg" xmlns:xlink="http://www.w3.org/1999/xlink" x="0px" y="0px"
	 viewBox="0 0 704.1 259.6" enable-background="new 0 0 704.1 259.6" xml:space="preserve">
<g id="XMLID_94_" transform="translate(0, 2000)">
	<line id="XMLID_138_" display="none" fill="none" stroke="#454545" stroke-width="2" x1="35.6" y1="-2013" x2="35.6" y2="-1763"/>
	<line id="XMLID_137_" display="none" fill="none" stroke="#454545" stroke-width="2" x1="85.6" y1="-2013" x2="85.6" y2="-1763"/>
	
		<line id="XMLID_136_" display="none" fill="none" stroke="#454545" stroke-width="2" x1="135.6" y1="-2013" x2="135.6" y2="-1763"/>
	
		<line id="XMLID_135_" display="none" fill="none" stroke="#454545" stroke-width="2" x1="185.6" y1="-2013" x2="185.6" y2="-1763"/>
	<g id="XMLID_125_" transform="translate(0, 50)">
		
			<line id="XMLID_134_" display="none" fill="none" stroke="#454545" stroke-width="2" x1="-14.4" y1="-2013" x2="235.6" y2="-2013"/>
		<circle id="XMLID_133_" fill="#F9F9F9" stroke="#454545" cx="35.6" cy="-2013" r="20"/>
		<circle id="XMLID_132_" fill="#F9F9F9" stroke="#454545" cx="85.6" cy="-2013" r="20"/>
		<circle id="XMLID_131_" fill="#F9F9F9" stroke="#454545" cx="135.6" cy="-2013" r="20"/>
		<circle id="XMLID_130_" fill="#F9F9F9" stroke="#454545" cx="185.6" cy="-2013" r="20"/>
		<line id="XMLID_129_" fill="none" stroke="#454545" stroke-width="2" x1="35.6" y1="-2013" x2="35.6" y2="-2033"/>
		<line id="XMLID_128_" fill="none" stroke="#454545" stroke-width="2" x1="85.6" y1="-2013" x2="85.6" y2="-2033"/>
		<line id="XMLID_127_" fill="none" stroke="#454545" stroke-width="2" x1="135.6" y1="-2013" x2="135.6" y2="-2033"/>
		<line id="XMLID_126_" fill="none" stroke="#454545" stroke-width="2" x1="185.6" y1="-2013" x2="185.6" y2="-2033"/>
	</g>
	<g id="XMLID_115_" transform="translate(0, 100)">
		
			<line id="XMLID_124_" display="none" fill="none" stroke="#454545" stroke-width="2" x1="-14.4" y1="-2013" x2="235.6" y2="-2013"/>
		<circle id="XMLID_123_" fill="#F9F9F9" stroke="#454545" cx="35.6" cy="-2013" r="20"/>
		<circle id="XMLID_122_" fill="#F9F9F9" stroke="#454545" cx="85.6" cy="-2013" r="20"/>
		<circle id="XMLID_121_" fill="#F9F9F9" stroke="#454545" cx="135.6" cy="-2013" r="20"/>
		<circle id="XMLID_120_" fill="#F9F9F9" stroke="#454545" cx="185.6" cy="-2013" r="20"/>
		<line id="XMLID_119_" fill="none" stroke="#454545" stroke-width="2" x1="35.6" y1="-2013" x2="55.6" y2="-2013"/>
		<line id="XMLID_118_" fill="none" stroke="#454545" stroke-width="2" x1="85.6" y1="-2013" x2="85.6" y2="-2033"/>
		<line id="XMLID_117_" fill="none" stroke="#454545" stroke-width="2" x1="135.6" y1="-2013" x2="135.6" y2="-2033"/>
		<line id="XMLID_116_" fill="none" stroke="#454545" stroke-width="2" x1="185.6" y1="-2013" x2="185.6" y2="-2033"/>
	</g>
	<g id="XMLID_105_" transform="translate(0, 150)">
		
			<line id="XMLID_114_" display="none" fill="none" stroke="#454545" stroke-width="2" x1="-14.4" y1="-2013" x2="235.6" y2="-2013"/>
		<circle id="XMLID_113_" fill="#F9F9F9" stroke="#454545" cx="35.6" cy="-2013" r="20"/>
		<circle id="XMLID_112_" fill="#F9F9F9" stroke="#454545" cx="85.6" cy="-2013" r="20"/>
		<circle id="XMLID_111_" fill="#F9F9F9" stroke="#454545" cx="135.6" cy="-2013" r="20"/>
		<circle id="XMLID_110_" fill="#F9F9F9" stroke="#454545" cx="185.6" cy="-2013" r="20"/>
		<line id="XMLID_109_" fill="none" stroke="#454545" stroke-width="2" x1="35.6" y1="-2013" x2="35.6" y2="-2033"/>
		<line id="XMLID_108_" fill="none" stroke="#454545" stroke-width="2" x1="85.6" y1="-2013" x2="85.6" y2="-2033"/>
		<line id="XMLID_107_" fill="none" stroke="#454545" stroke-width="2" x1="135.6" y1="-2013" x2="135.6" y2="-2033"/>
		<line id="XMLID_106_" fill="none" stroke="#454545" stroke-width="2" x1="185.6" y1="-2013" x2="185.6" y2="-2033"/>
	</g>
	<g id="XMLID_95_" transform="translate(0, 200)">
		
			<line id="XMLID_104_" display="none" fill="none" stroke="#454545" stroke-width="2" x1="-14.4" y1="-2013" x2="235.6" y2="-2013"/>
		<circle id="XMLID_103_" fill="#F9F9F9" stroke="#454545" cx="35.6" cy="-2013" r="20"/>
		<circle id="XMLID_102_" fill="#F9F9F9" stroke="#454545" cx="85.6" cy="-2013" r="20"/>
		<circle id="XMLID_101_" fill="#F9F9F9" stroke="#454545" cx="135.6" cy="-2013" r="20"/>
		<circle id="XMLID_100_" fill="#F9F9F9" stroke="#454545" cx="185.6" cy="-2013" r="20"/>
		<line id="XMLID_99_" fill="none" stroke="#454545" stroke-width="2" x1="35.6" y1="-2013" x2="35.6" y2="-2033"/>
		<line id="XMLID_98_" fill="none" stroke="#454545" stroke-width="2" x1="85.6" y1="-2013" x2="85.6" y2="-2033"/>
		<line id="XMLID_97_" fill="none" stroke="#454545" stroke-width="2" x1="135.6" y1="-2013" x2="135.6" y2="-2033"/>
		<line id="XMLID_96_" fill="none" stroke="#454545" stroke-width="2" x1="185.6" y1="-2013" x2="185.6" y2="-2033"/>
	</g>
</g>
<g id="XMLID_48_" transform="translate(0, 2400)">
	<line id="XMLID_93_" fill="none" stroke="#454545" stroke-width="2" x1="276.8" y1="-2383" x2="276.8" y2="-2193"/>
	<line id="XMLID_92_" fill="none" stroke="#454545" stroke-width="2" x1="326.8" y1="-2383" x2="326.8" y2="-2193"/>
	<line id="XMLID_91_" fill="none" stroke="#454545" stroke-width="2" x1="376.8" y1="-2383" x2="376.8" y2="-2193"/>
	<line id="XMLID_90_" fill="none" stroke="#454545" stroke-width="2" x1="426.8" y1="-2383" x2="426.8" y2="-2193"/>
	<g id="XMLID_80_" transform="translate(0, 50)">
		
			<line id="XMLID_89_" display="none" fill="none" stroke="#454545" stroke-width="2" x1="226.8" y1="-2413" x2="476.8" y2="-2413"/>
		<circle id="XMLID_88_" fill="#F9F9F9" stroke="#454545" cx="276.8" cy="-2413" r="20"/>
		<circle id="XMLID_87_" fill="#F9F9F9" stroke="#454545" cx="326.8" cy="-2413" r="20"/>
		<circle id="XMLID_86_" fill="#F9F9F9" stroke="#454545" cx="376.8" cy="-2413" r="20"/>
		<circle id="XMLID_85_" fill="#F9F9F9" stroke="#454545" cx="426.8" cy="-2413" r="20"/>
		<line id="XMLID_84_" fill="none" stroke="#454545" stroke-width="2" x1="276.8" y1="-2393" x2="276.8" y2="-2433"/>
		<line id="XMLID_83_" fill="none" stroke="#454545" stroke-width="2" x1="326.8" y1="-2393" x2="326.8" y2="-2433"/>
		<line id="XMLID_82_" fill="none" stroke="#454545" stroke-width="2" x1="376.8" y1="-2393" x2="376.8" y2="-2433"/>
		<line id="XMLID_81_" fill="none" stroke="#454545" stroke-width="2" x1="426.8" y1="-2393" x2="426.8" y2="-2433"/>
	</g>
	<g id="XMLID_69_" transform="translate(0, 100)">
		
			<line id="XMLID_79_" display="none" fill="none" stroke="#454545" stroke-width="2" x1="226.8" y1="-2413" x2="476.8" y2="-2413"/>
		<circle id="XMLID_78_" fill="#F9F9F9" stroke="#454545" cx="276.8" cy="-2413" r="20"/>
		<circle id="XMLID_77_" fill="#F9F9F9" stroke="#454545" cx="326.8" cy="-2413" r="20"/>
		<circle id="XMLID_76_" fill="#F9F9F9" stroke="#454545" cx="376.8" cy="-2413" r="20"/>
		<circle id="XMLID_75_" fill="#F9F9F9" stroke="#454545" cx="426.8" cy="-2413" r="20"/>
		<line id="XMLID_74_" fill="none" stroke="#454545" stroke-width="2" x1="275.9" y1="-2413" x2="296.9" y2="-2413"/>
		<line id="XMLID_73_" fill="none" stroke="#454545" stroke-width="2" x1="326.8" y1="-2393" x2="326.8" y2="-2433"/>
		<line id="XMLID_72_" fill="none" stroke="#454545" stroke-width="2" x1="376.8" y1="-2393" x2="376.8" y2="-2433"/>
		<line id="XMLID_71_" fill="none" stroke="#454545" stroke-width="2" x1="426.8" y1="-2393" x2="426.8" y2="-2433"/>
		<line id="XMLID_70_" fill="none" stroke="#454545" stroke-width="2" x1="276.9" y1="-2393" x2="276.9" y2="-2413"/>
	</g>
	<g id="XMLID_59_" transform="translate(0, 150)">
		
			<line id="XMLID_68_" display="none" fill="none" stroke="#454545" stroke-width="2" x1="226.8" y1="-2413" x2="476.8" y2="-2413"/>
		<circle id="XMLID_67_" fill="#F9F9F9" stroke="#454545" cx="276.8" cy="-2413" r="20"/>
		<circle id="XMLID_66_" fill="#F9F9F9" stroke="#454545" cx="326.8" cy="-2413" r="20"/>
		<circle id="XMLID_65_" fill="#F9F9F9" stroke="#454545" cx="376.8" cy="-2413" r="20"/>
		<circle id="XMLID_64_" fill="#F9F9F9" stroke="#454545" cx="426.8" cy="-2413" r="20"/>
		<line id="XMLID_63_" fill="none" stroke="#454545" stroke-width="2" x1="276.8" y1="-2393" x2="276.8" y2="-2433"/>
		<line id="XMLID_62_" fill="none" stroke="#454545" stroke-width="2" x1="326.8" y1="-2393" x2="326.8" y2="-2433"/>
		<line id="XMLID_61_" fill="none" stroke="#454545" stroke-width="2" x1="376.8" y1="-2393" x2="376.8" y2="-2433"/>
		<line id="XMLID_60_" fill="none" stroke="#454545" stroke-width="2" x1="426.8" y1="-2393" x2="426.8" y2="-2433"/>
	</g>
	<g id="XMLID_49_" transform="translate(0, 200)">
		
			<line id="XMLID_58_" display="none" fill="none" stroke="#454545" stroke-width="2" x1="226.8" y1="-2413" x2="476.8" y2="-2413"/>
		<circle id="XMLID_57_" fill="#F9F9F9" stroke="#454545" cx="276.8" cy="-2413" r="20"/>
		<circle id="XMLID_56_" fill="#F9F9F9" stroke="#454545" cx="326.8" cy="-2413" r="20"/>
		<circle id="XMLID_55_" fill="#F9F9F9" stroke="#454545" cx="376.8" cy="-2413" r="20"/>
		<circle id="XMLID_54_" fill="#F9F9F9" stroke="#454545" cx="426.8" cy="-2413" r="20"/>
		<line id="XMLID_53_" fill="none" stroke="#454545" stroke-width="2" x1="276.8" y1="-2393" x2="276.8" y2="-2433"/>
		<line id="XMLID_52_" fill="none" stroke="#454545" stroke-width="2" x1="326.8" y1="-2393" x2="326.8" y2="-2433"/>
		<line id="XMLID_51_" fill="none" stroke="#454545" stroke-width="2" x1="376.8" y1="-2393" x2="376.8" y2="-2433"/>
		<line id="XMLID_50_" fill="none" stroke="#454545" stroke-width="2" x1="426.8" y1="-2393" x2="426.8" y2="-2433"/>
	</g>
</g>
<g id="XMLID_2_" transform="translate(0, 3200)">
	<line id="XMLID_46_" fill="none" stroke="#454545" stroke-width="2" x1="517.6" y1="-3183" x2="517.6" y2="-2993"/>
	<line id="XMLID_45_" fill="none" stroke="#454545" stroke-width="2" x1="567.6" y1="-3183" x2="567.6" y2="-2993"/>
	<line id="XMLID_44_" fill="none" stroke="#454545" stroke-width="2" x1="617.6" y1="-3183" x2="617.6" y2="-2993"/>
	<line id="XMLID_43_" fill="none" stroke="#454545" stroke-width="2" x1="667.6" y1="-3183" x2="667.6" y2="-2993"/>
	<g id="XMLID_33_" transform="translate(0, 50)">
		
			<line id="XMLID_42_" display="none" fill="none" stroke="#454545" stroke-width="2" x1="467.6" y1="-3213" x2="717.6" y2="-3213"/>
		<circle id="XMLID_41_" fill="#F9F9F9" stroke="#454545" cx="517.6" cy="-3213" r="20"/>
		<circle id="XMLID_40_" fill="#F9F9F9" stroke="#454545" cx="567.6" cy="-3213" r="20"/>
		<circle id="XMLID_39_" fill="#F9F9F9" stroke="#454545" cx="617.6" cy="-3213" r="20"/>
		<circle id="XMLID_38_" fill="#F9F9F9" stroke="#454545" cx="667.6" cy="-3213" r="20"/>
		<line id="XMLID_37_" fill="none" stroke="#454545" stroke-width="2" x1="517.6" y1="-3193" x2="517.6" y2="-3233"/>
		<line id="XMLID_36_" fill="none" stroke="#454545" stroke-width="2" x1="567.6" y1="-3193" x2="567.6" y2="-3233"/>
		<line id="XMLID_35_" fill="none" stroke="#454545" stroke-width="2" x1="617.6" y1="-3193" x2="617.6" y2="-3233"/>
		<line id="XMLID_34_" fill="none" stroke="#454545" stroke-width="2" x1="667.6" y1="-3193" x2="667.6" y2="-3233"/>
	</g>
	<g id="XMLID_23_" transform="translate(0, 100)">
		
			<line id="XMLID_32_" display="none" fill="none" stroke="#454545" stroke-width="2" x1="467.6" y1="-3213" x2="717.6" y2="-3213"/>
		<circle id="XMLID_31_" fill="#F9F9F9" stroke="#454545" cx="517.6" cy="-3213" r="20"/>
		<circle id="XMLID_30_" fill="#F9F9F9" stroke="#454545" cx="567.6" cy="-3213" r="20"/>
		<circle id="XMLID_29_" fill="#F9F9F9" stroke="#454545" cx="617.6" cy="-3213" r="20"/>
		<circle id="XMLID_28_" fill="#F9F9F9" stroke="#454545" cx="667.6" cy="-3213" r="20"/>
		<line id="XMLID_27_" fill="none" stroke="#454545" stroke-width="2" x1="497.6" y1="-3213" x2="537.6" y2="-3213"/>
		<line id="XMLID_26_" fill="none" stroke="#454545" stroke-width="2" x1="567.6" y1="-3193" x2="567.6" y2="-3233"/>
		<line id="XMLID_25_" fill="none" stroke="#454545" stroke-width="2" x1="617.6" y1="-3193" x2="617.6" y2="-3233"/>
		<line id="XMLID_24_" fill="none" stroke="#454545" stroke-width="2" x1="667.6" y1="-3193" x2="667.6" y2="-3233"/>
	</g>
	<g id="XMLID_13_" transform="translate(0, 150)">
		
			<line id="XMLID_22_" display="none" fill="none" stroke="#454545" stroke-width="2" x1="467.6" y1="-3213" x2="717.6" y2="-3213"/>
		<circle id="XMLID_21_" fill="#F9F9F9" stroke="#454545" cx="517.6" cy="-3213" r="20"/>
		<circle id="XMLID_20_" fill="#F9F9F9" stroke="#454545" cx="567.6" cy="-3213" r="20"/>
		<circle id="XMLID_19_" fill="#F9F9F9" stroke="#454545" cx="617.6" cy="-3213" r="20"/>
		<circle id="XMLID_18_" fill="#F9F9F9" stroke="#454545" cx="667.6" cy="-3213" r="20"/>
		<line id="XMLID_17_" fill="none" stroke="#454545" stroke-width="2" x1="517.6" y1="-3193" x2="517.6" y2="-3233"/>
		<line id="XMLID_16_" fill="none" stroke="#454545" stroke-width="2" x1="567.6" y1="-3193" x2="567.6" y2="-3233"/>
		<line id="XMLID_15_" fill="none" stroke="#454545" stroke-width="2" x1="617.6" y1="-3193" x2="617.6" y2="-3233"/>
		<line id="XMLID_14_" fill="none" stroke="#454545" stroke-width="2" x1="667.6" y1="-3193" x2="667.6" y2="-3233"/>
	</g>
	<g id="XMLID_3_" transform="translate(0, 200)">
		
			<line id="XMLID_12_" display="none" fill="none" stroke="#454545" stroke-width="2" x1="467.6" y1="-3213" x2="717.6" y2="-3213"/>
		<circle id="XMLID_11_" fill="#F9F9F9" stroke="#454545" cx="517.6" cy="-3213" r="20"/>
		<circle id="XMLID_10_" fill="#F9F9F9" stroke="#454545" cx="567.6" cy="-3213" r="20"/>
		<circle id="XMLID_9_" fill="#F9F9F9" stroke="#454545" cx="617.6" cy="-3213" r="20"/>
		<circle id="XMLID_8_" fill="#F9F9F9" stroke="#454545" cx="667.6" cy="-3213" r="20"/>
		<line id="XMLID_7_" fill="none" stroke="#454545" stroke-width="2" x1="517.6" y1="-3193" x2="517.6" y2="-3233"/>
		<line id="XMLID_6_" fill="none" stroke="#454545" stroke-width="2" x1="567.6" y1="-3193" x2="567.6" y2="-3233"/>
		<line id="XMLID_5_" fill="none" stroke="#454545" stroke-width="2" x1="617.6" y1="-3193" x2="617.6" y2="-3233"/>
		<line id="XMLID_4_" fill="none" stroke="#454545" stroke-width="2" x1="667.6" y1="-3193" x2="667.6" y2="-3233"/>
	</g>
</g>
<g id="XMLID_163_">
	<path d="M108.1,224.5c-0.8,1.6-1.3,2.8-1.6,3.5c-0.4,1.1-0.6,2.5-0.6,4c0,1.5,0.2,2.9,0.6,4.1c0.3,0.8,0.8,1.9,1.5,3.3h-0.9
		c-0.8-1.2-1.2-1.9-1.4-2.3c-0.2-0.3-0.4-0.8-0.6-1.3c-0.3-0.8-0.5-1.6-0.6-2.5c-0.1-0.5-0.1-0.9-0.1-1.3c0-1.5,0.2-2.9,0.7-4.1
		c0.3-0.8,0.9-1.9,1.9-3.4H108.1z"/>
	<path d="M114.2,231.1c0.3,0,0.5-0.2,0.6-0.4c0.1-0.1,0.1-0.3,0.1-0.5c0-0.5-0.2-0.8-0.5-1c-0.3-0.2-0.8-0.3-1.5-0.3
		c-0.7,0-1.3,0.2-1.6,0.6c-0.2,0.2-0.3,0.5-0.3,1h-1.3c0-1,0.4-1.8,1-2.2c0.6-0.4,1.4-0.6,2.2-0.6c1,0,1.8,0.2,2.4,0.6
		c0.6,0.4,0.9,1,0.9,1.8v4.8c0,0.1,0,0.3,0.1,0.4c0.1,0.1,0.2,0.1,0.4,0.1c0.1,0,0.1,0,0.2,0s0.2,0,0.2,0v1
		c-0.2,0.1-0.4,0.1-0.5,0.1c-0.1,0-0.3,0-0.5,0c-0.5,0-0.8-0.2-1.1-0.5c-0.1-0.2-0.2-0.4-0.2-0.8c-0.3,0.4-0.7,0.7-1.2,1
		c-0.5,0.3-1.1,0.4-1.8,0.4c-0.8,0-1.4-0.2-1.9-0.7s-0.7-1.1-0.7-1.8c0-0.8,0.2-1.4,0.7-1.8s1.1-0.7,1.9-0.8L114.2,231.1z
		 M111.3,234.9c0.3,0.2,0.6,0.4,1.1,0.4c0.5,0,1-0.1,1.4-0.3c0.8-0.4,1.2-1,1.2-1.9v-1.1c-0.2,0.1-0.4,0.2-0.7,0.3
		c-0.3,0.1-0.5,0.1-0.8,0.2l-0.8,0.1c-0.5,0.1-0.9,0.2-1.1,0.3c-0.4,0.2-0.7,0.6-0.7,1.2C110.8,234.3,111,234.7,111.3,234.9z"/>
	<path d="M118.1,239.4c0.8-1.6,1.4-2.8,1.6-3.5c0.4-1.1,0.5-2.4,0.5-3.9c0-1.5-0.2-2.9-0.6-4.1c-0.3-0.8-0.8-1.9-1.5-3.3h0.9
		c0.8,1.3,1.3,2.1,1.5,2.4c0.2,0.3,0.4,0.7,0.6,1.2c0.2,0.7,0.4,1.3,0.5,1.9c0.1,0.6,0.2,1.2,0.2,1.8c0,1.5-0.2,2.9-0.7,4.1
		c-0.3,0.8-0.9,1.9-1.9,3.4H118.1z"/>
</g>
<g id="XMLID_164_">
	<path d="M351.6,224.5c-0.8,1.6-1.3,2.8-1.6,3.5c-0.4,1.1-0.6,2.5-0.6,4c0,1.5,0.2,2.9,0.6,4.1c0.3,0.8,0.8,1.9,1.5,3.3h-0.9
		c-0.8-1.2-1.2-1.9-1.4-2.3c-0.2-0.3-0.4-0.8-0.6-1.3c-0.3-0.8-0.5-1.6-0.6-2.5c-0.1-0.5-0.1-0.9-0.1-1.3c0-1.5,0.2-2.9,0.7-4.1
		c0.3-0.8,0.9-1.9,1.9-3.4H351.6z"/>
	<path d="M353.1,224.6h1.4v4.2c0.3-0.4,0.7-0.7,1.1-0.9s0.9-0.3,1.4-0.3c1,0,1.9,0.4,2.5,1.1c0.7,0.7,1,1.8,1,3.2
		c0,1.3-0.3,2.4-1,3.3s-1.5,1.3-2.7,1.3c-0.6,0-1.2-0.2-1.6-0.5c-0.3-0.2-0.5-0.5-0.8-0.9v1.1h-1.3V224.6z M358.5,234.3
		c0.4-0.6,0.6-1.4,0.6-2.4c0-0.9-0.2-1.6-0.6-2.2s-0.9-0.9-1.7-0.9c-0.6,0-1.2,0.2-1.7,0.7c-0.5,0.5-0.7,1.3-0.7,2.3
		c0,0.8,0.1,1.4,0.3,1.9c0.4,0.9,1.1,1.4,2.1,1.4C357.5,235.2,358.1,234.9,358.5,234.3z"/>
	<path d="M361.6,239.4c0.8-1.6,1.4-2.8,1.6-3.5c0.4-1.1,0.5-2.4,0.5-3.9c0-1.5-0.2-2.9-0.6-4.1c-0.3-0.8-0.8-1.9-1.5-3.3h0.9
		c0.8,1.3,1.3,2.1,1.5,2.4c0.2,0.3,0.4,0.7,0.6,1.2c0.2,0.7,0.4,1.3,0.5,1.9c0.1,0.6,0.2,1.2,0.2,1.8c0,1.5-0.2,2.9-0.7,4.1
		c-0.3,0.8-0.9,1.9-1.9,3.4H361.6z"/>
</g>
<g id="XMLID_165_">
	<path d="M592.3,224.5c-0.8,1.6-1.3,2.8-1.6,3.5c-0.4,1.1-0.6,2.5-0.6,4c0,1.5,0.2,2.9,0.6,4.1c0.3,0.8,0.8,1.9,1.5,3.3h-0.9
		c-0.8-1.2-1.2-1.9-1.4-2.3s-0.4-0.8-0.6-1.3c-0.3-0.8-0.5-1.6-0.6-2.5c-0.1-0.5-0.1-0.9-0.1-1.3c0-1.5,0.2-2.9,0.7-4.1
		c0.3-0.8,0.9-1.9,1.9-3.4H592.3z"/>
	<path d="M599.5,228.2c0.6,0.5,0.9,1.2,1.1,2.4h-1.4c-0.1-0.5-0.3-0.9-0.6-1.3c-0.3-0.3-0.8-0.5-1.4-0.5c-0.9,0-1.5,0.4-1.9,1.3
		c-0.2,0.6-0.4,1.3-0.4,2.1c0,0.8,0.2,1.5,0.5,2.1s0.9,0.9,1.7,0.9c0.6,0,1-0.2,1.4-0.5s0.6-0.8,0.7-1.5h1.4
		c-0.2,1.1-0.5,1.9-1.2,2.4c-0.6,0.5-1.4,0.8-2.4,0.8c-1.1,0-2-0.4-2.6-1.2c-0.7-0.8-1-1.8-1-3c0-1.5,0.4-2.6,1.1-3.4
		c0.7-0.8,1.6-1.2,2.7-1.2C598.1,227.5,598.9,227.8,599.5,228.2z"/>
	<path d="M601.5,239.4c0.8-1.6,1.4-2.8,1.6-3.5c0.4-1.1,0.5-2.4,0.5-3.9c0-1.5-0.2-2.9-0.6-4.1c-0.3-0.8-0.8-1.9-1.5-3.3h0.9
		c0.8,1.3,1.3,2.1,1.5,2.4c0.2,0.3,0.4,0.7,0.6,1.2c0.2,0.7,0.4,1.3,0.5,1.9c0.1,0.6,0.2,1.2,0.2,1.8c0,1.5-0.2,2.9-0.7,4.1
		c-0.3,0.8-0.9,1.9-1.9,3.4H601.5z"/>
</g>
<g>
</g>
<g>
</g>
<g>
</g>
<g>
</g>
<g>
</g>
<g>
</g>
<g>
</g>
<g>
</g>
<g>
</g>
<g>
</g>
<g>
</g>
<g>
</g>
<g>
</g>
<g>
</g>
<g>
</g>
</svg>
