<?xml version="1.0" encoding="utf-8"?>
<!-- Generator: Adobe Illustrator 19.1.0, SVG Export Plug-In . SVG Version: 6.00 Build 0)  -->
<!DOCTYPE svg PUBLIC "-//W3C//DTD SVG 1.1//EN" "http://www.w3.org/Graphics/SVG/1.1/DTD/svg11.dtd">
<svg version="1.1" id="Layer_1" xmlns="http://www.w3.org/2000/svg" xmlns:xlink="http://www.w3.org/1999/xlink" x="0px" y="0px"
	 viewBox="0 0 663 249.9" enable-background="new 0 0 663 249.9" xml:space="preserve">
<g id="XMLID_98_">
	<path d="M72.5,41.2c0.6,0.6,0.9,1.2,1,2h-1.1c-0.1-0.6-0.4-1-0.8-1.3s-0.9-0.5-1.6-0.5c-0.8,0-1.5,0.3-2,0.9
		c-0.5,0.6-0.8,1.5-0.8,2.7c0,1,0.2,1.8,0.7,2.5c0.5,0.6,1.2,0.9,2.1,0.9c0.8,0,1.5-0.3,1.9-1c0.2-0.3,0.4-0.8,0.5-1.4h1.1
		c-0.1,0.9-0.4,1.7-1,2.3c-0.7,0.7-1.6,1.1-2.7,1.1c-1,0-1.8-0.3-2.5-0.9c-0.9-0.8-1.3-2-1.3-3.7c0-1.3,0.3-2.3,1-3.1
		c0.7-0.9,1.7-1.3,3-1.3C71.1,40.3,71.9,40.6,72.5,41.2z"/>
	<path d="M75,40.5h3.7c1,0,1.7,0.3,2.2,0.9c0.3,0.4,0.4,0.8,0.4,1.2c0,0.5-0.2,1-0.5,1.3c-0.2,0.2-0.4,0.4-0.7,0.5
		c0.4,0.2,0.8,0.4,1,0.6c0.4,0.4,0.6,0.9,0.6,1.6c0,0.6-0.2,1.1-0.5,1.5c-0.5,0.7-1.4,1-2.5,1H75V40.5z M78.3,44.2
		c0.5,0,0.9-0.1,1.2-0.2c0.4-0.2,0.7-0.6,0.7-1.2c0-0.6-0.2-0.9-0.7-1.1c-0.3-0.1-0.6-0.2-1.2-0.2h-2.1v2.7H78.3z M78.7,48.1
		c0.7,0,1.2-0.2,1.5-0.6c0.2-0.3,0.3-0.6,0.3-0.9c0-0.6-0.3-1.1-0.8-1.3c-0.3-0.1-0.7-0.2-1.2-0.2h-2.3v3H78.7z"/>
	<path d="M89.2,41.2c0.6,0.6,0.9,1.2,1,2H89c-0.1-0.6-0.4-1-0.8-1.3s-0.9-0.5-1.6-0.5c-0.8,0-1.5,0.3-2,0.9
		c-0.5,0.6-0.8,1.5-0.8,2.7c0,1,0.2,1.8,0.7,2.5c0.5,0.6,1.2,0.9,2.1,0.9c0.8,0,1.5-0.3,1.9-1c0.2-0.3,0.4-0.8,0.5-1.4h1.1
		c-0.1,0.9-0.4,1.7-1,2.3c-0.7,0.7-1.6,1.1-2.7,1.1c-1,0-1.8-0.3-2.5-0.9c-0.9-0.8-1.3-2-1.3-3.7c0-1.3,0.3-2.3,1-3.1
		c0.7-0.9,1.7-1.3,3-1.3C87.7,40.3,88.6,40.6,89.2,41.2z"/>
	<path d="M95.4,42.9l1.2,4.9l1.2-4.9H99l1.2,4.9l1.3-4.9h1.1l-1.8,6.3h-1.1l-1.3-4.9l-1.2,4.9h-1.1l-1.8-6.3H95.4z"/>
	<path d="M103.6,40.5h1.1v1.2h-1.1V40.5z M103.6,42.9h1.1v6.2h-1.1V42.9z"/>
	<path d="M106.5,41.1h1.1v1.8h1v0.9h-1v4.1c0,0.2,0.1,0.4,0.2,0.4c0.1,0,0.2,0.1,0.4,0.1c0.1,0,0.1,0,0.2,0s0.1,0,0.2,0v0.8
		c-0.1,0-0.2,0.1-0.4,0.1s-0.3,0-0.4,0c-0.5,0-0.8-0.1-1-0.4s-0.3-0.6-0.3-1v-4.2h-0.8v-0.9h0.8V41.1z"/>
	<path d="M109.6,40.5h1.1v3.2c0.2-0.3,0.5-0.5,0.7-0.7c0.3-0.2,0.8-0.3,1.3-0.3c0.9,0,1.5,0.3,1.9,1c0.2,0.3,0.3,0.8,0.3,1.4v4h-1.1
		v-4c0-0.5-0.1-0.8-0.2-1c-0.2-0.3-0.6-0.5-1.1-0.5c-0.4,0-0.8,0.2-1.2,0.5s-0.5,0.9-0.5,1.7v3.3h-1.1V40.5z"/>
	<path d="M119.8,40.5h3.4c1.2,0,2.1,0.4,2.7,1.3c0.6,0.8,0.9,1.7,0.9,2.9c0,0.9-0.2,1.7-0.5,2.5c-0.6,1.3-1.6,2-3.1,2h-3.4V40.5z
		 M123,48.1c0.4,0,0.7,0,1-0.1c0.4-0.2,0.8-0.4,1.1-0.9c0.2-0.3,0.4-0.8,0.5-1.3c0.1-0.3,0.1-0.6,0.1-0.9c0-1.1-0.2-1.9-0.6-2.5
		s-1.1-0.9-2-0.9h-2v6.6H123z"/>
	<path d="M128.3,40.5h1.1v1.2h-1.1V40.5z M128.3,42.9h1.1v6.2h-1.1V42.9z"/>
	<path d="M131.4,40.9c0.2-0.4,0.7-0.5,1.4-0.5c0.1,0,0.1,0,0.2,0s0.2,0,0.2,0v1c-0.1,0-0.2,0-0.2,0c0,0-0.1,0-0.1,0
		c-0.3,0-0.5,0.1-0.6,0.2s-0.1,0.6-0.1,1.3h1.1v0.8h-1.1v5.4h-1v-5.4h-0.9v-0.8h0.9v-1C131.2,41.5,131.3,41.1,131.4,40.9z"/>
	<path d="M134.6,40.9c0.2-0.4,0.7-0.5,1.4-0.5c0.1,0,0.1,0,0.2,0s0.2,0,0.2,0v1c-0.1,0-0.2,0-0.2,0c0,0-0.1,0-0.1,0
		c-0.3,0-0.5,0.1-0.6,0.2s-0.1,0.6-0.1,1.3h1.1v0.8h-1.1v5.4h-1v-5.4h-0.9v-0.8h0.9v-1C134.3,41.5,134.4,41.1,134.6,40.9z"/>
</g>
<g id="XMLID_99_">
	<path d="M19.4,92.8h3.7c1,0,1.7,0.3,2.2,0.9c0.3,0.4,0.4,0.8,0.4,1.2c0,0.5-0.2,1-0.5,1.3c-0.2,0.2-0.4,0.4-0.7,0.5
		c0.4,0.2,0.8,0.4,1,0.6c0.4,0.4,0.6,0.9,0.6,1.6c0,0.6-0.2,1.1-0.5,1.5c-0.5,0.7-1.4,1-2.5,1h-3.7V92.8z M22.7,96.4
		c0.5,0,0.9-0.1,1.2-0.2c0.4-0.2,0.7-0.6,0.7-1.2c0-0.6-0.2-0.9-0.7-1.1c-0.3-0.1-0.6-0.2-1.2-0.2h-2.1v2.7H22.7z M23.1,100.4
		c0.7,0,1.2-0.2,1.5-0.6c0.2-0.3,0.3-0.6,0.3-0.9c0-0.6-0.3-1.1-0.8-1.3c-0.3-0.1-0.7-0.2-1.2-0.2h-2.3v3H23.1z"/>
	<path d="M30.7,97.6c0.2,0,0.4-0.1,0.5-0.3c0-0.1,0.1-0.2,0.1-0.4c0-0.4-0.1-0.6-0.4-0.8c-0.3-0.2-0.6-0.2-1.1-0.2
		c-0.5,0-0.9,0.1-1.2,0.4c-0.1,0.2-0.2,0.4-0.3,0.7h-1c0-0.8,0.3-1.3,0.8-1.6c0.5-0.3,1-0.5,1.7-0.5c0.7,0,1.3,0.1,1.8,0.4
		c0.5,0.3,0.7,0.7,0.7,1.3v3.6c0,0.1,0,0.2,0.1,0.3c0,0.1,0.1,0.1,0.3,0.1c0,0,0.1,0,0.2,0s0.1,0,0.2,0v0.8c-0.2,0-0.3,0.1-0.4,0.1
		s-0.2,0-0.4,0c-0.4,0-0.6-0.1-0.8-0.4c-0.1-0.1-0.1-0.3-0.2-0.6c-0.2,0.3-0.5,0.5-0.9,0.7s-0.8,0.3-1.3,0.3c-0.6,0-1.1-0.2-1.4-0.5
		s-0.6-0.8-0.6-1.3c0-0.6,0.2-1,0.5-1.4s0.8-0.5,1.4-0.6L30.7,97.6z M28.5,100.4c0.2,0.2,0.5,0.3,0.8,0.3c0.4,0,0.7-0.1,1.1-0.3
		c0.6-0.3,0.9-0.8,0.9-1.4v-0.8c-0.1,0.1-0.3,0.2-0.5,0.2c-0.2,0.1-0.4,0.1-0.6,0.1l-0.6,0.1c-0.4,0.1-0.7,0.1-0.9,0.2
		c-0.3,0.2-0.5,0.5-0.5,0.9C28.1,100,28.3,100.3,28.5,100.4z"/>
	<path d="M34.6,99.4c0,0.4,0.1,0.6,0.3,0.8c0.3,0.3,0.7,0.5,1.4,0.5c0.4,0,0.7-0.1,1.1-0.3s0.5-0.4,0.5-0.8c0-0.3-0.1-0.5-0.4-0.6
		c-0.2-0.1-0.5-0.2-0.9-0.3l-0.9-0.2c-0.5-0.1-0.9-0.3-1.2-0.4c-0.5-0.3-0.7-0.7-0.7-1.2c0-0.6,0.2-1.1,0.7-1.4
		c0.4-0.4,1-0.6,1.7-0.6c1,0,1.6,0.3,2.1,0.8c0.3,0.4,0.4,0.7,0.4,1.1h-1c0-0.2-0.1-0.5-0.3-0.6c-0.2-0.3-0.7-0.4-1.3-0.4
		c-0.4,0-0.7,0.1-0.9,0.2s-0.3,0.4-0.3,0.6c0,0.3,0.1,0.5,0.4,0.7c0.2,0.1,0.4,0.2,0.7,0.3l0.7,0.2c0.8,0.2,1.3,0.4,1.6,0.5
		c0.4,0.3,0.6,0.7,0.6,1.3c0,0.6-0.2,1-0.6,1.4c-0.4,0.4-1.1,0.6-2,0.6c-0.9,0-1.6-0.2-2-0.6s-0.6-0.9-0.6-1.6H34.6z"/>
	<path d="M40,92.8h1.1V94H40V92.8z M40,95.1h1.1v6.2H40V95.1z"/>
	<path d="M46.8,95.4c0.4,0.3,0.7,0.9,0.8,1.8h-1c-0.1-0.4-0.2-0.7-0.4-1s-0.6-0.4-1.1-0.4c-0.7,0-1.2,0.3-1.4,1
		c-0.2,0.4-0.3,0.9-0.3,1.6c0,0.6,0.1,1.2,0.4,1.6s0.7,0.6,1.3,0.6c0.4,0,0.8-0.1,1-0.4s0.4-0.6,0.5-1.1h1c-0.1,0.8-0.4,1.4-0.9,1.8
		s-1.1,0.6-1.8,0.6c-0.8,0-1.5-0.3-2-0.9s-0.7-1.3-0.7-2.2c0-1.1,0.3-2,0.8-2.6s1.2-0.9,2-0.9C45.8,94.9,46.4,95.1,46.8,95.4z"/>
	<path d="M52.1,92.8h1.7l2.5,7.3l2.5-7.3h1.7v8.6h-1.1v-5.1c0-0.2,0-0.5,0-0.9s0-0.8,0-1.3l-2.5,7.3h-1.2l-2.5-7.3v0.3
		c0,0.2,0,0.5,0,1s0,0.7,0,1v5.1h-1.1V92.8z"/>
	<path d="M65.9,95.3c0.4,0.2,0.7,0.5,0.9,0.8c0.2,0.3,0.3,0.7,0.4,1.1c0.1,0.3,0.1,0.8,0.1,1.4h-4.6c0,0.6,0.2,1.2,0.4,1.5
		c0.3,0.4,0.7,0.6,1.3,0.6c0.5,0,1-0.2,1.3-0.5c0.2-0.2,0.3-0.5,0.4-0.7h1c0,0.2-0.1,0.5-0.3,0.8s-0.3,0.5-0.5,0.7
		c-0.3,0.3-0.7,0.5-1.2,0.6c-0.3,0.1-0.5,0.1-0.9,0.1c-0.8,0-1.4-0.3-2-0.9c-0.5-0.6-0.8-1.4-0.8-2.4c0-1,0.3-1.8,0.8-2.5
		c0.5-0.6,1.3-0.9,2.1-0.9C65,95,65.5,95.1,65.9,95.3z M66.3,97.7c0-0.5-0.1-0.8-0.3-1.1c-0.3-0.5-0.8-0.8-1.4-0.8
		c-0.5,0-0.9,0.2-1.2,0.5s-0.5,0.8-0.5,1.3H66.3z"/>
	<path d="M68.9,93.4H70v1.8h1V96h-1v4.1c0,0.2,0.1,0.4,0.2,0.4c0.1,0,0.2,0.1,0.4,0.1c0.1,0,0.1,0,0.2,0s0.1,0,0.2,0v0.8
		c-0.1,0-0.2,0.1-0.4,0.1s-0.3,0-0.4,0c-0.5,0-0.8-0.1-1-0.4s-0.3-0.6-0.3-1V96H68v-0.9h0.8V93.4z"/>
	<path d="M75.4,97.6c0.2,0,0.4-0.1,0.5-0.3c0-0.1,0.1-0.2,0.1-0.4c0-0.4-0.1-0.6-0.4-0.8c-0.3-0.2-0.6-0.2-1.1-0.2
		c-0.5,0-0.9,0.1-1.2,0.4c-0.1,0.2-0.2,0.4-0.3,0.7h-1c0-0.8,0.3-1.3,0.8-1.6c0.5-0.3,1-0.5,1.7-0.5c0.7,0,1.3,0.1,1.8,0.4
		c0.5,0.3,0.7,0.7,0.7,1.3v3.6c0,0.1,0,0.2,0.1,0.3c0,0.1,0.1,0.1,0.3,0.1c0,0,0.1,0,0.2,0s0.1,0,0.2,0v0.8c-0.2,0-0.3,0.1-0.4,0.1
		s-0.2,0-0.4,0c-0.4,0-0.6-0.1-0.8-0.4c-0.1-0.1-0.1-0.3-0.2-0.6c-0.2,0.3-0.5,0.5-0.9,0.7s-0.8,0.3-1.3,0.3c-0.6,0-1.1-0.2-1.4-0.5
		s-0.6-0.8-0.6-1.3c0-0.6,0.2-1,0.5-1.4s0.8-0.5,1.4-0.6L75.4,97.6z M73.2,100.4c0.2,0.2,0.5,0.3,0.8,0.3c0.4,0,0.7-0.1,1.1-0.3
		c0.6-0.3,0.9-0.8,0.9-1.4v-0.8c-0.1,0.1-0.3,0.2-0.5,0.2c-0.2,0.1-0.4,0.1-0.6,0.1l-0.6,0.1c-0.4,0.1-0.7,0.1-0.9,0.2
		c-0.3,0.2-0.5,0.5-0.5,0.9C72.8,100,72.9,100.3,73.2,100.4z"/>
	<path d="M78.6,92.8h1v3.1c0.2-0.3,0.5-0.5,0.8-0.7c0.3-0.2,0.7-0.2,1-0.2c0.8,0,1.4,0.3,1.9,0.8s0.7,1.3,0.7,2.4
		c0,1-0.2,1.8-0.7,2.5s-1.2,1-2,1c-0.5,0-0.9-0.1-1.2-0.3c-0.2-0.1-0.4-0.4-0.6-0.7v0.8h-1V92.8z M82.6,100c0.3-0.5,0.4-1.1,0.4-1.8
		c0-0.7-0.1-1.2-0.4-1.6s-0.7-0.7-1.3-0.7c-0.5,0-0.9,0.2-1.3,0.5c-0.4,0.4-0.5,0.9-0.5,1.8c0,0.6,0.1,1.1,0.2,1.4
		c0.3,0.7,0.8,1,1.6,1C81.9,100.7,82.3,100.4,82.6,100z"/>
	<path d="M89.9,95.7c0.6,0.5,0.8,1.3,0.8,2.4c0,1-0.2,1.8-0.7,2.5c-0.5,0.7-1.2,1-2.3,1c-0.9,0-1.5-0.3-2-0.9s-0.8-1.4-0.8-2.4
		c0-1.1,0.3-1.9,0.8-2.5c0.5-0.6,1.2-0.9,2.1-0.9C88.7,94.9,89.4,95.2,89.9,95.7z M89.3,99.9c0.3-0.5,0.4-1.1,0.4-1.8
		c0-0.6-0.1-1.1-0.3-1.4c-0.3-0.6-0.8-0.9-1.5-0.9c-0.6,0-1.1,0.2-1.4,0.7S86,97.7,86,98.4c0,0.7,0.1,1.2,0.4,1.7s0.7,0.7,1.4,0.7
		C88.5,100.7,89,100.4,89.3,99.9z"/>
	<path d="M92.1,92.8h1.1v8.6h-1.1V92.8z"/>
	<path d="M94.7,92.8h1.1V94h-1.1V92.8z M94.7,95.1h1.1v6.2h-1.1V95.1z"/>
	<path d="M101.5,95.4c0.4,0.3,0.7,0.9,0.8,1.8h-1c-0.1-0.4-0.2-0.7-0.4-1s-0.6-0.4-1.1-0.4c-0.7,0-1.2,0.3-1.4,1
		c-0.2,0.4-0.3,0.9-0.3,1.6c0,0.6,0.1,1.2,0.4,1.6s0.7,0.6,1.3,0.6c0.4,0,0.8-0.1,1-0.4s0.4-0.6,0.5-1.1h1c-0.1,0.8-0.4,1.4-0.9,1.8
		s-1.1,0.6-1.8,0.6c-0.8,0-1.5-0.3-2-0.9s-0.7-1.3-0.7-2.2c0-1.1,0.3-2,0.8-2.6s1.2-0.9,2-0.9C100.5,94.9,101.1,95.1,101.5,95.4z"/>
	<path d="M107,92.8h3.9c0.8,0,1.4,0.2,1.8,0.6s0.7,1,0.7,1.8c0,0.7-0.2,1.3-0.6,1.8c-0.4,0.5-1.1,0.7-1.9,0.7h-2.7v3.6H107V92.8z
		 M111.5,94c-0.3-0.1-0.6-0.2-1.1-0.2h-2.3v3h2.3c0.5,0,0.9-0.1,1.3-0.3s0.5-0.6,0.5-1.2C112.2,94.6,111.9,94.2,111.5,94z"/>
	<path d="M118.1,97.6c0.2,0,0.4-0.1,0.5-0.3c0-0.1,0.1-0.2,0.1-0.4c0-0.4-0.1-0.6-0.4-0.8c-0.3-0.2-0.6-0.2-1.1-0.2
		c-0.5,0-0.9,0.1-1.2,0.4c-0.1,0.2-0.2,0.4-0.3,0.7h-1c0-0.8,0.3-1.3,0.8-1.6c0.5-0.3,1-0.5,1.7-0.5c0.7,0,1.3,0.1,1.8,0.4
		c0.5,0.3,0.7,0.7,0.7,1.3v3.6c0,0.1,0,0.2,0.1,0.3c0,0.1,0.1,0.1,0.3,0.1c0,0,0.1,0,0.2,0s0.1,0,0.2,0v0.8c-0.2,0-0.3,0.1-0.4,0.1
		s-0.2,0-0.4,0c-0.4,0-0.6-0.1-0.8-0.4c-0.1-0.1-0.1-0.3-0.2-0.6c-0.2,0.3-0.5,0.5-0.9,0.7s-0.8,0.3-1.3,0.3c-0.6,0-1.1-0.2-1.4-0.5
		s-0.6-0.8-0.6-1.3c0-0.6,0.2-1,0.5-1.4s0.8-0.5,1.4-0.6L118.1,97.6z M115.8,100.4c0.2,0.2,0.5,0.3,0.8,0.3c0.4,0,0.7-0.1,1.1-0.3
		c0.6-0.3,0.9-0.8,0.9-1.4v-0.8c-0.1,0.1-0.3,0.2-0.5,0.2c-0.2,0.1-0.4,0.1-0.6,0.1l-0.6,0.1c-0.4,0.1-0.7,0.1-0.9,0.2
		c-0.3,0.2-0.5,0.5-0.5,0.9C115.5,100,115.6,100.3,115.8,100.4z"/>
	<path d="M121.4,95.1h1V96c0.3-0.4,0.6-0.6,0.9-0.8s0.7-0.2,1.1-0.2c0.9,0,1.5,0.3,1.8,0.9c0.2,0.3,0.3,0.8,0.3,1.5v4h-1.1v-4
		c0-0.4-0.1-0.7-0.2-0.9c-0.2-0.4-0.5-0.6-1-0.6c-0.2,0-0.5,0-0.6,0.1c-0.3,0.1-0.5,0.3-0.8,0.5c-0.2,0.2-0.3,0.4-0.3,0.6
		s-0.1,0.5-0.1,0.9v3.3h-1.1V95.1z"/>
	<path d="M131.9,95.3c0.4,0.2,0.7,0.5,0.9,0.8c0.2,0.3,0.3,0.7,0.4,1.1c0.1,0.3,0.1,0.8,0.1,1.4h-4.6c0,0.6,0.2,1.2,0.4,1.5
		c0.3,0.4,0.7,0.6,1.3,0.6c0.5,0,1-0.2,1.3-0.5c0.2-0.2,0.3-0.5,0.4-0.7h1c0,0.2-0.1,0.5-0.3,0.8s-0.3,0.5-0.5,0.7
		c-0.3,0.3-0.7,0.5-1.2,0.6c-0.3,0.1-0.5,0.1-0.9,0.1c-0.8,0-1.4-0.3-2-0.9c-0.5-0.6-0.8-1.4-0.8-2.4c0-1,0.3-1.8,0.8-2.5
		c0.5-0.6,1.3-0.9,2.1-0.9C131.1,95,131.5,95.1,131.9,95.3z M132.3,97.7c0-0.5-0.1-0.8-0.3-1.1c-0.3-0.5-0.8-0.8-1.4-0.8
		c-0.5,0-0.9,0.2-1.2,0.5s-0.5,0.8-0.5,1.3H132.3z"/>
	<path d="M134.8,92.8h1.1v8.6h-1.1V92.8z"/>
</g>
<g id="XMLID_100_">
	<path d="M28.8,139.9v5.3c0,0.6,0.1,1.1,0.4,1.6c0.4,0.6,0.9,0.9,1.8,0.9c1,0,1.7-0.3,2-1c0.2-0.4,0.3-0.9,0.3-1.5v-5.3h1.2v4.8
		c0,1.1-0.1,1.9-0.4,2.4c-0.5,1-1.5,1.6-3,1.6s-2.4-0.5-3-1.6c-0.3-0.6-0.4-1.4-0.4-2.4v-4.8H28.8z"/>
	<path d="M36.1,142.2h1v1.1c0.1-0.2,0.3-0.5,0.6-0.8s0.7-0.5,1.1-0.5c0,0,0.1,0,0.1,0s0.1,0,0.2,0v1.1c-0.1,0-0.1,0-0.2,0
		s-0.1,0-0.2,0c-0.5,0-0.9,0.2-1.2,0.5s-0.4,0.7-0.4,1.2v3.6h-1.1V142.2z"/>
	<path d="M40,139.9h1.1v1.2H40V139.9z M40,142.3h1.1v6.2H40V142.3z"/>
	<path d="M42.7,142.2h1v0.9c0.3-0.4,0.6-0.6,0.9-0.8s0.7-0.2,1.1-0.2c0.9,0,1.5,0.3,1.8,0.9c0.2,0.3,0.3,0.8,0.3,1.5v4h-1.1v-4
		c0-0.4-0.1-0.7-0.2-0.9c-0.2-0.4-0.5-0.6-1-0.6c-0.2,0-0.5,0-0.6,0.1c-0.3,0.1-0.5,0.3-0.8,0.5c-0.2,0.2-0.3,0.4-0.3,0.6
		s-0.1,0.5-0.1,0.9v3.3h-1.1V142.2z"/>
	<path d="M52.7,144.7c0.2,0,0.4-0.1,0.5-0.3c0-0.1,0.1-0.2,0.1-0.4c0-0.4-0.1-0.6-0.4-0.8c-0.3-0.2-0.6-0.2-1.1-0.2
		c-0.5,0-0.9,0.1-1.2,0.4c-0.1,0.2-0.2,0.4-0.3,0.7h-1c0-0.8,0.3-1.3,0.8-1.6c0.5-0.3,1-0.5,1.7-0.5c0.7,0,1.3,0.1,1.8,0.4
		c0.5,0.3,0.7,0.7,0.7,1.3v3.6c0,0.1,0,0.2,0.1,0.3c0,0.1,0.1,0.1,0.3,0.1c0,0,0.1,0,0.2,0s0.1,0,0.2,0v0.8c-0.2,0-0.3,0.1-0.4,0.1
		s-0.2,0-0.4,0c-0.4,0-0.6-0.1-0.8-0.4c-0.1-0.1-0.1-0.3-0.2-0.6c-0.2,0.3-0.5,0.5-0.9,0.7s-0.8,0.3-1.3,0.3c-0.6,0-1.1-0.2-1.4-0.5
		s-0.6-0.8-0.6-1.3c0-0.6,0.2-1,0.5-1.4s0.8-0.5,1.4-0.6L52.7,144.7z M50.5,147.6c0.2,0.2,0.5,0.3,0.8,0.3c0.4,0,0.7-0.1,1.1-0.3
		c0.6-0.3,0.9-0.8,0.9-1.4v-0.8c-0.1,0.1-0.3,0.2-0.5,0.2c-0.2,0.1-0.4,0.1-0.6,0.1l-0.6,0.1c-0.4,0.1-0.7,0.1-0.9,0.2
		c-0.3,0.2-0.5,0.5-0.5,0.9C50.2,147.1,50.3,147.4,50.5,147.6z"/>
	<path d="M56.1,139.9h1.1v8.6h-1.1V139.9z"/>
	<path d="M62.6,142.2h1.2c-0.1,0.4-0.5,1.3-1,2.8c-0.4,1.1-0.7,2-1,2.6c-0.6,1.6-1,2.6-1.3,2.9c-0.2,0.4-0.7,0.5-1.3,0.5
		c-0.1,0-0.3,0-0.3,0c-0.1,0-0.2,0-0.3-0.1v-1c0.2,0.1,0.3,0.1,0.4,0.1c0.1,0,0.2,0,0.2,0c0.2,0,0.3,0,0.4-0.1
		c0.1-0.1,0.2-0.1,0.2-0.2c0,0,0.1-0.2,0.2-0.5c0.1-0.3,0.2-0.5,0.3-0.6l-2.3-6.5h1.2l1.7,5.1L62.6,142.2z"/>
	<path d="M65.3,146.5c0,0.4,0.1,0.6,0.3,0.8c0.3,0.3,0.7,0.5,1.4,0.5c0.4,0,0.7-0.1,1.1-0.3s0.5-0.4,0.5-0.8c0-0.3-0.1-0.5-0.4-0.6
		c-0.2-0.1-0.5-0.2-0.9-0.3l-0.9-0.2c-0.5-0.1-0.9-0.3-1.2-0.4c-0.5-0.3-0.7-0.7-0.7-1.2c0-0.6,0.2-1.1,0.7-1.4
		c0.4-0.4,1-0.6,1.7-0.6c1,0,1.6,0.3,2.1,0.8c0.3,0.4,0.4,0.7,0.4,1.1h-1c0-0.2-0.1-0.5-0.3-0.6c-0.2-0.3-0.7-0.4-1.3-0.4
		c-0.4,0-0.7,0.1-0.9,0.2s-0.3,0.4-0.3,0.6c0,0.3,0.1,0.5,0.4,0.7c0.2,0.1,0.4,0.2,0.7,0.3l0.7,0.2c0.8,0.2,1.3,0.4,1.6,0.5
		c0.4,0.3,0.6,0.7,0.6,1.3c0,0.6-0.2,1-0.6,1.4c-0.4,0.4-1.1,0.6-2,0.6c-0.9,0-1.6-0.2-2-0.6s-0.6-0.9-0.6-1.6H65.3z"/>
	<path d="M70.7,139.9h1.1v1.2h-1.1V139.9z M70.7,142.3h1.1v6.2h-1.1V142.3z"/>
	<path d="M74,146.5c0,0.4,0.1,0.6,0.3,0.8c0.3,0.3,0.7,0.5,1.4,0.5c0.4,0,0.7-0.1,1.1-0.3s0.5-0.4,0.5-0.8c0-0.3-0.1-0.5-0.4-0.6
		c-0.2-0.1-0.5-0.2-0.9-0.3l-0.9-0.2c-0.5-0.1-0.9-0.3-1.2-0.4c-0.5-0.3-0.7-0.7-0.7-1.2c0-0.6,0.2-1.1,0.7-1.4
		c0.4-0.4,1-0.6,1.7-0.6c1,0,1.6,0.3,2.1,0.8c0.3,0.4,0.4,0.7,0.4,1.1h-1c0-0.2-0.1-0.5-0.3-0.6c-0.2-0.3-0.7-0.4-1.3-0.4
		c-0.4,0-0.7,0.1-0.9,0.2s-0.3,0.4-0.3,0.6c0,0.3,0.1,0.5,0.4,0.7c0.2,0.1,0.4,0.2,0.7,0.3l0.7,0.2c0.8,0.2,1.3,0.4,1.6,0.5
		c0.4,0.3,0.6,0.7,0.6,1.3c0,0.6-0.2,1-0.6,1.4c-0.4,0.4-1.1,0.6-2,0.6c-0.9,0-1.6-0.2-2-0.6s-0.6-0.9-0.6-1.6H74z"/>
	<path d="M79.6,149.7c0.3,0,0.5-0.2,0.6-0.6c0.1-0.2,0.1-0.3,0.1-0.5c0,0,0-0.1,0-0.1c0,0,0,0,0-0.1h-0.6v-1.3h1.3v1.2
		c0,0.5-0.1,0.9-0.3,1.2s-0.5,0.6-1,0.7V149.7z"/>
	<path d="M92.3,140.5c0.6,0.6,0.9,1.2,1,2h-1.1c-0.1-0.6-0.4-1-0.8-1.3s-0.9-0.5-1.6-0.5c-0.8,0-1.5,0.3-2,0.9
		c-0.5,0.6-0.8,1.5-0.8,2.7c0,1,0.2,1.8,0.7,2.5c0.5,0.6,1.2,0.9,2.1,0.9c0.8,0,1.5-0.3,1.9-1c0.2-0.3,0.4-0.8,0.5-1.4h1.1
		c-0.1,0.9-0.4,1.7-1,2.3c-0.7,0.7-1.6,1.1-2.7,1.1c-1,0-1.8-0.3-2.5-0.9c-0.9-0.8-1.3-2-1.3-3.7c0-1.3,0.3-2.3,1-3.1
		c0.7-0.9,1.7-1.3,3-1.3C90.8,139.7,91.7,139.9,92.3,140.5z"/>
	<path d="M99.2,142.9c0.6,0.5,0.8,1.3,0.8,2.4c0,1-0.2,1.8-0.7,2.5c-0.5,0.7-1.2,1-2.3,1c-0.9,0-1.5-0.3-2-0.9s-0.8-1.4-0.8-2.4
		c0-1.1,0.3-1.9,0.8-2.5c0.5-0.6,1.2-0.9,2.1-0.9C98,142,98.7,142.3,99.2,142.9z M98.6,147c0.3-0.5,0.4-1.1,0.4-1.8
		c0-0.6-0.1-1.1-0.3-1.4c-0.3-0.6-0.8-0.9-1.5-0.9c-0.6,0-1.1,0.2-1.4,0.7s-0.4,1.1-0.4,1.8c0,0.7,0.1,1.2,0.4,1.7s0.7,0.7,1.4,0.7
		C97.9,147.8,98.3,147.6,98.6,147z"/>
	<path d="M101.4,142.2h1v0.9c0.2-0.3,0.5-0.5,0.7-0.7c0.3-0.2,0.7-0.4,1.2-0.4c0.5,0,0.9,0.1,1.2,0.4c0.2,0.1,0.3,0.3,0.5,0.6
		c0.2-0.3,0.5-0.6,0.8-0.7s0.7-0.2,1.1-0.2c0.8,0,1.4,0.3,1.7,0.9c0.2,0.3,0.2,0.8,0.2,1.3v4.2h-1.1v-4.4c0-0.4-0.1-0.7-0.3-0.9
		s-0.5-0.2-0.8-0.2c-0.4,0-0.8,0.1-1.1,0.4s-0.4,0.7-0.4,1.4v3.7h-1.1v-4.1c0-0.4-0.1-0.7-0.2-0.9c-0.2-0.3-0.5-0.4-0.9-0.4
		c-0.4,0-0.8,0.2-1.1,0.5s-0.5,0.9-0.5,1.7v3.3h-1.1V142.2z"/>
	<path d="M111.3,142.3h1v0.8c0.2-0.3,0.4-0.5,0.7-0.7c0.4-0.2,0.8-0.4,1.3-0.4c0.7,0,1.3,0.3,1.8,0.8s0.7,1.3,0.7,2.3
		c0,1.4-0.4,2.3-1.1,2.9c-0.5,0.4-1,0.6-1.6,0.6c-0.5,0-0.9-0.1-1.2-0.3c-0.2-0.1-0.4-0.3-0.6-0.6v3.2h-1.1V142.3z M115.3,147.2
		c0.3-0.4,0.5-1,0.5-1.8c0-0.5-0.1-0.9-0.2-1.3c-0.3-0.7-0.8-1-1.5-1c-0.7,0-1.2,0.4-1.5,1.1c-0.1,0.4-0.2,0.9-0.2,1.5
		c0,0.5,0.1,0.9,0.2,1.2c0.3,0.6,0.8,1,1.5,1C114.5,147.8,114.9,147.6,115.3,147.2z"/>
	<path d="M118.1,139.9h1.1v8.6h-1.1V139.9z"/>
	<path d="M124.6,142.4c0.4,0.2,0.7,0.5,0.9,0.8c0.2,0.3,0.3,0.7,0.4,1.1c0.1,0.3,0.1,0.8,0.1,1.4h-4.6c0,0.6,0.2,1.2,0.4,1.5
		c0.3,0.4,0.7,0.6,1.3,0.6c0.5,0,1-0.2,1.3-0.5c0.2-0.2,0.3-0.5,0.4-0.7h1c0,0.2-0.1,0.5-0.3,0.8s-0.3,0.5-0.5,0.7
		c-0.3,0.3-0.7,0.5-1.2,0.6c-0.3,0.1-0.5,0.1-0.9,0.1c-0.8,0-1.4-0.3-2-0.9c-0.5-0.6-0.8-1.4-0.8-2.4c0-1,0.3-1.8,0.8-2.5
		c0.5-0.6,1.3-0.9,2.1-0.9C123.7,142.1,124.2,142.2,124.6,142.4z M125,144.9c0-0.5-0.1-0.8-0.3-1.1c-0.3-0.5-0.8-0.8-1.4-0.8
		c-0.5,0-0.9,0.2-1.2,0.5s-0.5,0.8-0.5,1.3H125z"/>
	<path d="M127.6,140.5h1.1v1.8h1v0.9h-1v4.1c0,0.2,0.1,0.4,0.2,0.4c0.1,0,0.2,0.1,0.4,0.1c0.1,0,0.1,0,0.2,0s0.1,0,0.2,0v0.8
		c-0.1,0-0.2,0.1-0.4,0.1s-0.3,0-0.4,0c-0.5,0-0.8-0.1-1-0.4s-0.3-0.6-0.3-1v-4.2h-0.8v-0.9h0.8V140.5z"/>
	<path d="M134.6,142.4c0.4,0.2,0.7,0.5,0.9,0.8c0.2,0.3,0.3,0.7,0.4,1.1c0.1,0.3,0.1,0.8,0.1,1.4h-4.6c0,0.6,0.2,1.2,0.4,1.5
		c0.3,0.4,0.7,0.6,1.3,0.6c0.5,0,1-0.2,1.3-0.5c0.2-0.2,0.3-0.5,0.4-0.7h1c0,0.2-0.1,0.5-0.3,0.8s-0.3,0.5-0.5,0.7
		c-0.3,0.3-0.7,0.5-1.2,0.6c-0.3,0.1-0.5,0.1-0.9,0.1c-0.8,0-1.4-0.3-2-0.9c-0.5-0.6-0.8-1.4-0.8-2.4c0-1,0.3-1.8,0.8-2.5
		c0.5-0.6,1.3-0.9,2.1-0.9C133.8,142.1,134.2,142.2,134.6,142.4z M135,144.9c0-0.5-0.1-0.8-0.3-1.1c-0.3-0.5-0.8-0.8-1.4-0.8
		c-0.5,0-0.9,0.2-1.2,0.5s-0.5,0.8-0.5,1.3H135z"/>
</g>
<g id="XMLID_101_">
	<path d="M13.5,192.1h1.2v3.6h4.4v-3.6h1.2v8.6h-1.2v-4h-4.4v4h-1.2V192.1z"/>
	<path d="M25.9,194.7c0.4,0.2,0.7,0.5,0.9,0.8c0.2,0.3,0.3,0.7,0.4,1.1c0.1,0.3,0.1,0.8,0.1,1.4h-4.6c0,0.6,0.2,1.2,0.4,1.5
		c0.3,0.4,0.7,0.6,1.3,0.6c0.5,0,1-0.2,1.3-0.5c0.2-0.2,0.3-0.5,0.4-0.7h1c0,0.2-0.1,0.5-0.3,0.8s-0.3,0.5-0.5,0.7
		c-0.3,0.3-0.7,0.5-1.2,0.6c-0.3,0.1-0.5,0.1-0.9,0.1c-0.8,0-1.4-0.3-2-0.9c-0.5-0.6-0.8-1.4-0.8-2.4c0-1,0.3-1.8,0.8-2.5
		c0.5-0.6,1.3-0.9,2.1-0.9C25,194.3,25.4,194.4,25.9,194.7z M26.2,197.1c0-0.5-0.1-0.8-0.3-1.1c-0.3-0.5-0.8-0.8-1.4-0.8
		c-0.5,0-0.9,0.2-1.2,0.5s-0.5,0.8-0.5,1.3H26.2z"/>
	<path d="M28.6,194.5h1v0.8c0.2-0.3,0.4-0.5,0.7-0.7c0.4-0.2,0.8-0.4,1.3-0.4c0.7,0,1.3,0.3,1.8,0.8s0.7,1.3,0.7,2.3
		c0,1.4-0.4,2.3-1.1,2.9c-0.5,0.4-1,0.6-1.6,0.6c-0.5,0-0.9-0.1-1.2-0.3c-0.2-0.1-0.4-0.3-0.6-0.6v3.2h-1.1V194.5z M32.5,199.4
		c0.3-0.4,0.5-1,0.5-1.8c0-0.5-0.1-0.9-0.2-1.3c-0.3-0.7-0.8-1-1.5-1c-0.7,0-1.2,0.4-1.5,1.1c-0.1,0.4-0.2,0.9-0.2,1.5
		c0,0.5,0.1,0.9,0.2,1.2c0.3,0.6,0.8,1,1.5,1C31.8,200,32.2,199.8,32.5,199.4z"/>
	<path d="M38.7,197c0.2,0,0.4-0.1,0.5-0.3c0-0.1,0.1-0.2,0.1-0.4c0-0.4-0.1-0.6-0.4-0.8c-0.3-0.2-0.6-0.2-1.1-0.2
		c-0.5,0-0.9,0.1-1.2,0.4c-0.1,0.2-0.2,0.4-0.3,0.7h-1c0-0.8,0.3-1.3,0.8-1.6c0.5-0.3,1-0.5,1.7-0.5c0.7,0,1.3,0.1,1.8,0.4
		c0.5,0.3,0.7,0.7,0.7,1.3v3.6c0,0.1,0,0.2,0.1,0.3c0,0.1,0.1,0.1,0.3,0.1c0,0,0.1,0,0.2,0s0.1,0,0.2,0v0.8c-0.2,0-0.3,0.1-0.4,0.1
		s-0.2,0-0.4,0c-0.4,0-0.6-0.1-0.8-0.4c-0.1-0.1-0.1-0.3-0.2-0.6c-0.2,0.3-0.5,0.5-0.9,0.7S37.5,201,37,201c-0.6,0-1.1-0.2-1.4-0.5
		s-0.6-0.8-0.6-1.3c0-0.6,0.2-1,0.5-1.4s0.8-0.5,1.4-0.6L38.7,197z M36.5,199.8c0.2,0.2,0.5,0.3,0.8,0.3c0.4,0,0.7-0.1,1.1-0.3
		c0.6-0.3,0.9-0.8,0.9-1.4v-0.8c-0.1,0.1-0.3,0.2-0.5,0.2c-0.2,0.1-0.4,0.1-0.6,0.1l-0.6,0.1c-0.4,0.1-0.7,0.1-0.9,0.2
		c-0.3,0.2-0.5,0.5-0.5,0.9C36.1,199.4,36.3,199.6,36.5,199.8z"/>
	<path d="M42.2,192.7h1.1v1.8h1v0.9h-1v4.1c0,0.2,0.1,0.4,0.2,0.4c0.1,0,0.2,0.1,0.4,0.1c0.1,0,0.1,0,0.2,0s0.1,0,0.2,0v0.8
		c-0.1,0-0.2,0.1-0.4,0.1s-0.3,0-0.4,0c-0.5,0-0.8-0.1-1-0.4s-0.3-0.6-0.3-1v-4.2h-0.8v-0.9h0.8V192.7z"/>
	<path d="M45.3,192.1h1.1v1.2h-1.1V192.1z M45.3,194.5h1.1v6.2h-1.1V194.5z"/>
	<path d="M52.2,194.8c0.4,0.3,0.7,0.9,0.8,1.8h-1c-0.1-0.4-0.2-0.7-0.4-1s-0.6-0.4-1.1-0.4c-0.7,0-1.2,0.3-1.4,1
		c-0.2,0.4-0.3,0.9-0.3,1.6c0,0.6,0.1,1.2,0.4,1.6s0.7,0.6,1.3,0.6c0.4,0,0.8-0.1,1-0.4s0.4-0.6,0.5-1.1h1c-0.1,0.8-0.4,1.4-0.9,1.8
		s-1.1,0.6-1.8,0.6c-0.8,0-1.5-0.3-2-0.9s-0.7-1.3-0.7-2.2c0-1.1,0.3-2,0.8-2.6s1.2-0.9,2-0.9C51.1,194.3,51.7,194.5,52.2,194.8z"/>
	<path d="M57.6,192.1h6v1.1h-4.8v2.6H63v1h-4.2v3.9h-1.2V192.1z"/>
	<path d="M65.7,194.5v4.2c0,0.3,0,0.6,0.1,0.8c0.2,0.4,0.5,0.6,1,0.6c0.7,0,1.2-0.3,1.5-1c0.1-0.4,0.2-0.8,0.2-1.4v-3.1h1.1v6.3h-1
		l0-0.9c-0.1,0.2-0.3,0.4-0.5,0.6c-0.4,0.3-0.9,0.5-1.4,0.5c-0.9,0-1.5-0.3-1.8-0.9c-0.2-0.3-0.3-0.7-0.3-1.3v-4.3H65.7z"/>
	<path d="M71.3,194.5h1v0.9c0.3-0.4,0.6-0.6,0.9-0.8s0.7-0.2,1.1-0.2c0.9,0,1.5,0.3,1.8,0.9c0.2,0.3,0.3,0.8,0.3,1.5v4h-1.1v-4
		c0-0.4-0.1-0.7-0.2-0.9c-0.2-0.4-0.5-0.6-1-0.6c-0.2,0-0.5,0-0.6,0.1c-0.3,0.1-0.5,0.3-0.8,0.5c-0.2,0.2-0.3,0.4-0.3,0.6
		s-0.1,0.5-0.1,0.9v3.3h-1.1V194.5z"/>
	<path d="M82.2,194.8c0.4,0.3,0.7,0.9,0.8,1.8h-1c-0.1-0.4-0.2-0.7-0.4-1s-0.6-0.4-1.1-0.4c-0.7,0-1.2,0.3-1.4,1
		c-0.2,0.4-0.3,0.9-0.3,1.6c0,0.6,0.1,1.2,0.4,1.6s0.7,0.6,1.3,0.6c0.4,0,0.8-0.1,1-0.4s0.4-0.6,0.5-1.1h1c-0.1,0.8-0.4,1.4-0.9,1.8
		s-1.1,0.6-1.8,0.6c-0.8,0-1.5-0.3-2-0.9s-0.7-1.3-0.7-2.2c0-1.1,0.3-2,0.8-2.6s1.2-0.9,2-0.9C81.1,194.3,81.7,194.5,82.2,194.8z"/>
	<path d="M84.2,192.7h1.1v1.8h1v0.9h-1v4.1c0,0.2,0.1,0.4,0.2,0.4c0.1,0,0.2,0.1,0.4,0.1c0.1,0,0.1,0,0.2,0s0.1,0,0.2,0v0.8
		c-0.1,0-0.2,0.1-0.4,0.1s-0.3,0-0.4,0c-0.5,0-0.8-0.1-1-0.4s-0.3-0.6-0.3-1v-4.2h-0.8v-0.9h0.8V192.7z"/>
	<path d="M87.4,192.1h1.1v1.2h-1.1V192.1z M87.4,194.5h1.1v6.2h-1.1V194.5z"/>
	<path d="M94.6,195.1c0.6,0.5,0.8,1.3,0.8,2.4c0,1-0.2,1.8-0.7,2.5c-0.5,0.7-1.2,1-2.3,1c-0.9,0-1.5-0.3-2-0.9s-0.8-1.4-0.8-2.4
		c0-1.1,0.3-1.9,0.8-2.5c0.5-0.6,1.2-0.9,2.1-0.9C93.3,194.3,94,194.6,94.6,195.1z M93.9,199.3c0.3-0.5,0.4-1.1,0.4-1.8
		c0-0.6-0.1-1.1-0.3-1.4c-0.3-0.6-0.8-0.9-1.5-0.9c-0.6,0-1.1,0.2-1.4,0.7s-0.4,1.1-0.4,1.8c0,0.7,0.1,1.2,0.4,1.7s0.7,0.7,1.4,0.7
		C93.2,200.1,93.7,199.8,93.9,199.3z"/>
	<path d="M96.7,194.5h1v0.9c0.3-0.4,0.6-0.6,0.9-0.8s0.7-0.2,1.1-0.2c0.9,0,1.5,0.3,1.8,0.9c0.2,0.3,0.3,0.8,0.3,1.5v4h-1.1v-4
		c0-0.4-0.1-0.7-0.2-0.9c-0.2-0.4-0.5-0.6-1-0.6c-0.2,0-0.5,0-0.6,0.1c-0.3,0.1-0.5,0.3-0.8,0.5c-0.2,0.2-0.3,0.4-0.3,0.6
		s-0.1,0.5-0.1,0.9v3.3h-1.1V194.5z"/>
	<path d="M107,192.1h3.9c0.8,0,1.4,0.2,1.8,0.6s0.7,1,0.7,1.8c0,0.7-0.2,1.3-0.6,1.8c-0.4,0.5-1.1,0.7-1.9,0.7h-2.7v3.6H107V192.1z
		 M111.5,193.3c-0.3-0.1-0.6-0.2-1.1-0.2h-2.3v3h2.3c0.5,0,0.9-0.1,1.3-0.3s0.5-0.6,0.5-1.2C112.2,194,111.9,193.6,111.5,193.3z"/>
	<path d="M118.1,197c0.2,0,0.4-0.1,0.5-0.3c0-0.1,0.1-0.2,0.1-0.4c0-0.4-0.1-0.6-0.4-0.8c-0.3-0.2-0.6-0.2-1.1-0.2
		c-0.5,0-0.9,0.1-1.2,0.4c-0.1,0.2-0.2,0.4-0.3,0.7h-1c0-0.8,0.3-1.3,0.8-1.6c0.5-0.3,1-0.5,1.7-0.5c0.7,0,1.3,0.1,1.8,0.4
		c0.5,0.3,0.7,0.7,0.7,1.3v3.6c0,0.1,0,0.2,0.1,0.3c0,0.1,0.1,0.1,0.3,0.1c0,0,0.1,0,0.2,0s0.1,0,0.2,0v0.8c-0.2,0-0.3,0.1-0.4,0.1
		s-0.2,0-0.4,0c-0.4,0-0.6-0.1-0.8-0.4c-0.1-0.1-0.1-0.3-0.2-0.6c-0.2,0.3-0.5,0.5-0.9,0.7s-0.8,0.3-1.3,0.3c-0.6,0-1.1-0.2-1.4-0.5
		s-0.6-0.8-0.6-1.3c0-0.6,0.2-1,0.5-1.4s0.8-0.5,1.4-0.6L118.1,197z M115.8,199.8c0.2,0.2,0.5,0.3,0.8,0.3c0.4,0,0.7-0.1,1.1-0.3
		c0.6-0.3,0.9-0.8,0.9-1.4v-0.8c-0.1,0.1-0.3,0.2-0.5,0.2c-0.2,0.1-0.4,0.1-0.6,0.1l-0.6,0.1c-0.4,0.1-0.7,0.1-0.9,0.2
		c-0.3,0.2-0.5,0.5-0.5,0.9C115.5,199.4,115.6,199.6,115.8,199.8z"/>
	<path d="M121.4,194.5h1v0.9c0.3-0.4,0.6-0.6,0.9-0.8s0.7-0.2,1.1-0.2c0.9,0,1.5,0.3,1.8,0.9c0.2,0.3,0.3,0.8,0.3,1.5v4h-1.1v-4
		c0-0.4-0.1-0.7-0.2-0.9c-0.2-0.4-0.5-0.6-1-0.6c-0.2,0-0.5,0-0.6,0.1c-0.3,0.1-0.5,0.3-0.8,0.5c-0.2,0.2-0.3,0.4-0.3,0.6
		s-0.1,0.5-0.1,0.9v3.3h-1.1V194.5z"/>
	<path d="M131.9,194.7c0.4,0.2,0.7,0.5,0.9,0.8c0.2,0.3,0.3,0.7,0.4,1.1c0.1,0.3,0.1,0.8,0.1,1.4h-4.6c0,0.6,0.2,1.2,0.4,1.5
		c0.3,0.4,0.7,0.6,1.3,0.6c0.5,0,1-0.2,1.3-0.5c0.2-0.2,0.3-0.5,0.4-0.7h1c0,0.2-0.1,0.5-0.3,0.8s-0.3,0.5-0.5,0.7
		c-0.3,0.3-0.7,0.5-1.2,0.6c-0.3,0.1-0.5,0.1-0.9,0.1c-0.8,0-1.4-0.3-2-0.9c-0.5-0.6-0.8-1.4-0.8-2.4c0-1,0.3-1.8,0.8-2.5
		c0.5-0.6,1.3-0.9,2.1-0.9C131.1,194.3,131.5,194.4,131.9,194.7z M132.3,197.1c0-0.5-0.1-0.8-0.3-1.1c-0.3-0.5-0.8-0.8-1.4-0.8
		c-0.5,0-0.9,0.2-1.2,0.5s-0.5,0.8-0.5,1.3H132.3z"/>
	<path d="M134.8,192.1h1.1v8.6h-1.1V192.1z"/>
</g>
<g id="XMLID_62_" transform="translate(0, 50)">
	<line id="XMLID_81_" fill="none" stroke="#454545" stroke-width="2" x1="149.3" y1="-3" x2="619.2" y2="-3"/>
	<circle id="XMLID_80_" fill="#FFFFFF" stroke="#ACACAC" cx="199.3" cy="-3" r="20"/>
	<circle id="XMLID_79_" fill="#FFFFFF" stroke="#ACACAC" cx="249.3" cy="-3" r="20"/>
	<circle id="XMLID_78_" fill="#FFFFFF" stroke="#ACACAC" cx="299.3" cy="-3" r="20"/>
	<circle id="XMLID_77_" fill="#FFFFFF" stroke="#ACACAC" cx="349.3" cy="-3" r="20"/>
	<circle id="XMLID_76_" fill="#FFFFFF" stroke="#ACACAC" cx="399.3" cy="-3" r="20"/>
	<circle id="XMLID_75_" fill="#FFFFFF" stroke="#ACACAC" cx="449.3" cy="-3" r="20"/>
	<circle id="XMLID_74_" fill="#FFFFFF" stroke="#ACACAC" cx="499.3" cy="-3" r="20"/>
	<circle id="XMLID_73_" fill="#FFFFFF" stroke="#ACACAC" cx="549.3" cy="-3" r="20"/>
	<circle id="XMLID_72_" fill="#FFFFFF" stroke="#ACACAC" cx="599.3" cy="-3" r="20"/>
	<line id="XMLID_71_" fill="none" stroke="#454545" stroke-width="2" x1="219" y1="0.5" x2="179.6" y2="-6.5"/>
	<line id="XMLID_70_" fill="none" stroke="#454545" stroke-width="2" x1="266.6" y1="7" x2="232" y2="-13"/>
	<line id="XMLID_69_" fill="none" stroke="#454545" stroke-width="2" x1="318.1" y1="-9.8" x2="280.5" y2="3.8"/>
	<line id="XMLID_68_" fill="none" stroke="#454545" stroke-width="2" x1="369" y1="-6.5" x2="329.6" y2="0.5"/>
	<line id="XMLID_67_" fill="none" stroke="#454545" stroke-width="2" x1="419.3" y1="-3" x2="379.3" y2="-3"/>
	<line id="XMLID_66_" fill="none" stroke="#454545" stroke-width="2" x1="469.2" y1="-4.7" x2="429.4" y2="-1.3"/>
	<line id="XMLID_65_" fill="none" stroke="#454545" stroke-width="2" x1="518.1" y1="3.8" x2="480.5" y2="-9.8"/>
	<line id="XMLID_64_" fill="none" stroke="#454545" stroke-width="2" x1="566.6" y1="7" x2="532" y2="-13"/>
	<line id="XMLID_63_" fill="none" stroke="#454545" stroke-width="2" x1="618.1" y1="3.8" x2="580.5" y2="-9.8"/>
</g>
<g id="XMLID_48_" transform="translate(0, 100)">
	<line id="XMLID_61_" fill="none" stroke="#454545" stroke-width="2" x1="149.3" y1="-3" x2="469.3" y2="-3"/>
	<circle id="XMLID_60_" fill="#FFFFFF" stroke="#ACACAC" cx="199.3" cy="-3" r="20"/>
	<circle id="XMLID_59_" fill="#FFFFFF" stroke="#ACACAC" cx="249.3" cy="-3" r="20"/>
	<circle id="XMLID_58_" fill="#FFFFFF" stroke="#ACACAC" cx="299.3" cy="-3" r="20"/>
	<circle id="XMLID_57_" fill="#FFFFFF" stroke="#ACACAC" cx="349.3" cy="-3" r="20"/>
	<circle id="XMLID_56_" fill="#FFFFFF" stroke="#ACACAC" cx="399.3" cy="-3" r="20"/>
	<circle id="XMLID_55_" fill="#FFFFFF" stroke="#ACACAC" cx="449.3" cy="-3" r="20"/>
	<line id="XMLID_54_" fill="none" stroke="#454545" stroke-width="2" x1="219.3" y1="-3" x2="179.3" y2="-3"/>
	<line id="XMLID_53_" fill="none" stroke="#454545" stroke-width="2" x1="269.3" y1="-3" x2="229.3" y2="-3"/>
	<line id="XMLID_52_" fill="none" stroke="#454545" stroke-width="2" x1="319.3" y1="-3" x2="279.3" y2="-3"/>
	<line id="XMLID_51_" fill="none" stroke="#454545" stroke-width="2" x1="369" y1="-6.5" x2="329.6" y2="0.5"/>
	<line id="XMLID_50_" fill="none" stroke="#454545" stroke-width="2" x1="419" y1="0.5" x2="379.6" y2="-6.5"/>
	<line id="XMLID_49_" fill="none" stroke="#454545" stroke-width="2" x1="469" y1="0.5" x2="429.6" y2="-6.5"/>
</g>
<g id="XMLID_40_" transform="translate(0, 150)">
	<line id="XMLID_47_" fill="none" stroke="#454545" stroke-width="2" x1="149.3" y1="-3" x2="319.3" y2="-3"/>
	<circle id="XMLID_46_" fill="#FFFFFF" stroke="#ACACAC" cx="199.3" cy="-3" r="20"/>
	<circle id="XMLID_45_" fill="#FFFFFF" stroke="#ACACAC" cx="249.3" cy="-3" r="20"/>
	<circle id="XMLID_44_" fill="#FFFFFF" stroke="#ACACAC" cx="299.3" cy="-3" r="20"/>
	<line id="XMLID_43_" fill="none" stroke="#454545" stroke-width="2" x1="219.2" y1="-1.3" x2="179.4" y2="-4.7"/>
	<line id="XMLID_42_" fill="none" stroke="#454545" stroke-width="2" x1="268.1" y1="-9.8" x2="230.5" y2="3.8"/>
	<line id="XMLID_41_" fill="none" stroke="#454545" stroke-width="2" x1="319" y1="0.5" x2="279.6" y2="-6.5"/>
</g>
<g id="XMLID_28_" transform="translate(0, 200)">
	<line id="XMLID_39_" fill="none" stroke="#454545" stroke-width="2" x1="149.3" y1="-3" x2="419.3" y2="-3"/>
	<circle id="XMLID_38_" fill="#FFFFFF" stroke="#ACACAC" cx="199.3" cy="-3" r="20"/>
	<circle id="XMLID_37_" fill="#FFFFFF" stroke="#ACACAC" cx="249.3" cy="-3" r="20"/>
	<circle id="XMLID_36_" fill="#FFFFFF" stroke="#ACACAC" cx="299.3" cy="-3" r="20"/>
	<circle id="XMLID_35_" fill="#FFFFFF" stroke="#ACACAC" cx="349.3" cy="-3" r="20"/>
	<circle id="XMLID_34_" fill="#FFFFFF" stroke="#ACACAC" cx="399.3" cy="-3" r="20"/>
	<line id="XMLID_33_" fill="none" stroke="#454545" stroke-width="2" x1="219.3" y1="-3" x2="179.3" y2="-3"/>
	<line id="XMLID_32_" fill="none" stroke="#454545" stroke-width="2" x1="269" y1="0.5" x2="229.6" y2="-6.5"/>
	<line id="XMLID_31_" fill="none" stroke="#454545" stroke-width="2" x1="319.3" y1="-3" x2="279.3" y2="-3"/>
	<line id="XMLID_30_" fill="none" stroke="#454545" stroke-width="2" x1="368.6" y1="2.2" x2="330" y2="-8.2"/>
	<line id="XMLID_29_" fill="none" stroke="#454545" stroke-width="2" x1="415.7" y1="8.5" x2="382.9" y2="-14.5"/>
</g>
<g>
</g>
<g>
</g>
<g>
</g>
<g>
</g>
<g>
</g>
<g>
</g>
<g>
</g>
<g>
</g>
<g>
</g>
<g>
</g>
<g>
</g>
<g>
</g>
<g>
</g>
<g>
</g>
<g>
</g>
</svg>
