<?xml version="1.0" encoding="utf-8"?>
<!-- Generator: Adobe Illustrator 25.0.0, SVG Export Plug-In . SVG Version: 6.00 Build 0)  -->
<svg version="1.1" id="Layer_1" xmlns="http://www.w3.org/2000/svg" xmlns:xlink="http://www.w3.org/1999/xlink" x="0px" y="0px"
	 viewBox="0 0 470.9 440.2" style="enable-background:new 0 0 470.9 440.2;" xml:space="preserve">
<style type="text/css">
	.st0{fill-rule:evenodd;clip-rule:evenodd;fill:#FFFFFF;}
	.st1{filter:url(#filter-2);}
	.st2{fill-rule:evenodd;clip-rule:evenodd;}
	.st3{fill:#464646;}
	.st4{font-family:'Roboto-Bold';}
	.st5{font-size:18.2518px;}
	.st6{filter:url(#filter-4);}
	.st7{filter:url(#filter-6);}
	.st8{fill-rule:evenodd;clip-rule:evenodd;fill:#007D8A;}
	.st9{fill:#FFFFFF;}
	.st10{filter:url(#filter-8);}
	.st11{filter:url(#filter-10);}
	.st12{fill:none;stroke:#007D8A;stroke-width:1.6186;}
	.st13{filter:url(#filter-12);}
	.st14{filter:url(#filter-14);}
	.st15{filter:url(#filter-16);}
	.st16{fill-rule:evenodd;clip-rule:evenodd;fill:#FFFFFF;stroke:#007D8A;}
	.st17{filter:url(#filter-18);}
</style>
<filter  filterUnits="objectBoundingBox" height="103.3%" id="filter-8" width="100.3%" x="-0.2%" y="-1.7%">
	<feOffset  dx="0" dy="-1" in="SourceAlpha" result="shadowOffsetInner1"></feOffset>
	<feComposite  in="shadowOffsetInner1" in2="SourceAlpha" k2="-1" k3="1" operator="arithmetic" result="shadowInnerInner1">
		</feComposite>
	<feColorMatrix  in="shadowInnerInner1" type="matrix" values="0 0 0 0 0.8   0 0 0 0 0.8   0 0 0 0 0.8  0 0 0 1 0">
		</feColorMatrix>
</filter>
<filter  filterUnits="objectBoundingBox" height="103.3%" id="filter-6" width="100.3%" x="-0.2%" y="-1.7%">
	<feOffset  dx="0" dy="-1" in="SourceAlpha" result="shadowOffsetInner1"></feOffset>
	<feComposite  in="shadowOffsetInner1" in2="SourceAlpha" k2="-1" k3="1" operator="arithmetic" result="shadowInnerInner1">
		</feComposite>
	<feColorMatrix  in="shadowInnerInner1" type="matrix" values="0 0 0 0 0.8   0 0 0 0 0.8   0 0 0 0 0.8  0 0 0 1 0">
		</feColorMatrix>
</filter>
<filter  filterUnits="objectBoundingBox" height="103.3%" id="filter-4" width="100.3%" x="-0.2%" y="-1.7%">
	<feOffset  dx="0" dy="-1" in="SourceAlpha" result="shadowOffsetInner1"></feOffset>
	<feComposite  in="shadowOffsetInner1" in2="SourceAlpha" k2="-1" k3="1" operator="arithmetic" result="shadowInnerInner1">
		</feComposite>
	<feColorMatrix  in="shadowInnerInner1" type="matrix" values="0 0 0 0 0.8   0 0 0 0 0.8   0 0 0 0 0.8  0 0 0 1 0">
		</feColorMatrix>
</filter>
<filter  filterUnits="objectBoundingBox" height="103.3%" id="filter-2" width="100.3%" x="-0.2%" y="-1.7%">
	<feOffset  dx="0" dy="-1" in="SourceAlpha" result="shadowOffsetInner1"></feOffset>
	<feComposite  in="shadowOffsetInner1" in2="SourceAlpha" k2="-1" k3="1" operator="arithmetic" result="shadowInnerInner1">
		</feComposite>
	<feColorMatrix  in="shadowInnerInner1" type="matrix" values="0 0 0 0 0.8   0 0 0 0 0.8   0 0 0 0 0.8  0 0 0 1 0">
		</feColorMatrix>
</filter>
<filter  filterUnits="objectBoundingBox" height="103.3%" id="filter-18" width="100.3%" x="-0.2%" y="-1.7%">
	<feOffset  dx="0" dy="-1" in="SourceAlpha" result="shadowOffsetInner1"></feOffset>
	<feComposite  in="shadowOffsetInner1" in2="SourceAlpha" k2="-1" k3="1" operator="arithmetic" result="shadowInnerInner1">
		</feComposite>
	<feColorMatrix  in="shadowInnerInner1" type="matrix" values="0 0 0 0 0.8   0 0 0 0 0.8   0 0 0 0 0.8  0 0 0 1 0">
		</feColorMatrix>
</filter>
<filter  filterUnits="objectBoundingBox" height="103.3%" id="filter-16" width="100.3%" x="-0.2%" y="-1.7%">
	<feOffset  dx="0" dy="-1" in="SourceAlpha" result="shadowOffsetInner1"></feOffset>
	<feComposite  in="shadowOffsetInner1" in2="SourceAlpha" k2="-1" k3="1" operator="arithmetic" result="shadowInnerInner1">
		</feComposite>
	<feColorMatrix  in="shadowInnerInner1" type="matrix" values="0 0 0 0 0.8   0 0 0 0 0.8   0 0 0 0 0.8  0 0 0 1 0">
		</feColorMatrix>
</filter>
<filter  filterUnits="objectBoundingBox" height="103.3%" id="filter-14" width="100.3%" x="-0.2%" y="-1.7%">
	<feOffset  dx="0" dy="-1" in="SourceAlpha" result="shadowOffsetInner1"></feOffset>
	<feComposite  in="shadowOffsetInner1" in2="SourceAlpha" k2="-1" k3="1" operator="arithmetic" result="shadowInnerInner1">
		</feComposite>
	<feColorMatrix  in="shadowInnerInner1" type="matrix" values="0 0 0 0 0.8   0 0 0 0 0.8   0 0 0 0 0.8  0 0 0 1 0">
		</feColorMatrix>
</filter>
<filter  filterUnits="objectBoundingBox" height="103.3%" id="filter-12" width="100.3%" x="-0.2%" y="-1.7%">
	<feOffset  dx="0" dy="-1" in="SourceAlpha" result="shadowOffsetInner1"></feOffset>
	<feComposite  in="shadowOffsetInner1" in2="SourceAlpha" k2="-1" k3="1" operator="arithmetic" result="shadowInnerInner1">
		</feComposite>
	<feColorMatrix  in="shadowInnerInner1" type="matrix" values="0 0 0 0 0.8   0 0 0 0 0.8   0 0 0 0 0.8  0 0 0 1 0">
		</feColorMatrix>
</filter>
<filter  filterUnits="objectBoundingBox" height="103.3%" id="filter-10" width="100.3%" x="-0.2%" y="-1.7%">
	<feOffset  dx="0" dy="-1" in="SourceAlpha" result="shadowOffsetInner1"></feOffset>
	<feComposite  in="shadowOffsetInner1" in2="SourceAlpha" k2="-1" k3="1" operator="arithmetic" result="shadowInnerInner1">
		</feComposite>
	<feColorMatrix  in="shadowInnerInner1" type="matrix" values="0 0 0 0 0.8   0 0 0 0 0.8   0 0 0 0 0.8  0 0 0 1 0">
		</feColorMatrix>
</filter>
<desc>Created with Sketch.</desc>
<g id="Icons-V2">
	<g id="Final-Sets-Updated" transform="translate(-1266.000000, -112.000000)">
		<g id="Group-74" transform="translate(1266.000000, 112.000000)">
			<g id="Group-2-Copy-10" transform="translate(0.000000, 210.000000)">
				<g id="Rectangle-5-Copy-163">
					<g>
						<rect id="path-1" y="132.2" class="st0" width="467.7" height="48.9"/>
					</g>
					<g class="st1">
						<rect id="path-1_2_" y="132.2" class="st2" width="467.7" height="48.9"/>
					</g>
				</g>
				<text transform="matrix(1 0 0 1 71.7036 163.1855)" class="st3 st4 st5">Work/School Note</text>
			</g>
			<g id="Group-2-Copy-11" transform="translate(0.000000, 240.000000)">
				<g id="Rectangle-5-Copy-163_1_">
					<g>
						<rect id="path-3" y="151.1" class="st0" width="467.7" height="48.9"/>
					</g>
					<g class="st6">
						<rect id="path-3_2_" y="151.1" class="st2" width="467.7" height="48.9"/>
					</g>
				</g>
				<text transform="matrix(1 0 0 1 71.7036 182.0742)" class="st3 st4 st5">Discharge Paperwork</text>
			</g>
			<g id="Group-42">
				<g id="Group-40" transform="translate(0.000000, 30.000000)">
					<g id="Rectangle-5-Copy-194">
						<g>
							<rect id="path-5" y="18.9" class="st0" width="467.7" height="48.9"/>
						</g>
						<g class="st7">
							<rect id="path-5_2_" y="18.9" class="st2" width="467.7" height="48.9"/>
						</g>
					</g>
					<text transform="matrix(1 0 0 1 71.7036 49.8525)" class="st3 st4 st5">Procedures</text>
					<g id="Group-3-Copy-8" transform="translate(16.000000, 9.000000)">
						<circle id="Oval-Copy-28" class="st8" cx="20.4" cy="34.8" r="10.3"/>
						<g id="check_nor_light_48x48" transform="translate(3.000000, 3.000000)">
							<path id="check" class="st9" d="M15.9,33l4-5.5c0.3-0.5,1-0.6,1.5-0.3c0.5,0.3,0.6,1,0.3,1.5L17,35.3
								c-0.4,0.5-1.2,0.6-1.6,0.1l-3-3c-0.4-0.4-0.4-1.1,0-1.5c0.4-0.4,1.1-0.4,1.5,0L15.9,33z"/>
						</g>
					</g>
				</g>
				<g id="Group-38" transform="translate(0.000000, 90.000000)">
					<g id="Rectangle-5-Copy-195">
						<g>
							<rect id="path-7" y="56.7" class="st0" width="467.7" height="48.9"/>
						</g>
						<g class="st10">
							<rect id="path-7_2_" y="56.7" class="st2" width="467.7" height="48.9"/>
						</g>
					</g>
					<text transform="matrix(1 0 0 1 71.7036 87.6289)" class="st3 st4 st5">Home Medication</text>
					<g id="Group-3-Copy-9" transform="translate(16.000000, 9.000000)">
						<circle id="Oval-Copy-28_1_" class="st8" cx="20.4" cy="72.6" r="10.3"/>
						<g id="check_nor_light_48x48_1_" transform="translate(3.000000, 3.000000)">
							<path id="check_1_" class="st9" d="M15.9,70.8l4-5.5c0.3-0.5,1-0.6,1.5-0.3c0.5,0.3,0.6,1,0.3,1.5L17,73
								c-0.4,0.5-1.2,0.6-1.6,0.1l-3-3c-0.4-0.4-0.4-1.1,0-1.5c0.4-0.4,1.1-0.4,1.5,0L15.9,70.8z"/>
						</g>
					</g>
					<g id="Group-3-Copy-12" transform="translate(16.000000, 158.000000)">
						<circle id="Oval-Copy-28_2_" class="st8" cx="20.4" cy="166.4" r="10.3"/>
						<g id="check_nor_light_48x48_2_" transform="translate(3.000000, 3.000000)">
							<path id="check_2_" class="st9" d="M15.9,164.6l4-5.5c0.3-0.5,1-0.6,1.5-0.3c0.5,0.3,0.6,1,0.3,1.5l-4.7,6.6
								c-0.4,0.5-1.2,0.6-1.6,0.1l-3-3c-0.4-0.4-0.4-1.1,0-1.5c0.4-0.4,1.1-0.4,1.5,0L15.9,164.6z"/>
						</g>
					</g>
				</g>
				<g id="Group-41">
					<g id="Rectangle-5-Copy-196">
						<g>
							<rect id="path-9" class="st0" width="467.7" height="48.9"/>
						</g>
						<g class="st11">
							<rect id="path-9_2_" class="st2" width="467.7" height="48.9"/>
						</g>
					</g>
					<text transform="matrix(1 0 0 1 71.7036 30.9629)" class="st3 st4 st5">Disposition</text>
					<circle id="Oval-Copy-42" class="st12" cx="36.7" cy="25.3" r="9.3"/>
				</g>
				<g id="Group-37" transform="translate(0.000000, 120.000000)">
					<g id="Rectangle-5-Copy-197">
						<g>
							<rect id="path-11" y="75.6" class="st0" width="467.7" height="48.9"/>
						</g>
						<g class="st13">
							<rect id="path-11_2_" y="75.6" class="st2" width="467.7" height="48.9"/>
						</g>
					</g>
					<text transform="matrix(1 0 0 1 71.7036 106.5186)" class="st3 st4 st5">Prescriptions</text>
					<circle id="Oval-Copy-43" class="st12" cx="36.7" cy="100.8" r="9.3"/>
				</g>
				<g id="Group-36" transform="translate(0.000000, 150.000000)">
					<g id="Rectangle-5-Copy-198">
						<g>
							<rect id="path-13" y="94.4" class="st0" width="467.7" height="48.9"/>
						</g>
						<g class="st14">
							<rect id="path-13_2_" y="94.4" class="st2" width="467.7" height="48.9"/>
						</g>
					</g>
					<text transform="matrix(1 0 0 1 71.7036 125.4062)" class="st3 st4 st5">Patient Education</text>
					<circle id="Oval-Copy-44" class="st12" cx="36.7" cy="119.7" r="9.3"/>
				</g>
				<g id="Group-39" transform="translate(0.000000, 60.000000)">
					<g id="Rectangle-5-Copy-199">
						<g>
							<rect id="path-15" y="37.8" class="st0" width="467.7" height="48.9"/>
						</g>
						<g class="st15">
							<rect id="path-15_2_" y="37.8" class="st2" width="467.7" height="48.9"/>
						</g>
					</g>
					<text transform="matrix(1 0 0 1 71.7036 68.7402)" class="st3 st4 st5">Orders Preformed</text>
					
						<g id="Group-4-Copy-11" transform="translate(22.500000, 15.500000) rotate(-270.000000) translate(-22.500000, -15.500000) translate(16.000000, 9.000000)">
						<circle id="Oval-Copy-39" class="st16" cx="53.9" cy="-7.8" r="9.6"/>
						<path id="Oval-Copy-49" class="st8" d="M53.9,1.9c5.8,0,10.4-4.7,10.4-10.4H43.4C43.4-2.7,48.1,1.9,53.9,1.9z"/>
					</g>
				</g>
				<g id="Group-35" transform="translate(0.000000, 180.000000)">
					<g id="Rectangle-5-Copy-200">
						<g>
							<rect id="path-17" y="113.3" class="st0" width="467.7" height="48.9"/>
						</g>
						<g class="st17">
							<rect id="path-17_2_" y="113.3" class="st2" width="467.7" height="48.9"/>
						</g>
					</g>
					<text transform="matrix(1 0 0 1 71.7036 144.2969)" class="st3 st4 st5">Follow Up Providers</text>
					
						<g id="Group-4-Copy-12" transform="translate(22.500000, 15.500000) rotate(90.000000) translate(-22.500000, -15.500000) translate(16.000000, 9.000000)">
						<circle id="Oval-Copy-39_1_" class="st16" cx="129.4" cy="-7.8" r="9.6"/>
						<path id="Oval-Copy-49_1_" class="st8" d="M129.4,1.9c5.8,0,10.4-4.7,10.4-10.4H119C119-2.7,123.7,1.9,129.4,1.9z"/>
					</g>
					
						<g id="Group-4-Copy-13" transform="translate(22.500000, 45.500000) rotate(90.000000) translate(-22.500000, -45.500000) translate(16.000000, 39.000000)">
						<circle id="Oval-Copy-39_2_" class="st16" cx="148.3" cy="-7.8" r="9.6"/>
						<path id="Oval-Copy-49_2_" class="st8" d="M148.3,1.9c5.8,0,10.4-4.7,10.4-10.4h-20.9C137.9-2.7,142.6,1.9,148.3,1.9z"/>
					</g>
				</g>
			</g>
		</g>
	</g>
</g>
</svg>
