<?xml version="1.0" encoding="utf-8"?>
<!-- Generator: Adobe Illustrator 19.1.0, SVG Export Plug-In . SVG Version: 6.00 Build 0)  -->
<!DOCTYPE svg PUBLIC "-//W3C//DTD SVG 1.1//EN" "http://www.w3.org/Graphics/SVG/1.1/DTD/svg11.dtd">
<svg version="1.1" id="Layer_1" xmlns="http://www.w3.org/2000/svg" xmlns:xlink="http://www.w3.org/1999/xlink" x="0px" y="0px"
	 viewBox="-396 259.2 165.9 43.8" style="enable-background:new -396 259.2 165.9 43.8;" xml:space="preserve">
<style type="text/css">
	.st0{fill:#FFFFFF;}
	.st1{fill:#2D2D2D;}
</style>
<g>
	<ellipse cx="-376.9" cy="281.6" rx="15.2" ry="19.4"/>
	<g>
		<path class="st0" d="M-375.6,268.6v10.6h-2.1v-10.6h-3.6l-1.6-1l1.6-1h9.3l1.6,1l-1.6,1H-375.6z"/>
	</g>
	<g>
		<path class="st0" d="M-382.7,277.5c-1.3,2.6-0.9,5.8,1.2,8l-1.5,1.5c-3.5-3.5-3.5-9.1,0-12.6l6.2,6.2l6.2-6.2
			c3.5,3.5,3.5,9.1,0,12.6l-1.4-1.5c2.2-2.2,2.6-5.4,1.3-8l-6,6L-382.7,277.5z"/>
	</g>
	<g>
		<path class="st0" d="M-381.2,291.4c0.2,0.9,0.6,1.7,1.3,2.4c1.8,1.8,4.7,1.8,6.5,0l1.5,1.5c-2.6,2.6-6.8,2.6-9.4,0
			c-1.1-1.1-1.7-2.5-1.9-3.9l-1.4-0.9l1.5-1c0.2-1.3,0.8-2.6,1.9-3.6c2.6-2.6,6.8-2.6,9.4,0l-1.5,1.5c-1.8-1.8-4.7-1.8-6.5,0
			c-0.6,0.6-1,1.4-1.2,2.1h5.7l1.5,1l-1.5,0.9H-381.2z"/>
	</g>
</g>
<g>
	<path class="st1" d="M-351.4,273.6v3.6h3v0.9h-3v6.4c0,1,0.1,1.7,0.3,2s0.6,0.5,1.4,0.5c0.6,0,1.2-0.2,2-0.5v1.1
		c-0.8,0.4-1.5,0.6-2.2,0.6c-0.7,0-1.3-0.2-1.8-0.6s-0.7-1-0.7-1.7v-7.8h-2.9v-0.9h2.9v-2.6l0.8-1H-351.4z"/>
	<path class="st1" d="M-342.4,277c1.6,0,2.9,0.5,3.9,1.6s1.6,2.4,1.6,4c0,1.6-0.5,2.9-1.6,4s-2.3,1.6-3.9,1.6s-2.9-0.5-3.9-1.6
		s-1.6-2.4-1.6-4c0-1.6,0.5-2.9,1.6-4S-343.9,277-342.4,277z M-342.4,287.1c1.2,0,2.2-0.4,3-1.3s1.2-1.9,1.2-3.2
		c0-1.3-0.4-2.3-1.2-3.2s-1.8-1.3-3-1.3c-1.2,0-2.2,0.4-3.1,1.3s-1.2,1.9-1.2,3.2c0,1.3,0.4,2.3,1.2,3.2S-343.6,287.1-342.4,287.1z"
		/>
	<path class="st1" d="M-326.2,271.6V288h-1.2v-0.8c-1,0.7-2,1.1-3.2,1.1c-1.5,0-2.8-0.5-3.9-1.6s-1.6-2.4-1.6-4c0-1.6,0.5-2.9,1.6-4
		s2.3-1.6,3.9-1.6c1,0,2.1,0.3,3.2,0.9v-6.2H-326.2z M-327.3,286.1v-7c-1-0.7-2.1-1-3.1-1c-1.2,0-2.3,0.4-3.1,1.2s-1.2,1.9-1.2,3.2
		c0,1.3,0.4,2.4,1.3,3.3s1.9,1.3,3.2,1.3C-329.2,287.1-328.3,286.8-327.3,286.1z"/>
	<path class="st1" d="M-315,271.6V288h-1.2v-0.8c-1,0.7-2,1.1-3.2,1.1c-1.5,0-2.8-0.5-3.9-1.6s-1.6-2.4-1.6-4c0-1.6,0.5-2.9,1.6-4
		s2.3-1.6,3.9-1.6c1,0,2.1,0.3,3.2,0.9v-6.2H-315z M-316.2,286.1v-7c-1-0.7-2.1-1-3.1-1c-1.2,0-2.3,0.4-3.1,1.2s-1.2,1.9-1.2,3.2
		c0,1.3,0.4,2.4,1.3,3.3s1.9,1.3,3.2,1.3C-318.1,287.1-317.1,286.8-316.2,286.1z"/>
</g>
<g>
	<path d="M-308.7,276.8c1.6,0,2.9,0.5,3.8,1.5s1.4,2.5,1.4,4.3v0.4h-7.7c0.1,1,0.5,1.7,1.1,2.3s1.5,0.8,2.5,0.8c0.7,0,1.3-0.1,2-0.4
		s1.3-0.6,2-1.1v2.1c-1.3,0.9-2.8,1.4-4.7,1.4c-1.7,0-3.1-0.5-4.2-1.6s-1.6-2.4-1.6-4.1c0-1.7,0.5-3,1.5-4.1
		S-310.3,276.8-308.7,276.8z M-306.2,281.4c-0.1-0.8-0.3-1.4-0.7-1.9s-1-0.7-1.7-0.7c-0.7,0-1.3,0.2-1.8,0.6s-0.7,1.1-0.8,1.9
		H-306.2z"/>
	<path d="M-300.8,272c0.4,0,0.8,0.2,1.1,0.5s0.5,0.7,0.5,1.1c0,0.4-0.2,0.8-0.5,1.1s-0.7,0.5-1.2,0.5c-0.4,0-0.8-0.2-1.1-0.5
		s-0.5-0.7-0.5-1.1c0-0.5,0.2-0.8,0.5-1.2S-301.2,272-300.8,272z M-299.3,277.1V288h-2.9v-10.9H-299.3z"/>
	<path d="M-293.9,276.8c0.6,0,1.2,0.1,1.7,0.2s1.1,0.4,1.7,0.7v2.3c-0.5-0.4-1.1-0.6-1.8-0.8s-1.2-0.3-1.7-0.3c-0.4,0-0.7,0.1-1,0.2
		s-0.4,0.4-0.4,0.7c0,0.2,0.1,0.3,0.3,0.5s0.7,0.5,1.6,0.9c1.2,0.6,2.1,1.2,2.6,1.8s0.8,1.2,0.8,1.9c0,1.1-0.4,1.9-1.1,2.5
		s-1.7,0.9-3,0.9c-0.8,0-1.5-0.1-2.2-0.3s-1.2-0.4-1.7-0.6v-2.4c1.4,0.8,2.6,1.2,3.6,1.2c0.5,0,0.9-0.1,1.2-0.3s0.5-0.4,0.5-0.7
		c0-0.2-0.1-0.3-0.2-0.5s-0.3-0.3-0.5-0.4s-0.9-0.5-2.1-1.1c-0.9-0.4-1.5-0.9-2-1.4c-0.4-0.5-0.6-1.1-0.6-1.8c0-1,0.4-1.7,1.1-2.3
		S-295.1,276.8-293.9,276.8z"/>
	<path d="M-283.6,276.8c1.3,0,2.4,0.2,3.5,0.7v2.4c-1-0.6-2-0.9-2.9-0.9c-1,0-1.8,0.3-2.4,0.9s-0.9,1.4-0.9,2.5c0,1,0.3,1.8,0.9,2.5
		s1.5,0.9,2.5,0.9c0.8,0,1.8-0.3,3-0.8v2.3c-1.1,0.5-2.3,0.7-3.5,0.7c-1.8,0-3.2-0.5-4.3-1.5s-1.7-2.4-1.7-4c0-1.7,0.5-3.1,1.6-4.2
		S-285.3,276.8-283.6,276.8z"/>
	<path d="M-276,271.6v7h0.1c0.9-1.2,2.1-1.7,3.4-1.7c1.2,0,2.1,0.4,2.8,1.1s1.1,1.8,1.1,3v7h-2.9v-6.5c0-0.7-0.2-1.3-0.5-1.8
		s-0.8-0.7-1.4-0.7c-0.4,0-0.8,0.1-1.2,0.4s-0.8,0.7-1.3,1.2v7.2h-2.9v-16.4H-276z"/>
	<path d="M-262,276.8c1.6,0,2.9,0.5,3.8,1.5s1.4,2.5,1.4,4.3v0.4h-7.7c0.1,1,0.5,1.7,1.1,2.3s1.5,0.8,2.5,0.8c0.7,0,1.3-0.1,2-0.4
		s1.3-0.6,2-1.1v2.1c-1.3,0.9-2.8,1.4-4.7,1.4c-1.7,0-3.1-0.5-4.2-1.6s-1.6-2.4-1.6-4.1c0-1.7,0.5-3,1.5-4.1S-263.7,276.8-262,276.8
		z M-259.5,281.4c-0.1-0.8-0.3-1.4-0.7-1.9s-1-0.7-1.7-0.7c-0.7,0-1.3,0.2-1.8,0.6s-0.7,1.1-0.8,1.9H-259.5z"/>
	<path d="M-254.1,272c0.4,0,0.8,0.2,1.1,0.5s0.5,0.7,0.5,1.1c0,0.4-0.2,0.8-0.5,1.1s-0.7,0.5-1.2,0.5c-0.4,0-0.8-0.2-1.1-0.5
		s-0.5-0.7-0.5-1.1c0-0.5,0.2-0.8,0.5-1.2S-254.5,272-254.1,272z M-252.7,277.1V288h-2.9v-10.9H-252.7z"/>
	<path d="M-243.4,277.3v-5.7h2.9V288h-5.1c-1.8,0-3.2-0.5-4.2-1.5s-1.6-2.4-1.6-4.1c0-1,0.2-2,0.7-2.8s1.2-1.5,2-2s1.8-0.7,2.8-0.7
		C-245,276.8-244.2,277-243.4,277.3z M-244.9,285.8h1.5v-6.3c-0.6-0.3-1.2-0.5-1.9-0.5c-1,0-1.7,0.3-2.3,0.9s-0.9,1.4-0.9,2.4
		C-248.4,284.6-247.2,285.8-244.9,285.8z"/>
</g>
</svg>
