<?xml version="1.0" encoding="utf-8"?>

<!DOCTYPE svg PUBLIC "-//W3C//DTD SVG 1.1//EN" "http://www.w3.org/Graphics/SVG/1.1/DTD/svg11.dtd">
<svg version="1.1" id="Layer_1" xmlns="http://www.w3.org/2000/svg" xmlns:xlink="http://www.w3.org/1999/xlink" x="0px" y="0px"
	 viewBox="0 0 165.9 43.8" style="enable-background:new 0 0 165.9 43.8;" xml:space="preserve">
<style type="text/css">
	.st0{fill:#303030;}
	.st1{fill:#FFFFFF;}
</style>
<g>
	<path class="st0" d="M43.9,15.7v3.1h2.6v0.8h-2.6v5.6c0,0.9,0.1,1.5,0.2,1.8c0.1,0.3,0.5,0.4,1.2,0.4c0.5,0,1.1-0.2,1.7-0.5v1
		c-0.7,0.3-1.3,0.5-1.9,0.5c-0.6,0-1.1-0.2-1.6-0.5s-0.6-0.8-0.6-1.5v-6.8h-2.5v-0.8h2.5v-2.2l0.7-0.9H43.9z"/>
	<path class="st0" d="M51.9,18.6c1.4,0,2.5,0.5,3.4,1.4c0.9,0.9,1.4,2.1,1.4,3.5c0,1.4-0.5,2.6-1.4,3.5c-0.9,0.9-2.1,1.4-3.4,1.4
		S49.4,28,48.5,27c-0.9-0.9-1.4-2.1-1.4-3.5c0-1.4,0.5-2.6,1.4-3.5S50.5,18.6,51.9,18.6z M51.9,27.5c1.1,0,1.9-0.4,2.7-1.1
		s1.1-1.7,1.1-2.8c0-1.1-0.4-2-1.1-2.8c-0.7-0.8-1.6-1.1-2.7-1.1c-1.1,0-2,0.4-2.7,1.1s-1.1,1.7-1.1,2.8c0,1.1,0.4,2.1,1.1,2.8
		S50.8,27.5,51.9,27.5z"/>
	<path class="st0" d="M66.2,13.9v14.3h-1v-0.7c-0.9,0.6-1.8,0.9-2.8,0.9C61,28.4,59.9,28,59,27s-1.4-2.1-1.4-3.5
		c0-1.4,0.5-2.6,1.4-3.5s2-1.4,3.4-1.4c0.9,0,1.8,0.3,2.8,0.8v-5.5H66.2z M65.2,26.6v-6.1c-0.9-0.6-1.8-0.9-2.7-0.9
		c-1.1,0-2,0.4-2.7,1.1s-1.1,1.6-1.1,2.8c0,1.1,0.4,2.1,1.1,2.9s1.7,1.1,2.8,1.1C63.5,27.5,64.3,27.2,65.2,26.6z"/>
	<path class="st0" d="M76,13.9v14.3h-1v-0.7c-0.9,0.6-1.8,0.9-2.8,0.9c-1.3,0-2.5-0.5-3.4-1.4s-1.4-2.1-1.4-3.5
		c0-1.4,0.5-2.6,1.4-3.5s2-1.4,3.4-1.4c0.9,0,1.8,0.3,2.8,0.8v-5.5H76z M75,26.6v-6.1c-0.9-0.6-1.8-0.9-2.7-0.9
		c-1.1,0-2,0.4-2.7,1.1s-1.1,1.6-1.1,2.8c0,1.1,0.4,2.1,1.1,2.9s1.7,1.1,2.8,1.1C73.4,27.5,74.2,27.2,75,26.6z"/>
</g>
<g>
	<path d="M82.5,18.5c1.4,0,2.5,0.5,3.3,1.4s1.2,2.1,1.2,3.7V24h-6.8c0.1,0.9,0.4,1.5,1,2c0.5,0.5,1.3,0.7,2.2,0.7
		c0.6,0,1.2-0.1,1.7-0.3s1.1-0.5,1.7-0.9v1.9c-1.1,0.8-2.5,1.2-4.1,1.2c-1.5,0-2.7-0.5-3.7-1.4s-1.4-2.1-1.4-3.6
		c0-1.5,0.4-2.6,1.3-3.6C79.9,19,81.1,18.5,82.5,18.5z M84.7,22.4c-0.1-0.7-0.3-1.2-0.6-1.6s-0.8-0.6-1.5-0.6
		c-0.6,0-1.1,0.2-1.5,0.6c-0.4,0.4-0.6,0.9-0.7,1.7H84.7z"/>
	<path d="M89.6,14.3c0.4,0,0.7,0.1,1,0.4s0.4,0.6,0.4,1c0,0.4-0.1,0.7-0.4,1c-0.3,0.3-0.6,0.4-1,0.4c-0.4,0-0.7-0.1-1-0.4
		c-0.3-0.3-0.4-0.6-0.4-1c0-0.4,0.1-0.7,0.4-1C88.9,14.4,89.2,14.3,89.6,14.3z M90.8,18.7v9.6h-2.5v-9.6H90.8z"/>
	<path d="M95.7,18.5c0.5,0,1,0.1,1.5,0.2s1,0.3,1.5,0.6v2c-0.5-0.3-1-0.6-1.5-0.7s-1-0.3-1.5-0.3c-0.4,0-0.6,0.1-0.9,0.2
		s-0.3,0.3-0.3,0.6c0,0.1,0.1,0.3,0.3,0.4s0.6,0.4,1.4,0.8c1.1,0.6,1.9,1.1,2.3,1.5c0.4,0.5,0.7,1,0.7,1.7c0,0.9-0.3,1.6-1,2.2
		c-0.6,0.5-1.5,0.8-2.6,0.8c-0.7,0-1.3-0.1-1.9-0.2c-0.6-0.2-1.1-0.3-1.5-0.5v-2.1c1.2,0.7,2.3,1,3.1,1c0.4,0,0.8-0.1,1-0.2
		c0.3-0.2,0.4-0.4,0.4-0.6c0-0.2,0-0.3-0.1-0.4s-0.2-0.2-0.4-0.4s-0.8-0.4-1.8-0.9c-0.8-0.4-1.3-0.8-1.7-1.2
		c-0.4-0.4-0.6-0.9-0.6-1.5c0-0.8,0.3-1.5,1-2S94.6,18.5,95.7,18.5z"/>
	<path d="M104.8,18.5c1.1,0,2.1,0.2,3,0.6v2.1c-0.9-0.5-1.7-0.8-2.5-0.8c-0.9,0-1.6,0.3-2.1,0.8c-0.5,0.5-0.8,1.3-0.8,2.2
		c0,0.9,0.3,1.6,0.8,2.2s1.3,0.8,2.2,0.8c0.7,0,1.6-0.2,2.6-0.7v2c-1,0.4-2,0.6-3.1,0.6c-1.6,0-2.8-0.4-3.8-1.3
		c-1-0.9-1.5-2.1-1.5-3.5c0-1.5,0.5-2.8,1.4-3.7S103.3,18.5,104.8,18.5z"/>
	<path d="M111.6,13.9V20h0.1c0.8-1,1.8-1.5,2.9-1.5c1,0,1.8,0.3,2.5,1s0.9,1.5,0.9,2.6v6.1h-2.5v-5.6c0-0.6-0.2-1.2-0.5-1.5
		c-0.3-0.4-0.7-0.6-1.2-0.6c-0.4,0-0.7,0.1-1.1,0.3c-0.3,0.2-0.7,0.6-1.1,1.1v6.3h-2.5V13.9H111.6z"/>
	<path d="M123.9,18.5c1.4,0,2.5,0.5,3.3,1.4s1.2,2.1,1.2,3.7V24h-6.8c0.1,0.9,0.4,1.5,1,2c0.5,0.5,1.3,0.7,2.2,0.7
		c0.6,0,1.2-0.1,1.7-0.3s1.1-0.5,1.7-0.9v1.9c-1.1,0.8-2.5,1.2-4.1,1.2c-1.5,0-2.7-0.5-3.7-1.4s-1.4-2.1-1.4-3.6
		c0-1.5,0.4-2.6,1.3-3.6C121.3,19,122.5,18.5,123.9,18.5z M126.1,22.4c-0.1-0.7-0.3-1.2-0.6-1.6s-0.8-0.6-1.5-0.6
		c-0.6,0-1.1,0.2-1.5,0.6c-0.4,0.4-0.6,0.9-0.7,1.7H126.1z"/>
	<path d="M130.9,14.3c0.4,0,0.7,0.1,1,0.4s0.4,0.6,0.4,1c0,0.4-0.1,0.7-0.4,1c-0.3,0.3-0.6,0.4-1,0.4c-0.4,0-0.7-0.1-1-0.4
		c-0.3-0.3-0.4-0.6-0.4-1c0-0.4,0.1-0.7,0.4-1C130.2,14.4,130.6,14.3,130.9,14.3z M132.2,18.7v9.6h-2.5v-9.6H132.2z"/>
	<path d="M140.4,18.9v-5h2.5v14.3h-4.4c-1.5,0-2.8-0.4-3.7-1.3s-1.4-2.1-1.4-3.6c0-0.9,0.2-1.7,0.6-2.5s1-1.3,1.8-1.7
		c0.7-0.4,1.6-0.6,2.4-0.6C139,18.5,139.7,18.6,140.4,18.9z M139.1,26.3h1.3v-5.5c-0.5-0.3-1.1-0.4-1.6-0.4c-0.8,0-1.5,0.3-2,0.8
		c-0.5,0.5-0.8,1.2-0.8,2.1C136,25.3,137.1,26.3,139.1,26.3z"/>
</g>
<g>
	<ellipse cx="19.1" cy="22.4" rx="15.2" ry="19.4"/>
	<g>
		<path class="st1" d="M19.8,9.7v10.5h-2.1V9.7h-3.6l-1.6-1l1.6-1h9.3l1.6,1l-1.6,1H19.8z"/>
	</g>
	<g>
		<path class="st1" d="M12.8,16.9c-1.3,2.9-0.9,6.5,1.2,8.9l-1.5,1.7c-3.5-3.9-3.5-10.3,0-14.2l6.2,7l6.2-7c3.5,3.9,3.5,10.3,0,14.2
			l-1.5-1.7c2.2-2.4,2.6-6,1.3-8.9l-6,6.7L12.8,16.9z"/>
	</g>
	<g>
		<path class="st1" d="M14,30.5c0.2,1,0.7,1.9,1.6,2.6c2.3,2,5.9,2,8.2,0l1.9,1.6c-3.3,2.8-8.6,2.8-11.8,0c-1.4-1.2-2.2-2.7-2.4-4.2
			l-1.8-1l1.8-1.1c0.3-1.5,1.1-2.8,2.3-3.9c3.3-2.8,8.6-2.8,11.8,0l-1.9,1.6c-2.2-1.9-5.9-1.9-8.2,0c-0.8,0.7-1.3,1.5-1.5,2.3h7.2
			l1.8,1.1l-1.8,1H14z"/>
	</g>
</g>


</svg>
