<?xml version="1.0" encoding="utf-8"?>
<!-- Generator: Adobe Illustrator 22.0.1, SVG Export Plug-In . SVG Version: 6.00 Build 0)  -->
<!DOCTYPE svg PUBLIC "-//W3C//DTD SVG 1.1//EN" "http://www.w3.org/Graphics/SVG/1.1/DTD/svg11.dtd">
<svg version="1.1" id="Layer_1" xmlns="http://www.w3.org/2000/svg" xmlns:xlink="http://www.w3.org/1999/xlink" x="0px" y="0px"
	 viewBox="0 0 40.2 40.2" style="enable-background:new 0 0 40.2 40.2;" xml:space="preserve">
<style type="text/css">
	.st0{fill:#FFFFFF;}
</style>
<g>
	<ellipse cx="20.4" cy="20" rx="15.2" ry="19.4"/>
	<g>
		<path class="st0" d="M21.7,7v10.6h-2.1V7H16l-1.6-1L16,5h9.3l1.6,1l-1.6,1H21.7z"/>
	</g>
	<g>
		<path class="st0" d="M14.6,15.9c-1.3,2.6-0.9,5.8,1.2,8l-1.5,1.5c-3.5-3.5-3.5-9.1,0-12.6l6.2,6.2l6.2-6.2c3.5,3.5,3.5,9.1,0,12.6
			l-1.4-1.5c2.2-2.2,2.6-5.4,1.3-8l-6,6L14.6,15.9z"/>
	</g>
	<g>
		<path class="st0" d="M16.1,29.8c0.2,0.9,0.6,1.7,1.3,2.4c1.8,1.8,4.7,1.8,6.5,0l1.5,1.5c-2.6,2.6-6.8,2.6-9.4,0
			c-1.1-1.1-1.7-2.5-1.9-3.9l-1.4-0.9l1.5-1c0.2-1.3,0.8-2.6,1.9-3.6c2.6-2.6,6.8-2.6,9.4,0L24,25.8c-1.8-1.8-4.7-1.8-6.5,0
			c-0.6,0.6-1,1.4-1.2,2.1H22l1.5,1L22,29.8H16.1z"/>
	</g>
</g>
</svg>
