<?xml version="1.0" encoding="utf-8"?>
<!-- Generator: Adobe Illustrator 20.0.0, SVG Export Plug-In . SVG Version: 6.00 Build 0)  -->
<!DOCTYPE svg PUBLIC "-//W3C//DTD SVG 1.1//EN" "http://www.w3.org/Graphics/SVG/1.1/DTD/svg11.dtd">
<svg version="1.1" id="Layer_1" xmlns="http://www.w3.org/2000/svg" xmlns:xlink="http://www.w3.org/1999/xlink" x="0px" y="0px"
	 viewBox="0 0 115.2 43.8" style="enable-background:new 0 0 115.2 43.8;" xml:space="preserve">
<style type="text/css">
	.st0{fill:#303030;}
</style>
<g>
	<path class="st0" d="M8.9,15.7v3.1h2.6v0.8H8.9v5.6c0,0.9,0.1,1.5,0.2,1.8c0.1,0.3,0.5,0.4,1.2,0.4c0.5,0,1.1-0.2,1.7-0.5v1
		c-0.7,0.3-1.3,0.5-1.9,0.5c-0.6,0-1.1-0.2-1.6-0.5s-0.6-0.8-0.6-1.5v-6.8H5.4v-0.8h2.5v-2.2l0.7-0.9C8.6,15.7,8.9,15.7,8.9,15.7z"
		/>
	<path class="st0" d="M16.9,18.6c1.4,0,2.5,0.5,3.4,1.4s1.4,2.1,1.4,3.5s-0.5,2.6-1.4,3.5s-2.1,1.4-3.4,1.4S14.4,28,13.5,27
		c-0.9-0.9-1.4-2.1-1.4-3.5s0.5-2.6,1.4-3.5S15.5,18.6,16.9,18.6z M16.9,27.5c1.1,0,1.9-0.4,2.7-1.1s1.1-1.7,1.1-2.8
		c0-1.1-0.4-2-1.1-2.8c-0.7-0.8-1.6-1.1-2.7-1.1c-1.1,0-2,0.4-2.7,1.1s-1.1,1.7-1.1,2.8c0,1.1,0.4,2.1,1.1,2.8S15.8,27.5,16.9,27.5z
		"/>
	<path class="st0" d="M31.2,13.9v14.3h-1v-0.7c-0.9,0.6-1.8,0.9-2.8,0.9C26,28.4,24.9,28,24,27s-1.4-2.1-1.4-3.5s0.5-2.6,1.4-3.5
		s2-1.4,3.4-1.4c0.9,0,1.8,0.3,2.8,0.8v-5.5H31.2z M30.2,26.6v-6.1c-0.9-0.6-1.8-0.9-2.7-0.9c-1.1,0-2,0.4-2.7,1.1s-1.1,1.6-1.1,2.8
		c0,1.1,0.4,2.1,1.1,2.9s1.7,1.1,2.8,1.1C28.5,27.5,29.3,27.2,30.2,26.6z"/>
	<path class="st0" d="M41,13.9v14.3h-1v-0.7c-0.9,0.6-1.8,0.9-2.8,0.9c-1.3,0-2.5-0.5-3.4-1.4s-1.4-2.1-1.4-3.5s0.5-2.6,1.4-3.5
		s2-1.4,3.4-1.4c0.9,0,1.8,0.3,2.8,0.8v-5.5H41z M40,26.6v-6.1c-0.9-0.6-1.8-0.9-2.7-0.9c-1.1,0-2,0.4-2.7,1.1s-1.1,1.6-1.1,2.8
		c0,1.1,0.4,2.1,1.1,2.9s1.7,1.1,2.8,1.1C38.4,27.5,39.2,27.2,40,26.6z"/>
</g>
<g>
	<path d="M47.5,18.5c1.4,0,2.5,0.5,3.3,1.4S52,22,52,23.6V24h-6.8c0.1,0.9,0.4,1.5,1,2c0.5,0.5,1.3,0.7,2.2,0.7
		c0.6,0,1.2-0.1,1.7-0.3s1.1-0.5,1.7-0.9v1.9c-1.1,0.8-2.5,1.2-4.1,1.2c-1.5,0-2.7-0.5-3.7-1.4s-1.4-2.1-1.4-3.6S43,21,43.9,20
		C44.9,19,46.1,18.5,47.5,18.5z M49.7,22.4c-0.1-0.7-0.3-1.2-0.6-1.6s-0.8-0.6-1.5-0.6c-0.6,0-1.1,0.2-1.5,0.6s-0.6,0.9-0.7,1.7h4.3
		V22.4z"/>
	<path d="M54.6,14.3c0.4,0,0.7,0.1,1,0.4s0.4,0.6,0.4,1c0,0.4-0.1,0.7-0.4,1c-0.3,0.3-0.6,0.4-1,0.4s-0.7-0.1-1-0.4s-0.4-0.6-0.4-1
		s0.1-0.7,0.4-1C53.9,14.4,54.2,14.3,54.6,14.3z M55.8,18.7v9.6h-2.5v-9.6H55.8z"/>
	<path d="M60.7,18.5c0.5,0,1,0.1,1.5,0.2s1,0.3,1.5,0.6v2c-0.5-0.3-1-0.6-1.5-0.7s-1-0.3-1.5-0.3c-0.4,0-0.6,0.1-0.9,0.2
		s-0.3,0.3-0.3,0.6c0,0.1,0.1,0.3,0.3,0.4s0.6,0.4,1.4,0.8c1.1,0.6,1.9,1.1,2.3,1.5c0.4,0.5,0.7,1,0.7,1.7c0,0.9-0.3,1.6-1,2.2
		c-0.6,0.5-1.5,0.8-2.6,0.8c-0.7,0-1.3-0.1-1.9-0.2c-0.6-0.2-1.1-0.3-1.5-0.5v-2.1c1.2,0.7,2.3,1,3.1,1c0.4,0,0.8-0.1,1-0.2
		c0.3-0.2,0.4-0.4,0.4-0.6s0-0.3-0.1-0.4s-0.2-0.2-0.4-0.4s-0.8-0.4-1.8-0.9c-0.8-0.4-1.3-0.8-1.7-1.2c-0.4-0.4-0.6-0.9-0.6-1.5
		c0-0.8,0.3-1.5,1-2S59.6,18.5,60.7,18.5z"/>
	<path d="M69.8,18.5c1.1,0,2.1,0.2,3,0.6v2.1c-0.9-0.5-1.7-0.8-2.5-0.8c-0.9,0-1.6,0.3-2.1,0.8s-0.8,1.3-0.8,2.2
		c0,0.9,0.3,1.6,0.8,2.2s1.3,0.8,2.2,0.8c0.7,0,1.6-0.2,2.6-0.7v2c-1,0.4-2,0.6-3.1,0.6c-1.6,0-2.8-0.4-3.8-1.3s-1.5-2.1-1.5-3.5
		c0-1.5,0.5-2.8,1.4-3.7S68.3,18.5,69.8,18.5z"/>
	<path d="M76.6,13.9V20h0.1c0.8-1,1.8-1.5,2.9-1.5c1,0,1.8,0.3,2.5,1S83,21,83,22.1v6.1h-2.5v-5.6c0-0.6-0.2-1.2-0.5-1.5
		c-0.3-0.4-0.7-0.6-1.2-0.6c-0.4,0-0.7,0.1-1.1,0.3c-0.3,0.2-0.7,0.6-1.1,1.1v6.3h-2.5V13.9H76.6z"/>
	<path d="M88.9,18.5c1.4,0,2.5,0.5,3.3,1.4c0.8,0.9,1.2,2.1,1.2,3.7V24h-6.8c0.1,0.9,0.4,1.5,1,2c0.5,0.5,1.3,0.7,2.2,0.7
		c0.6,0,1.2-0.1,1.7-0.3s1.1-0.5,1.7-0.9v1.9c-1.1,0.8-2.5,1.2-4.1,1.2c-1.5,0-2.7-0.5-3.7-1.4S84,25.1,84,23.6s0.4-2.6,1.3-3.6
		C86.3,19,87.5,18.5,88.9,18.5z M91.1,22.4c-0.1-0.7-0.3-1.2-0.6-1.6s-0.8-0.6-1.5-0.6c-0.6,0-1.1,0.2-1.5,0.6s-0.6,0.9-0.7,1.7h4.3
		V22.4z"/>
	<path d="M95.9,14.3c0.4,0,0.7,0.1,1,0.4s0.4,0.6,0.4,1c0,0.4-0.1,0.7-0.4,1c-0.3,0.3-0.6,0.4-1,0.4s-0.7-0.1-1-0.4s-0.4-0.6-0.4-1
		s0.1-0.7,0.4-1C95.2,14.4,95.6,14.3,95.9,14.3z M97.2,18.7v9.6h-2.5v-9.6H97.2z"/>
	<path d="M105.4,18.9v-5h2.5v14.3h-4.4c-1.5,0-2.8-0.4-3.7-1.3s-1.4-2.1-1.4-3.6c0-0.9,0.2-1.7,0.6-2.5s1-1.3,1.8-1.7
		c0.7-0.4,1.6-0.6,2.4-0.6S104.7,18.6,105.4,18.9z M104.1,26.3h1.3v-5.5c-0.5-0.3-1.1-0.4-1.6-0.4c-0.8,0-1.5,0.3-2,0.8
		s-0.8,1.2-0.8,2.1C101,25.3,102.1,26.3,104.1,26.3z"/>
</g>
</svg>
