<?xml version="1.0" encoding="utf-8"?>
<!-- Generator: Adobe Illustrator 22.0.1, SVG Export Plug-In . SVG Version: 6.00 Build 0)  -->
<!DOCTYPE svg PUBLIC "-//W3C//DTD SVG 1.1//EN" "http://www.w3.org/Graphics/SVG/1.1/DTD/svg11.dtd">
<svg version="1.1" id="Layer_1" xmlns="http://www.w3.org/2000/svg" xmlns:xlink="http://www.w3.org/1999/xlink" x="0px" y="0px"
	 viewBox="0 0 115.2 21.2" style="enable-background:new 0 0 115.2 21.2;" xml:space="preserve">
<style type="text/css">
	.st0{fill:#303030;}
</style>
<g>
	<path class="st0" d="M8.9,4.9V8h2.6v0.8H8.9v5.6c0,0.9,0.1,1.5,0.2,1.8c0.1,0.3,0.5,0.4,1.2,0.4c0.5,0,1.1-0.2,1.7-0.5v1
		c-0.7,0.3-1.3,0.5-1.9,0.5c-0.6,0-1.1-0.2-1.6-0.5s-0.6-0.8-0.6-1.5V8.8H5.4V8h2.5V5.8l0.7-0.9C8.6,4.9,8.9,4.9,8.9,4.9z"/>
	<path class="st0" d="M16.9,7.8c1.4,0,2.5,0.5,3.4,1.4s1.4,2.1,1.4,3.5s-0.5,2.6-1.4,3.5c-0.9,0.9-2.1,1.4-3.4,1.4s-2.5-0.4-3.4-1.4
		c-0.9-0.9-1.4-2.1-1.4-3.5s0.5-2.6,1.4-3.5S15.5,7.8,16.9,7.8z M16.9,16.7c1.1,0,1.9-0.4,2.7-1.1c0.8-0.7,1.1-1.7,1.1-2.8
		c0-1.1-0.4-2-1.1-2.8S18,8.9,16.9,8.9s-2,0.4-2.7,1.1s-1.1,1.7-1.1,2.8c0,1.1,0.4,2.1,1.1,2.8C14.9,16.3,15.8,16.7,16.9,16.7z"/>
	<path class="st0" d="M31.2,3.1v14.3h-1v-0.7c-0.9,0.6-1.8,0.9-2.8,0.9c-1.4,0-2.5-0.4-3.4-1.4s-1.4-2.1-1.4-3.5s0.5-2.6,1.4-3.5
		s2-1.4,3.4-1.4c0.9,0,1.8,0.3,2.8,0.8V3.1H31.2z M30.2,15.8V9.7c-0.9-0.6-1.8-0.9-2.7-0.9c-1.1,0-2,0.4-2.7,1.1s-1.1,1.6-1.1,2.8
		c0,1.1,0.4,2.1,1.1,2.9c0.7,0.8,1.7,1.1,2.8,1.1C28.5,16.7,29.3,16.4,30.2,15.8z"/>
	<path class="st0" d="M41,3.1v14.3h-1v-0.7c-0.9,0.6-1.8,0.9-2.8,0.9c-1.3,0-2.5-0.5-3.4-1.4c-0.9-0.9-1.4-2.1-1.4-3.5
		s0.5-2.6,1.4-3.5s2-1.4,3.4-1.4c0.9,0,1.8,0.3,2.8,0.8V3.1H41z M40,15.8V9.7c-0.9-0.6-1.8-0.9-2.7-0.9c-1.1,0-2,0.4-2.7,1.1
		s-1.1,1.6-1.1,2.8c0,1.1,0.4,2.1,1.1,2.9c0.7,0.8,1.7,1.1,2.8,1.1C38.4,16.7,39.2,16.4,40,15.8z"/>
</g>
<g>
	<path d="M47.5,7.7c1.4,0,2.5,0.5,3.3,1.4s1.2,2.1,1.2,3.7v0.4h-6.8c0.1,0.9,0.4,1.5,1,2c0.5,0.5,1.3,0.7,2.2,0.7
		c0.6,0,1.2-0.1,1.7-0.3s1.1-0.5,1.7-0.9v1.9c-1.1,0.8-2.5,1.2-4.1,1.2c-1.5,0-2.7-0.5-3.7-1.4c-1-0.9-1.4-2.1-1.4-3.6
		s0.4-2.6,1.3-3.6C44.9,8.2,46.1,7.7,47.5,7.7z M49.7,11.6c-0.1-0.7-0.3-1.2-0.6-1.6s-0.8-0.6-1.5-0.6c-0.6,0-1.1,0.2-1.5,0.6
		s-0.6,0.9-0.7,1.7h4.3V11.6z"/>
	<path d="M54.6,3.5c0.4,0,0.7,0.1,1,0.4s0.4,0.6,0.4,1c0,0.4-0.1,0.7-0.4,1c-0.3,0.3-0.6,0.4-1,0.4s-0.7-0.1-1-0.4s-0.4-0.6-0.4-1
		s0.1-0.7,0.4-1C53.9,3.6,54.2,3.5,54.6,3.5z M55.8,7.9v9.6h-2.5V7.9H55.8z"/>
	<path d="M60.7,7.7c0.5,0,1,0.1,1.5,0.2s1,0.3,1.5,0.6v2c-0.5-0.3-1-0.6-1.5-0.7s-1-0.3-1.5-0.3c-0.4,0-0.6,0.1-0.9,0.2
		s-0.3,0.3-0.3,0.6c0,0.1,0.1,0.3,0.3,0.4s0.6,0.4,1.4,0.8c1.1,0.6,1.9,1.1,2.3,1.5c0.4,0.5,0.7,1,0.7,1.7c0,0.9-0.3,1.6-1,2.2
		c-0.6,0.5-1.5,0.8-2.6,0.8c-0.7,0-1.3-0.1-1.9-0.2c-0.6-0.2-1.1-0.3-1.5-0.5v-2.1c1.2,0.7,2.3,1,3.1,1c0.4,0,0.8-0.1,1-0.2
		c0.3-0.2,0.4-0.4,0.4-0.6s0-0.3-0.1-0.4s-0.2-0.2-0.4-0.4s-0.8-0.4-1.8-0.9c-0.8-0.4-1.3-0.8-1.7-1.2c-0.4-0.4-0.6-0.9-0.6-1.5
		c0-0.8,0.3-1.5,1-2S59.6,7.7,60.7,7.7z"/>
	<path d="M69.8,7.7c1.1,0,2.1,0.2,3,0.6v2.1c-0.9-0.5-1.7-0.8-2.5-0.8c-0.9,0-1.6,0.3-2.1,0.8s-0.8,1.3-0.8,2.2
		c0,0.9,0.3,1.6,0.8,2.2s1.3,0.8,2.2,0.8c0.7,0,1.6-0.2,2.6-0.7v2c-1,0.4-2,0.6-3.1,0.6c-1.6,0-2.8-0.4-3.8-1.3
		c-1-0.9-1.5-2.1-1.5-3.5c0-1.5,0.5-2.8,1.4-3.7S68.3,7.7,69.8,7.7z"/>
	<path d="M76.6,3.1v6.1h0.1c0.8-1,1.8-1.5,2.9-1.5c1,0,1.8,0.3,2.5,1s0.9,1.5,0.9,2.6v6.1h-2.5v-5.6c0-0.6-0.2-1.2-0.5-1.5
		c-0.3-0.4-0.7-0.6-1.2-0.6c-0.4,0-0.7,0.1-1.1,0.3c-0.3,0.2-0.7,0.6-1.1,1.1v6.3h-2.5V3.1H76.6z"/>
	<path d="M88.9,7.7c1.4,0,2.5,0.5,3.3,1.4s1.2,2.1,1.2,3.7v0.4h-6.8c0.1,0.9,0.4,1.5,1,2c0.5,0.5,1.3,0.7,2.2,0.7
		c0.6,0,1.2-0.1,1.7-0.3s1.1-0.5,1.7-0.9v1.9c-1.1,0.8-2.5,1.2-4.1,1.2c-1.5,0-2.7-0.5-3.7-1.4c-1-0.9-1.4-2.1-1.4-3.6
		s0.4-2.6,1.3-3.6C86.3,8.2,87.5,7.7,88.9,7.7z M91.1,11.6c-0.1-0.7-0.3-1.2-0.6-1.6S89.7,9.4,89,9.4c-0.6,0-1.1,0.2-1.5,0.6
		s-0.6,0.9-0.7,1.7h4.3C91.1,11.7,91.1,11.6,91.1,11.6z"/>
	<path d="M95.9,3.5c0.4,0,0.7,0.1,1,0.4s0.4,0.6,0.4,1c0,0.4-0.1,0.7-0.4,1c-0.3,0.3-0.6,0.4-1,0.4s-0.7-0.1-1-0.4s-0.4-0.6-0.4-1
		s0.1-0.7,0.4-1C95.2,3.6,95.6,3.5,95.9,3.5z M97.2,7.9v9.6h-2.5V7.9H97.2z"/>
	<path d="M105.4,8.1v-5h2.5v14.3h-4.4c-1.5,0-2.8-0.4-3.7-1.3c-0.9-0.9-1.4-2.1-1.4-3.6c0-0.9,0.2-1.7,0.6-2.5s1-1.3,1.8-1.7
		c0.7-0.4,1.6-0.6,2.4-0.6S104.7,7.8,105.4,8.1z M104.1,15.5h1.3V10c-0.5-0.3-1.1-0.4-1.6-0.4c-0.8,0-1.5,0.3-2,0.8
		s-0.8,1.2-0.8,2.1C101,14.5,102.1,15.5,104.1,15.5z"/>
</g>
</svg>
