<?xml version="1.0" encoding="utf-8"?>
<!-- Generator: Adobe Illustrator 19.1.0, SVG Export Plug-In . SVG Version: 6.00 Build 0)  -->
<!DOCTYPE svg PUBLIC "-//W3C//DTD SVG 1.1//EN" "http://www.w3.org/Graphics/SVG/1.1/DTD/svg11.dtd">
<svg version="1.1" id="Layer_1" xmlns="http://www.w3.org/2000/svg" xmlns:xlink="http://www.w3.org/1999/xlink" x="0px" y="0px"
	 viewBox="154 -109.2 584 686" enable-background="new 154 -109.2 584 686" xml:space="preserve">
<polygon fill="#F7931E" points="409.5,490.8 376.2,432.8 409.5,374.8 476.2,374.8 509.5,432.8 476.2,490.8 "/>
<polygon fill="#333333" points="509.5,316.8 476.2,258.8 509.5,200.8 576.2,200.8 609.5,258.8 576.2,316.8 "/>
<polygon fill="#39B54A" points="609.5,374.8 576.2,316.8 609.5,258.8 676.2,258.8 709.5,316.8 676.2,374.8 "/>
<polygon fill="#314FFF" points="409.5,258.8 376.2,200.8 409.5,142.8 476.2,142.8 509.5,200.8 476.2,258.8 "/>
<polygon fill="#FFFF00" points="409.5,374.8 376.2,316.8 409.5,258.8 476.2,258.8 509.5,316.8 476.2,374.8 "/>
<g>
	<path fill="#FFFFFF" d="M504.2,255.6L504.2,255.6c1.7,0,3.1,0.5,4,1.6l0,0l-1.7,1.7l0,0c-0.2-0.5-0.8-0.8-1.9-0.9h-0.4
		c-1.3,0-2.1,0.9-2.5,2.6v0.4l0,0l0,0v0.3c0,1.1,0.5,1.9,1.6,2.6c0.4,0.1,0.7,0.2,1,0.2c1.1,0,1.8-0.3,2.3-0.9h2.3l0.1,0.1v0.1
		c0,0.9-0.6,1.8-1.8,2.5c-0.9,0.5-1.8,0.7-2.7,0.7c-2.2,0-3.7-1.1-4.6-3.4c-0.2-0.8-0.4-1.5-0.4-2.1c0-2.1,0.8-3.8,2.5-4.9
		C502.5,255.8,503.3,255.6,504.2,255.6z"/>
	<path fill="#FFFFFF" d="M514.6,255.6L514.6,255.6c1.7,0,3,0.5,4,1.6l0,0l-1.7,1.7l0,0c0-0.4-0.6-0.7-1.9-0.9h-0.5
		c-1.1,0.1-1.8,0.4-1.9,0.9v7.6l-0.1,0.1h-2.3l-0.1-0.1v-9.7l0.1-0.1h1C512.1,256,513.3,255.6,514.6,255.6z"/>
	<path fill="#FFFFFF" d="M523,255.6c1.8,0,3.2,0.7,4.2,2c0.3,0.5,0.4,1,0.4,1.4c0,1.5-0.7,2.5-2.1,3c-0.8,0.2-2,0.4-3.6,0.7
		c-0.7,0.2-1,0.4-1,0.6c0.6,0.7,1.3,1.1,2.1,1.1c1.1,0,1.8-0.3,2.3-0.9h2.3l0,0l0,0c0,1.3-0.9,2.3-2.6,3c-0.5,0.2-1.2,0.3-2,0.3
		c-2.3,0-3.8-1.2-4.7-3.7c-0.2-0.6-0.2-1.2-0.2-1.8v-0.2c0-2.2,0.9-3.9,2.8-5C521.6,255.7,522.3,255.6,523,255.6z M520.5,260.4
		c0.7-0.2,1.9-0.4,3.5-0.7c0.8-0.2,1.2-0.5,1.2-0.7v-0.1c-0.4-0.5-1.1-0.8-2.1-0.8h-0.2c-1.1,0-1.9,0.7-2.3,2L520.5,260.4
		L520.5,260.4z"/>
	<path fill="#FFFFFF" d="M533.4,255.6c2.1,0,3.5,0.8,4.4,2.3c0.1,0.4,0.2,0.7,0.2,1v7.7l-0.1,0.1h-2.3c-0.1,0-0.1-0.1-0.1-0.4
		c-0.8,0.3-1.5,0.4-2.2,0.4c-1.7,0-3-0.6-4.1-1.8c-0.3-0.5-0.5-1-0.5-1.5V263c0-1.3,0.8-2.2,2.3-2.7l3.8-0.7
		c0.4-0.2,0.7-0.4,0.7-0.6c-0.1-0.5-0.8-0.8-1.9-0.9h-0.5c-1.1,0.1-1.7,0.4-1.9,0.9l0,0l-1.7-1.7l0,0
		C530.5,256.1,531.8,255.6,533.4,255.6z M531.3,263.3L531.3,263.3c0.4,0.7,1.2,0.9,2.2,0.9s1.7-0.3,2.1-0.8v-0.2v-1.3l-3.8,0.7
		C531.5,262.8,531.3,263,531.3,263.3z"/>
	<path fill="#FFFFFF" d="M539.3,252.6h2.3l0.1,0.1v3.2l0,0c0.7-0.2,1.4-0.4,2.1-0.4h2.5l0,0l-2.5,2.5h-0.1c-1,0-1.7,0.3-2.1,0.9v4.1
		c0,0.6,0.7,1,2.1,1.1h0.1c1,0,1.8-0.3,2.2-0.9h2.3l0.1,0.1c0,1.3-0.9,2.3-2.6,3c-0.8,0.2-1.4,0.3-2,0.3c-2,0-3.5-0.8-4.4-2.3
		c-0.2-0.4-0.2-1-0.2-1.7L539.3,252.6L539.3,252.6z"/>
	<path fill="#FFFFFF" d="M550.9,252.9c0.8,0.2,1.2,0.6,1.2,1.1v0.2c0,0.6-0.4,0.9-1.1,1.1h-0.2c-0.7-0.2-1.1-0.5-1.1-1.1v-0.3
		c0-0.5,0.3-0.8,0.9-1.1L550.9,252.9z M550.8,255.9h0.2c0.5,0,0.9,0.3,1.1,1v9.7l-0.1,0.1h-2.3l-0.1-0.1V257
		C549.7,256.4,550.1,256.1,550.8,255.9z"/>
	<path fill="#FFFFFF" d="M554.7,255.6c0.6,0,1.1,0.6,1.3,1.8c0.9,2.7,1.4,4.4,1.4,5l0.2,1.7l0,0c0.3-2.1,0.6-3.6,0.9-4.3
		c0.7-2.3,1.1-3.5,1.3-3.8c0.3-0.3,0.6-0.4,0.9-0.4c0.6,0,1,0.4,1.2,1.1v0.3l-3.2,9.6l0,0h-2.2c-0.1-0.1-0.8-2.3-2.3-6.8l-0.9-2.8
		v-0.3C553.6,256,554.1,255.6,554.7,255.6z"/>
	<path fill="#FFFFFF" d="M564.4,252.9c0.8,0.2,1.2,0.6,1.2,1.1v0.2c0,0.6-0.4,0.9-1.1,1.1h-0.2c-0.7-0.2-1.1-0.5-1.1-1.1v-0.3
		c0-0.5,0.3-0.8,0.9-1.1L564.4,252.9z M564.3,255.9h0.2c0.5,0,0.9,0.3,1.1,1v9.7l-0.1,0.1h-2.3l-0.1-0.1V257
		C563.2,256.4,563.5,256.1,564.3,255.9z"/>
	<path fill="#FFFFFF" d="M566.9,252.6h2.3l0.1,0.1v3.2l0,0c0.7-0.2,1.4-0.4,2.1-0.4h2.5l0,0l-2.5,2.5h-0.1c-1,0-1.7,0.3-2.1,0.9v4.1
		c0,0.6,0.7,1,2.1,1.1h0.1c1,0,1.8-0.3,2.2-0.9h2.3l0.1,0.1c0,1.3-0.9,2.3-2.6,3c-0.8,0.2-1.4,0.3-2,0.3c-2,0-3.5-0.8-4.4-2.3
		c-0.2-0.4-0.2-1-0.2-1.7L566.9,252.6L566.9,252.6z"/>
	<path fill="#FFFFFF" d="M578.4,255.6h0.2c0.5,0,0.9,0.3,1.1,1v5.2c0,0.5,0.7,0.8,2.2,1c1,0,1.7-0.3,2.1-0.8v-0.2V257
		c0-0.9,0.3-1.4,1-1.5h0.3c0.4,0,0.7,0.3,1,1l0.1,0.3v10c0,1.1-0.7,2-2.2,2.7c-0.8,0.3-1.5,0.5-2.2,0.5h-0.3c-1.6,0-2.9-0.6-3.9-1.8
		c-0.4-0.5-0.5-1-0.5-1.5l0.1-0.1h2.3c0.5,0.6,1.2,0.9,2.3,0.9c1.4-0.2,2.2-0.5,2.2-1v-1.8c-0.7,0.2-1.4,0.4-1.9,0.4h-0.5
		c-1.6,0-2.9-0.6-3.9-1.8c-0.4-0.5-0.5-1-0.5-1.5v-5.3C577.5,256,577.8,255.6,578.4,255.6z"/>
</g>
<g>
	<path fill="#FFFFFF" d="M405.7,184.6c1.7,0,3,0.5,3.9,1.6l0,0l-1.7,1.7l0,0c-0.2-0.5-0.8-0.8-1.9-0.9h-0.5
		c-1.1,0.1-1.8,0.4-1.9,0.9l0,0c0,0.4,1.2,0.8,3.6,1.1c1,0.2,1.8,0.6,2.3,1.1c0.4,0.5,0.6,1.2,0.6,2v0.2c0,1-0.6,1.8-1.8,2.5
		c-0.9,0.5-1.8,0.7-2.8,0.7c-1.8,0-3.2-0.7-4.2-2c-0.3-0.4-0.4-0.9-0.4-1.3l0,0l0.1-0.1h2.3c0.5,0.6,1.2,0.9,2.3,0.9
		c1,0,1.7-0.3,2.1-0.8V192c0-0.5-1.1-0.8-3.2-1.1c-2.2-0.4-3.3-1.4-3.3-3.1v-0.1c0-1.5,1.1-2.5,3.2-3.2
		C404.9,184.6,405.3,184.6,405.7,184.6z"/>
	<path fill="#FFFFFF" d="M416.1,184.6c2.3,0,3.9,1.3,4.7,3.9c0.1,0.6,0.2,1.2,0.2,1.6c0,2-0.8,3.6-2.3,4.8c-0.8,0.5-1.7,0.7-2.5,0.7
		c-2.4,0-4-1.3-4.8-3.9c-0.1-0.6-0.2-1.1-0.2-1.4V190c0-2.2,0.9-3.9,2.8-5C414.8,184.7,415.5,184.6,416.1,184.6z M413.5,190v0.2
		c0,1.4,0.6,2.3,1.8,2.8l0.8,0.1c1.3,0,2.1-0.8,2.5-2.3v-0.5v-0.5c0-1.4-0.6-2.3-1.9-2.8h-0.6H416c-1.1,0-1.9,0.7-2.4,2.1
		C413.5,189.4,413.5,189.7,413.5,190z"/>
	<path fill="#FFFFFF" d="M426.9,181.6c1.6,0,3,0.5,3.9,1.6l-1.7,1.7l0,0c-0.2-0.5-0.9-0.8-2.1-0.9l0,0c-1,0-1.7,0.3-2.1,0.8v0.2v1.8
		c0.8-0.3,1.5-0.4,2.2-0.4l0,0v2.3c0,0-0.4,0.1-1.2,0.2c-0.7,0.3-1,0.5-1,0.8v5.7l-0.1,0.1h-2.3l-0.1-0.1v-10.7c0-1,0.6-1.8,1.9-2.6
		C425,181.9,425.9,181.6,426.9,181.6z"/>
	<path fill="#FFFFFF" d="M432.1,181.6h2.3l0.1,0.1v3.2l0,0c0.7-0.2,1.4-0.4,2.1-0.4h2.5l0,0l-2.5,2.5h-0.1c-1,0-1.7,0.3-2.1,0.9v4.1
		c0,0.6,0.7,1,2.1,1.1h0.1c1,0,1.8-0.3,2.2-0.9h2.3l0.1,0.1c0,1.3-0.9,2.3-2.6,3c-0.8,0.2-1.4,0.3-2,0.3c-2,0-3.5-0.8-4.4-2.3
		c-0.2-0.4-0.2-1-0.2-1.7L432.1,181.6L432.1,181.6z"/>
	<path fill="#FFFFFF" d="M441.3,184.6c0.7,0,1.2,0.6,1.4,1.7c0.9,2.7,1.4,4.4,1.4,5.1l0.3,1.7l0,0c0.3-2.3,0.7-4,1.1-5l1.1-3.4h2.5
		c0.1,0.1,0.5,1.6,1.4,4.5c0.2,0.4,0.5,1.8,0.8,4l0,0c0.3-2.3,0.7-3.9,1-4.8c0.7-2.4,1.2-3.5,1.4-3.5c0.2-0.1,0.5-0.2,0.7-0.2
		c0.8,0.1,1.2,0.5,1.2,1.1v0.2l-3.2,9.7h-2.2c-0.1,0-0.5-1.1-1.1-3.3l-1.2-3.5l0,0c-1.5,4.6-2.2,6.8-2.3,6.8h-2.2
		c-0.1,0-0.3-0.8-0.8-2.4c-1.4-4-2.2-6.5-2.4-7.5v-0.1C440.1,185.1,440.5,184.7,441.3,184.6z"/>
	<path fill="#FFFFFF" d="M461.3,184.6c2.1,0,3.5,0.8,4.4,2.3c0.1,0.4,0.2,0.7,0.2,1v7.7l-0.1,0.1h-2.3c-0.1,0-0.1-0.1-0.1-0.4
		c-0.8,0.3-1.5,0.4-2.2,0.4c-1.7,0-3-0.6-4.1-1.8c-0.3-0.5-0.5-1-0.5-1.5V192c0-1.3,0.8-2.2,2.3-2.7l3.8-0.7
		c0.4-0.2,0.7-0.4,0.7-0.6c-0.1-0.5-0.8-0.8-1.9-0.9H461c-1.1,0.1-1.7,0.4-1.9,0.9l0,0l-1.7-1.7l0,0
		C458.4,185.1,459.7,184.6,461.3,184.6z M459.2,192.3L459.2,192.3c0.4,0.7,1.2,0.9,2.2,0.9s1.7-0.3,2.1-0.8v-0.2v-1.3l-3.8,0.7
		C459.4,191.9,459.2,192,459.2,192.3z"/>
	<path fill="#FFFFFF" d="M471.7,184.6h0.1c1.6,0,2.9,0.5,3.9,1.6l0,0l-1.7,1.7l0,0c0-0.4-0.6-0.7-1.9-0.9h-0.5
		c-1.1,0.1-1.8,0.4-1.9,0.9v7.6l-0.1,0.1h-2.3l-0.1-0.1v-9.7l0.1-0.1h1C469.2,185,470.4,184.6,471.7,184.6z"/>
	<path fill="#FFFFFF" d="M480.1,184.6c1.8,0,3.2,0.7,4.2,2c0.3,0.5,0.4,1,0.4,1.4c0,1.5-0.7,2.5-2.1,3c-0.8,0.2-2,0.4-3.6,0.7
		c-0.7,0.2-1,0.4-1,0.6c0.6,0.7,1.3,1.1,2.1,1.1c1.1,0,1.8-0.3,2.3-0.9h2.3l0,0l0,0c0,1.3-0.9,2.3-2.6,3c-0.5,0.2-1.2,0.3-2,0.3
		c-2.3,0-3.8-1.2-4.7-3.7c-0.2-0.6-0.2-1.2-0.2-1.8v-0.2c0-2.2,0.9-3.9,2.8-5C478.7,184.7,479.4,184.6,480.1,184.6z M477.6,189.4
		c0.7-0.2,1.9-0.4,3.5-0.7c0.8-0.2,1.2-0.5,1.2-0.7v-0.1c-0.4-0.5-1.1-0.8-2.1-0.8H480c-1.1,0-1.9,0.7-2.3,2L477.6,189.4
		L477.6,189.4z"/>
	<path fill="#FFFFFF" d="M393.5,198.6c0.8,0.2,1.2,0.6,1.2,1.1v12.8l-0.1,0.1h-2.3c-0.1,0-0.1-0.1-0.1-0.4c-0.8,0.3-1.5,0.4-2.1,0.4
		c-2.2,0-3.7-1.1-4.6-3.3c-0.2-0.7-0.4-1.4-0.4-2.1V207c0-2.1,0.8-3.7,2.5-4.8c0.7-0.4,1.5-0.6,2.4-0.6l0,0c0.7,0,1.4,0.1,2.1,0.4
		v-1.8c0-0.6,0.2-1,0.5-1.3C392.9,198.8,393.2,198.7,393.5,198.6z M387.5,207v0.2c0,1.3,0.6,2.3,1.8,2.8l0.8,0.1
		c1.1,0,1.8-0.3,2.2-0.9v-4.5c-0.4-0.5-1.1-0.8-2-0.8H390c-1.1,0-1.9,0.7-2.4,2C387.5,206.4,387.5,206.7,387.5,207z"/>
	<path fill="#FFFFFF" d="M400.9,201.6c1.8,0,3.2,0.7,4.2,2c0.3,0.5,0.4,1,0.4,1.4c0,1.5-0.7,2.5-2.1,3c-0.8,0.2-2,0.4-3.6,0.7
		c-0.7,0.2-1,0.4-1,0.6c0.6,0.7,1.3,1.1,2.1,1.1c1.1,0,1.8-0.3,2.3-0.9h2.3l0,0l0,0c0,1.3-0.9,2.3-2.6,3c-0.5,0.2-1.2,0.3-2,0.3
		c-2.3,0-3.8-1.2-4.7-3.7c-0.2-0.6-0.2-1.2-0.2-1.8v-0.2c0-2.2,0.9-3.9,2.8-5C399.5,201.7,400.2,201.6,400.9,201.6z M398.3,206.4
		c0.7-0.2,1.9-0.4,3.5-0.7c0.8-0.2,1.2-0.5,1.2-0.7v-0.1c-0.4-0.5-1.1-0.8-2.1-0.8h-0.2c-1.1,0-1.9,0.7-2.3,2L398.3,206.4
		L398.3,206.4z"/>
	<path fill="#FFFFFF" d="M408,201.6c0.6,0,1.1,0.6,1.3,1.8c0.9,2.7,1.4,4.4,1.4,5l0.2,1.7l0,0c0.3-2.1,0.6-3.6,0.9-4.3
		c0.7-2.3,1.1-3.5,1.3-3.8c0.3-0.3,0.6-0.4,0.9-0.4c0.6,0,1,0.4,1.2,1.1v0.3l-3.2,9.6l0,0h-2.2c-0.1-0.1-0.8-2.3-2.3-6.8l-0.9-2.8
		v-0.3C407,202,407.4,201.6,408,201.6z"/>
	<path fill="#FFFFFF" d="M420.3,201.6c1.8,0,3.2,0.7,4.2,2c0.3,0.5,0.4,1,0.4,1.4c0,1.5-0.7,2.5-2.1,3c-0.8,0.2-2,0.4-3.6,0.7
		c-0.7,0.2-1,0.4-1,0.6c0.6,0.7,1.3,1.1,2.1,1.1c1.1,0,1.8-0.3,2.3-0.9h2.3l0,0l0,0c0,1.3-0.9,2.3-2.6,3c-0.5,0.2-1.2,0.3-2,0.3
		c-2.3,0-3.8-1.2-4.7-3.7c-0.2-0.6-0.2-1.2-0.2-1.8v-0.2c0-2.2,0.9-3.9,2.8-5C418.9,201.7,419.6,201.6,420.3,201.6z M417.8,206.4
		c0.7-0.2,1.9-0.4,3.5-0.7c0.8-0.2,1.2-0.5,1.2-0.7v-0.1c-0.4-0.5-1.1-0.8-2.1-0.8h-0.2c-1.1,0-1.9,0.7-2.3,2L417.8,206.4
		L417.8,206.4z"/>
	<path fill="#FFFFFF" d="M427.3,198.6c0.8,0,1.2,0.5,1.3,1.4v9.2c0,0.4,0.6,0.7,1.7,0.9c0.3,0,0.5,0,0.5,0.1v2.3l0,0l0,0
		c-1.8,0-3.2-0.7-4.2-2c-0.3-0.5-0.4-1-0.4-1.5v-9.3c0-0.6,0.3-1,0.9-1.2L427.3,198.6z"/>
	<path fill="#FFFFFF" d="M435.9,201.6c2.3,0,3.9,1.3,4.7,3.9c0.1,0.6,0.2,1.2,0.2,1.6c0,2-0.8,3.6-2.3,4.8c-0.8,0.5-1.7,0.7-2.5,0.7
		c-2.4,0-4-1.3-4.8-3.9c-0.1-0.6-0.2-1.1-0.2-1.4V207c0-2.2,0.9-3.9,2.8-5C434.5,201.7,435.2,201.6,435.9,201.6z M433.2,207v0.2
		c0,1.4,0.6,2.3,1.8,2.8l0.8,0.1c1.3,0,2.1-0.8,2.5-2.3v-0.5v-0.5c0-1.4-0.6-2.3-1.9-2.8h-0.6h-0.2c-1.1,0-1.9,0.7-2.4,2.1
		C433.2,206.4,433.2,206.7,433.2,207z"/>
	<path fill="#FFFFFF" d="M446.4,201.6h0.2c2.3,0,3.8,1.2,4.6,3.7c0.2,0.6,0.3,1.3,0.3,1.9c0,2.2-0.8,3.8-2.5,4.9
		c-0.8,0.4-1.6,0.7-2.4,0.7c-0.7,0-1.4-0.1-2.2-0.4v3.8l-0.1,0.1H442l-0.1-0.1v-14.1l0.1-0.1h2.3l0.1,0.1
		C445.2,201.7,445.8,201.6,446.4,201.6z M444.4,205v4.2c0,0.4,0.6,0.7,1.7,0.9h0.5c1.2,0,2-0.7,2.5-2c0.1-0.3,0.1-0.6,0.2-1.1
		c0-1.3-0.6-2.3-1.7-2.9c-0.3-0.1-0.6-0.2-0.9-0.2h-0.3C445.2,204.2,444.5,204.5,444.4,205z"/>
	<path fill="#FFFFFF" d="M457.3,201.6L457.3,201.6c1.3,0,2.5,0.4,3.4,1.1c0.9-0.7,2-1.1,3.3-1.1h0.1c1.8,0,3.2,0.6,4.1,1.9
		c0.3,0.5,0.4,0.9,0.4,1.3v7.8l-0.1,0.1h-2.3l-0.1-0.1V205c0-0.5-0.7-0.8-2-0.9h-0.4c-1.2,0.1-1.8,0.4-2,0.9v7.6l-0.1,0.1h-2.3
		l-0.1-0.1v-7.5c0-0.5-0.6-0.8-1.8-1h-0.6c-0.9,0-1.6,0.3-2,0.8v7.7l-0.1,0.1h-2.3l-0.1-0.1v-9.7l0.1-0.1h0.9
		C454.7,202,455.9,201.6,457.3,201.6z"/>
	<path fill="#FFFFFF" d="M474.8,201.6c1.8,0,3.2,0.7,4.2,2c0.3,0.5,0.4,1,0.4,1.4c0,1.5-0.7,2.5-2.1,3c-0.8,0.2-2,0.4-3.6,0.7
		c-0.7,0.2-1,0.4-1,0.6c0.6,0.7,1.3,1.1,2.1,1.1c1.1,0,1.8-0.3,2.3-0.9h2.3l0,0l0,0c0,1.3-0.9,2.3-2.6,3c-0.5,0.2-1.2,0.3-2,0.3
		c-2.3,0-3.8-1.2-4.7-3.7c-0.2-0.6-0.2-1.2-0.2-1.8v-0.2c0-2.2,0.9-3.9,2.8-5C473.4,201.7,474.1,201.6,474.8,201.6z M472.3,206.4
		c0.7-0.2,1.9-0.4,3.5-0.7c0.8-0.2,1.2-0.5,1.2-0.7v-0.1c-0.4-0.5-1.1-0.8-2.1-0.8h-0.2c-1.1,0-1.9,0.7-2.3,2L472.3,206.4
		L472.3,206.4z"/>
	<path fill="#FFFFFF" d="M485.2,201.6h0.1c1.7,0,3.1,0.6,4.1,1.9c0.3,0.5,0.5,1,0.5,1.6v7.5l-0.1,0.1h-2.3l-0.1-0.1v-7.5
		c0-0.5-0.6-0.8-1.8-1H485c-0.8,0-1.4,0.3-1.9,0.8v7.7l-0.1,0.1h-2.3l-0.1-0.1v-9.7l0.1-0.1h0.9C482.6,202,483.8,201.6,485.2,201.6z
		"/>
	<path fill="#FFFFFF" d="M491.1,198.6h2.3l0.1,0.1v3.2l0,0c0.7-0.2,1.4-0.4,2.1-0.4h2.5l0,0l-2.5,2.5h-0.1c-1,0-1.7,0.3-2.1,0.9v4.1
		c0,0.6,0.7,1,2.1,1.1h0.1c1,0,1.8-0.3,2.2-0.9h2.3l0.1,0.1c0,1.3-0.9,2.3-2.6,3c-0.8,0.2-1.4,0.3-2,0.3c-2,0-3.5-0.8-4.4-2.3
		c-0.2-0.4-0.2-1-0.2-1.7L491.1,198.6L491.1,198.6z"/>
</g>
<g>
	<path fill="#FFFFFF" d="M623.4,310.2c0.8,0.2,1.2,0.6,1.2,1.1v12.8l-0.1,0.1h-2.3c-0.1,0-0.1-0.1-0.1-0.4c-0.8,0.3-1.5,0.4-2.1,0.4
		c-2.2,0-3.7-1.1-4.6-3.3c-0.2-0.7-0.4-1.4-0.4-2.1v-0.2c0-2.1,0.8-3.7,2.5-4.8c0.7-0.4,1.5-0.6,2.4-0.6l0,0c0.7,0,1.4,0.1,2.1,0.4
		v-1.8c0-0.6,0.2-1,0.5-1.3C622.8,310.3,623.1,310.2,623.4,310.2z M617.4,318.6v0.2c0,1.3,0.6,2.3,1.8,2.8l0.8,0.1
		c1.1,0,1.8-0.3,2.2-0.9v-4.5c-0.4-0.5-1.1-0.8-2-0.8h-0.3c-1.1,0-1.9,0.7-2.4,2C617.4,317.9,617.4,318.3,617.4,318.6z"/>
	<path fill="#FFFFFF" d="M630.8,313.1c1.8,0,3.2,0.7,4.2,2c0.3,0.5,0.4,1,0.4,1.4c0,1.5-0.7,2.5-2.1,3c-0.8,0.2-2,0.4-3.6,0.7
		c-0.7,0.2-1,0.4-1,0.6c0.6,0.7,1.3,1.1,2.1,1.1c1.1,0,1.8-0.3,2.3-0.9h2.3l0,0l0,0c0,1.3-0.9,2.3-2.6,3c-0.5,0.2-1.2,0.3-2,0.3
		c-2.3,0-3.8-1.2-4.7-3.7c-0.2-0.6-0.2-1.2-0.2-1.8v-0.2c0-2.2,0.9-3.9,2.8-5C629.4,313.2,630.1,313.1,630.8,313.1z M628.3,317.9
		c0.7-0.2,1.9-0.4,3.5-0.7c0.8-0.2,1.2-0.5,1.2-0.7v-0.1c-0.4-0.5-1.1-0.8-2.1-0.8h-0.2c-1.1,0-1.9,0.7-2.3,2L628.3,317.9
		L628.3,317.9z"/>
	<path fill="#FFFFFF" d="M641.5,313.1c1.7,0,3,0.5,3.9,1.6l0,0l-1.7,1.7l0,0c-0.2-0.5-0.8-0.8-1.9-0.9h-0.5
		c-1.1,0.1-1.8,0.4-1.9,0.9l0,0c0,0.4,1.2,0.8,3.6,1.1c1,0.2,1.8,0.6,2.3,1.1c0.4,0.5,0.6,1.2,0.6,2v0.2c0,1-0.6,1.8-1.8,2.5
		c-0.9,0.5-1.8,0.7-2.8,0.7c-1.8,0-3.2-0.7-4.2-2c-0.3-0.4-0.4-0.9-0.4-1.3l0,0l0.1-0.1h2.3c0.5,0.6,1.2,0.9,2.3,0.9
		c1,0,1.7-0.3,2.1-0.8v-0.2c0-0.5-1.1-0.8-3.2-1.1c-2.2-0.4-3.3-1.4-3.3-3.1v-0.1c0-1.5,1.1-2.5,3.2-3.2
		C640.7,313.2,641.2,313.1,641.5,313.1z"/>
	<path fill="#FFFFFF" d="M648.3,310.4c0.8,0.2,1.2,0.6,1.2,1.1v0.2c0,0.6-0.4,0.9-1.1,1.1h-0.2c-0.7-0.2-1.1-0.5-1.1-1.1v-0.3
		c0-0.5,0.3-0.8,0.9-1.1L648.3,310.4z M648.2,313.4h0.2c0.5,0,0.9,0.3,1.1,1v9.7l-0.1,0.1h-2.3l-0.1-0.1v-9.6
		C647.1,313.9,647.4,313.6,648.2,313.4z"/>
	<path fill="#FFFFFF" d="M655.6,313.1h0.2c0.5,0,1.2,0.1,2,0.4l0.1-0.1h2.3l0.1,0.1v10.6c0,1.6-1,2.7-3.1,3.4
		c-0.5,0.1-1,0.2-1.3,0.2h-0.4c-1.8,0-3.1-0.7-4.1-2c-0.2-0.4-0.4-0.9-0.4-1.2v-0.1l0.1-0.1h2.3c0.5,0.6,1.2,0.9,2.3,0.9
		c1.4-0.2,2.2-0.5,2.2-1.1v-0.3c-0.8,0.3-1.6,0.4-2.2,0.4c-2.3,0-3.8-1.2-4.7-3.7c-0.2-0.6-0.2-1.2-0.2-1.8c0-2.4,1-4.1,2.9-5.1
		C654.2,313.2,654.9,313.1,655.6,313.1z M653,318.7c0,1.2,0.5,2.1,1.5,2.7c0.4,0.2,0.8,0.3,1.1,0.3c1.5-0.1,2.2-0.5,2.2-1.1v-4.1
		c0-0.5-0.6-0.8-1.8-1h-0.4c-1.2,0-2.1,0.7-2.5,2.1C653,318,653,318.4,653,318.7z"/>
	<path fill="#FFFFFF" d="M666,313.1L666,313.1c1.8,0,3.2,0.6,4.2,1.9c0.3,0.5,0.5,1,0.5,1.6v7.5l-0.1,0.1h-2.3l-0.1-0.1v-7.5
		c0-0.5-0.6-0.8-1.8-1h-0.7c-0.8,0-1.4,0.3-1.9,0.8v7.7l-0.1,0.1h-2.3l-0.1-0.1v-9.7l0.1-0.1h0.9C663.5,313.5,664.6,313.1,666,313.1
		z"/>
</g>
<g>
	<path fill="#FFFFFF" d="M415.4,417c0.8,0.2,1.2,0.5,1.2,1.1v2.2l0,0c0.7-0.2,1.4-0.4,2.1-0.4h0.1c1.9,0,3.3,0.7,4.2,2.1
		c0.2,0.5,0.4,0.9,0.4,1.3v0.2v7.5l-0.1,0.1H421l-0.1-0.1v-7.7c-0.5-0.5-1.1-0.8-1.9-0.8h-0.5c-1.1,0.1-1.8,0.4-1.9,0.9v7.6
		l-0.1,0.1h-2.3l-0.1-0.1v-12.3c0-0.8,0.3-1.4,0.8-1.6L415.4,417z"/>
	<path fill="#FFFFFF" d="M425.8,420h0.2c0.5,0,0.9,0.3,1.1,1v6.6c0,0.4,0.6,0.7,1.8,0.9h0.4c1,0,1.7-0.3,2.2-0.9v-6.2
		c0-0.8,0.3-1.3,0.8-1.5c0.1-0.1,0.3-0.1,0.5-0.1l0,0c0.5,0,0.9,0.4,1.1,1.3v8.4l-0.1,0.1h-0.9c-1,0.8-2.2,1.2-3.5,1.2
		c-2,0-3.4-0.7-4.3-2.2c-0.2-0.4-0.3-0.8-0.3-1.2V421c0-0.6,0.3-1,0.9-1.2L425.8,420z"/>
	<path fill="#FFFFFF" d="M439.6,420L439.6,420c1.3,0,2.5,0.4,3.4,1.1c0.9-0.7,2-1.1,3.3-1.1h0.1c1.8,0,3.2,0.6,4.1,1.9
		c0.3,0.5,0.4,0.9,0.4,1.3v7.8l-0.1,0.1h-2.3l-0.1-0.1v-7.6c0-0.5-0.7-0.8-2-0.9H446c-1.2,0.1-1.8,0.4-2,0.9v7.6l-0.1,0.1h-2.3
		l-0.1-0.1v-7.5c0-0.5-0.6-0.8-1.8-1h-0.6c-0.9,0-1.6,0.3-2,0.8v7.7l-0.1,0.1h-2.3l-0.1-0.1v-9.7l0.1-0.1h0.9
		C437.1,420.4,438.3,420,439.6,420z"/>
	<path fill="#FFFFFF" d="M456.8,420c2.1,0,3.5,0.8,4.4,2.3c0.1,0.4,0.2,0.7,0.2,1v7.7l-0.1,0.1H459c-0.1,0-0.1-0.1-0.1-0.4
		c-0.8,0.3-1.5,0.4-2.2,0.4c-1.7,0-3-0.6-4.1-1.8c-0.3-0.5-0.5-1-0.5-1.5v-0.4c0-1.3,0.8-2.2,2.3-2.7l3.8-0.7
		c0.4-0.2,0.7-0.4,0.7-0.6c-0.1-0.5-0.8-0.8-1.9-0.9h-0.5c-1.1,0.1-1.7,0.4-1.9,0.9l0,0l-1.7-1.7l0,0
		C453.9,420.5,455.2,420,456.8,420z M454.7,427.6L454.7,427.6c0.4,0.7,1.2,0.9,2.2,0.9s1.7-0.3,2.1-0.8v-0.2v-1.3l-3.8,0.7
		C454.9,427.2,454.7,427.4,454.7,427.6z"/>
	<path fill="#FFFFFF" d="M467.2,420h0.1c1.7,0,3.1,0.6,4.1,1.9c0.3,0.5,0.5,1,0.5,1.6v7.5l-0.1,0.1h-2.3l-0.1-0.1v-7.5
		c0-0.5-0.6-0.8-1.8-1H467c-0.8,0-1.4,0.3-1.9,0.8v7.7l-0.1,0.1h-2.3l-0.1-0.1v-9.7l0.1-0.1h0.9C464.7,420.4,465.8,420,467.2,420z"
		/>
	<path fill="#FFFFFF" d="M407.4,437L407.4,437c1.7,0,3.1,0.5,4,1.6l0,0l-1.7,1.7l0,0c-0.2-0.5-0.8-0.8-1.9-0.9h-0.4
		c-1.3,0-2.1,0.9-2.5,2.6v0.4l0,0l0,0v0.3c0,1.1,0.5,1.9,1.6,2.6c0.4,0.1,0.7,0.2,1,0.2c1.1,0,1.8-0.3,2.3-0.9h2.3l0.1,0.1v0.1
		c0,0.9-0.6,1.8-1.8,2.5c-0.9,0.5-1.8,0.7-2.7,0.7c-2.2,0-3.7-1.1-4.6-3.4c-0.2-0.8-0.4-1.5-0.4-2.1c0-2.1,0.8-3.8,2.5-4.9
		C405.7,437.2,406.5,437,407.4,437z"/>
	<path fill="#FFFFFF" d="M418.2,437c2.3,0,3.9,1.3,4.7,3.9c0.1,0.6,0.2,1.2,0.2,1.6c0,2-0.8,3.6-2.3,4.8c-0.8,0.5-1.7,0.7-2.5,0.7
		c-2.4,0-4-1.3-4.8-3.9c-0.1-0.6-0.2-1.1-0.2-1.4v-0.3c0-2.2,0.9-3.9,2.8-5C416.8,437.1,417.5,437,418.2,437z M415.5,442.4v0.2
		c0,1.4,0.6,2.3,1.8,2.8l0.8,0.1c1.3,0,2.1-0.8,2.5-2.3v-0.5v-0.5c0-1.4-0.6-2.3-1.9-2.8h-0.6H418c-1.1,0-1.9,0.7-2.4,2.1
		C415.6,441.8,415.5,442.1,415.5,442.4z"/>
	<path fill="#FFFFFF" d="M429.2,437h0.2c0.5,0,1.2,0.1,2,0.4l0.1-0.1h2.3l0.1,0.1V448c0,1.6-1,2.7-3.1,3.4c-0.5,0.1-1,0.2-1.3,0.2
		h-0.4c-1.8,0-3.1-0.7-4.1-2c-0.2-0.4-0.4-0.9-0.4-1.2v-0.1l0.1-0.1h2.3c0.5,0.6,1.2,0.9,2.3,0.9c1.4-0.2,2.2-0.5,2.2-1.1v-0.4
		c-0.8,0.3-1.6,0.4-2.2,0.4c-2.3,0-3.8-1.2-4.7-3.7c-0.2-0.6-0.2-1.2-0.2-1.8c0-2.4,1-4.1,2.9-5.1C427.9,437.1,428.5,437,429.2,437z
		 M426.6,442.6c0,1.2,0.5,2.1,1.5,2.7c0.4,0.2,0.8,0.3,1.1,0.3c1.5-0.1,2.2-0.5,2.2-1.1v-4.1c0-0.5-0.6-0.8-1.8-1h-0.4
		c-1.2,0-2.1,0.7-2.5,2.1C426.6,441.9,426.6,442.2,426.6,442.6z"/>
	<path fill="#FFFFFF" d="M439.6,437h0.1c1.7,0,3.1,0.6,4.1,1.9c0.3,0.5,0.5,1,0.5,1.6v7.5l-0.1,0.1h-2.3l-0.1-0.1v-7.5
		c0-0.5-0.6-0.8-1.8-1h-0.7c-0.8,0-1.4,0.3-1.9,0.8v7.7l-0.1,0.1H435l-0.1-0.1v-9.7l0.1-0.1h0.9C437.1,437.4,438.2,437,439.6,437z"
		/>
	<path fill="#FFFFFF" d="M446.7,434.3c0.8,0.2,1.2,0.6,1.2,1.1v0.2c0,0.6-0.4,0.9-1.1,1.1h-0.2c-0.7-0.2-1.1-0.5-1.1-1.1v-0.3
		c0-0.5,0.3-0.8,0.9-1.1L446.7,434.3z M446.6,437.3h0.2c0.5,0,0.9,0.3,1.1,1v9.7l-0.1,0.1h-2.3l-0.1-0.1v-9.6
		C445.5,437.8,445.8,437.5,446.6,437.3z"/>
	<path fill="#FFFFFF" d="M449.2,434h2.3l0.1,0.1v3.2l0,0c0.7-0.2,1.4-0.4,2.1-0.4h2.5l0,0l-2.5,2.5h-0.1c-1,0-1.7,0.3-2.1,0.9v4.1
		c0,0.6,0.7,1,2.1,1.1h0.1c1,0,1.8-0.3,2.2-0.9h2.3l0.1,0.1c0,1.3-0.9,2.3-2.6,3c-0.8,0.2-1.4,0.3-2,0.3c-2,0-3.5-0.8-4.4-2.3
		c-0.2-0.4-0.2-1-0.2-1.7L449.2,434L449.2,434z"/>
	<path fill="#FFFFFF" d="M460.8,434.3c0.8,0.2,1.2,0.6,1.2,1.1v0.2c0,0.6-0.4,0.9-1.1,1.1h-0.2c-0.7-0.2-1.1-0.5-1.1-1.1v-0.3
		c0-0.5,0.3-0.8,0.9-1.1L460.8,434.3z M460.7,437.3h0.2c0.5,0,0.9,0.3,1.1,1v9.7l-0.1,0.1h-2.3l-0.1-0.1v-9.6
		C459.6,437.8,460,437.5,460.7,437.3z"/>
	<path fill="#FFFFFF" d="M468.2,437c2.3,0,3.9,1.3,4.7,3.9c0.1,0.6,0.2,1.2,0.2,1.6c0,2-0.8,3.6-2.3,4.8c-0.8,0.5-1.7,0.7-2.5,0.7
		c-2.4,0-4-1.3-4.8-3.9c-0.1-0.6-0.2-1.1-0.2-1.4v-0.3c0-2.2,0.9-3.9,2.8-5C466.8,437.1,467.5,437,468.2,437z M465.5,442.4v0.2
		c0,1.4,0.6,2.3,1.8,2.8l0.8,0.1c1.3,0,2.1-0.8,2.5-2.3v-0.5v-0.5c0-1.4-0.6-2.3-1.9-2.8h-0.6H468c-1.1,0-1.9,0.7-2.4,2.1
		C465.5,441.8,465.5,442.1,465.5,442.4z"/>
	<path fill="#FFFFFF" d="M478.8,437h0.1c1.7,0,3.1,0.6,4.1,1.9c0.3,0.5,0.5,1,0.5,1.6v7.5l-0.1,0.1h-2.3L481,448v-7.5
		c0-0.5-0.6-0.8-1.8-1h-0.7c-0.8,0-1.4,0.3-1.9,0.8v7.7l-0.1,0.1h-2.3l-0.1-0.1v-9.7l0.1-0.1h0.9C476.3,437.4,477.5,437,478.8,437z"
		/>
</g>
<g>
	<path d="M430.2,319L430.2,319c1.3,0,2.5,0.4,3.4,1.1c0.9-0.7,2-1.1,3.3-1.1h0.1c1.8,0,3.2,0.6,4.1,1.9c0.3,0.5,0.4,0.9,0.4,1.3v7.8
		l-0.1,0.1h-2.3L439,330v-7.6c0-0.5-0.7-0.8-2-0.9h-0.4c-1.2,0.1-1.8,0.4-2,0.9v7.6l-0.1,0.1h-2.3l-0.1-0.1v-7.5
		c0-0.5-0.6-0.8-1.8-1h-0.6c-0.9,0-1.6,0.3-2,0.8v7.7l-0.1,0.1h-2.3l-0.1-0.1v-9.7l0.1-0.1h0.9C427.7,319.4,428.8,319,430.2,319z"/>
	<path d="M447.8,319c1.8,0,3.2,0.7,4.2,2c0.3,0.5,0.4,1,0.4,1.4c0,1.5-0.7,2.5-2.1,3c-0.8,0.2-2,0.4-3.6,0.7c-0.7,0.2-1,0.4-1,0.6
		c0.6,0.7,1.3,1.1,2.1,1.1c1.1,0,1.8-0.3,2.3-0.9h2.3l0,0l0,0c0,1.3-0.9,2.3-2.6,3c-0.5,0.2-1.2,0.3-2,0.3c-2.3,0-3.8-1.2-4.7-3.7
		c-0.2-0.6-0.2-1.2-0.2-1.8v-0.2c0-2.2,0.9-3.9,2.8-5C446.4,319.1,447.1,319,447.8,319z M445.2,323.8c0.7-0.2,1.9-0.4,3.5-0.7
		c0.8-0.2,1.2-0.5,1.2-0.7v-0.1c-0.4-0.5-1.1-0.8-2.1-0.8h-0.2c-1.1,0-1.9,0.7-2.3,2L445.2,323.8L445.2,323.8z"/>
</g>
<polygon fill="#ED1E79" points="310,548.8 276.7,490.8 310,432.8 376.5,432.8 409.7,490.8 376.5,548.8 "/>
<g>
	<path fill="#FFFFFF" d="M325.3,479.5h0.2c0.5,0,0.9,0.3,1.1,1v6.6c0,0.4,0.6,0.7,1.8,0.9h0.4c1,0,1.7-0.3,2.2-0.9v-6.2
		c0-0.8,0.3-1.3,0.8-1.5c0.1-0.1,0.3-0.1,0.5-0.1l0,0c0.5,0,0.9,0.4,1.1,1.3v8.4l-0.1,0.1h-0.9c-1,0.8-2.2,1.2-3.5,1.2
		c-2,0-3.4-0.7-4.3-2.2c-0.2-0.4-0.3-0.8-0.3-1.2v-6.1C324.3,480.2,324.6,479.8,325.3,479.5L325.3,479.5z"/>
	<path fill="#FFFFFF" d="M339.5,479.5c1.7,0,3,0.5,3.9,1.6l0,0l-1.7,1.7l0,0c-0.2-0.5-0.8-0.8-1.9-0.9h-0.5
		c-1.1,0.1-1.8,0.4-1.9,0.9l0,0c0,0.4,1.2,0.8,3.6,1.1c1,0.2,1.8,0.6,2.3,1.1c0.4,0.5,0.6,1.2,0.6,2v0.2c0,1-0.6,1.8-1.8,2.5
		c-0.9,0.5-1.8,0.7-2.8,0.7c-1.8,0-3.2-0.7-4.2-2c-0.3-0.4-0.4-0.9-0.4-1.3l0,0l0.1-0.1h2.3c0.5,0.6,1.2,0.9,2.3,0.9
		c1,0,1.7-0.3,2.1-0.8v-0.2c0-0.5-1.1-0.8-3.2-1.1c-2.2-0.4-3.3-1.4-3.3-3.1v0.1c0-1.5,1.1-2.5,3.2-3.2
		C338.6,479.5,339.1,479.5,339.5,479.5z"/>
	<path fill="#FFFFFF" d="M349.9,479.5c1.8,0,3.2,0.7,4.2,2c0.3,0.5,0.4,1,0.4,1.4c0,1.5-0.7,2.5-2.1,3c-0.8,0.2-2,0.4-3.6,0.7
		c-0.7,0.2-1,0.4-1,0.6c0.6,0.7,1.3,1.1,2.1,1.1c1.1,0,1.8-0.3,2.3-0.9h2.3l0,0l0,0c0,1.3-0.9,2.3-2.6,3c-0.5,0.2-1.2,0.3-2,0.3
		c-2.3,0-3.8-1.2-4.7-3.7c-0.2-0.6-0.2-1.2-0.2-1.8V485c0-2.2,0.9-3.9,2.8-5C348.5,479.6,349.2,479.5,349.9,479.5z M347.4,484.3
		c0.7-0.2,1.9-0.4,3.5-0.7c0.8-0.2,1.2-0.5,1.2-0.7v-0.1c-0.4-0.5-1.1-0.8-2.1-0.8h-0.2c-1.1,0-1.9,0.7-2.3,2L347.4,484.3
		L347.4,484.3z"/>
	<path fill="#FFFFFF" d="M360.2,479.5h0.1c1.6,0,2.9,0.5,3.9,1.6l0,0l-1.7,1.7l0,0c0-0.4-0.6-0.7-1.9-0.9h-0.5
		c-1.1,0.1-1.8,0.4-1.9,0.9v7.6l-0.1,0.1h-2.3l-0.1-0.1v-9.6l0.1-0.1h1C357.8,479.9,358.9,479.5,360.2,479.5z"/>
	<path fill="#FFFFFF" d="M309.5,496.5h0.1c1.6,0,2.9,0.5,3.9,1.6l0,0l-1.7,1.7l0,0c0-0.4-0.6-0.7-1.9-0.9h-0.5
		c-1.1,0.1-1.8,0.4-1.9,0.9v7.6l-0.1,0.1h-2.3l-0.1-0.1v-9.6l0.1-0.1h1C307.1,496.9,308.2,496.5,309.5,496.5z"/>
	<path fill="#FFFFFF" d="M318,496.5c1.8,0,3.2,0.7,4.2,2c0.3,0.5,0.4,1,0.4,1.4c0,1.5-0.7,2.5-2.1,3c-0.8,0.2-2,0.4-3.6,0.7
		c-0.7,0.2-1,0.4-1,0.6c0.6,0.7,1.3,1.1,2.1,1.1c1.1,0,1.8-0.3,2.3-0.9h2.3l0,0l0,0c0,1.3-0.9,2.3-2.6,3c-0.5,0.2-1.2,0.3-2,0.3
		c-2.3,0-3.8-1.2-4.7-3.7c-0.2-0.6-0.2-1.2-0.2-1.8V502c0-2.2,0.9-3.9,2.8-5C316.6,496.6,317.3,496.5,318,496.5z M315.4,501.3
		c0.7-0.2,1.9-0.4,3.5-0.7c0.8-0.2,1.2-0.5,1.2-0.7v-0.1c-0.4-0.5-1.1-0.8-2.1-0.8h-0.2c-1.1,0-1.9,0.7-2.3,2L315.4,501.3
		L315.4,501.3z"/>
	<path fill="#FFFFFF" d="M328.7,496.5c1.7,0,3,0.5,3.9,1.6l0,0l-1.7,1.7l0,0c-0.2-0.5-0.8-0.8-1.9-0.9h-0.5
		c-1.1,0.1-1.8,0.4-1.9,0.9l0,0c0,0.4,1.2,0.8,3.6,1.1c1,0.2,1.8,0.6,2.3,1.1c0.4,0.5,0.6,1.2,0.6,2v0.2c0,1-0.6,1.8-1.8,2.5
		c-0.9,0.5-1.8,0.7-2.8,0.7c-1.8,0-3.2-0.7-4.2-2c-0.3-0.4-0.4-0.9-0.4-1.3l0,0l0.1-0.1h2.3c0.5,0.6,1.2,0.9,2.3,0.9
		c1,0,1.7-0.3,2.1-0.8v-0.2c0-0.5-1.1-0.8-3.2-1.1c-2.2-0.4-3.3-1.4-3.3-3.1v0.1c0-1.5,1.1-2.5,3.2-3.2
		C327.9,496.5,328.3,496.5,328.7,496.5z"/>
	<path fill="#FFFFFF" d="M339.1,496.5c1.8,0,3.2,0.7,4.2,2c0.3,0.5,0.4,1,0.4,1.4c0,1.5-0.7,2.5-2.1,3c-0.8,0.2-2,0.4-3.6,0.7
		c-0.7,0.2-1,0.4-1,0.6c0.6,0.7,1.3,1.1,2.1,1.1c1.1,0,1.8-0.3,2.3-0.9h2.3l0,0l0,0c0,1.3-0.9,2.3-2.6,3c-0.5,0.2-1.2,0.3-2,0.3
		c-2.3,0-3.8-1.2-4.7-3.7c-0.2-0.6-0.2-1.2-0.2-1.8V502c0-2.2,0.9-3.9,2.8-5C337.7,496.6,338.4,496.5,339.1,496.5z M336.6,501.3
		c0.7-0.2,1.9-0.4,3.5-0.7c0.8-0.2,1.2-0.5,1.2-0.7v-0.1c-0.4-0.5-1.1-0.8-2.1-0.8H339c-1.1,0-1.9,0.7-2.3,2L336.6,501.3
		L336.6,501.3z"/>
	<path fill="#FFFFFF" d="M349.5,496.5c2.1,0,3.5,0.8,4.4,2.3c0.1,0.4,0.2,0.7,0.2,1v7.7l-0.1,0.1h-2.3c-0.1,0-0.1-0.1-0.1-0.4
		c-0.8,0.3-1.5,0.4-2.2,0.4c-1.7,0-3-0.6-4.1-1.8c-0.3-0.5-0.5-1-0.5-1.5v-0.4c0-1.3,0.8-2.2,2.3-2.7l3.8-0.7
		c0.4-0.2,0.7-0.4,0.7-0.6c-0.1-0.5-0.8-0.8-1.9-0.9h-0.5c-1.1,0.1-1.7,0.4-1.9,0.9l0,0l-1.7-1.7l0,0
		C346.6,497,347.9,496.5,349.5,496.5z M347.4,504.1L347.4,504.1c0.4,0.7,1.2,0.9,2.2,0.9s1.7-0.3,2.1-0.8V504v-1.2l-3.8,0.7
		C347.6,503.7,347.4,503.9,347.4,504.1z"/>
	<path fill="#FFFFFF" d="M359.9,496.5h0.1c1.6,0,2.9,0.5,3.9,1.6l0,0l-1.7,1.7l0,0c0-0.4-0.6-0.7-1.9-0.9h-0.5
		c-1.1,0.1-1.8,0.4-1.9,0.9v7.6l-0.1,0.1h-2.3l-0.1-0.1v-9.6l0.1-0.1h1C357.4,496.9,358.6,496.5,359.9,496.5z"/>
	<path fill="#FFFFFF" d="M368.2,496.5L368.2,496.5c1.7,0,3.1,0.5,4,1.6l0,0l-1.7,1.7l0,0c-0.2-0.5-0.8-0.8-1.9-0.9h-0.4
		c-1.3,0-2.1,0.9-2.5,2.6v0.4l0,0l0,0v0.3c0,1.1,0.5,1.9,1.6,2.6c0.4,0.1,0.7,0.2,1,0.2c1.1,0,1.8-0.3,2.3-0.9h2.3l0.1,0.1v0.1
		c0,0.9-0.6,1.8-1.8,2.5c-0.9,0.5-1.8,0.7-2.7,0.7c-2.2,0-3.7-1.1-4.6-3.4c-0.2-0.8-0.4-1.5-0.4-2.1c0-2.1,0.8-3.8,2.5-4.9
		C366.6,496.7,367.4,496.5,368.2,496.5z"/>
	<path fill="#FFFFFF" d="M375.4,493.5c0.8,0.2,1.2,0.5,1.2,1.1v2.2l0,0c0.7-0.2,1.4-0.4,2.1-0.4h0.1c1.9,0,3.3,0.7,4.2,2.1
		c0.2,0.5,0.4,0.9,0.4,1.3v0.2v7.5l-0.1,0.1H381l-0.1-0.1v-7.7c-0.5-0.5-1.1-0.8-1.9-0.8h-0.5c-1.1,0.1-1.8,0.4-1.9,0.9v7.6
		l-0.1,0.1h-2.3l-0.1-0.1v-12.3c0-0.8,0.3-1.4,0.8-1.6L375.4,493.5z"/>
</g>
<polygon fill="#662D91" points="409.7,142.8 376.4,84.3 409.7,25.8 476.2,25.8 509.4,84.3 476.2,142.8 "/>
<g>
	<path fill="#FFFFFF" d="M421.3,82.9l1.6,4.1l1.8,4.9l0,0c0-0.2,1.2-3.2,3.4-9h2.5c0.1,0.1,1.1,2.7,3,7.6l0.6,1.3
		c2.2-5.9,3.4-8.8,3.5-8.9h2.5l0,0l0,0L435,96.5h-1.6c-0.1-0.1-1.4-3.5-3.9-10.2c0,0-1.3,3.3-3.9,9.9c-0.1,0.2-0.1,0.2-0.2,0.2H424
		c-0.1,0-1.8-4.5-5.2-13.6l0,0h2.5V82.9z"/>
	<path fill="#FFFFFF" d="M443.9,85.5c1.8,0,3.2,0.7,4.2,2c0.3,0.5,0.4,1,0.4,1.4c0,1.5-0.7,2.5-2.1,3c-0.8,0.2-2,0.4-3.6,0.7
		c-0.7,0.2-1,0.4-1,0.6c0.6,0.7,1.3,1.1,2.1,1.1c1.1,0,1.8-0.3,2.3-0.9h2.3l0,0l0,0c0,1.3-0.9,2.3-2.6,3c-0.5,0.2-1.2,0.3-2,0.3
		c-2.3,0-3.8-1.2-4.7-3.7c-0.2-0.6-0.2-1.2-0.2-1.8V91c0-2.2,0.9-3.9,2.8-5C442.6,85.6,443.3,85.5,443.9,85.5z M441.4,90.3
		c0.7-0.2,1.9-0.4,3.5-0.7c0.8-0.2,1.2-0.5,1.2-0.7v-0.1c-0.4-0.5-1.1-0.8-2.1-0.8h-0.2c-1.1,0-1.9,0.7-2.3,2L441.4,90.3L441.4,90.3
		z"/>
	<path fill="#FFFFFF" d="M451,82.5c0.8,0.2,1.2,0.5,1.2,1.1v2.2l0,0c0.7-0.2,1.4-0.4,2.1-0.4l0,0c2.3,0,3.9,1.2,4.7,3.7
		c0.2,0.6,0.2,1.1,0.2,1.8v0.2c0,2-0.8,3.6-2.3,4.7c-0.8,0.5-1.7,0.7-2.5,0.7c-1-0.1-1.8-0.2-2.2-0.4v0.3l-0.1,0.1h-2.3l-0.1-0.1
		V83.8c0-0.6,0.3-1,1-1.2L451,82.5z M452.2,89v3.9c0,0.4,0.3,0.7,0.8,0.9c0.4,0.2,0.9,0.3,1.5,0.3c1.2,0,2.1-0.7,2.5-2.2l0.1-0.8V91
		c0-1.5-0.7-2.5-2.1-3h-0.5h-0.3c-0.9,0-1.6,0.3-2,0.8V89z"/>
</g>
<polygon opacity="0.69" fill="#662D91" enable-background="new    " points="410.4,27.8 377.2,-29.7 410.4,-87.2 476.9,-87.2 
	510.2,-29.7 476.9,27.8 "/>
<g>
	<path fill="#FFFFFF" d="M426.1-29.9h1.4l0.1,0.1v3.5h4.1v-3.5l0.1-0.1h1.5l0.1,0.1v8.6l-0.1,0.1h-1.5l-0.1-0.1v-3.5h-4.1v3.5
		l-0.1,0.1h-1.4l-0.1-0.1L426.1-29.9L426.1-29.9z"/>
	<path fill="#FFFFFF" d="M434.1-29.9h7.1l0,0l-1.5,1.5h-1.3v7.1l-0.1,0.1h-1.5l-0.1-0.1v-7.1h-1.3L434.1-29.9L434.1-29.9z"/>
	<path fill="#FFFFFF" d="M443.3-29.8c0.1,0,0.3,0.6,0.7,1.7l1.8,4.7l0,0l2.5-6.4l0,0h1c0.1,0,0.3,0.7,0.9,2.2l2.5,6.4l0,0h-1.6
		l-1-2.6l-1.2-3.1l0,0c-1.4,3.8-2.2,5.7-2.2,5.7H445c-0.1-0.1-0.8-2-2.2-5.7l0,0c-1.4,3.7-2.1,5.6-2.2,5.7H439v0l3.3-8.6H443.3z"/>
	<path fill="#FFFFFF" d="M453.5-29.9h1.5l0.1,0.1v7.1h4.8l0.1,0.1v1.5l-0.1,0.1h-6.3l-0.1-0.1V-29.9L453.5-29.9z"/>
</g>
<polygon opacity="0.69" fill="#662D91" enable-background="new    " points="510.4,84.8 477.2,27.3 510.4,-30.2 576.9,-30.2 
	610.2,27.3 576.9,84.8 "/>
<polygon opacity="0.69" fill="#662D91" enable-background="new    " points="311.4,84.8 278.2,27.3 311.4,-30.2 377.9,-30.2 
	411.2,27.3 377.9,84.8 "/>
<g>
	<path fill="#FFFFFF" d="M316.8,22.7h4.3l0.1,0.1v8.6l-0.1,0.1h-2.5c-1.4,0-2.4-0.4-3.2-1.1c-1-0.9-1.5-2-1.5-3.3l0,0h1.5l0.1,0.1
		c0,1,0.5,1.9,1.5,2.5c0.4,0.2,0.8,0.3,1.3,0.3h1.3v-5.6h-1.3L316.8,22.7L316.8,22.7z"/>
	<path fill="#FFFFFF" d="M324.9,24.4c1.3,0,2.2,0.5,2.8,1.5c0.1,0.2,0.1,0.4,0.1,0.6v4.9l-0.1,0.1h-1.4c0,0-0.1-0.1-0.1-0.3
		c-0.5,0.2-1,0.3-1.4,0.3c-1.1,0-1.9-0.4-2.6-1.1c-0.2-0.3-0.3-0.6-0.3-0.9v-0.2c0-0.8,0.5-1.4,1.5-1.7l2.4-0.5
		c0.3-0.1,0.4-0.2,0.4-0.4c-0.1-0.3-0.5-0.5-1.2-0.6h-0.3c-0.7,0.1-1.1,0.2-1.2,0.6l0,0l-1.1-1.1l0,0
		C323,24.7,323.8,24.4,324.9,24.4z M323.5,29.3L323.5,29.3c0.3,0.4,0.7,0.6,1.4,0.6c0.6,0,1.1-0.2,1.4-0.5v-0.1v-0.8l-2.4,0.5
		C323.6,29,323.5,29.1,323.5,29.3z"/>
	<path fill="#FFFFFF" d="M329.4,24.4c0.4,0,0.7,0.4,0.8,1.1c0.6,1.7,0.9,2.8,0.9,3.2l0.2,1.1l0,0c0.2-1.4,0.4-2.3,0.5-2.7
		c0.5-1.5,0.7-2.3,0.8-2.4c0.2-0.2,0.4-0.3,0.6-0.3c0.4,0,0.6,0.2,0.8,0.7v0.2l-2,6.1l0,0h-1.4c-0.1,0-0.5-1.5-1.4-4.3l-0.6-1.8
		v-0.2C328.7,24.6,329,24.4,329.4,24.4z"/>
	<path fill="#FFFFFF" d="M337,24.4c1.3,0,2.2,0.5,2.8,1.5c0.1,0.2,0.1,0.4,0.1,0.6v4.9l-0.1,0.1h-1.4c0,0-0.1-0.1-0.1-0.3
		c-0.5,0.2-1,0.3-1.4,0.3c-1.1,0-1.9-0.4-2.6-1.1c-0.2-0.3-0.3-0.6-0.3-0.9v-0.2c0-0.8,0.5-1.4,1.5-1.7l2.4-0.5
		c0.3-0.1,0.4-0.2,0.4-0.4c-0.1-0.3-0.5-0.5-1.2-0.6h-0.3c-0.7,0.1-1.1,0.2-1.2,0.6l0,0l-1.1-1.1l0,0
		C335.1,24.7,335.9,24.4,337,24.4z M335.6,29.3L335.6,29.3c0.3,0.4,0.7,0.6,1.4,0.6c0.6,0,1.1-0.2,1.4-0.5v-0.1v-0.8L336,29
		C335.7,29,335.6,29.1,335.6,29.3z"/>
	<path fill="#FFFFFF" d="M343.8,24.4c1.1,0,1.9,0.3,2.5,1l0,0l-1.1,1.1l0,0c-0.1-0.3-0.5-0.5-1.2-0.6h-0.3c-0.7,0.1-1.1,0.3-1.2,0.6
		l0,0c0,0.3,0.8,0.5,2.3,0.7c0.7,0.1,1.1,0.4,1.5,0.7c0.3,0.3,0.4,0.8,0.4,1.3v0.2c0,0.6-0.4,1.1-1.1,1.6c-0.6,0.3-1.2,0.4-1.8,0.4
		c-1.2,0-2-0.4-2.7-1.3c-0.2-0.3-0.3-0.6-0.3-0.8l0,0l0.1-0.1h1.4c0.3,0.4,0.8,0.6,1.4,0.6s1.1-0.2,1.4-0.5v-0.1
		c0-0.3-0.7-0.5-2-0.7c-1.4-0.2-2.1-0.9-2.1-2v-0.1c0-0.9,0.7-1.6,2.1-2C343.3,24.4,343.6,24.4,343.8,24.4z"/>
	<path fill="#FFFFFF" d="M350.4,24.4L350.4,24.4c1.1,0,1.9,0.3,2.6,1l0,0l-1.1,1.1l0,0c-0.1-0.3-0.5-0.5-1.2-0.6h-0.2
		c-0.8,0-1.4,0.5-1.6,1.6v0.3l0,0l0,0V28c0,0.7,0.3,1.2,1,1.6c0.2,0.1,0.5,0.1,0.7,0.1c0.7,0,1.2-0.2,1.5-0.6h1.4l0.1,0.1v0.1
		c0,0.6-0.4,1.1-1.1,1.6c-0.6,0.3-1.2,0.4-1.7,0.4c-1.4,0-2.4-0.7-2.9-2.2c-0.2-0.5-0.2-1-0.2-1.4c0-1.4,0.5-2.4,1.6-3.1
		C349.4,24.5,349.9,24.4,350.4,24.4z"/>
	<path fill="#FFFFFF" d="M357,24.4L357,24.4c1.1,0,2,0.3,2.6,1l0,0l-1.1,1.1l0,0c0-0.3-0.4-0.5-1.2-0.6H357
		c-0.7,0.1-1.1,0.3-1.2,0.6v4.8l-0.1,0.1h-1.4l-0.1-0.1v-6.2l0.1-0.1h0.6C355.5,24.6,356.2,24.4,357,24.4z"/>
	<path fill="#FFFFFF" d="M361.2,22.7c0.5,0.1,0.8,0.4,0.8,0.7v0.1c0,0.4-0.2,0.6-0.7,0.7h-0.1c-0.5-0.1-0.7-0.3-0.7-0.7v-0.2
		c0-0.3,0.2-0.5,0.6-0.7L361.2,22.7z M361.1,24.6h0.1c0.3,0,0.5,0.2,0.7,0.6v6.2l-0.1,0.1h-1.4l-0.1-0.1v-6.1
		C360.4,24.9,360.6,24.7,361.1,24.6z"/>
	<path fill="#FFFFFF" d="M365.5,24.4h0.1c1.5,0,2.4,0.8,2.9,2.3c0.1,0.4,0.2,0.8,0.2,1.2c0,1.4-0.5,2.4-1.6,3.1
		c-0.5,0.3-1,0.4-1.5,0.4c-0.4,0-0.9-0.1-1.4-0.3v2.4l-0.1,0.1h-1.4l-0.1-0.1v-8.9l0.1-0.1h1.4l0.1,0.1
		C364.7,24.5,365.1,24.4,365.5,24.4z M364.2,26.6v2.7c0,0.3,0.4,0.5,1.1,0.6h0.3c0.8,0,1.3-0.4,1.6-1.3c0.1-0.2,0.1-0.4,0.1-0.7
		c0-0.9-0.4-1.5-1.1-1.8c-0.2-0.1-0.4-0.1-0.6-0.1h-0.2C364.7,26,364.3,26.2,364.2,26.6z"/>
	<path fill="#FFFFFF" d="M369.6,22.5h1.4l0.1,0.1v2.1l0,0c0.5-0.2,0.9-0.2,1.3-0.2h1.6l0,0l-1.6,1.6h-0.1c-0.6,0-1.1,0.2-1.3,0.6
		v2.6c0,0.4,0.4,0.6,1.3,0.7h0.1c0.7,0,1.1-0.2,1.4-0.6h1.5l0.1,0.1c0,0.8-0.6,1.4-1.7,1.9c-0.5,0.1-0.9,0.2-1.3,0.2
		c-1.3,0-2.2-0.5-2.8-1.4c-0.1-0.3-0.2-0.6-0.2-1.1L369.6,22.5L369.6,22.5z"/>
</g>
<g>
	<path fill="#FFFFFF" d="M537,22.7c1.4,0,2.5,0.5,3.2,1.4l0,0l-1.1,1.1c0,0-0.1-0.1-0.1-0.2c-0.4-0.5-1.1-0.8-2-0.8s-1.6,0.3-2,0.8
		v0.2v0.1c0,0.5,0.9,0.9,2.7,1c0.8,0.1,1.3,0.3,1.8,0.6c0.6,0.4,0.9,1.1,0.9,1.9c0,1.1-0.7,1.9-2.2,2.4c-0.5,0.1-1,0.2-1.4,0.2
		c-1.2,0-2.2-0.4-3-1.2c-0.4-0.5-0.6-0.9-0.6-1.4l0,0h1.5c0,0,0.1,0.1,0.1,0.3c0.4,0.5,1.1,0.8,2,0.8c0.8,0,1.5-0.2,1.9-0.7
		c0.1-0.1,0.1-0.2,0.1-0.3v-0.1c0-0.5-0.8-0.9-2.5-1c-0.9-0.2-1.5-0.4-1.9-0.5c-0.7-0.4-1.1-1.1-1.1-1.9c0-1,0.6-1.7,1.9-2.3
		C535.8,22.8,536.4,22.7,537,22.7z"/>
	<path fill="#FFFFFF" d="M540.3,22.8h1.6c0.1,0,0.3,0.7,0.8,2c0.9,2.3,1.4,3.6,1.4,3.7h0.1c1.1-2.9,1.8-4.8,2.2-5.7h1.6l0,0l0,0
		l-3.3,8.6h-1c-0.1-0.1-0.4-0.8-0.8-2.1L540.3,22.8L540.3,22.8z"/>
	<path fill="#FFFFFF" d="M552,22.7h2.4l0.1,0.1l-1.5,1.5h-1.1c-1.3,0-2.2,0.6-2.7,1.8c-0.1,0.3-0.2,0.7-0.2,1.1c0,1,0.5,1.8,1.4,2.4
		c0.4,0.2,0.8,0.3,1.3,0.3h1.4v-2h-2l-0.1-0.1v-1.5l0.1-0.1h3.5l0.1,0.1v5.1l-0.1,0.1H552c-1.4,0-2.4-0.3-3.1-0.9
		c-0.5-0.3-0.8-0.7-1-1.2c-0.4-0.8-0.7-1.5-0.7-2.2c0-1.5,0.6-2.7,1.9-3.6C550,23,550.9,22.7,552,22.7z"/>
</g>
<polygon opacity="0.69" fill="#662D91" enable-background="new    " points="610.4,26.8 577.2,-30.7 610.4,-88.2 676.9,-88.2 
	710.2,-30.7 676.9,26.8 "/>
<g>
	<path fill="#FFFFFF" d="M629.7-35.3h2.6c0.5,0,1.2,0.1,2.1,0.4c0.4,0.1,0.9,0.6,1.5,1.3c0.6,0.8,0.9,1.7,0.9,2.7
		c0,1.5-0.7,2.7-2,3.7c-0.7,0.4-1.5,0.7-2.6,0.7h-2.5l-0.1-0.1L629.7-35.3L629.7-35.3z M631.2-33.7v5.6h1.4c1.1,0,2-0.6,2.5-1.7
		c0.1-0.3,0.2-0.7,0.2-1v-0.1c0-1.1-0.6-1.9-1.7-2.5c-0.4-0.2-0.8-0.2-1.2-0.2h-1.2V-33.7z"/>
	<path fill="#FFFFFF" d="M641.2-35.3c1.3,0,2.4,0.5,3.2,1.4c0.3,0.5,0.4,0.9,0.4,1.2c0,0.7-0.3,1.3-0.9,1.8c0.6,0.4,0.9,1,0.9,1.8
		c0,0.9-0.6,1.7-1.8,2.2c-0.6,0.2-1.2,0.3-1.8,0.3c-1.2,0-2.2-0.4-3-1.2c-0.4-0.5-0.6-0.9-0.6-1.4l0,0h1.5c0,0,0.1,0.1,0.1,0.3
		c0.4,0.5,1.1,0.8,2,0.8c0.8,0,1.5-0.2,1.9-0.7c0.1-0.1,0.1-0.2,0.1-0.3v-0.1c0-0.5-0.7-0.8-2.1-1l0,0v-1.5c0,0,0.4-0.1,1.1-0.2
		c0.7-0.2,1.1-0.4,1.1-0.8v-0.1c0-0.3-0.3-0.6-1-0.8c-0.3-0.1-0.6-0.2-1-0.2c-0.8,0-1.4,0.2-1.9,0.7c-0.1,0.1-0.1,0.2-0.1,0.3h-0.1
		l-1.1-1.1l0,0C638.8-34.8,639.8-35.3,641.2-35.3z"/>
	<path fill="#FFFFFF" d="M650.7-33.4c0.4,0,0.7,0.3,0.7,0.9v5.6c0,0.8-0.2,1.4-0.7,1.7c-0.6,0.5-1.3,0.8-2.1,0.8h-0.3
		c-1.1,0-1.9-0.4-2.6-1.3c-0.1-0.3-0.2-0.6-0.2-0.8l0,0h1.5c0.3,0.4,0.8,0.6,1.4,0.6c0.9-0.1,1.4-0.3,1.4-0.6v-6.2
		c0-0.3,0.2-0.6,0.7-0.7H650.7z M650.6-35.3c0.5,0.1,0.8,0.4,0.8,0.8c0,0.4-0.2,0.6-0.7,0.8h-0.2c-0.5-0.1-0.7-0.4-0.7-0.7v-0.1
		C649.9-34.9,650.1-35.2,650.6-35.3z"/>
	<path fill="#FFFFFF" d="M655.3-33.6c1.1,0,1.9,0.3,2.5,1l0,0l-1.1,1.1l0,0c-0.1-0.3-0.5-0.5-1.2-0.6h-0.3c-0.7,0.1-1.1,0.3-1.2,0.6
		l0,0c0,0.3,0.8,0.5,2.3,0.7c0.7,0.1,1.1,0.4,1.5,0.7c0.3,0.3,0.4,0.8,0.4,1.3v0.2c0,0.6-0.4,1.1-1.1,1.6c-0.6,0.3-1.2,0.4-1.8,0.4
		c-1.2,0-2-0.4-2.7-1.3c-0.2-0.3-0.3-0.6-0.3-0.8l0,0l0.1-0.1h1.4c0.3,0.4,0.8,0.6,1.4,0.6c0.6,0,1.1-0.2,1.4-0.5v-0.1
		c0-0.3-0.7-0.5-2-0.7c-1.4-0.2-2.1-0.9-2.1-2v-0.1c0-0.9,0.7-1.6,2.1-2C654.8-33.6,655.1-33.6,655.3-33.6z"/>
</g>
<polygon opacity="0.69" fill="#662D91" enable-background="new    " points="212.4,27.8 179.2,-29.7 212.4,-87.2 278.9,-87.2 
	312.2,-29.7 278.9,27.8 "/>
<polygon opacity="0.69" fill="#662D91" enable-background="new    " points="212.4,142.8 179.2,85.3 212.4,27.8 278.9,27.8 
	312.2,85.3 278.9,142.8 "/>
<g>
	<path fill="#FFFFFF" d="M219.3-35.3h6.4l0,0l-1.5,1.5h-3.3v2h2l0.1,0.1v1.4l-0.1,0.1h-2v2h4.8l0.1,0.1v1.5l-0.1,0.1h-6.3l-0.1-0.1
		L219.3-35.3L219.3-35.3z"/>
	<path fill="#FFFFFF" d="M227.9-33.6c0.3,0,0.7,0.3,1,1c0,0,0.3,0.4,0.6,1l0,0l1.3-2h1.8l0,0l-2.1,3.5l2.1,3.5v0.1h-1.7
		c-0.1-0.1-0.5-0.8-1.3-2h-0.1c-0.1,0.2-0.5,0.9-1.3,2h-1.7l0,0l0,0l2.1-3.5l0,0c-1-1.6-1.5-2.5-1.5-2.6v-0.2c0-0.3,0.2-0.5,0.6-0.7
		h0.2V-33.6z"/>
	<path fill="#FFFFFF" d="M233.4-35.5h1.4l0.1,0.1v2.1l0,0c0.5-0.2,0.9-0.2,1.3-0.2h1.6l0,0l-1.6,1.6h-0.1c-0.6,0-1.1,0.2-1.3,0.6
		v2.6c0,0.4,0.4,0.6,1.3,0.7h0.1c0.7,0,1.1-0.2,1.4-0.6h1.5l0.1,0.1c0,0.8-0.6,1.4-1.7,1.9c-0.5,0.1-0.9,0.2-1.3,0.2
		c-1.3,0-2.2-0.5-2.8-1.4c-0.1-0.3-0.2-0.6-0.2-1.1L233.4-35.5L233.4-35.5z"/>
	<path fill="#FFFFFF" d="M246.5-35.3h4.3l0.1,0.1v8.6l-0.1,0.1h-2.5c-1.4,0-2.4-0.4-3.2-1.1c-1-0.9-1.5-2-1.5-3.3l0,0h1.5l0.1,0.1
		c0,1,0.5,1.9,1.5,2.5c0.4,0.2,0.8,0.3,1.3,0.3h1.3v-5.6H248L246.5-35.3L246.5-35.3z"/>
	<path fill="#FFFFFF" d="M254.8-33.6c1.1,0,1.9,0.3,2.5,1l0,0l-1.1,1.1l0,0c-0.1-0.3-0.5-0.5-1.2-0.6h-0.3c-0.7,0.1-1.1,0.3-1.2,0.6
		l0,0c0,0.3,0.8,0.5,2.3,0.7c0.7,0.1,1.1,0.4,1.5,0.7c0.3,0.3,0.4,0.8,0.4,1.3v0.2c0,0.6-0.4,1.1-1.1,1.6c-0.6,0.3-1.2,0.4-1.8,0.4
		c-1.2,0-2-0.4-2.7-1.3c-0.2-0.3-0.3-0.6-0.3-0.8l0,0l0.1-0.1h1.4c0.3,0.4,0.8,0.6,1.4,0.6c0.6,0,1.1-0.2,1.4-0.5v-0.1
		c0-0.3-0.7-0.5-2-0.7c-1.4-0.2-2.1-0.9-2.1-2v-0.1c0-0.9,0.7-1.6,2.1-2C254.3-33.6,254.5-33.6,254.8-33.6z"/>
	<path fill="#FFFFFF" d="M265.9-35.2L265.9-35.2L265.9-35.2l-2.3,8.7h-1.5l-0.1-0.1l2.3-8.7h1.6V-35.2z"/>
	<path fill="#FFFFFF" d="M226-24.5c1.4,0,2.5,0.5,3.2,1.4l0,0l-1.1,1.1c0,0-0.1-0.1-0.1-0.2c-0.4-0.5-1.1-0.8-2-0.8s-1.6,0.3-2,0.8
		v0.2v0.1c0,0.5,0.9,0.9,2.7,1c0.8,0.1,1.3,0.3,1.8,0.6c0.6,0.4,0.9,1.1,0.9,1.9c0,1.1-0.7,1.9-2.2,2.4c-0.5,0.1-1,0.2-1.4,0.2
		c-1.2,0-2.2-0.4-3-1.2c-0.4-0.5-0.6-0.9-0.6-1.4l0,0h1.5c0,0,0.1,0.1,0.1,0.3c0.4,0.5,1.1,0.8,2,0.8c0.8,0,1.5-0.2,1.9-0.7
		c0.1-0.1,0.1-0.2,0.1-0.3v-0.1c0-0.5-0.8-0.9-2.5-1c-0.9-0.2-1.5-0.4-1.9-0.5c-0.7-0.4-1.1-1.1-1.1-1.9c0-1,0.6-1.7,1.9-2.3
		C224.8-24.4,225.4-24.5,226-24.5z"/>
	<path fill="#FFFFFF" d="M233.3-22.8c1.2,0,2.1,0.4,2.7,1.3c0.2,0.3,0.3,0.6,0.3,0.9c0,0.9-0.5,1.6-1.4,1.9
		c-0.5,0.1-1.3,0.3-2.3,0.4c-0.4,0.2-0.7,0.3-0.7,0.4c0.4,0.5,0.8,0.7,1.3,0.7c0.7,0,1.2-0.2,1.4-0.6h1.5l0,0l0,0
		c0,0.8-0.6,1.5-1.7,1.9c-0.3,0.1-0.7,0.2-1.3,0.2c-1.5,0-2.4-0.8-3-2.3c-0.1-0.4-0.2-0.7-0.2-1.1v-0.1c0-1.4,0.6-2.5,1.8-3.2
		C232.4-22.7,232.8-22.8,233.3-22.8z M231.7-19.7c0.5-0.1,1.2-0.3,2.2-0.4c0.5-0.1,0.8-0.3,0.8-0.5v-0.1c-0.3-0.3-0.7-0.5-1.3-0.5
		h-0.2c-0.7,0-1.2,0.4-1.5,1.3V-19.7L231.7-19.7z"/>
	<path fill="#FFFFFF" d="M239.9-22.8L239.9-22.8c1.2,0,2,0.4,2.7,1.2c0.2,0.3,0.3,0.6,0.3,1v4.8l-0.1,0.1h-1.4l-0.1-0.1v-4.8
		c0-0.3-0.4-0.5-1.1-0.7h-0.4c-0.5,0-0.9,0.2-1.2,0.5v4.9l-0.1,0.1H237l-0.1-0.1v-6.2l0.1-0.1h0.6C238.3-22.5,239-22.8,239.9-22.8z"
		/>
	<path fill="#FFFFFF" d="M246.7-22.8L246.7-22.8c1.1,0,1.9,0.3,2.6,1l0,0l-1.1,1.1l0,0c-0.1-0.3-0.5-0.5-1.2-0.6h-0.2
		c-0.8,0-1.4,0.5-1.6,1.6v0.3l0,0l0,0v0.2c0,0.7,0.3,1.2,1,1.6c0.2,0.1,0.5,0.1,0.7,0.1c0.7,0,1.2-0.2,1.5-0.6h1.4l0.1,0.1v0.1
		c0,0.6-0.4,1.1-1.1,1.6c-0.6,0.3-1.2,0.4-1.7,0.4c-1.4,0-2.4-0.7-2.9-2.2c-0.2-0.5-0.2-1-0.2-1.4c0-1.4,0.5-2.4,1.6-3.1
		C245.7-22.6,246.2-22.8,246.7-22.8z"/>
	<path fill="#FFFFFF" d="M251.2-24.7c0.5,0.1,0.8,0.3,0.8,0.7v1.4l0,0c0.5-0.2,0.9-0.2,1.3-0.2h0.1c1.2,0,2.1,0.4,2.7,1.3
		c0.2,0.3,0.2,0.6,0.2,0.8v0.1v4.7l-0.1,0.1h-1.4l-0.1-0.1v-4.9c-0.3-0.3-0.7-0.5-1.2-0.5h-0.3c-0.7,0.1-1.1,0.3-1.2,0.6v4.8
		l-0.1,0.1h-1.5l-0.1-0.1v-7.8c0-0.5,0.2-0.9,0.5-1L251.2-24.7z"/>
	<path fill="#FFFFFF" d="M260.1-22.8c1.3,0,2.2,0.5,2.8,1.5c0.1,0.2,0.1,0.4,0.1,0.6v4.9l-0.1,0.1h-1.4c0,0-0.1-0.1-0.1-0.3
		c-0.5,0.2-1,0.3-1.4,0.3c-1.1,0-1.9-0.4-2.6-1.1c-0.2-0.3-0.3-0.6-0.3-0.9v-0.2c0-0.8,0.5-1.4,1.5-1.7l2.4-0.5
		c0.3-0.1,0.4-0.2,0.4-0.4c-0.1-0.3-0.5-0.5-1.2-0.6h-0.3c-0.7,0.1-1.1,0.2-1.2,0.6l0,0l-1.1-1.1l0,0
		C258.2-22.4,259-22.8,260.1-22.8z M258.7-17.9L258.7-17.9c0.3,0.4,0.7,0.6,1.4,0.6c0.6,0,1.1-0.2,1.4-0.5v-0.1v-0.8l-2.4,0.5
		C258.8-18.2,258.7-18,258.7-17.9z"/>
</g>
<g>
	<path fill="#FFFFFF" d="M202.5,79.3h6.4l0,0l-1.5,1.5H204v2h2l0.1,0.1v1.4l-0.1,0.1h-2v3.5l-0.1,0.1h-1.5l-0.1-0.1L202.5,79.3
		L202.5,79.3z"/>
	<path fill="#FFFFFF" d="M209.9,81c1.5,0,2.5,0.8,3,2.5c0.1,0.4,0.1,0.8,0.1,1c0,1.3-0.5,2.3-1.5,3c-0.5,0.3-1.1,0.5-1.6,0.5
		c-1.5,0-2.5-0.8-3-2.5c-0.1-0.4-0.1-0.7-0.1-0.9v-0.2c0-1.4,0.6-2.5,1.8-3.2C209,81.1,209.4,81,209.9,81z M208.2,84.5v0.1
		c0,0.9,0.4,1.5,1.2,1.8l0.5,0.1c0.8,0,1.3-0.5,1.6-1.5v-0.3v-0.3c0-0.9-0.4-1.5-1.2-1.8h-0.4h-0.1c-0.7,0-1.2,0.4-1.5,1.3
		C208.2,84,208.2,84.2,208.2,84.5z"/>
	<path fill="#FFFFFF" d="M214.5,81h0.1c0.3,0,0.5,0.2,0.7,0.6v4.2c0,0.3,0.4,0.5,1.1,0.6h0.3c0.6,0,1.1-0.2,1.4-0.5V82
		c0-0.5,0.2-0.8,0.5-1c0.1,0,0.2-0.1,0.3-0.1l0,0c0.3,0,0.6,0.3,0.7,0.8v5.4l-0.1,0.1h-0.6c-0.7,0.5-1.4,0.8-2.2,0.8
		c-1.2,0-2.2-0.5-2.8-1.4c-0.1-0.3-0.2-0.5-0.2-0.8v-4c0-0.4,0.2-0.6,0.5-0.8H214.5z"/>
	<path fill="#FFFFFF" d="M223.3,81L223.3,81c1.2,0,2,0.4,2.7,1.2c0.2,0.3,0.3,0.6,0.3,1V88l-0.1,0.1h-1.4l-0.1-0.1v-4.8
		c0-0.3-0.4-0.5-1.1-0.7h-0.4c-0.5,0-0.9,0.2-1.2,0.5v4.9l-0.1,0.1h-1.4l-0.1-0.1v-6.1l0.1-0.1h0.6C221.7,81.2,222.4,81,223.3,81z"
		/>
	<path fill="#FFFFFF" d="M232.3,79.1c0.5,0.1,0.8,0.4,0.8,0.7v8.1L233,88h-1.5c0,0-0.1-0.1-0.1-0.3c-0.5,0.2-1,0.3-1.4,0.3
		c-1.4,0-2.3-0.7-2.9-2.1c-0.2-0.4-0.2-0.9-0.2-1.3v-0.2c0-1.3,0.5-2.4,1.6-3.1c0.4-0.3,0.9-0.4,1.5-0.4l0,0c0.4,0,0.9,0.1,1.3,0.2
		V80c0-0.4,0.1-0.7,0.3-0.8C231.9,79.2,232.1,79.2,232.3,79.1z M228.4,84.5v0.1c0,0.9,0.4,1.5,1.1,1.8l0.5,0.1
		c0.7,0,1.1-0.2,1.4-0.5v-2.8c-0.3-0.3-0.7-0.5-1.3-0.5H230c-0.7,0-1.2,0.4-1.5,1.3C228.5,84.1,228.4,84.3,228.4,84.5z"/>
	<path fill="#FFFFFF" d="M236.8,81c1.3,0,2.2,0.5,2.8,1.5c0.1,0.2,0.1,0.4,0.1,0.6V88l-0.1,0.1h-1.4c0,0-0.1-0.1-0.1-0.3
		c-0.5,0.2-1,0.3-1.4,0.3c-1.1,0-1.9-0.4-2.6-1.1c-0.2-0.3-0.3-0.6-0.3-0.9v-0.2c0-0.8,0.5-1.4,1.5-1.7l2.4-0.5
		c0.3-0.1,0.4-0.2,0.4-0.4c-0.1-0.3-0.5-0.5-1.2-0.6h-0.3c-0.7,0.1-1.1,0.2-1.2,0.6l0,0l-1.1-1.1l0,0C234.9,81.3,235.7,81,236.8,81z
		 M235.4,85.9L235.4,85.9c0.3,0.4,0.7,0.6,1.4,0.6c0.6,0,1.1-0.2,1.4-0.5v-0.1v-0.8l-2.4,0.5C235.5,85.6,235.4,85.7,235.4,85.9z"/>
	<path fill="#FFFFFF" d="M240.5,79.1h1.4l0.1,0.1v2.1l0,0c0.5-0.2,0.9-0.2,1.3-0.2h1.6l0,0l-1.6,1.6h-0.1c-0.6,0-1.1,0.2-1.3,0.6
		v2.6c0,0.4,0.4,0.6,1.3,0.7h0.1c0.7,0,1.1-0.2,1.4-0.6h1.5l0.1,0.1c0,0.8-0.6,1.4-1.7,1.9c-0.5,0.1-0.9,0.2-1.3,0.2
		c-1.3,0-2.2-0.5-2.8-1.4c-0.1-0.3-0.2-0.6-0.2-1.1L240.5,79.1L240.5,79.1z"/>
	<path fill="#FFFFFF" d="M247.9,79.3c0.5,0.1,0.8,0.4,0.8,0.7v0.1c0,0.4-0.2,0.6-0.7,0.7h-0.1c-0.5-0.1-0.7-0.3-0.7-0.7v-0.2
		c0-0.3,0.2-0.5,0.6-0.7L247.9,79.3z M247.8,81.2h0.1c0.3,0,0.5,0.2,0.7,0.6V88l-0.1,0.1h-1.4L247,88v-6.1
		C247.1,81.5,247.4,81.3,247.8,81.2z"/>
	<path fill="#FFFFFF" d="M252.6,81c1.5,0,2.5,0.8,3,2.5c0.1,0.4,0.1,0.8,0.1,1c0,1.3-0.5,2.3-1.5,3c-0.5,0.3-1.1,0.5-1.6,0.5
		c-1.5,0-2.5-0.8-3-2.5c-0.1-0.4-0.1-0.7-0.1-0.9v-0.2c0-1.4,0.6-2.5,1.8-3.2C251.7,81.1,252.1,81,252.6,81z M250.9,84.5v0.1
		c0,0.9,0.4,1.5,1.2,1.8l0.5,0.1c0.8,0,1.3-0.5,1.6-1.5v-0.3v-0.3c0-0.9-0.4-1.5-1.2-1.8h-0.4h-0.1c-0.7,0-1.2,0.4-1.5,1.3
		C250.9,84,250.9,84.2,250.9,84.5z"/>
	<path fill="#FFFFFF" d="M259.4,81L259.4,81c1.2,0,2,0.4,2.7,1.2c0.2,0.3,0.3,0.6,0.3,1V88l-0.1,0.1h-1.4l-0.1-0.1v-4.8
		c0-0.3-0.4-0.5-1.1-0.7h-0.4c-0.5,0-0.9,0.2-1.2,0.5v4.9L258,88h-1.4l-0.1-0.1v-6.1l0.1-0.1h0.6C257.7,81.2,258.5,81,259.4,81z"/>
	<path fill="#FFFFFF" d="M269.7,79.1c1,0,1.9,0.3,2.5,1l-1.1,1.1l0,0c-0.1-0.3-0.6-0.5-1.4-0.6l0,0c-0.6,0-1.1,0.2-1.4,0.5v0.1v1.1
		c0.5-0.2,1-0.3,1.4-0.3l0,0v1.5c0,0-0.3,0.1-0.8,0.2c-0.4,0.2-0.7,0.3-0.7,0.5v3.6l-0.1,0.1h-1.4l-0.1-0.1V81
		c0-0.6,0.4-1.2,1.2-1.6C268.6,79.3,269.1,79.1,269.7,79.1z"/>
	<path fill="#FFFFFF" d="M273.4,81c1.5,0,2.5,0.8,3,2.5c0.1,0.4,0.1,0.8,0.1,1c0,1.3-0.5,2.3-1.5,3c-0.5,0.3-1.1,0.5-1.6,0.5
		c-1.5,0-2.5-0.8-3-2.5c-0.1-0.4-0.1-0.7-0.1-0.9v-0.2c0-1.4,0.6-2.5,1.8-3.2C272.5,81.1,273,81,273.4,81z M271.7,84.5v0.1
		c0,0.9,0.4,1.5,1.2,1.8l0.5,0.1c0.8,0,1.3-0.5,1.6-1.5v-0.3v-0.3c0-0.9-0.4-1.5-1.2-1.8h-0.4h-0.1c-0.7,0-1.2,0.4-1.5,1.3
		C271.7,84,271.7,84.2,271.7,84.5z"/>
	<path fill="#FFFFFF" d="M280.2,81L280.2,81c1.1,0,2,0.3,2.6,1l0,0l-1.1,1.1l0,0c0-0.3-0.4-0.5-1.2-0.6H280
		c-0.7,0.1-1.1,0.3-1.2,0.6v4.8l-0.1,0.1h-1.4l-0.1-0.1v-6.1l0.1-0.1h0.6C278.6,81.2,279.3,81,280.2,81z"/>
	<path fill="#FFFFFF" d="M233,90.1c0,0,0.7,1.7,1.9,5.1l1.4,3.6l0,0h-1.6c0,0-0.2-0.6-0.6-1.6c0-0.2-0.1-0.3-0.1-0.3h-3.1
		c-0.4,1.3-0.6,2-0.7,2h-1.6l-0.1-0.1l3.3-8.7H233z M231.5,95.3h1.9l0,0l-0.9-2.4C232.4,92.9,232.1,93.7,231.5,95.3z"/>
	<path fill="#FFFFFF" d="M239.9,91.8h0.1c1.5,0,2.4,0.8,2.9,2.3c0.1,0.4,0.2,0.8,0.2,1.2c0,1.4-0.5,2.4-1.6,3.1
		c-0.5,0.3-1,0.4-1.5,0.4c-0.4,0-0.9-0.1-1.4-0.3v2.4l-0.1,0.1h-1.4l-0.1-0.1V92l0.1-0.1h1.4l0.1,0.1
		C239.1,91.9,239.5,91.8,239.9,91.8z M238.6,94v2.7c0,0.3,0.4,0.5,1.1,0.6h0.3c0.8,0,1.3-0.4,1.6-1.3c0.1-0.2,0.1-0.4,0.1-0.7
		c0-0.9-0.4-1.5-1.1-1.8c-0.2-0.1-0.4-0.1-0.6-0.1h-0.2C239.1,93.4,238.7,93.6,238.6,94z"/>
	<path fill="#FFFFFF" d="M246.7,91.8h0.1c1.5,0,2.4,0.8,2.9,2.3c0.1,0.4,0.2,0.8,0.2,1.2c0,1.4-0.5,2.4-1.6,3.1
		c-0.5,0.3-1,0.4-1.5,0.4c-0.4,0-0.9-0.1-1.4-0.3v2.4l-0.1,0.1h-1.4l-0.1-0.1V92l0.1-0.1h1.4l0.1,0.1
		C245.9,91.9,246.3,91.8,246.7,91.8z M245.4,94v2.7c0,0.3,0.4,0.5,1.1,0.6h0.3c0.8,0,1.3-0.4,1.6-1.3c0.1-0.2,0.1-0.4,0.1-0.7
		c0-0.9-0.4-1.5-1.1-1.8c-0.2-0.1-0.4-0.1-0.6-0.1h-0.2C245.9,93.4,245.5,93.6,245.4,94z"/>
	<path fill="#FFFFFF" d="M253.8,91.8c1.1,0,1.9,0.3,2.5,1l0,0l-1.1,1.1l0,0c-0.1-0.3-0.5-0.5-1.2-0.6h-0.3c-0.7,0.1-1.1,0.3-1.2,0.6
		l0,0c0,0.3,0.8,0.5,2.3,0.7c0.7,0.1,1.1,0.4,1.5,0.7c0.3,0.3,0.4,0.8,0.4,1.3v0.2c0,0.6-0.4,1.1-1.1,1.6c-0.6,0.3-1.2,0.4-1.8,0.4
		c-1.2,0-2-0.4-2.7-1.3c-0.2-0.3-0.3-0.6-0.3-0.8l0,0l0.1-0.1h1.4c0.3,0.4,0.8,0.6,1.4,0.6c0.6,0,1.1-0.2,1.4-0.5v-0.1
		c0-0.3-0.7-0.5-2-0.7c-1.4-0.2-2.1-0.9-2.1-2v-0.1c0-0.9,0.7-1.6,2.1-2C253.3,91.8,253.6,91.8,253.8,91.8z"/>
</g>
</svg>
