<?xml version="1.0" encoding="utf-8"?>
<!-- Generator: Adobe Illustrator 19.1.0, SVG Export Plug-In . SVG Version: 6.00 Build 0)  -->
<!DOCTYPE svg PUBLIC "-//W3C//DTD SVG 1.1//EN" "http://www.w3.org/Graphics/SVG/1.1/DTD/svg11.dtd">
<svg version="1.1" id="Layer_1" xmlns="http://www.w3.org/2000/svg" xmlns:xlink="http://www.w3.org/1999/xlink" x="0px" y="0px"
	 viewBox="0 0 960 917.2" enable-background="new 0 0 960 917.2" xml:space="preserve">
<polygon fill="#808080" points="118.3,275 75,200 161.6,200 "/>
<polygon fill="#808080" points="161.6,182 75,182 118.3,107 "/>
<polygon fill="#808080" points="204.4,205 291,205 247.7,280 "/>
<polygon fill="#808080" points="247.7,110 291,185 204.4,185 "/>
<polygon fill="#808080" points="225.8,103 182.5,178 139.2,103 "/>
<polygon fill="#808080" points="137.2,289 180.5,214 223.8,289 "/>
<g>
	<path fill="#FFFFFF" d="M163.6,116.6h1.4l0.1,0.1v3.5h4.1v-3.5l0.1-0.1h1.5l0.1,0.1v8.6l-0.1,0.1h-1.5l-0.1-0.1v-3.5h-4.1v3.5
		l-0.1,0.1h-1.4l-0.1-0.1L163.6,116.6L163.6,116.6z"/>
	<path fill="#FFFFFF" d="M171.6,116.6h7.1v0l-1.5,1.5h-1.3v7.1l-0.1,0.1h-1.5l-0.1-0.1v-7.1h-1.3L171.6,116.6L171.6,116.6z"/>
	<path fill="#FFFFFF" d="M180.8,116.7c0.1,0,0.3,0.6,0.7,1.7l1.8,4.7h0l2.5-6.4l0,0h1c0.1,0,0.3,0.7,0.9,2.2l2.5,6.4l0,0h-1.6
		l-1-2.6l-1.2-3.1h0c-1.4,3.8-2.2,5.7-2.2,5.7h-1.6c-0.1-0.1-0.8-2-2.2-5.7h0c-1.4,3.7-2.1,5.6-2.2,5.7h-1.6l-0.1-0.1l3.3-8.6H180.8
		z"/>
	<path fill="#FFFFFF" d="M191.1,116.6h1.5l0.1,0.1v7.1h4.8l0.1,0.1v1.5l-0.1,0.1h-6.3l-0.1-0.1L191.1,116.6L191.1,116.6z"/>
</g>
<g>
	<path fill="#FFFFFF" d="M248.3,139.2l2.2,3.7l0,0.1l-7.4,4.4l-0.1,0l-1.3-2.1c-0.7-1.2-0.9-2.3-0.7-3.3c0.3-1.3,1-2.3,2-2.9l0,0
		l0.8,1.3l0,0.1c-0.9,0.5-1.3,1.4-1.4,2.6c0,0.4,0.2,0.9,0.4,1.3l0.6,1.1l4.8-2.9l-0.6-1.1L248.3,139.2L248.3,139.2z"/>
	<path fill="#FFFFFF" d="M251,147c0.7,1.1,0.7,2.2,0.1,3.2c-0.2,0.2-0.3,0.3-0.5,0.4l-4.2,2.5l-0.1,0l-0.7-1.2c0,0,0-0.1,0.2-0.2
		c-0.4-0.3-0.7-0.7-0.9-1.1c-0.5-0.9-0.7-1.8-0.3-2.8c0.2-0.4,0.4-0.6,0.6-0.7l0.2-0.1c0.7-0.4,1.5-0.3,2.2,0.4l1.6,1.8
		c0.2,0.2,0.4,0.2,0.5,0.2c0.2-0.2,0.2-0.7-0.1-1.4l-0.2-0.3c-0.4-0.6-0.8-0.8-1.1-0.8l0,0l0.4-1.5l0,0
		C249.7,145.6,250.4,146.1,251,147z M246.1,148.3L246.1,148.3c-0.2,0.5-0.1,0.9,0.2,1.5c0.3,0.5,0.7,0.8,1.1,0.9l0.1,0l0.7-0.4
		l-1.6-1.8C246.4,148.3,246.2,148.3,246.1,148.3z"/>
	<path fill="#FFFFFF" d="M253.3,150.9c0.2,0.3,0,0.8-0.6,1.3c-1.2,1.4-1.9,2.2-2.3,2.4l-0.8,0.7l0,0c1.3-0.5,2.1-0.9,2.6-0.9
		c1.5-0.4,2.3-0.5,2.5-0.5c0.2,0.1,0.4,0.2,0.5,0.4c0.2,0.3,0.1,0.7-0.2,1l-0.2,0.1l-6.3,1.4l0,0l-0.7-1.2c0-0.1,1-1.2,3-3.4
		l1.2-1.4l0.2-0.1C252.8,150.5,253.1,150.6,253.3,150.9z"/>
	<path fill="#FFFFFF" d="M257.2,157.5c0.7,1.1,0.7,2.2,0.1,3.2c-0.2,0.2-0.3,0.3-0.5,0.4l-4.2,2.5l-0.1,0l-0.7-1.2
		c0,0,0-0.1,0.2-0.2c-0.4-0.3-0.7-0.7-0.9-1.1c-0.5-0.9-0.7-1.8-0.3-2.8c0.2-0.4,0.4-0.6,0.6-0.8l0.2-0.1c0.7-0.4,1.5-0.3,2.2,0.4
		l1.6,1.8c0.2,0.2,0.4,0.2,0.5,0.2c0.2-0.2,0.2-0.7-0.1-1.4l-0.2-0.3c-0.4-0.5-0.8-0.8-1.1-0.8l0,0l0.4-1.5l0,0
		C255.9,156,256.7,156.6,257.2,157.5z M252.3,158.8L252.3,158.8c-0.2,0.5-0.1,0.9,0.2,1.5c0.3,0.5,0.7,0.8,1.1,0.9l0.1,0l0.7-0.4
		l-1.6-1.8C252.6,158.8,252.4,158.7,252.3,158.8z"/>
	<path fill="#FFFFFF" d="M260.7,163.3c0.5,0.9,0.7,1.8,0.4,2.7l0,0l-1.5-0.4l0,0c0.2-0.2,0.2-0.7-0.1-1.3l-0.2-0.3
		c-0.4-0.6-0.8-0.8-1.1-0.7l0,0c-0.2,0.1,0,0.9,0.6,2.3c0.2,0.6,0.3,1.2,0.1,1.6c-0.2,0.4-0.5,0.7-0.9,1l-0.1,0.1
		c-0.5,0.3-1.2,0.3-2-0.2c-0.5-0.3-1-0.8-1.3-1.3c-0.6-1-0.7-2-0.3-2.9c0.2-0.3,0.3-0.5,0.6-0.7l0,0l0.1,0l0.7,1.2
		c-0.2,0.5-0.1,1,0.2,1.5c0.3,0.5,0.7,0.8,1.1,0.9l0.1,0c0.3-0.2,0.1-0.9-0.5-2.1c-0.5-1.3-0.3-2.3,0.6-2.8l0.1,0
		c0.8-0.5,1.7-0.2,2.8,0.7C260.4,162.9,260.6,163.1,260.7,163.3z"/>
	<path fill="#FFFFFF" d="M264,169L264,169c0.6,1,0.7,1.8,0.4,2.7l0,0l-1.5-0.4l0,0c0.2-0.2,0.2-0.7-0.1-1.3l-0.1-0.2
		c-0.4-0.7-1.2-0.9-2.2-0.5l-0.2,0.1l0,0l0,0l-0.2,0.1c-0.6,0.4-0.9,0.9-0.9,1.7c0.1,0.2,0.1,0.4,0.2,0.6c0.4,0.6,0.8,0.9,1.3,0.9
		l0.7,1.2l0,0.1l-0.1,0c-0.5,0.3-1.2,0.2-2-0.2c-0.6-0.3-1-0.8-1.3-1.3c-0.7-1.2-0.6-2.4,0.4-3.6c0.4-0.4,0.7-0.7,1-0.9
		c1.2-0.7,2.3-0.8,3.5-0.2C263.4,168.2,263.8,168.5,264,169z"/>
	<path fill="#FFFFFF" d="M267.4,174.7L267.4,174.7c0.6,1,0.7,1.9,0.4,2.7l0,0l-1.5-0.4l0,0c0.2-0.1,0.2-0.6-0.1-1.3l-0.2-0.3
		c-0.4-0.6-0.8-0.8-1.1-0.7l-4.2,2.5l-0.1,0l-0.7-1.2l0-0.1l5.3-3.2l0.1,0l0.3,0.5C266.4,173.5,267,174,267.4,174.7z"/>
	<path fill="#FFFFFF" d="M269.3,178.3l0.1,0.1c0.2,0.3,0.1,0.6-0.2,0.9l-5.3,3.2l-0.1,0l-0.7-1.2l0-0.1l5.3-3.1
		C268.7,177.8,269,177.9,269.3,178.3z M271,177.4c0.2,0.5,0.1,0.8-0.2,1l-0.1,0.1c-0.3,0.2-0.6,0.1-1-0.3l-0.1-0.1
		c-0.1-0.5-0.1-0.8,0.2-1l0.2-0.1c0.3-0.2,0.6-0.1,0.9,0.2L271,177.4z"/>
	<path fill="#FFFFFF" d="M271.8,182L271.8,182c0.8,1.3,0.6,2.6-0.4,3.8c-0.3,0.3-0.6,0.6-0.9,0.8c-1.2,0.7-2.3,0.8-3.5,0.2
		c-0.5-0.3-0.9-0.6-1.1-1.1c-0.2-0.4-0.4-0.8-0.5-1.3l-2.1,1.2l-0.1,0l-0.7-1.2l0-0.1l7.7-4.6l0.1,0l0.7,1.2l0,0.1
		C271.3,181.4,271.6,181.7,271.8,182z M269.3,182l-2.3,1.4c-0.2,0.1-0.2,0.6,0,1.2l0.1,0.3c0.4,0.6,1,0.9,1.9,0.7
		c0.2,0,0.4-0.1,0.7-0.3c0.7-0.4,1.1-1.1,1-1.9c0-0.2-0.1-0.4-0.2-0.6l-0.1-0.2C270,182.2,269.6,181.9,269.3,182z"/>
	<path fill="#FFFFFF" d="M275.5,184.5l0.7,1.2l0,0.1l-1.8,1.1l0,0c0.4,0.3,0.7,0.7,0.9,1l0.8,1.4l0,0l-2.1-0.5l0-0.1
		c-0.3-0.5-0.7-0.8-1.2-0.8l-2.3,1.3c-0.3,0.2-0.3,0.7,0.1,1.5l0,0.1c0.3,0.6,0.7,0.9,1.2,0.9l0.7,1.3l0,0.1
		c-0.7,0.4-1.5,0.3-2.5-0.5c-0.4-0.4-0.6-0.7-0.8-1c-0.6-1.1-0.7-2.1-0.2-3.1c0.2-0.2,0.5-0.5,0.8-0.7L275.5,184.5L275.5,184.5z"/>
</g>
<g>
	<path fill="#FFFFFF" d="M107.1,158c0.8-1.2,1.8-1.8,2.9-1.9l0,0l0.3,1.6c0,0-0.1,0-0.3,0c-0.7,0.1-1.2,0.5-1.7,1.3
		c-0.5,0.8-0.6,1.5-0.4,2.1l0.1,0.1l0.1,0c0.4,0.3,1.2-0.3,2.4-1.7c0.5-0.6,1-0.9,1.5-1.2c0.7-0.3,1.4-0.2,2.1,0.3
		c0.9,0.6,1.2,1.7,0.8,3.2c-0.2,0.5-0.4,0.9-0.6,1.3c-0.7,1-1.5,1.6-2.6,1.9c-0.6,0.1-1.1,0-1.5-0.3l0,0l0.8-1.2c0,0,0.1,0,0.3,0.1
		c0.7-0.1,1.2-0.5,1.7-1.3c0.5-0.7,0.6-1.3,0.5-2c0-0.1-0.1-0.2-0.2-0.2l-0.1-0.1c-0.4-0.3-1.2,0.2-2.2,1.5
		c-0.6,0.6-1.1,1.1-1.5,1.2c-0.8,0.4-1.5,0.3-2.2-0.2c-0.8-0.5-1.1-1.5-0.9-2.8C106.6,159,106.8,158.5,107.1,158z"/>
	<path fill="#FFFFFF" d="M109.1,155.3l0.9-1.3c0.1,0,0.8,0.1,2.1,0.4c2.5,0.5,3.7,0.8,3.8,0.9l0,0c-1.8-2.5-3-4.2-3.5-5l0.9-1.3l0,0
		l0,0l5.4,7.5l-0.6,0.8c-0.1,0-0.9-0.1-2.2-0.5L109.1,155.3L109.1,155.3z"/>
	<path fill="#FFFFFF" d="M115.4,145.4l1.3-2l0.1,0l0.4,2.1l-0.6,1c-0.7,1.1-0.7,2.1,0,3.3c0.2,0.3,0.5,0.6,0.8,0.8
		c0.8,0.5,1.8,0.6,2.8,0.1c0.4-0.2,0.7-0.5,1-0.9l0.8-1.2l-1.7-1.1l-1.1,1.7l-0.1,0l-1.2-0.8l0-0.1l1.9-2.9l0.1,0l4.2,2.8l0,0.1
		l-1.3,2c-0.8,1.1-1.6,1.8-2.5,2c-0.5,0.2-1.1,0.3-1.6,0.2c-0.9-0.1-1.6-0.3-2.2-0.7c-1.2-0.8-1.9-2-2-3.6
		C114.5,147.3,114.8,146.4,115.4,145.4z"/>
</g>
<g>
	<path fill="#333333" d="M162.8,186.1l1.6,4.1l1.8,4.9h0c0-0.2,1.2-3.2,3.4-9h2.5c0.1,0.1,1.1,2.7,3,7.6l0.6,1.3
		c2.2-5.9,3.4-8.8,3.5-8.9h2.5l0,0h0l-5.2,13.6H175c-0.1-0.1-1.4-3.5-3.9-10.2c0,0-1.3,3.3-3.9,9.9c-0.1,0.2-0.1,0.2-0.2,0.2h-1.6
		c-0.1,0-1.8-4.5-5.2-13.6l0,0H162.8z"/>
	<path fill="#333333" d="M185.5,188.7c1.8,0,3.2,0.7,4.2,2c0.3,0.5,0.4,1,0.4,1.4c0,1.5-0.7,2.5-2.1,3c-0.8,0.2-2,0.4-3.6,0.7
		c-0.7,0.2-1,0.4-1,0.6c0.6,0.7,1.3,1.1,2.1,1.1c1.1,0,1.8-0.3,2.3-0.9h2.3l0,0h0c0,1.3-0.9,2.3-2.6,3c-0.5,0.2-1.2,0.3-2,0.3
		c-2.3,0-3.8-1.2-4.7-3.7c-0.2-0.6-0.2-1.2-0.2-1.8v-0.2c0-2.2,0.9-3.9,2.8-5C184.1,188.8,184.8,188.7,185.5,188.7z M182.9,193.5
		c0.7-0.2,1.9-0.4,3.5-0.7c0.8-0.2,1.2-0.5,1.2-0.7V192c-0.4-0.5-1.1-0.8-2.1-0.8h-0.2c-1.1,0-1.9,0.7-2.3,2L182.9,193.5
		L182.9,193.5z"/>
	<path fill="#333333" d="M192.5,185.7c0.8,0.2,1.2,0.5,1.2,1.1v2.2h0c0.7-0.2,1.4-0.4,2.1-0.4h0c2.3,0,3.9,1.2,4.7,3.7
		c0.2,0.6,0.2,1.1,0.2,1.8v0.2c0,2-0.8,3.6-2.3,4.7c-0.8,0.5-1.7,0.7-2.5,0.7c-1-0.1-1.8-0.2-2.2-0.4v0.3l-0.1,0.1h-2.3l-0.1-0.1
		V187c0-0.6,0.3-1,1-1.2L192.5,185.7z M193.7,192.2v3.9c0,0.4,0.3,0.7,0.8,0.9c0.4,0.2,0.9,0.3,1.5,0.3c1.2,0,2.1-0.7,2.5-2.2
		l0.1-0.8v-0.1c0-1.5-0.7-2.5-2.1-3l-0.5,0h-0.3c-0.9,0-1.6,0.3-2,0.8L193.7,192.2z"/>
</g>
</svg>
